<?xml version="1.0" encoding="UTF-8"?>
<svg width="595.281pt" version="1.1" xmlns="http://www.w3.org/2000/svg" height="411.024pt" viewBox="0 0 595.281 411.024" xmlns:xlink="http://www.w3.org/1999/xlink">
 <defs>
  <path id="GlSalaryman84" d="M8.49 2.72 L0.49 2.72 C0.49 2.72 0.21 2.72 0.21 3 C0.21 3 0.21 3.28 0.49 3.28 L4.21 3.28 L4.21 9 C4.21 9 4.21 9.28 4.49 9.28 C4.49 9.28 4.77 9.28 4.77 9 L4.77 3.28 L8.49 3.28 C8.49 3.28 8.77 3.28 8.77 3 C8.77 3 8.77 2.72 8.49 2.72 Z"/>
  <path id="GlSalaryman82" d="M8.85 8.77 L6.61 7.28 L6.69 7.28 C6.69 7.28 7.64 7.28 8.305 6.61 C8.305 6.61 8.97 5.94 8.97 5 C8.97 5 8.97 4.05 8.305 3.385 C8.305 3.385 7.64 2.72 6.69 2.72 L0.41 2.72 L0.41 9 C0.41 9 0.41 9.28 0.69 9.28 C0.69 9.28 0.97 9.28 0.97 9 L0.97 7.28 L5.61 7.28 L8.54 9.23 C8.54 9.23 8.61 9.28 8.69 9.28 C8.69 9.28 8.84 9.28 8.92 9.15 C8.92 9.15 8.97 9.08 8.97 9 C8.97 9 8.97 8.85 8.85 8.77 L8.85 8.77 Z M0.97 3.28 L6.69 3.28 C6.69 3.28 7.4 3.28 7.905 3.785 C7.905 3.785 8.41 4.29 8.41 5 C8.41 5 8.41 5.71 7.905 6.215 C7.905 6.215 7.4 6.72 6.69 6.72 L0.97 6.72 L0.97 3.28 Z"/>
  <path id="GlSalaryman69" d="M8.64 6.28 C8.64 6.28 8.92 6.28 8.92 6 C8.92 6 8.92 5.72 8.64 5.72 L0.92 5.72 L0.92 3.28 L8.64 3.28 C8.64 3.28 8.92 3.28 8.92 3 C8.92 3 8.92 2.72 8.64 2.72 L0.36 2.72 L0.36 9.28 L8.64 9.28 C8.64 9.28 8.92 9.28 8.92 9 C8.92 9 8.92 8.72 8.64 8.72 L0.92 8.72 L0.92 6.28 L8.64 6.28 Z"/>
  <path id="GlSalaryman78" d="M8.59 2.78 C8.59 2.78 8.31 2.78 8.31 3.06 L8.31 8.5 L0.31 2.5 L0.31 9.06 C0.31 9.06 0.31 9.33 0.59 9.33 C0.59 9.33 0.87 9.33 0.87 9.06 L0.87 3.61 L8.87 9.61 L8.87 3.06 C8.87 3.06 8.87 2.78 8.59 2.78 Z"/>
  <path id="GlSalaryman68" d="M6.79 2.91 C6.79 2.91 6.25 2.72 5.7 2.72 L0.42 2.72 L0.42 9.28 L5.7 9.28 C5.7 9.28 6.25 9.28 6.79 9.09 C6.79 9.09 7.77 8.75 8.375 7.895 C8.375 7.895 8.98 7.04 8.98 6 C8.98 6 8.98 4.96 8.375 4.105 C8.375 4.105 7.77 3.25 6.79 2.91 L6.79 2.91 Z M6.61 8.57 C6.61 8.57 6.19 8.72 5.7 8.72 L0.98 8.72 L0.98 3.28 L5.7 3.28 C5.7 3.28 6.19 3.28 6.61 3.43 C6.61 3.43 7.42 3.72 7.92 4.43 C7.92 4.43 8.42 5.14 8.42 6 C8.42 6 8.42 6.86 7.92 7.57 C7.92 7.57 7.42 8.28 6.61 8.57 Z"/>
  <path id="GlGputeks-Regular104" d="M1.25 2.085 L1.25 4.165 C1.25 4.165 1.25 4.165 3.335 4.165 C3.335 4.165 4.26766 4.165 4.84125 4.57031 C4.84125 4.57031 5.415 4.97562 5.415 5.66891 L5.415 10 L4.585 10 L4.585 5.89359 C4.585 5.89359 4.585 5.76172 4.58 5.66656 C4.58 5.66656 4.57516 5.57125 4.54828 5.42484 C4.54828 5.42484 4.52156 5.27828 4.47266 5.17328 C4.47266 5.17328 4.42391 5.06828 4.33109 4.94875 C4.33109 4.94875 4.23828 4.82906 4.11125 4.75594 C4.11125 4.75594 3.98438 4.68266 3.78422 4.63391 C3.78422 4.63391 3.58406 4.585 3.335 4.585 L1.25 4.585 L1.25 10 L0.415 10 L0.415 2.085 L1.25 2.085 Z"/>
  <path id="GlGputeks-Regular116" d="M1.665 2.085 L1.665 4.165 L3.335 4.165 L3.335 4.585 L1.665 4.585 L1.665 8.27141 C1.665 8.27141 1.665 8.40328 1.66984 8.50094 C1.66984 8.50094 1.67484 8.59859 1.70172 8.74516 C1.70172 8.74516 1.72859 8.89156 1.77734 8.99656 C1.77734 8.99656 1.82625 9.10156 1.91891 9.21875 C1.91891 9.21875 2.01172 9.33594 2.13859 9.41172 C2.13859 9.41172 2.26562 9.48734 2.46578 9.53625 C2.46578 9.53625 2.66609 9.585 2.915 9.585 L3.335 9.585 L3.335 10 L2.915 10 C2.915 10 1.9825 10 1.40875 9.59719 C1.40875 9.59719 0.835 9.19438 0.835 8.50094 L0.835 4.585 L0 4.585 L0 4.165 L0.835 4.165 L0.835 2.085 L1.665 2.085 Z"/>
  <path id="GlGputeks-Regular112" d="M1.25 9.585 L3.335 9.585 C3.335 9.585 3.58406 9.585 3.78422 9.53625 C3.78422 9.53625 3.98438 9.48734 4.11125 9.41172 C4.11125 9.41172 4.23828 9.33594 4.33109 9.21875 C4.33109 9.21875 4.42391 9.10156 4.47266 8.99656 C4.47266 8.99656 4.52156 8.89156 4.54828 8.74516 C4.54828 8.74516 4.57516 8.59859 4.58 8.50094 C4.58 8.50094 4.585 8.40328 4.585 8.27141 L4.585 5.89359 C4.585 5.89359 4.585 5.76172 4.58 5.66656 C4.58 5.66656 4.57516 5.57125 4.54828 5.42484 C4.54828 5.42484 4.52156 5.27828 4.47266 5.17328 C4.47266 5.17328 4.42391 5.06828 4.33109 4.94875 C4.33109 4.94875 4.23828 4.82906 4.11125 4.75594 C4.11125 4.75594 3.98438 4.68266 3.78422 4.63391 C3.78422 4.63391 3.58406 4.585 3.335 4.585 L2.085 4.585 C2.085 4.585 1.94344 4.585 1.8725 4.5875 C1.8725 4.5875 1.80172 4.58984 1.68453 4.59969 C1.68453 4.59969 1.56734 4.60938 1.50625 4.63625 C1.50625 4.63625 1.44531 4.66312 1.37688 4.70703 C1.37688 4.70703 1.30859 4.75094 1.27922 4.82422 C1.27922 4.82422 1.25 4.8975 1.25 5 L1.25 9.585 L1.25 9.585 Z M0.415 4.165 L3.335 4.165 C3.335 4.165 4.26766 4.165 4.84125 4.57031 C4.84125 4.57031 5.415 4.97562 5.415 5.66891 L5.415 8.50094 C5.415 8.50094 5.415 9.19438 4.84125 9.59719 C4.84125 9.59719 4.26766 10 3.335 10 L1.25 10 L1.25 12.085 L0.415 12.085 L0.415 4.165 Z"/>
  <path id="GlGputeks-Regular58" d="M1.255 9.365 L1.255 9.78 C1.255 9.78 1.255 9.86797 1.24281 9.90219 C1.24281 9.90219 1.23063 9.93625 1.16219 9.96312 C1.16219 9.96312 1.09391 9.99 0.9425 9.99 L0.7375 9.99 C0.7375 9.99 0.532344 9.99 0.478594 9.94609 C0.478594 9.94609 0.425 9.90203 0.425 9.78 L0.425 9.365 C0.425 9.365 0.425 9.31125 0.429844 9.28688 C0.429844 9.28688 0.434688 9.2625 0.461562 9.22594 C0.461562 9.22594 0.488438 9.18922 0.556719 9.17219 C0.556719 9.17219 0.625156 9.155 0.7375 9.155 L0.9425 9.155 C0.9425 9.155 1.08906 9.155 1.15984 9.18437 C1.15984 9.18437 1.23063 9.21359 1.24281 9.25031 C1.24281 9.25031 1.255 9.28688 1.255 9.365 L1.255 9.365 Z M1.255 4.375 L1.255 4.79 C1.255 4.79 1.255 4.87797 1.24281 4.91219 C1.24281 4.91219 1.23063 4.94625 1.16219 4.97312 C1.16219 4.97312 1.09391 5 0.9425 5 L0.7375 5 C0.7375 5 0.532344 5 0.478594 4.95609 C0.478594 4.95609 0.425 4.91203 0.425 4.79 L0.425 4.375 C0.425 4.375 0.425 4.32125 0.429844 4.29688 C0.429844 4.29688 0.434688 4.2725 0.461562 4.23594 C0.461562 4.23594 0.488438 4.19922 0.556719 4.18219 C0.556719 4.18219 0.625156 4.165 0.7375 4.165 L0.9425 4.165 C0.9425 4.165 1.08906 4.165 1.15984 4.19437 C1.15984 4.19437 1.23063 4.22359 1.24281 4.26031 C1.24281 4.26031 1.255 4.29688 1.255 4.375 Z"/>
  <path id="GlGputeks-Regular47" d="M4.8975 2.085 L0.9375 10 L0.415 10 L4.375 2.085 L4.8975 2.085 Z"/>
  <path id="GlGputeks-Regular114" d="M2.915 4.165 L2.915 4.585 L2.5 4.585 C2.5 4.585 2.25094 4.585 2.05078 4.63391 C2.05078 4.63391 1.85062 4.68266 1.72359 4.75594 C1.72359 4.75594 1.59672 4.82906 1.50391 4.94875 C1.50391 4.94875 1.41109 5.06828 1.36219 5.17328 C1.36219 5.17328 1.31344 5.27828 1.28656 5.42484 C1.28656 5.42484 1.25984 5.57125 1.25484 5.66656 C1.25484 5.66656 1.25 5.76172 1.25 5.89359 L1.25 10 L0.415 10 L0.415 4.165 L2.915 4.165 Z"/>
  <path id="GlGputeks-Regular101" d="M5.415 6.875 L1.25 6.875 L1.25 8.27141 C1.25 8.27141 1.25 8.40328 1.25484 8.50094 C1.25484 8.50094 1.25984 8.59859 1.28656 8.74516 C1.28656 8.74516 1.31344 8.89156 1.36219 8.99656 C1.36219 8.99656 1.41109 9.10156 1.50391 9.21875 C1.50391 9.21875 1.59672 9.33594 1.72359 9.41172 C1.72359 9.41172 1.85062 9.48734 2.05078 9.53625 C2.05078 9.53625 2.25094 9.585 2.5 9.585 L5.21 9.585 L5.21 10 L2.5 10 C2.5 10 1.5625 10 0.98875 9.59719 C0.98875 9.59719 0.415 9.19438 0.415 8.50094 L0.415 5.66891 C0.415 5.66891 0.415 4.97562 0.98875 4.57031 C0.98875 4.57031 1.5625 4.165 2.5 4.165 L3.335 4.165 C3.335 4.165 4.26766 4.165 4.84125 4.57031 C4.84125 4.57031 5.415 4.97562 5.415 5.66891 L5.415 6.875 L5.415 6.875 Z M1.25 6.46 L4.585 6.46 L4.585 5.89359 C4.585 5.89359 4.585 5.76172 4.58 5.66656 C4.58 5.66656 4.57516 5.57125 4.54828 5.42484 C4.54828 5.42484 4.52156 5.27828 4.47266 5.17328 C4.47266 5.17328 4.42391 5.06828 4.33109 4.94875 C4.33109 4.94875 4.23828 4.82906 4.11125 4.75594 C4.11125 4.75594 3.98438 4.68266 3.78422 4.63391 C3.78422 4.63391 3.58406 4.585 3.335 4.585 L2.5 4.585 C2.5 4.585 2.25094 4.585 2.05078 4.63391 C2.05078 4.63391 1.85062 4.68266 1.72359 4.75594 C1.72359 4.75594 1.59672 4.82906 1.50391 4.94875 C1.50391 4.94875 1.41109 5.06828 1.36219 5.17328 C1.36219 5.17328 1.31344 5.27828 1.28656 5.42484 C1.28656 5.42484 1.25984 5.57125 1.25484 5.66656 C1.25484 5.66656 1.25 5.76172 1.25 5.89359 L1.25 6.46 Z"/>
  <path id="GlGputeks-Regular110" d="M0.415 4.165 L3.335 4.165 C3.335 4.165 4.26766 4.165 4.84125 4.57031 C4.84125 4.57031 5.415 4.97562 5.415 5.66891 L5.415 10 L4.585 10 L4.585 5.89359 C4.585 5.89359 4.585 5.76172 4.58 5.66656 C4.58 5.66656 4.57516 5.57125 4.54828 5.42484 C4.54828 5.42484 4.52156 5.27828 4.47266 5.17328 C4.47266 5.17328 4.42391 5.06828 4.33109 4.94875 C4.33109 4.94875 4.23828 4.82906 4.11125 4.75594 C4.11125 4.75594 3.98438 4.68266 3.78422 4.63391 C3.78422 4.63391 3.58406 4.585 3.335 4.585 L2.085 4.585 C2.085 4.585 1.94344 4.585 1.8725 4.5875 C1.8725 4.5875 1.80172 4.58984 1.68453 4.59969 C1.68453 4.59969 1.56734 4.60938 1.50625 4.63625 C1.50625 4.63625 1.44531 4.66312 1.37688 4.70703 C1.37688 4.70703 1.30859 4.75094 1.27922 4.82422 C1.27922 4.82422 1.25 4.8975 1.25 5 L1.25 10 L0.415 10 L0.415 4.165 Z"/>
  <path id="GlGputeks-Regular100" d="M5.415 2.085 L5.415 10 L2.5 10 C2.5 10 1.5625 10 0.98875 9.59719 C0.98875 9.59719 0.415 9.19438 0.415 8.50094 L0.415 5.66891 C0.415 5.66891 0.415 4.97562 0.98875 4.57031 C0.98875 4.57031 1.5625 4.165 2.5 4.165 L4.585 4.165 L4.585 2.085 L5.415 2.085 L5.415 2.085 Z M4.585 4.585 L2.5 4.585 C2.5 4.585 2.25094 4.585 2.05078 4.63391 C2.05078 4.63391 1.85062 4.68266 1.72359 4.75594 C1.72359 4.75594 1.59672 4.82906 1.50391 4.94875 C1.50391 4.94875 1.41109 5.06828 1.36219 5.17328 C1.36219 5.17328 1.31344 5.27828 1.28656 5.42484 C1.28656 5.42484 1.25984 5.57125 1.25484 5.66656 C1.25484 5.66656 1.25 5.76172 1.25 5.89359 L1.25 8.27141 C1.25 8.27141 1.25 8.40328 1.25484 8.50094 C1.25484 8.50094 1.25984 8.59859 1.28656 8.74516 C1.28656 8.74516 1.31344 8.89156 1.36219 8.99656 C1.36219 8.99656 1.41109 9.10156 1.50391 9.21875 C1.50391 9.21875 1.59672 9.33594 1.72359 9.41172 C1.72359 9.41172 1.85062 9.48734 2.05078 9.53625 C2.05078 9.53625 2.25094 9.585 2.5 9.585 L3.335 9.585 C3.335 9.585 3.58406 9.585 3.78422 9.53625 C3.78422 9.53625 3.98438 9.48734 4.11125 9.41172 C4.11125 9.41172 4.23828 9.33594 4.33109 9.21875 C4.33109 9.21875 4.42391 9.10156 4.47266 8.99656 C4.47266 8.99656 4.52156 8.89156 4.54828 8.74516 C4.54828 8.74516 4.57516 8.59859 4.58 8.50094 C4.58 8.50094 4.585 8.40328 4.585 8.27141 L4.585 4.585 Z"/>
  <path id="GlGputeks-Regular46" d="M1.665 9.375 L1.665 9.79 C1.665 9.79 1.665 9.87797 1.65281 9.91219 C1.65281 9.91219 1.64062 9.94625 1.57219 9.97312 C1.57219 9.97312 1.50391 10 1.3525 10 L1.1475 10 C1.1475 10 0.942344 10 0.888594 9.95609 C0.888594 9.95609 0.835 9.91203 0.835 9.79 L0.835 9.375 C0.835 9.375 0.835 9.32125 0.839844 9.29688 C0.839844 9.29688 0.844688 9.2725 0.871563 9.23594 C0.871563 9.23594 0.898438 9.19922 0.966719 9.18219 C0.966719 9.18219 1.03516 9.165 1.1475 9.165 L1.3525 9.165 C1.3525 9.165 1.49906 9.165 1.56984 9.19438 C1.56984 9.19438 1.64062 9.22359 1.65281 9.26031 C1.65281 9.26031 1.665 9.29688 1.665 9.375 Z"/>
  <path id="GlGputeks-Regular102" d="M3.335 2.085 L3.335 2.5 L2.5 2.5 C2.5 2.5 2.25094 2.5 2.05078 2.54891 C2.05078 2.54891 1.85062 2.59766 1.72359 2.67344 C1.72359 2.67344 1.59672 2.74906 1.50391 2.86625 C1.50391 2.86625 1.41109 2.98344 1.36219 3.08844 C1.36219 3.08844 1.31344 3.19328 1.28656 3.33984 C1.28656 3.33984 1.25984 3.48625 1.25484 3.58391 C1.25484 3.58391 1.25 3.68156 1.25 3.81344 L1.25 4.165 L2.5 4.165 L2.5 4.585 L1.25 4.585 L1.25 12.085 L0.415 12.085 L0.415 4.585 L0 4.585 L0 4.165 L0.415 4.165 L0.415 3.58391 C0.415 3.58391 0.415 2.89062 0.98875 2.48781 C0.98875 2.48781 1.5625 2.085 2.5 2.085 L3.335 2.085 Z"/>
  <path id="GlGputeks-Regular97" d="M1.25 4.585 L1.25 4.165 L3.335 4.165 C3.335 4.165 4.26766 4.165 4.84125 4.57031 C4.84125 4.57031 5.415 4.97562 5.415 5.66891 L5.415 10 L2.5 10 C2.5 10 1.5625 10 0.98875 9.59719 C0.98875 9.59719 0.415 9.19438 0.415 8.50094 L0.415 7.74906 C0.415 7.74906 0.415 7.05563 0.98875 6.65281 C0.98875 6.65281 1.5625 6.25 2.5 6.25 L4.585 6.25 L4.585 5.89359 C4.585 5.89359 4.585 5.76172 4.58 5.66656 C4.58 5.66656 4.57516 5.57125 4.54828 5.42484 C4.54828 5.42484 4.52156 5.27828 4.47266 5.17328 C4.47266 5.17328 4.42391 5.06828 4.33109 4.94875 C4.33109 4.94875 4.23828 4.82906 4.11125 4.75594 C4.11125 4.75594 3.98438 4.68266 3.78422 4.63391 C3.78422 4.63391 3.58406 4.585 3.335 4.585 L1.25 4.585 L1.25 4.585 Z M4.585 9.585 L4.585 6.665 L2.5 6.665 C2.5 6.665 2.25094 6.665 2.05078 6.71391 C2.05078 6.71391 1.85062 6.76266 1.72359 6.83844 C1.72359 6.83844 1.59672 6.91406 1.50391 7.03125 C1.50391 7.03125 1.41109 7.14844 1.36219 7.25344 C1.36219 7.25344 1.31344 7.35844 1.28656 7.505 C1.28656 7.505 1.25984 7.65141 1.25484 7.74906 C1.25484 7.74906 1.25 7.84672 1.25 7.97844 L1.25 8.27141 C1.25 8.27141 1.25 8.40328 1.25484 8.50094 C1.25484 8.50094 1.25984 8.59859 1.28656 8.74516 C1.28656 8.74516 1.31344 8.89156 1.36219 8.99656 C1.36219 8.99656 1.41109 9.10156 1.50391 9.21875 C1.50391 9.21875 1.59672 9.33594 1.72359 9.41172 C1.72359 9.41172 1.85062 9.48734 2.05078 9.53625 C2.05078 9.53625 2.25094 9.585 2.5 9.585 L4.585 9.585 Z"/>
  <path id="GlGputeks-Regular98" d="M1.25 4.585 C1.25 4.585 1.25 4.585 1.25 8.27141 C1.25 8.27141 1.25 8.40328 1.25484 8.50094 C1.25484 8.50094 1.25984 8.59859 1.28656 8.74516 C1.28656 8.74516 1.31344 8.89156 1.36219 8.99656 C1.36219 8.99656 1.41109 9.10156 1.50391 9.21875 C1.50391 9.21875 1.59672 9.33594 1.72359 9.41172 C1.72359 9.41172 1.85062 9.48734 2.05078 9.53625 C2.05078 9.53625 2.25094 9.585 2.5 9.585 L3.335 9.585 C3.335 9.585 3.58406 9.585 3.78422 9.53625 C3.78422 9.53625 3.98438 9.48734 4.11125 9.41172 C4.11125 9.41172 4.23828 9.33594 4.33109 9.21875 C4.33109 9.21875 4.42391 9.10156 4.47266 8.99656 C4.47266 8.99656 4.52156 8.89156 4.54828 8.74516 C4.54828 8.74516 4.57516 8.59859 4.58 8.50094 C4.58 8.50094 4.585 8.40328 4.585 8.27141 L4.585 5.89359 C4.585 5.89359 4.585 5.76172 4.58 5.66656 C4.58 5.66656 4.57516 5.57125 4.54828 5.42484 C4.54828 5.42484 4.52156 5.27828 4.47266 5.17328 C4.47266 5.17328 4.42391 5.06828 4.33109 4.94875 C4.33109 4.94875 4.23828 4.82906 4.11125 4.75594 C4.11125 4.75594 3.98438 4.68266 3.78422 4.63391 C3.78422 4.63391 3.58406 4.585 3.335 4.585 L1.25 4.585 L1.25 4.585 Z M1.25 2.085 L1.25 4.165 L2.085 4.165 L3.335 4.165 C3.335 4.165 4.26766 4.165 4.84125 4.57031 C4.84125 4.57031 5.415 4.97562 5.415 5.66891 L5.415 8.50094 C5.415 8.50094 5.415 9.19438 4.84125 9.59719 C4.84125 9.59719 4.26766 10 3.335 10 L2.5 10 C2.5 10 1.5625 10 0.98875 9.59719 C0.98875 9.59719 0.415 9.19438 0.415 8.50094 L0.415 2.085 L1.25 2.085 Z"/>
  <path id="GlGputeks-Regular108" d="M1.25 2.085 L1.25 8.27141 C1.25 8.27141 1.25 8.40328 1.25484 8.50094 C1.25484 8.50094 1.25984 8.59859 1.28656 8.74516 C1.28656 8.74516 1.31344 8.89156 1.36219 8.99656 C1.36219 8.99656 1.41109 9.10156 1.50391 9.21875 C1.50391 9.21875 1.59672 9.33594 1.72359 9.41172 C1.72359 9.41172 1.85062 9.48734 2.05078 9.53625 C2.05078 9.53625 2.25094 9.585 2.5 9.585 L2.915 9.585 L2.915 10 L2.5 10 C2.5 10 1.5625 10 0.98875 9.59719 C0.98875 9.59719 0.415 9.19438 0.415 8.50094 L0.415 2.085 L1.25 2.085 Z"/>
  <path id="GlGputeks-Regular45" d="M5.835 5.415 L5.835 5.835 L0.415 5.835 L0.415 5.415 L5.835 5.415 Z"/>
  <path id="GlGputeks-Regular105" d="M1.25 2.29 L1.25 2.71 C1.25 2.71 1.25 2.79781 1.23781 2.83203 C1.23781 2.83203 1.22562 2.86625 1.15719 2.89062 C1.15719 2.89062 1.08891 2.915 0.9375 2.915 L0.7275 2.915 C0.7275 2.915 0.5225 2.915 0.46875 2.87359 C0.46875 2.87359 0.415 2.83203 0.415 2.71 L0.415 2.29 C0.415 2.29 0.415 2.23625 0.419844 2.21188 C0.419844 2.21188 0.424844 2.1875 0.451719 2.15094 C0.451719 2.15094 0.478594 2.11422 0.546875 2.09969 C0.546875 2.09969 0.615313 2.085 0.7275 2.085 L0.9375 2.085 C0.9375 2.085 1.08406 2.085 1.15484 2.11437 C1.15484 2.11437 1.22562 2.14359 1.23781 2.17781 C1.23781 2.17781 1.25 2.21188 1.25 2.29 L1.25 2.29 Z M1.25 4.165 L1.25 8.27141 C1.25 8.27141 1.25 8.40328 1.25484 8.50094 C1.25484 8.50094 1.25984 8.59859 1.28656 8.74516 C1.28656 8.74516 1.31344 8.89156 1.36219 8.99656 C1.36219 8.99656 1.41109 9.10156 1.50391 9.21875 C1.50391 9.21875 1.59672 9.33594 1.72359 9.41172 C1.72359 9.41172 1.85062 9.48734 2.05078 9.53625 C2.05078 9.53625 2.25094 9.585 2.5 9.585 L2.915 9.585 L2.915 10 L2.5 10 C2.5 10 1.5625 10 0.98875 9.59719 C0.98875 9.59719 0.415 9.19438 0.415 8.50094 L0.415 4.165 L1.25 4.165 Z"/>
  <path id="GlGputeks-Regular111" d="M3.335 4.165 C3.335 4.165 4.26766 4.165 4.84125 4.57031 C4.84125 4.57031 5.415 4.97562 5.415 5.66891 L5.415 8.50094 C5.415 8.50094 5.415 9.19438 4.84125 9.59719 C4.84125 9.59719 4.26766 10 3.335 10 L2.5 10 C2.5 10 1.5625 10 0.98875 9.59719 C0.98875 9.59719 0.415 9.19438 0.415 8.50094 L0.415 5.66891 C0.415 5.66891 0.415 4.97562 0.98875 4.57031 C0.98875 4.57031 1.5625 4.165 2.5 4.165 L3.335 4.165 L3.335 4.165 Z M3.335 4.585 L2.5 4.585 C2.5 4.585 2.25094 4.585 2.05078 4.63391 C2.05078 4.63391 1.85062 4.68266 1.72359 4.75594 C1.72359 4.75594 1.59672 4.82906 1.50391 4.94875 C1.50391 4.94875 1.41109 5.06828 1.36219 5.17328 C1.36219 5.17328 1.31344 5.27828 1.28656 5.42484 C1.28656 5.42484 1.25984 5.57125 1.25484 5.66656 C1.25484 5.66656 1.25 5.76172 1.25 5.89359 L1.25 8.27141 C1.25 8.27141 1.25 8.40328 1.25484 8.50094 C1.25484 8.50094 1.25984 8.59859 1.28656 8.74516 C1.28656 8.74516 1.31344 8.89156 1.36219 8.99656 C1.36219 8.99656 1.41109 9.10156 1.50391 9.21875 C1.50391 9.21875 1.59672 9.33594 1.72359 9.41172 C1.72359 9.41172 1.85062 9.48734 2.05078 9.53625 C2.05078 9.53625 2.25094 9.585 2.5 9.585 L3.335 9.585 C3.335 9.585 3.58406 9.585 3.78422 9.53625 C3.78422 9.53625 3.98438 9.48734 4.11125 9.41172 C4.11125 9.41172 4.23828 9.33594 4.33109 9.21875 C4.33109 9.21875 4.42391 9.10156 4.47266 8.99656 C4.47266 8.99656 4.52156 8.89156 4.54828 8.74516 C4.54828 8.74516 4.57516 8.59859 4.58 8.50094 C4.58 8.50094 4.585 8.40328 4.585 8.27141 L4.585 5.89359 C4.585 5.89359 4.585 5.76172 4.58 5.66656 C4.58 5.66656 4.57516 5.57125 4.54828 5.42484 C4.54828 5.42484 4.52156 5.27828 4.47266 5.17328 C4.47266 5.17328 4.42391 5.06828 4.33109 4.94875 C4.33109 4.94875 4.23828 4.82906 4.11125 4.75594 C4.11125 4.75594 3.98438 4.68266 3.78422 4.63391 C3.78422 4.63391 3.58406 4.585 3.335 4.585 Z"/>
  <path id="GlGputeks-Regular103" d="M3.335 4.165 C3.335 4.165 4.26766 4.165 4.84125 4.57031 C4.84125 4.57031 5.415 4.97562 5.415 5.66891 L5.415 10.5811 C5.415 10.5811 5.415 11.2744 4.84125 11.6797 C4.84125 11.6797 4.26766 12.085 3.335 12.085 L0.625 12.085 L0.625 11.665 L3.335 11.665 C3.335 11.665 3.58406 11.665 3.78422 11.6161 C3.78422 11.6161 3.98438 11.5673 4.11125 11.4941 C4.11125 11.4941 4.23828 11.4209 4.33109 11.3012 C4.33109 11.3012 4.42391 11.1817 4.47266 11.0767 C4.47266 11.0767 4.52156 10.9717 4.54828 10.8252 C4.54828 10.8252 4.57516 10.6788 4.58 10.5834 C4.58 10.5834 4.585 10.4883 4.585 10.3564 L4.585 10 L2.5 10 C2.5 10 1.5625 10 0.98875 9.59719 C0.98875 9.59719 0.415 9.19438 0.415 8.50094 L0.415 5.66891 C0.415 5.66891 0.415 4.97562 0.98875 4.57031 C0.98875 4.57031 1.5625 4.165 2.5 4.165 L3.335 4.165 L3.335 4.165 Z M2.5 4.585 C2.5 4.585 2.25094 4.585 2.05078 4.63391 C2.05078 4.63391 1.85062 4.68266 1.72359 4.75594 C1.72359 4.75594 1.59672 4.82906 1.50391 4.94875 C1.50391 4.94875 1.41109 5.06828 1.36219 5.17328 C1.36219 5.17328 1.31344 5.27828 1.28656 5.42484 C1.28656 5.42484 1.25984 5.57125 1.25484 5.66656 C1.25484 5.66656 1.25 5.76172 1.25 5.89359 L1.25 8.27141 C1.25 8.27141 1.25 8.40328 1.25484 8.50094 C1.25484 8.50094 1.25984 8.59859 1.28656 8.74516 C1.28656 8.74516 1.31344 8.89156 1.36219 8.99656 C1.36219 8.99656 1.41109 9.10156 1.50391 9.21875 C1.50391 9.21875 1.59672 9.33594 1.72359 9.41172 C1.72359 9.41172 1.85062 9.48734 2.05078 9.53625 C2.05078 9.53625 2.25094 9.585 2.5 9.585 L3.335 9.585 C3.335 9.585 3.58406 9.585 3.78422 9.53625 C3.78422 9.53625 3.98438 9.48734 4.11125 9.41172 C4.11125 9.41172 4.23828 9.33594 4.33109 9.21875 C4.33109 9.21875 4.42391 9.10156 4.47266 8.99656 C4.47266 8.99656 4.52156 8.89156 4.54828 8.74516 C4.54828 8.74516 4.57516 8.59859 4.58 8.50094 C4.58 8.50094 4.585 8.40328 4.585 8.27141 L4.585 5.89359 C4.585 5.89359 4.585 5.76172 4.58 5.66656 C4.58 5.66656 4.57516 5.57125 4.54828 5.42484 C4.54828 5.42484 4.52156 5.27828 4.47266 5.17328 C4.47266 5.17328 4.42391 5.06828 4.33109 4.94875 C4.33109 4.94875 4.23828 4.82906 4.11125 4.75594 C4.11125 4.75594 3.98438 4.68266 3.78422 4.63391 C3.78422 4.63391 3.58406 4.585 3.335 4.585 L2.5 4.585 Z"/>
  <clipPath id="Clip0">
   <path d="M0 0 L59 0 L59 58.9626 L0 58.9626 L0 0 Z" transform="translate(268.76, 175.945)"/>
  </clipPath>
  <clipPath id="Clip1">
   <path d="M0 0 L59 0 L59 58.9626 L0 58.9626 L0 0 Z" transform="translate(268.76, 175.945)"/>
  </clipPath>
  <path id="GlArialNarrow8482" d="M1.96297 6.82125 L1.96297 3.43266 L0.903281 3.43266 L0.903281 2.84172 L3.56937 2.84172 L3.56937 3.43266 L2.50484 3.43266 L2.50484 6.82125 L1.96297 6.82125 L1.96297 6.82125 Z M3.93562 6.82125 L3.93562 2.84172 L4.73641 2.84172 L5.56156 6.02047 L6.3575 2.84172 L7.13875 2.84172 L7.13875 6.82125 L6.64547 6.82125 L6.64547 3.48141 L5.80078 6.82125 L5.3125 6.82125 L4.43359 3.43266 L4.43359 6.82125 L3.93562 6.82125 Z"/>
 </defs>
 <g id="Fond de page">
  <path style="fill:none;stroke:#161413; stroke-width:1; stroke-linecap:butt; stroke-linejoin:miter; stroke-dasharray:none;" d="M0 0 L595.25 0 L595.25 409.25 L0 409.25 L0 0 Z" transform="translate(0.5, 0)"/>
  <g transform="translate(39.685, 55)">
   <path style="fill:none; stroke:none;" d="M0 0 L514.315 0 L514.315 146.26 L0 146.26 L0 0 Z"/>
  </g>
  <g transform="translate(124.724, 168.835)">
   <path style="fill:none; stroke:#161413; stroke-width:1.00063; stroke-linecap:butt; stroke-linejoin:round; stroke-dasharray:none;" d="M0 0 L345.827 0 L345.827 96 L0 96 L0 0 Z"/>
  </g>
  <g transform="translate(39.685, 55)">
   <use style="fill:#161413;stroke:none;" xlink:href="#GlSalaryman84" transform="matrix(7.2 0 0 7.2 23.629 -17.99)"/>
   <use style="fill:#161413;stroke:none;" xlink:href="#GlSalaryman82" transform="matrix(7.2 0 0 7.2 88.141 -17.99)"/>
   <use style="fill:#161413;stroke:none;" xlink:href="#GlSalaryman69" transform="matrix(7.2 0 0 7.2 155.749 -17.99)"/>
   <use style="fill:#161413;stroke:none;" xlink:href="#GlSalaryman78" transform="matrix(7.2 0 0 7.2 222.709 -17.99)"/>
   <use style="fill:#161413;stroke:none;" xlink:href="#GlSalaryman68" transform="matrix(7.2 0 0 7.2 289.093 -17.99)"/>
   <use style="fill:#161413;stroke:none;" xlink:href="#GlSalaryman69" transform="matrix(7.2 0 0 7.2 356.053 -17.99)"/>
   <use style="fill:#161413;stroke:none;" xlink:href="#GlSalaryman82" transform="matrix(7.2 0 0 7.2 423.013 -17.99)"/>
   <path style="fill:none; stroke:none;" d="M0 0 L515.065 0 L515.065 99 L0 99 L0 0 Z"/>
  </g>
  <g transform="translate(125.183, 241.155)">
   <use style="fill:#161413;stroke:none;" xlink:href="#GlGputeks-Regular104" transform="matrix(1.2 0 0 1.2 75.9102 -2.50195)"/>
   <use style="fill:#161413;stroke:none;" xlink:href="#GlGputeks-Regular116" transform="matrix(1.2 0 0 1.2 83.1582 -2.50195)"/>
   <use style="fill:#161413;stroke:none;" xlink:href="#GlGputeks-Regular116" transform="matrix(1.2 0 0 1.2 87.9043 -2.50195)"/>
   <use style="fill:#161413;stroke:none;" xlink:href="#GlGputeks-Regular112" transform="matrix(1.2 0 0 1.2 92.1523 -2.50195)"/>
   <use style="fill:#161413;stroke:none;" xlink:href="#GlGputeks-Regular58" transform="matrix(1.2 0 0 1.2 99.4004 -2.50195)"/>
   <use style="fill:#161413;stroke:none;" xlink:href="#GlGputeks-Regular47" transform="matrix(1.2 0 0 1.2 101.65 -2.50195)"/>
   <use style="fill:#161413;stroke:none;" xlink:href="#GlGputeks-Regular47" transform="matrix(1.2 0 0 1.2 108.271 -2.50195)"/>
   <use style="fill:#161413;stroke:none;" xlink:href="#GlGputeks-Regular116" transform="matrix(1.2 0 0 1.2 114.893 -2.50195)"/>
   <use style="fill:#161413;stroke:none;" xlink:href="#GlGputeks-Regular114" transform="matrix(1.2 0 0 1.2 119.639 -2.50195)"/>
   <use style="fill:#161413;stroke:none;" xlink:href="#GlGputeks-Regular101" transform="matrix(1.2 0 0 1.2 123.389 -2.50195)"/>
   <use style="fill:#161413;stroke:none;" xlink:href="#GlGputeks-Regular110" transform="matrix(1.2 0 0 1.2 130.637 -2.50195)"/>
   <use style="fill:#161413;stroke:none;" xlink:href="#GlGputeks-Regular100" transform="matrix(1.2 0 0 1.2 137.885 -2.50195)"/>
   <use style="fill:#161413;stroke:none;" xlink:href="#GlGputeks-Regular101" transform="matrix(1.2 0 0 1.2 145.133 -2.50195)"/>
   <use style="fill:#161413;stroke:none;" xlink:href="#GlGputeks-Regular114" transform="matrix(1.2 0 0 1.2 152.381 -2.50195)"/>
   <use style="fill:#161413;stroke:none;" xlink:href="#GlGputeks-Regular46" transform="matrix(1.2 0 0 1.2 156.629 -2.50195)"/>
   <use style="fill:#161413;stroke:none;" xlink:href="#GlGputeks-Regular102" transform="matrix(1.2 0 0 1.2 159.875 -2.50195)"/>
   <use style="fill:#161413;stroke:none;" xlink:href="#GlGputeks-Regular97" transform="matrix(1.2 0 0 1.2 163.619 -2.50195)"/>
   <use style="fill:#161413;stroke:none;" xlink:href="#GlGputeks-Regular98" transform="matrix(1.2 0 0 1.2 170.867 -2.50195)"/>
   <use style="fill:#161413;stroke:none;" xlink:href="#GlGputeks-Regular108" transform="matrix(1.2 0 0 1.2 178.115 -2.50195)"/>
   <use style="fill:#161413;stroke:none;" xlink:href="#GlGputeks-Regular97" transform="matrix(1.2 0 0 1.2 181.865 -2.50195)"/>
   <use style="fill:#161413;stroke:none;" xlink:href="#GlGputeks-Regular98" transform="matrix(1.2 0 0 1.2 189.113 -2.50195)"/>
   <use style="fill:#161413;stroke:none;" xlink:href="#GlGputeks-Regular45" transform="matrix(1.2 0 0 1.2 196.361 -2.50195)"/>
   <use style="fill:#161413;stroke:none;" xlink:href="#GlGputeks-Regular108" transform="matrix(1.2 0 0 1.2 204.107 -2.50195)"/>
   <use style="fill:#161413;stroke:none;" xlink:href="#GlGputeks-Regular97" transform="matrix(1.2 0 0 1.2 207.857 -2.50195)"/>
   <use style="fill:#161413;stroke:none;" xlink:href="#GlGputeks-Regular110" transform="matrix(1.2 0 0 1.2 215.105 -2.50195)"/>
   <use style="fill:#161413;stroke:none;" xlink:href="#GlGputeks-Regular110" transform="matrix(1.2 0 0 1.2 222.354 -2.50195)"/>
   <use style="fill:#161413;stroke:none;" xlink:href="#GlGputeks-Regular105" transform="matrix(1.2 0 0 1.2 229.602 -2.50195)"/>
   <use style="fill:#161413;stroke:none;" xlink:href="#GlGputeks-Regular111" transform="matrix(1.2 0 0 1.2 233.352 -2.50195)"/>
   <use style="fill:#161413;stroke:none;" xlink:href="#GlGputeks-Regular110" transform="matrix(1.2 0 0 1.2 240.6 -2.50195)"/>
   <use style="fill:#161413;stroke:none;" xlink:href="#GlGputeks-Regular46" transform="matrix(1.2 0 0 1.2 247.848 -2.50195)"/>
   <use style="fill:#161413;stroke:none;" xlink:href="#GlGputeks-Regular111" transform="matrix(1.2 0 0 1.2 251.094 -2.50195)"/>
   <use style="fill:#161413;stroke:none;" xlink:href="#GlGputeks-Regular114" transform="matrix(1.2 0 0 1.2 258.342 -2.50195)"/>
   <use style="fill:#161413;stroke:none;" xlink:href="#GlGputeks-Regular103" transform="matrix(1.2 0 0 1.2 262.092 -2.50195)"/>
   <path style="fill:none; stroke:none;" d="M0 0 L346.155 0 L346.155 16.5689 L0 16.5689 L0 0 Z"/>
  </g>
  <g id="svg12385" clip-path="url(#Clip0)">
   <g id="layer1" clip-path="url(#Clip1)">
    <path style="fill:#231f20; fill-rule:nonzero;stroke:none;" id=" path5252" d="M51.9451 58.9626 C55.8366 58.9626 59 55.8184 59 51.9227 L59 7.05187 C59 3.16201 55.8366 0 51.9451 0 L7.05496 0 C3.15741 0 0 3.16201 0 7.05187 L0 51.9227 C0 55.8184 3.15741 58.9626 7.05496 58.9626 L51.9451 58.9626 Z" transform="translate(268.76, 175.945)"/>
    <path style="fill:#ffffff; fill-rule:nonzero;stroke:none;" id=" path5254" d="M5.8612 0 C2.6262 0 0 2.6191 0 5.85271 L0 50.7235 C0 53.9452 2.6262 56.5702 5.8612 56.5702 L50.7513 56.5702 C53.9803 56.5702 56.6066 53.9452 56.6066 50.7235 L56.6066 5.85271 C56.6066 2.6191 53.9803 0 50.7513 0 L5.8612 0 Z" transform="translate(269.954, 177.145)"/>
    <path style="fill:#231f20; fill-rule:nonzero;stroke:none;" id=" path5256" d="M6.47597 12.9583 C10.0512 12.9583 12.9519 10.0528 12.9519 6.47319 C12.9519 2.89355 10.0512 0 6.47597 0 C2.89479 0 0 2.89355 0 6.47319 C0 10.0528 2.89479 12.9583 6.47597 12.9583 Z" transform="translate(291.888, 182.735)"/>
    <path style="fill:#231f20; fill-rule:nonzero;stroke:none;" id=" path5258" d="M20.8366 21.1974 L20.8366 21.1974 L28.3093 18.7215 L28.1481 18.6857 C22.9912 17.1703 24.9907 10.357 30.1476 11.8784 L30.8519 12.1231 L30.8519 4.43279 L20.8366 7.7022 L10.8212 4.43279 L10.8212 12.1231 L11.5255 11.8784 C16.6823 10.357 18.6938 17.1703 13.5309 18.6857 L13.3578 18.7215 L20.8366 21.1974 Z M27.2767 0 C30.2371 0.101423 31.4846 2.47592 31.4846 2.47592 L41.0463 15.5833 C41.4463 16.1681 41.679 16.878 41.679 17.6476 C41.679 19.6821 40.0198 21.3407 37.9784 21.3407 C37.4891 21.3407 37.0414 21.2332 36.6236 21.0721 L30.8519 19.4673 L30.8519 25.2245 L10.8212 25.2245 L10.8212 19.4673 L5.04948 21.0721 C4.64361 21.2332 4.17805 21.3407 3.68862 21.3407 C1.65331 21.3407 0 19.6821 0 17.6476 C0 16.878 0.226808 16.1681 0.644615 15.5833 L10.1944 2.47592 C10.1944 2.47592 11.4478 0.101423 14.3964 0 L27.2767 0 Z" transform="translate(277.385, 197.274)"/>
    <path style="fill:#231f20; fill-rule:nonzero;stroke:none;" id=" path5260" d="M41.3567 1.84351 C41.8701 1.84351 42.2759 1.43185 42.2759 0.924738 C42.2759 0.411658 41.8701 0 41.3567 0 L0.919174 0 C0.417804 0 0 0.411658 0 0.924738 C0 1.43185 0.417804 1.84351 0.919174 1.84351 L41.3567 1.84351 Z" transform="translate(277.45, 225.183)"/>
   </g>
  </g>
  <g transform="translate(520, 54.3465)">
   <use style="fill:#161413;stroke:none;" xlink:href="#GlArialNarrow8482" transform="matrix(1.8 0 0 1.8 6.74658 -5.11523)"/>
   <path style="fill:none; stroke:none;" d="M0 0 L28.7506 0 L28.7506 24.4035 L0 24.4035 L0 0 Z"/>
  </g>
  <path style="fill:none;stroke:#000000; stroke-width:0.481584; stroke-linecap:butt; stroke-linejoin:miter; stroke-dasharray:none;" id="Copie de  path5487" d="M79.8007 83.5086 L73.7371 73.0051 C73.7474 73.2914 73.7608 73.5741 73.7778 73.8542 C73.7881 74.0936 73.7966 74.3473 73.8028 74.6157 C73.8131 74.8783 73.8184 75.1114 73.8184 75.316 L73.8184 83.5086 L72.4513 83.5086 L72.4513 71.1757 L74.2365 71.1757 L80.3643 81.7493 C80.3478 81.4635 80.3317 81.1772 80.3165 80.8913 C80.3063 80.6466 80.2955 80.3808 80.2844 80.095 C80.2741 79.8033 80.2687 79.526 80.2687 79.2634 L80.2687 71.1757 L81.652 71.1757 L81.652 83.5086 L79.802 83.5086 L79.8007 83.5086 Z M70.3195 77.2852 C70.3195 78.2482 70.1909 79.1236 69.9336 79.911 C69.6817 80.6988 69.3141 81.3728 68.8318 81.9329 C68.3489 82.493 67.7594 82.9249 67.0626 83.2286 C66.3654 83.5318 65.5749 83.6837 64.6901 83.6837 C63.7571 83.6837 62.9398 83.526 62.2376 83.2112 C61.5351 82.89 60.9504 82.4465 60.4842 81.8806 C60.0179 81.3085 59.6668 80.6318 59.431 79.8498 C59.1947 79.0677 59.0768 78.2129 59.0768 77.2852 C59.0768 76.3227 59.2001 75.4531 59.4471 74.6769 C59.6936 73.9011 60.0554 73.2414 60.5324 72.6987 C61.0098 72.1503 61.5967 71.73 62.2935 71.4383 C62.996 71.1409 63.8 70.9921 64.7062 70.9921 C65.6071 70.9921 66.4056 71.1409 67.1028 71.4383 C67.8049 71.7362 68.3923 72.1592 68.8639 72.7077 C69.3409 73.2561 69.7027 73.9185 69.9497 74.6943 C70.1962 75.4705 70.3195 76.3343 70.3195 77.2852 L70.3195 77.2852 Z M68.7514 77.2852 C68.7514 76.5442 68.6629 75.8703 68.4861 75.2633 C68.3146 74.6563 68.0569 74.1373 67.7138 73.7054 C67.3762 73.2735 66.9554 72.9408 66.4512 72.7077 C65.9474 72.4741 65.3659 72.3575 64.7062 72.3575 C64.0309 72.3575 63.4382 72.4741 62.929 72.7077 C62.4199 72.9408 61.9938 73.2735 61.6503 73.7054 C61.3127 74.1373 61.0581 74.6563 60.8861 75.2633 C60.72 75.8703 60.6369 76.5442 60.6369 77.2852 C60.6369 78.0262 60.7227 78.706 60.8946 79.3245 C61.0715 79.9373 61.3287 80.4684 61.6664 80.9177 C62.0094 81.3612 62.4333 81.7082 62.9371 81.9592 C63.4462 82.2044 64.0304 82.3268 64.6901 82.3268 C65.398 82.3268 66.0064 82.2013 66.5155 81.9508 C67.0305 81.6998 67.4512 81.3527 67.7782 80.9092 C68.1104 80.4599 68.3548 79.9257 68.5102 79.3071 C68.671 78.6885 68.7514 78.0146 68.7514 77.2852 L68.7514 77.2852 Z M55.2492 83.5086 L55.2492 71.1757 L56.7851 71.1757 L56.7851 83.5086 L55.2492 83.5086 Z M50.5287 83.5086 L44.4651 73.0051 C44.4754 73.2914 44.489 73.5741 44.5056 73.8542 C44.5159 74.0936 44.5245 74.3473 44.5306 74.6157 C44.541 74.8783 44.5463 75.1114 44.5463 75.316 L44.5463 83.5086 L43.1792 83.5086 L43.1792 71.1757 L44.9645 71.1757 L51.0923 81.7493 C51.0754 81.4635 51.0597 81.1772 51.0445 80.8913 C51.0343 80.6466 51.0235 80.3808 51.0124 80.095 C51.0021 79.8033 50.9967 79.526 50.9967 79.2634 L50.9967 71.1757 L52.38 71.1757 L52.38 83.5086 L50.53 83.5086 L50.5287 83.5086 Z M38.6268 83.5086 L32.5632 73.0051 C32.5735 73.2914 32.5871 73.5741 32.6037 73.8542 C32.614 74.0936 32.6226 74.3473 32.6287 74.6157 C32.639 74.8783 32.6444 75.1114 32.6444 75.316 L32.6444 83.5086 L31.2772 83.5086 L31.2772 71.1757 L33.0624 71.1757 L39.1904 81.7493 C39.1736 81.4635 39.1578 81.1772 39.1426 80.8913 C39.1322 80.6466 39.1215 80.3808 39.1105 80.095 C39.1001 79.8033 39.0947 79.526 39.0947 79.2634 L39.0947 71.1757 L40.4778 71.1757 L40.4778 83.5086 L38.6283 83.5086 L38.6268 83.5086 Z M28.309 83.5086 L27.0143 79.9025 L21.8514 79.9025 L20.5488 83.5086 L18.9563 83.5086 L23.5804 71.1757 L25.3255 71.1757 L29.8772 83.5086 L28.309 83.5086 Z M25.1004 74.5281 C25.0147 74.2945 24.9315 74.0583 24.8511 73.8193 C24.7759 73.5799 24.7088 73.3642 24.65 73.1717 C24.5912 72.973 24.5402 72.8095 24.4972 72.6813 C24.4598 72.5473 24.438 72.4656 24.4317 72.4361 C24.4214 72.4651 24.3971 72.5469 24.359 72.6813 C24.3216 72.8157 24.2707 72.9819 24.2062 73.1802 C24.1473 73.3785 24.0776 73.5974 23.9972 73.8367 C23.922 74.0761 23.8443 74.3124 23.7639 74.5456 L22.3164 78.5983 L26.5545 78.5983 L25.0989 74.5281 L25.1004 74.5281 Z M11.1077 83.5086 L11.1077 71.1757 L12.6436 71.1757 L12.6436 82.1433 L18.3694 82.1433 L18.3694 83.5086 L11.1077 83.5086 Z M42.7187 11.5861 L35.7933 11.6027 L22.5087 50.103 L28.5014 50.103 L31.6621 40.9996 L45.9006 40.9664 L53.7007 64.0211 L61.3131 64.0336 L42.7187 11.5905 L42.7187 11.5861 Z M38.8 20.5063 L43.9389 35.3152 L33.6819 35.3401 L38.8 20.5064 L38.8 20.5063 Z M63.6865 10.7444 L63.7165 35.3979 L75.4022 35.3865 C86.3389 35.2774 85.0741 23.8713 79.0959 22.7473 C84.4792 20.2002 83.1683 10.8514 76.9431 10.7454 L63.6865 10.7444 Z M75.1137 14.8797 C78.7198 14.8911 78.7529 21.0259 75.1137 21.0472 L68.5214 21.0472 L68.5214 14.8838 L75.1137 14.8797 Z M68.5423 24.8453 L75.8761 24.8453 C79.8069 25.061 79.5644 31.0246 75.8761 31.3292 L68.5173 31.3292 L68.5423 24.8453 Z M4.81856 0 C2.15825 0 0 2.15824 0 4.81861 L0 88.548 C0 91.2082 2.15825 93.3663 4.81856 93.3663 L88.7249 93.3663 C91.385 93.3663 93.5432 91.2082 93.5432 88.548 L93.5432 4.81861 C93.5432 2.15824 91.385 0 88.7249 0 L4.81856 0 Z M4.81856 1.06842 L88.7249 1.06842 C90.8115 1.06842 92.4748 2.73172 92.4748 4.81861 L92.4748 88.548 C92.4748 90.6347 90.8115 92.2979 88.7249 92.2979 L4.81856 92.2979 C2.73172 92.2979 1.06842 90.6347 1.06842 88.548 L1.06842 4.81861 C1.06842 2.73172 2.73172 1.06842 4.81856 1.06842 Z M63.8035 39.3713 L63.8326 64.0251 L75.5179 64.0126 C86.4546 63.9031 85.1898 52.4974 79.2116 51.3733 C84.5953 48.8261 83.284 39.4773 77.0588 39.3713 L63.8035 39.3713 Z M75.2307 43.5066 C78.8364 43.5191 78.8699 49.6528 75.2307 49.6743 L68.6384 49.6743 L68.6384 43.5108 L75.2307 43.5066 Z M68.6594 53.472 L75.9931 53.472 C79.9239 53.6882 79.6814 59.6516 75.9931 59.9562 L68.6343 59.9562 L68.6594 53.472 Z M10.6412 11.0774 L27.1918 11.1013 L27.2043 15.3254 L15.4606 15.3014 L15.4481 21.6433 L25.2525 21.6558 L25.2525 25.5347 L15.46 25.5347 L15.46 35.7436 L10.6412 35.7436 L10.6412 11.0774 Z M10.6287 39.3838 L15.3883 39.3838 L15.3883 59.8017 L28.0006 59.8017 L28.0006 64.0019 L10.6408 64.0019 L10.6287 39.3838 Z" transform="translate(471.457, 285.75)"/>
 </g>
</svg>
