<?xml version="1.0" encoding="UTF-8"?>
<svg width="595.281pt" version="1.1" xmlns="http://www.w3.org/2000/svg" height="411.024pt" viewBox="0 0 595.281 411.024" xmlns:xlink="http://www.w3.org/1999/xlink">
 <defs>
  <path id="GlSalaryman84" d="M8.49 2.72 L0.49 2.72 C0.49 2.72 0.21 2.72 0.21 3 C0.21 3 0.21 3.28 0.49 3.28 L4.21 3.28 L4.21 9 C4.21 9 4.21 9.28 4.49 9.28 C4.49 9.28 4.77 9.28 4.77 9 L4.77 3.28 L8.49 3.28 C8.49 3.28 8.77 3.28 8.77 3 C8.77 3 8.77 2.72 8.49 2.72 Z"/>
  <path id="GlSalaryman82" d="M8.85 8.77 L6.61 7.28 L6.69 7.28 C6.69 7.28 7.64 7.28 8.305 6.61 C8.305 6.61 8.97 5.94 8.97 5 C8.97 5 8.97 4.05 8.305 3.385 C8.305 3.385 7.64 2.72 6.69 2.72 L0.41 2.72 L0.41 9 C0.41 9 0.41 9.28 0.69 9.28 C0.69 9.28 0.97 9.28 0.97 9 L0.97 7.28 L5.61 7.28 L8.54 9.23 C8.54 9.23 8.61 9.28 8.69 9.28 C8.69 9.28 8.84 9.28 8.92 9.15 C8.92 9.15 8.97 9.08 8.97 9 C8.97 9 8.97 8.85 8.85 8.77 L8.85 8.77 Z M0.97 3.28 L6.69 3.28 C6.69 3.28 7.4 3.28 7.905 3.785 C7.905 3.785 8.41 4.29 8.41 5 C8.41 5 8.41 5.71 7.905 6.215 C7.905 6.215 7.4 6.72 6.69 6.72 L0.97 6.72 L0.97 3.28 Z"/>
  <path id="GlSalaryman69" d="M8.64 6.28 C8.64 6.28 8.92 6.28 8.92 6 C8.92 6 8.92 5.72 8.64 5.72 L0.92 5.72 L0.92 3.28 L8.64 3.28 C8.64 3.28 8.92 3.28 8.92 3 C8.92 3 8.92 2.72 8.64 2.72 L0.36 2.72 L0.36 9.28 L8.64 9.28 C8.64 9.28 8.92 9.28 8.92 9 C8.92 9 8.92 8.72 8.64 8.72 L0.92 8.72 L0.92 6.28 L8.64 6.28 Z"/>
  <path id="GlSalaryman78" d="M8.59 2.78 C8.59 2.78 8.31 2.78 8.31 3.06 L8.31 8.5 L0.31 2.5 L0.31 9.06 C0.31 9.06 0.31 9.33 0.59 9.33 C0.59 9.33 0.87 9.33 0.87 9.06 L0.87 3.61 L8.87 9.61 L8.87 3.06 C8.87 3.06 8.87 2.78 8.59 2.78 Z"/>
  <path id="GlSalaryman68" d="M6.79 2.91 C6.79 2.91 6.25 2.72 5.7 2.72 L0.42 2.72 L0.42 9.28 L5.7 9.28 C5.7 9.28 6.25 9.28 6.79 9.09 C6.79 9.09 7.77 8.75 8.375 7.895 C8.375 7.895 8.98 7.04 8.98 6 C8.98 6 8.98 4.96 8.375 4.105 C8.375 4.105 7.77 3.25 6.79 2.91 L6.79 2.91 Z M6.61 8.57 C6.61 8.57 6.19 8.72 5.7 8.72 L0.98 8.72 L0.98 3.28 L5.7 3.28 C5.7 3.28 6.19 3.28 6.61 3.43 C6.61 3.43 7.42 3.72 7.92 4.43 C7.92 4.43 8.42 5.14 8.42 6 C8.42 6 8.42 6.86 7.92 7.57 C7.92 7.57 7.42 8.28 6.61 8.57 Z"/>
  <path id="GlGputeks-Regular104" d="M1.25 2.085 L1.25 4.165 C1.25 4.165 1.25 4.165 3.335 4.165 C3.335 4.165 4.26766 4.165 4.84125 4.57031 C4.84125 4.57031 5.415 4.97562 5.415 5.66891 L5.415 10 L4.585 10 L4.585 5.89359 C4.585 5.89359 4.585 5.76172 4.58 5.66656 C4.58 5.66656 4.57516 5.57125 4.54828 5.42484 C4.54828 5.42484 4.52156 5.27828 4.47266 5.17328 C4.47266 5.17328 4.42391 5.06828 4.33109 4.94875 C4.33109 4.94875 4.23828 4.82906 4.11125 4.75594 C4.11125 4.75594 3.98438 4.68266 3.78422 4.63391 C3.78422 4.63391 3.58406 4.585 3.335 4.585 L1.25 4.585 L1.25 10 L0.415 10 L0.415 2.085 L1.25 2.085 Z"/>
  <path id="GlGputeks-Regular116" d="M1.665 2.085 L1.665 4.165 L3.335 4.165 L3.335 4.585 L1.665 4.585 L1.665 8.27141 C1.665 8.27141 1.665 8.40328 1.66984 8.50094 C1.66984 8.50094 1.67484 8.59859 1.70172 8.74516 C1.70172 8.74516 1.72859 8.89156 1.77734 8.99656 C1.77734 8.99656 1.82625 9.10156 1.91891 9.21875 C1.91891 9.21875 2.01172 9.33594 2.13859 9.41172 C2.13859 9.41172 2.26562 9.48734 2.46578 9.53625 C2.46578 9.53625 2.66609 9.585 2.915 9.585 L3.335 9.585 L3.335 10 L2.915 10 C2.915 10 1.9825 10 1.40875 9.59719 C1.40875 9.59719 0.835 9.19438 0.835 8.50094 L0.835 4.585 L0 4.585 L0 4.165 L0.835 4.165 L0.835 2.085 L1.665 2.085 Z"/>
  <path id="GlGputeks-Regular112" d="M1.25 9.585 L3.335 9.585 C3.335 9.585 3.58406 9.585 3.78422 9.53625 C3.78422 9.53625 3.98438 9.48734 4.11125 9.41172 C4.11125 9.41172 4.23828 9.33594 4.33109 9.21875 C4.33109 9.21875 4.42391 9.10156 4.47266 8.99656 C4.47266 8.99656 4.52156 8.89156 4.54828 8.74516 C4.54828 8.74516 4.57516 8.59859 4.58 8.50094 C4.58 8.50094 4.585 8.40328 4.585 8.27141 L4.585 5.89359 C4.585 5.89359 4.585 5.76172 4.58 5.66656 C4.58 5.66656 4.57516 5.57125 4.54828 5.42484 C4.54828 5.42484 4.52156 5.27828 4.47266 5.17328 C4.47266 5.17328 4.42391 5.06828 4.33109 4.94875 C4.33109 4.94875 4.23828 4.82906 4.11125 4.75594 C4.11125 4.75594 3.98438 4.68266 3.78422 4.63391 C3.78422 4.63391 3.58406 4.585 3.335 4.585 L2.085 4.585 C2.085 4.585 1.94344 4.585 1.8725 4.5875 C1.8725 4.5875 1.80172 4.58984 1.68453 4.59969 C1.68453 4.59969 1.56734 4.60938 1.50625 4.63625 C1.50625 4.63625 1.44531 4.66312 1.37688 4.70703 C1.37688 4.70703 1.30859 4.75094 1.27922 4.82422 C1.27922 4.82422 1.25 4.8975 1.25 5 L1.25 9.585 L1.25 9.585 Z M0.415 4.165 L3.335 4.165 C3.335 4.165 4.26766 4.165 4.84125 4.57031 C4.84125 4.57031 5.415 4.97562 5.415 5.66891 L5.415 8.50094 C5.415 8.50094 5.415 9.19438 4.84125 9.59719 C4.84125 9.59719 4.26766 10 3.335 10 L1.25 10 L1.25 12.085 L0.415 12.085 L0.415 4.165 Z"/>
  <path id="GlGputeks-Regular58" d="M1.255 9.365 L1.255 9.78 C1.255 9.78 1.255 9.86797 1.24281 9.90219 C1.24281 9.90219 1.23063 9.93625 1.16219 9.96312 C1.16219 9.96312 1.09391 9.99 0.9425 9.99 L0.7375 9.99 C0.7375 9.99 0.532344 9.99 0.478594 9.94609 C0.478594 9.94609 0.425 9.90203 0.425 9.78 L0.425 9.365 C0.425 9.365 0.425 9.31125 0.429844 9.28688 C0.429844 9.28688 0.434688 9.2625 0.461562 9.22594 C0.461562 9.22594 0.488438 9.18922 0.556719 9.17219 C0.556719 9.17219 0.625156 9.155 0.7375 9.155 L0.9425 9.155 C0.9425 9.155 1.08906 9.155 1.15984 9.18437 C1.15984 9.18437 1.23063 9.21359 1.24281 9.25031 C1.24281 9.25031 1.255 9.28688 1.255 9.365 L1.255 9.365 Z M1.255 4.375 L1.255 4.79 C1.255 4.79 1.255 4.87797 1.24281 4.91219 C1.24281 4.91219 1.23063 4.94625 1.16219 4.97312 C1.16219 4.97312 1.09391 5 0.9425 5 L0.7375 5 C0.7375 5 0.532344 5 0.478594 4.95609 C0.478594 4.95609 0.425 4.91203 0.425 4.79 L0.425 4.375 C0.425 4.375 0.425 4.32125 0.429844 4.29688 C0.429844 4.29688 0.434688 4.2725 0.461562 4.23594 C0.461562 4.23594 0.488438 4.19922 0.556719 4.18219 C0.556719 4.18219 0.625156 4.165 0.7375 4.165 L0.9425 4.165 C0.9425 4.165 1.08906 4.165 1.15984 4.19437 C1.15984 4.19437 1.23063 4.22359 1.24281 4.26031 C1.24281 4.26031 1.255 4.29688 1.255 4.375 Z"/>
  <path id="GlGputeks-Regular47" d="M4.8975 2.085 L0.9375 10 L0.415 10 L4.375 2.085 L4.8975 2.085 Z"/>
  <path id="GlGputeks-Regular114" d="M2.915 4.165 L2.915 4.585 L2.5 4.585 C2.5 4.585 2.25094 4.585 2.05078 4.63391 C2.05078 4.63391 1.85062 4.68266 1.72359 4.75594 C1.72359 4.75594 1.59672 4.82906 1.50391 4.94875 C1.50391 4.94875 1.41109 5.06828 1.36219 5.17328 C1.36219 5.17328 1.31344 5.27828 1.28656 5.42484 C1.28656 5.42484 1.25984 5.57125 1.25484 5.66656 C1.25484 5.66656 1.25 5.76172 1.25 5.89359 L1.25 10 L0.415 10 L0.415 4.165 L2.915 4.165 Z"/>
  <path id="GlGputeks-Regular101" d="M5.415 6.875 L1.25 6.875 L1.25 8.27141 C1.25 8.27141 1.25 8.40328 1.25484 8.50094 C1.25484 8.50094 1.25984 8.59859 1.28656 8.74516 C1.28656 8.74516 1.31344 8.89156 1.36219 8.99656 C1.36219 8.99656 1.41109 9.10156 1.50391 9.21875 C1.50391 9.21875 1.59672 9.33594 1.72359 9.41172 C1.72359 9.41172 1.85062 9.48734 2.05078 9.53625 C2.05078 9.53625 2.25094 9.585 2.5 9.585 L5.21 9.585 L5.21 10 L2.5 10 C2.5 10 1.5625 10 0.98875 9.59719 C0.98875 9.59719 0.415 9.19438 0.415 8.50094 L0.415 5.66891 C0.415 5.66891 0.415 4.97562 0.98875 4.57031 C0.98875 4.57031 1.5625 4.165 2.5 4.165 L3.335 4.165 C3.335 4.165 4.26766 4.165 4.84125 4.57031 C4.84125 4.57031 5.415 4.97562 5.415 5.66891 L5.415 6.875 L5.415 6.875 Z M1.25 6.46 L4.585 6.46 L4.585 5.89359 C4.585 5.89359 4.585 5.76172 4.58 5.66656 C4.58 5.66656 4.57516 5.57125 4.54828 5.42484 C4.54828 5.42484 4.52156 5.27828 4.47266 5.17328 C4.47266 5.17328 4.42391 5.06828 4.33109 4.94875 C4.33109 4.94875 4.23828 4.82906 4.11125 4.75594 C4.11125 4.75594 3.98438 4.68266 3.78422 4.63391 C3.78422 4.63391 3.58406 4.585 3.335 4.585 L2.5 4.585 C2.5 4.585 2.25094 4.585 2.05078 4.63391 C2.05078 4.63391 1.85062 4.68266 1.72359 4.75594 C1.72359 4.75594 1.59672 4.82906 1.50391 4.94875 C1.50391 4.94875 1.41109 5.06828 1.36219 5.17328 C1.36219 5.17328 1.31344 5.27828 1.28656 5.42484 C1.28656 5.42484 1.25984 5.57125 1.25484 5.66656 C1.25484 5.66656 1.25 5.76172 1.25 5.89359 L1.25 6.46 Z"/>
  <path id="GlGputeks-Regular110" d="M0.415 4.165 L3.335 4.165 C3.335 4.165 4.26766 4.165 4.84125 4.57031 C4.84125 4.57031 5.415 4.97562 5.415 5.66891 L5.415 10 L4.585 10 L4.585 5.89359 C4.585 5.89359 4.585 5.76172 4.58 5.66656 C4.58 5.66656 4.57516 5.57125 4.54828 5.42484 C4.54828 5.42484 4.52156 5.27828 4.47266 5.17328 C4.47266 5.17328 4.42391 5.06828 4.33109 4.94875 C4.33109 4.94875 4.23828 4.82906 4.11125 4.75594 C4.11125 4.75594 3.98438 4.68266 3.78422 4.63391 C3.78422 4.63391 3.58406 4.585 3.335 4.585 L2.085 4.585 C2.085 4.585 1.94344 4.585 1.8725 4.5875 C1.8725 4.5875 1.80172 4.58984 1.68453 4.59969 C1.68453 4.59969 1.56734 4.60938 1.50625 4.63625 C1.50625 4.63625 1.44531 4.66312 1.37688 4.70703 C1.37688 4.70703 1.30859 4.75094 1.27922 4.82422 C1.27922 4.82422 1.25 4.8975 1.25 5 L1.25 10 L0.415 10 L0.415 4.165 Z"/>
  <path id="GlGputeks-Regular100" d="M5.415 2.085 L5.415 10 L2.5 10 C2.5 10 1.5625 10 0.98875 9.59719 C0.98875 9.59719 0.415 9.19438 0.415 8.50094 L0.415 5.66891 C0.415 5.66891 0.415 4.97562 0.98875 4.57031 C0.98875 4.57031 1.5625 4.165 2.5 4.165 L4.585 4.165 L4.585 2.085 L5.415 2.085 L5.415 2.085 Z M4.585 4.585 L2.5 4.585 C2.5 4.585 2.25094 4.585 2.05078 4.63391 C2.05078 4.63391 1.85062 4.68266 1.72359 4.75594 C1.72359 4.75594 1.59672 4.82906 1.50391 4.94875 C1.50391 4.94875 1.41109 5.06828 1.36219 5.17328 C1.36219 5.17328 1.31344 5.27828 1.28656 5.42484 C1.28656 5.42484 1.25984 5.57125 1.25484 5.66656 C1.25484 5.66656 1.25 5.76172 1.25 5.89359 L1.25 8.27141 C1.25 8.27141 1.25 8.40328 1.25484 8.50094 C1.25484 8.50094 1.25984 8.59859 1.28656 8.74516 C1.28656 8.74516 1.31344 8.89156 1.36219 8.99656 C1.36219 8.99656 1.41109 9.10156 1.50391 9.21875 C1.50391 9.21875 1.59672 9.33594 1.72359 9.41172 C1.72359 9.41172 1.85062 9.48734 2.05078 9.53625 C2.05078 9.53625 2.25094 9.585 2.5 9.585 L3.335 9.585 C3.335 9.585 3.58406 9.585 3.78422 9.53625 C3.78422 9.53625 3.98438 9.48734 4.11125 9.41172 C4.11125 9.41172 4.23828 9.33594 4.33109 9.21875 C4.33109 9.21875 4.42391 9.10156 4.47266 8.99656 C4.47266 8.99656 4.52156 8.89156 4.54828 8.74516 C4.54828 8.74516 4.57516 8.59859 4.58 8.50094 C4.58 8.50094 4.585 8.40328 4.585 8.27141 L4.585 4.585 Z"/>
  <path id="GlGputeks-Regular46" d="M1.665 9.375 L1.665 9.79 C1.665 9.79 1.665 9.87797 1.65281 9.91219 C1.65281 9.91219 1.64062 9.94625 1.57219 9.97312 C1.57219 9.97312 1.50391 10 1.3525 10 L1.1475 10 C1.1475 10 0.942344 10 0.888594 9.95609 C0.888594 9.95609 0.835 9.91203 0.835 9.79 L0.835 9.375 C0.835 9.375 0.835 9.32125 0.839844 9.29688 C0.839844 9.29688 0.844688 9.2725 0.871563 9.23594 C0.871563 9.23594 0.898438 9.19922 0.966719 9.18219 C0.966719 9.18219 1.03516 9.165 1.1475 9.165 L1.3525 9.165 C1.3525 9.165 1.49906 9.165 1.56984 9.19438 C1.56984 9.19438 1.64062 9.22359 1.65281 9.26031 C1.65281 9.26031 1.665 9.29688 1.665 9.375 Z"/>
  <path id="GlGputeks-Regular102" d="M3.335 2.085 L3.335 2.5 L2.5 2.5 C2.5 2.5 2.25094 2.5 2.05078 2.54891 C2.05078 2.54891 1.85062 2.59766 1.72359 2.67344 C1.72359 2.67344 1.59672 2.74906 1.50391 2.86625 C1.50391 2.86625 1.41109 2.98344 1.36219 3.08844 C1.36219 3.08844 1.31344 3.19328 1.28656 3.33984 C1.28656 3.33984 1.25984 3.48625 1.25484 3.58391 C1.25484 3.58391 1.25 3.68156 1.25 3.81344 L1.25 4.165 L2.5 4.165 L2.5 4.585 L1.25 4.585 L1.25 12.085 L0.415 12.085 L0.415 4.585 L0 4.585 L0 4.165 L0.415 4.165 L0.415 3.58391 C0.415 3.58391 0.415 2.89062 0.98875 2.48781 C0.98875 2.48781 1.5625 2.085 2.5 2.085 L3.335 2.085 Z"/>
  <path id="GlGputeks-Regular97" d="M1.25 4.585 L1.25 4.165 L3.335 4.165 C3.335 4.165 4.26766 4.165 4.84125 4.57031 C4.84125 4.57031 5.415 4.97562 5.415 5.66891 L5.415 10 L2.5 10 C2.5 10 1.5625 10 0.98875 9.59719 C0.98875 9.59719 0.415 9.19438 0.415 8.50094 L0.415 7.74906 C0.415 7.74906 0.415 7.05563 0.98875 6.65281 C0.98875 6.65281 1.5625 6.25 2.5 6.25 L4.585 6.25 L4.585 5.89359 C4.585 5.89359 4.585 5.76172 4.58 5.66656 C4.58 5.66656 4.57516 5.57125 4.54828 5.42484 C4.54828 5.42484 4.52156 5.27828 4.47266 5.17328 C4.47266 5.17328 4.42391 5.06828 4.33109 4.94875 C4.33109 4.94875 4.23828 4.82906 4.11125 4.75594 C4.11125 4.75594 3.98438 4.68266 3.78422 4.63391 C3.78422 4.63391 3.58406 4.585 3.335 4.585 L1.25 4.585 L1.25 4.585 Z M4.585 9.585 L4.585 6.665 L2.5 6.665 C2.5 6.665 2.25094 6.665 2.05078 6.71391 C2.05078 6.71391 1.85062 6.76266 1.72359 6.83844 C1.72359 6.83844 1.59672 6.91406 1.50391 7.03125 C1.50391 7.03125 1.41109 7.14844 1.36219 7.25344 C1.36219 7.25344 1.31344 7.35844 1.28656 7.505 C1.28656 7.505 1.25984 7.65141 1.25484 7.74906 C1.25484 7.74906 1.25 7.84672 1.25 7.97844 L1.25 8.27141 C1.25 8.27141 1.25 8.40328 1.25484 8.50094 C1.25484 8.50094 1.25984 8.59859 1.28656 8.74516 C1.28656 8.74516 1.31344 8.89156 1.36219 8.99656 C1.36219 8.99656 1.41109 9.10156 1.50391 9.21875 C1.50391 9.21875 1.59672 9.33594 1.72359 9.41172 C1.72359 9.41172 1.85062 9.48734 2.05078 9.53625 C2.05078 9.53625 2.25094 9.585 2.5 9.585 L4.585 9.585 Z"/>
  <path id="GlGputeks-Regular98" d="M1.25 4.585 C1.25 4.585 1.25 4.585 1.25 8.27141 C1.25 8.27141 1.25 8.40328 1.25484 8.50094 C1.25484 8.50094 1.25984 8.59859 1.28656 8.74516 C1.28656 8.74516 1.31344 8.89156 1.36219 8.99656 C1.36219 8.99656 1.41109 9.10156 1.50391 9.21875 C1.50391 9.21875 1.59672 9.33594 1.72359 9.41172 C1.72359 9.41172 1.85062 9.48734 2.05078 9.53625 C2.05078 9.53625 2.25094 9.585 2.5 9.585 L3.335 9.585 C3.335 9.585 3.58406 9.585 3.78422 9.53625 C3.78422 9.53625 3.98438 9.48734 4.11125 9.41172 C4.11125 9.41172 4.23828 9.33594 4.33109 9.21875 C4.33109 9.21875 4.42391 9.10156 4.47266 8.99656 C4.47266 8.99656 4.52156 8.89156 4.54828 8.74516 C4.54828 8.74516 4.57516 8.59859 4.58 8.50094 C4.58 8.50094 4.585 8.40328 4.585 8.27141 L4.585 5.89359 C4.585 5.89359 4.585 5.76172 4.58 5.66656 C4.58 5.66656 4.57516 5.57125 4.54828 5.42484 C4.54828 5.42484 4.52156 5.27828 4.47266 5.17328 C4.47266 5.17328 4.42391 5.06828 4.33109 4.94875 C4.33109 4.94875 4.23828 4.82906 4.11125 4.75594 C4.11125 4.75594 3.98438 4.68266 3.78422 4.63391 C3.78422 4.63391 3.58406 4.585 3.335 4.585 L1.25 4.585 L1.25 4.585 Z M1.25 2.085 L1.25 4.165 L2.085 4.165 L3.335 4.165 C3.335 4.165 4.26766 4.165 4.84125 4.57031 C4.84125 4.57031 5.415 4.97562 5.415 5.66891 L5.415 8.50094 C5.415 8.50094 5.415 9.19438 4.84125 9.59719 C4.84125 9.59719 4.26766 10 3.335 10 L2.5 10 C2.5 10 1.5625 10 0.98875 9.59719 C0.98875 9.59719 0.415 9.19438 0.415 8.50094 L0.415 2.085 L1.25 2.085 Z"/>
  <path id="GlGputeks-Regular108" d="M1.25 2.085 L1.25 8.27141 C1.25 8.27141 1.25 8.40328 1.25484 8.50094 C1.25484 8.50094 1.25984 8.59859 1.28656 8.74516 C1.28656 8.74516 1.31344 8.89156 1.36219 8.99656 C1.36219 8.99656 1.41109 9.10156 1.50391 9.21875 C1.50391 9.21875 1.59672 9.33594 1.72359 9.41172 C1.72359 9.41172 1.85062 9.48734 2.05078 9.53625 C2.05078 9.53625 2.25094 9.585 2.5 9.585 L2.915 9.585 L2.915 10 L2.5 10 C2.5 10 1.5625 10 0.98875 9.59719 C0.98875 9.59719 0.415 9.19438 0.415 8.50094 L0.415 2.085 L1.25 2.085 Z"/>
  <path id="GlGputeks-Regular45" d="M5.835 5.415 L5.835 5.835 L0.415 5.835 L0.415 5.415 L5.835 5.415 Z"/>
  <path id="GlGputeks-Regular105" d="M1.25 2.29 L1.25 2.71 C1.25 2.71 1.25 2.79781 1.23781 2.83203 C1.23781 2.83203 1.22562 2.86625 1.15719 2.89062 C1.15719 2.89062 1.08891 2.915 0.9375 2.915 L0.7275 2.915 C0.7275 2.915 0.5225 2.915 0.46875 2.87359 C0.46875 2.87359 0.415 2.83203 0.415 2.71 L0.415 2.29 C0.415 2.29 0.415 2.23625 0.419844 2.21188 C0.419844 2.21188 0.424844 2.1875 0.451719 2.15094 C0.451719 2.15094 0.478594 2.11422 0.546875 2.09969 C0.546875 2.09969 0.615313 2.085 0.7275 2.085 L0.9375 2.085 C0.9375 2.085 1.08406 2.085 1.15484 2.11437 C1.15484 2.11437 1.22562 2.14359 1.23781 2.17781 C1.23781 2.17781 1.25 2.21188 1.25 2.29 L1.25 2.29 Z M1.25 4.165 L1.25 8.27141 C1.25 8.27141 1.25 8.40328 1.25484 8.50094 C1.25484 8.50094 1.25984 8.59859 1.28656 8.74516 C1.28656 8.74516 1.31344 8.89156 1.36219 8.99656 C1.36219 8.99656 1.41109 9.10156 1.50391 9.21875 C1.50391 9.21875 1.59672 9.33594 1.72359 9.41172 C1.72359 9.41172 1.85062 9.48734 2.05078 9.53625 C2.05078 9.53625 2.25094 9.585 2.5 9.585 L2.915 9.585 L2.915 10 L2.5 10 C2.5 10 1.5625 10 0.98875 9.59719 C0.98875 9.59719 0.415 9.19438 0.415 8.50094 L0.415 4.165 L1.25 4.165 Z"/>
  <path id="GlGputeks-Regular111" d="M3.335 4.165 C3.335 4.165 4.26766 4.165 4.84125 4.57031 C4.84125 4.57031 5.415 4.97562 5.415 5.66891 L5.415 8.50094 C5.415 8.50094 5.415 9.19438 4.84125 9.59719 C4.84125 9.59719 4.26766 10 3.335 10 L2.5 10 C2.5 10 1.5625 10 0.98875 9.59719 C0.98875 9.59719 0.415 9.19438 0.415 8.50094 L0.415 5.66891 C0.415 5.66891 0.415 4.97562 0.98875 4.57031 C0.98875 4.57031 1.5625 4.165 2.5 4.165 L3.335 4.165 L3.335 4.165 Z M3.335 4.585 L2.5 4.585 C2.5 4.585 2.25094 4.585 2.05078 4.63391 C2.05078 4.63391 1.85062 4.68266 1.72359 4.75594 C1.72359 4.75594 1.59672 4.82906 1.50391 4.94875 C1.50391 4.94875 1.41109 5.06828 1.36219 5.17328 C1.36219 5.17328 1.31344 5.27828 1.28656 5.42484 C1.28656 5.42484 1.25984 5.57125 1.25484 5.66656 C1.25484 5.66656 1.25 5.76172 1.25 5.89359 L1.25 8.27141 C1.25 8.27141 1.25 8.40328 1.25484 8.50094 C1.25484 8.50094 1.25984 8.59859 1.28656 8.74516 C1.28656 8.74516 1.31344 8.89156 1.36219 8.99656 C1.36219 8.99656 1.41109 9.10156 1.50391 9.21875 C1.50391 9.21875 1.59672 9.33594 1.72359 9.41172 C1.72359 9.41172 1.85062 9.48734 2.05078 9.53625 C2.05078 9.53625 2.25094 9.585 2.5 9.585 L3.335 9.585 C3.335 9.585 3.58406 9.585 3.78422 9.53625 C3.78422 9.53625 3.98438 9.48734 4.11125 9.41172 C4.11125 9.41172 4.23828 9.33594 4.33109 9.21875 C4.33109 9.21875 4.42391 9.10156 4.47266 8.99656 C4.47266 8.99656 4.52156 8.89156 4.54828 8.74516 C4.54828 8.74516 4.57516 8.59859 4.58 8.50094 C4.58 8.50094 4.585 8.40328 4.585 8.27141 L4.585 5.89359 C4.585 5.89359 4.585 5.76172 4.58 5.66656 C4.58 5.66656 4.57516 5.57125 4.54828 5.42484 C4.54828 5.42484 4.52156 5.27828 4.47266 5.17328 C4.47266 5.17328 4.42391 5.06828 4.33109 4.94875 C4.33109 4.94875 4.23828 4.82906 4.11125 4.75594 C4.11125 4.75594 3.98438 4.68266 3.78422 4.63391 C3.78422 4.63391 3.58406 4.585 3.335 4.585 Z"/>
  <path id="GlGputeks-Regular103" d="M3.335 4.165 C3.335 4.165 4.26766 4.165 4.84125 4.57031 C4.84125 4.57031 5.415 4.97562 5.415 5.66891 L5.415 10.5811 C5.415 10.5811 5.415 11.2744 4.84125 11.6797 C4.84125 11.6797 4.26766 12.085 3.335 12.085 L0.625 12.085 L0.625 11.665 L3.335 11.665 C3.335 11.665 3.58406 11.665 3.78422 11.6161 C3.78422 11.6161 3.98438 11.5673 4.11125 11.4941 C4.11125 11.4941 4.23828 11.4209 4.33109 11.3012 C4.33109 11.3012 4.42391 11.1817 4.47266 11.0767 C4.47266 11.0767 4.52156 10.9717 4.54828 10.8252 C4.54828 10.8252 4.57516 10.6788 4.58 10.5834 C4.58 10.5834 4.585 10.4883 4.585 10.3564 L4.585 10 L2.5 10 C2.5 10 1.5625 10 0.98875 9.59719 C0.98875 9.59719 0.415 9.19438 0.415 8.50094 L0.415 5.66891 C0.415 5.66891 0.415 4.97562 0.98875 4.57031 C0.98875 4.57031 1.5625 4.165 2.5 4.165 L3.335 4.165 L3.335 4.165 Z M2.5 4.585 C2.5 4.585 2.25094 4.585 2.05078 4.63391 C2.05078 4.63391 1.85062 4.68266 1.72359 4.75594 C1.72359 4.75594 1.59672 4.82906 1.50391 4.94875 C1.50391 4.94875 1.41109 5.06828 1.36219 5.17328 C1.36219 5.17328 1.31344 5.27828 1.28656 5.42484 C1.28656 5.42484 1.25984 5.57125 1.25484 5.66656 C1.25484 5.66656 1.25 5.76172 1.25 5.89359 L1.25 8.27141 C1.25 8.27141 1.25 8.40328 1.25484 8.50094 C1.25484 8.50094 1.25984 8.59859 1.28656 8.74516 C1.28656 8.74516 1.31344 8.89156 1.36219 8.99656 C1.36219 8.99656 1.41109 9.10156 1.50391 9.21875 C1.50391 9.21875 1.59672 9.33594 1.72359 9.41172 C1.72359 9.41172 1.85062 9.48734 2.05078 9.53625 C2.05078 9.53625 2.25094 9.585 2.5 9.585 L3.335 9.585 C3.335 9.585 3.58406 9.585 3.78422 9.53625 C3.78422 9.53625 3.98438 9.48734 4.11125 9.41172 C4.11125 9.41172 4.23828 9.33594 4.33109 9.21875 C4.33109 9.21875 4.42391 9.10156 4.47266 8.99656 C4.47266 8.99656 4.52156 8.89156 4.54828 8.74516 C4.54828 8.74516 4.57516 8.59859 4.58 8.50094 C4.58 8.50094 4.585 8.40328 4.585 8.27141 L4.585 5.89359 C4.585 5.89359 4.585 5.76172 4.58 5.66656 C4.58 5.66656 4.57516 5.57125 4.54828 5.42484 C4.54828 5.42484 4.52156 5.27828 4.47266 5.17328 C4.47266 5.17328 4.42391 5.06828 4.33109 4.94875 C4.33109 4.94875 4.23828 4.82906 4.11125 4.75594 C4.11125 4.75594 3.98438 4.68266 3.78422 4.63391 C3.78422 4.63391 3.58406 4.585 3.335 4.585 L2.5 4.585 Z"/>
  <clipPath id="Clip0">
   <path d="M0 0 L59 0 L59 58.9626 L0 58.9626 L0 0 Z" transform="translate(268.76, 175.945)"/>
  </clipPath>
  <clipPath id="Clip1">
   <path d="M0 0 L59 0 L59 58.9626 L0 58.9626 L0 0 Z" transform="translate(268.76, 175.945)"/>
  </clipPath>
 </defs>
 <g id="Fond de page">
  <path style="fill:none;stroke:#161413; stroke-width:1; stroke-linecap:butt; stroke-linejoin:miter; stroke-dasharray:none;" d="M0 0 L595.25 0 L595.25 409.25 L0 409.25 L0 0 Z" transform="translate(0.5, 0)"/>
  <g transform="translate(39.685, 55)">
   <path style="fill:none; stroke:none;" d="M0 0 L514.315 0 L514.315 146.26 L0 146.26 L0 0 Z"/>
  </g>
  <g transform="translate(124.724, 168.835)">
   <path style="fill:none; stroke:#161413; stroke-width:1.00063; stroke-linecap:butt; stroke-linejoin:round; stroke-dasharray:none;" d="M0 0 L345.827 0 L345.827 96 L0 96 L0 0 Z"/>
  </g>
  <path style="fill:none;stroke:#000000; stroke-width:0.481584; stroke-linecap:butt; stroke-linejoin:miter; stroke-dasharray:none;" id=" path5487" d="M92.0491 87.6414 L91.8336 87.6414 L91.8336 90.5446 L91.6181 91.1258 L91.4033 91.3192 L90.973 91.5125 L90.5427 91.5125 L90.1124 91.3192 L89.8976 91.1258 L89.468 91.1258 Z M92.0491 87.6414 L92.0491 90.5446 L91.8336 91.1258 L91.4033 91.5125 L90.973 91.7058 L90.3279 91.7058 L89.8976 91.5125 L89.468 91.1258 Z M91.8336 88.2221 L91.4033 87.8348 L90.973 87.6414 L90.3279 87.6414 L89.8976 87.8348 L89.468 88.2221 L89.2525 88.8027 L89.2525 89.19 L89.468 89.7706 L89.8976 90.1579 L90.3279 90.3513 L90.973 90.3513 L91.4033 90.1579 L91.8336 89.7706 Z M91.8336 88.2221 L90.973 87.8348 L90.3279 87.8348 L89.8976 88.0281 L89.6828 88.2221 L89.468 88.8027 L89.468 89.19 L89.6828 89.7706 L89.8976 89.964 L90.3279 90.1579 L90.973 90.1579 L91.8336 89.7706 Z M86.4558 87.6414 L86.4558 90.3513 L86.6713 90.3513 Z M86.4558 87.6414 L86.6713 87.6414 L86.6713 90.3513 Z M86.6713 88.8027 L86.8868 88.2221 L87.3164 87.8348 L87.7467 87.6414 L88.3919 87.6414 Z M86.6713 88.8027 L86.8868 88.4154 L87.3164 88.0281 L87.7467 87.8348 L88.3919 87.8348 L88.3919 87.6414 Z M83.2296 87.6414 L82.7993 87.8348 L82.369 88.2221 L82.1542 88.8027 L82.1542 89.19 L82.369 89.7706 L82.7993 90.1579 L83.2296 90.3513 L83.8747 90.3513 L84.3057 90.1579 L84.7353 89.7706 L84.9501 89.19 L84.9501 88.8027 L84.7353 88.2221 L84.3057 87.8348 L83.8747 87.6414 L83.2296 87.6414 Z M83.2296 87.8348 L82.7993 88.0281 L82.5845 88.2221 L82.369 88.8027 L82.369 89.19 L82.5845 89.7706 L82.7993 89.964 L83.2296 90.1579 L83.8747 90.1579 L84.3057 89.964 L84.5205 89.7706 L84.7353 89.19 L84.7353 88.8027 L84.5205 88.2221 L84.3057 88.0281 L83.8747 87.8348 L83.2296 87.8348 Z M80.2182 89.7706 L80.0034 89.964 L80.0034 90.1579 L80.2182 90.3513 L80.4337 90.3513 L80.6485 90.1579 L80.6485 89.964 L80.4337 89.7706 L80.2182 89.7706 Z M80.2182 89.964 L80.2182 90.1579 L80.4337 90.1579 L80.4337 89.964 L80.2182 89.964 Z M75.7018 87.6414 L75.7018 90.3513 L75.9166 90.3513 Z M75.7018 87.6414 L75.9166 87.6414 L75.9166 90.3513 Z M75.9166 88.4154 L76.5624 87.8348 L76.992 87.6414 L77.6371 87.6414 L78.0674 87.8348 L78.2822 88.4154 L78.2822 90.3513 Z M75.9166 88.4154 L76.5624 88.0281 L76.992 87.8348 L77.4223 87.8348 L77.8526 88.0281 L78.0674 88.4154 L78.0674 90.3513 L78.2822 90.3513 Z M72.4749 87.6414 L72.0446 87.8348 L71.615 88.2221 L71.4002 88.8027 L71.4002 89.19 L71.615 89.7706 L72.0446 90.1579 L72.4749 90.3513 L73.1207 90.3513 L73.5503 90.1579 L73.9813 89.7706 L74.1961 89.19 L74.1961 88.8027 L73.9813 88.2221 L73.5503 87.8348 L73.1207 87.6414 L72.4749 87.6414 Z M72.4749 87.8348 L72.0446 88.0281 L71.8298 88.2221 L71.615 88.8027 L71.615 89.19 L71.8298 89.7706 L72.0446 89.964 L72.4749 90.1579 L73.1207 90.1579 L73.5503 89.964 L73.7658 89.7706 L73.9813 89.19 L73.9813 88.8027 L73.7658 88.2221 L73.5503 88.0281 L73.1207 87.8348 L72.4749 87.8348 Z M69.679 86.2862 L69.4635 86.4802 L69.4635 86.6735 L69.679 86.8669 L69.8938 86.8669 L70.1093 86.6735 L70.1093 86.4802 L69.8938 86.2862 L69.679 86.2862 Z M69.679 86.4802 L69.679 86.6735 L69.8938 86.6735 L69.8938 86.4802 L69.679 86.4802 Z M69.679 87.6414 L69.679 90.3513 L69.8938 90.3513 Z M69.679 87.6414 L69.8938 87.6414 L69.8938 90.3513 Z M65.3771 87.6414 L65.3771 90.3513 L65.5923 90.3513 Z M65.3771 87.6414 L65.5923 87.6414 L65.5923 90.3513 Z M65.5923 88.4154 L66.2373 87.8348 L66.6678 87.6414 L67.3127 87.6414 L67.7433 87.8348 L67.9581 88.4154 L67.9581 90.3513 Z M65.5923 88.4154 L66.2373 88.0281 L66.6678 87.8348 L67.0979 87.8348 L67.528 88.0281 L67.7433 88.4154 L67.7433 90.3513 L67.9581 90.3513 Z M61.075 87.6414 L61.075 90.3513 L61.2903 90.3513 Z M61.075 87.6414 L61.2903 87.6414 L61.2903 90.3513 Z M61.2903 88.4154 L61.9357 87.8348 L62.3659 87.6414 L63.0112 87.6414 L63.4413 87.8348 L63.6561 88.4154 L63.6561 90.3513 Z M61.2903 88.4154 L61.9357 88.0281 L62.3659 87.8348 L62.796 87.8348 L63.226 88.0281 L63.4413 88.4154 L63.4413 90.3513 L63.6561 90.3513 Z M59.1394 87.6414 L59.1394 90.3513 L59.3546 90.3513 Z M59.1394 87.6414 L59.3546 87.6414 L59.3546 90.3513 Z M59.1394 88.2221 L58.7092 87.8348 L58.2791 87.6414 L57.6337 87.6414 L57.2036 87.8348 L56.7735 88.2221 L56.5583 88.8027 L56.5583 89.19 L56.7735 89.7706 L57.2036 90.1579 L57.6337 90.3513 L58.2791 90.3513 L58.7092 90.1579 L59.1394 89.7706 Z M59.1394 88.2221 L58.2791 87.8348 L57.6337 87.8348 L57.2036 88.0281 L56.9884 88.2221 L56.7735 88.8027 L56.7735 89.19 L56.9884 89.7706 L57.2036 89.964 L57.6337 90.1579 L58.2791 90.1579 L59.1394 89.7706 Z M54.8378 86.2862 L54.8378 90.3513 L55.0526 90.3513 Z M54.8378 86.2862 L55.0526 86.2862 L55.0526 90.3513 Z M49.245 88.6094 L53.1169 88.6094 Z M44.9435 86.2862 L44.9435 90.3513 L45.1583 90.3513 Z M44.9435 86.2862 L45.1583 86.2862 L45.1583 90.3513 Z M45.1583 88.2221 L45.5884 87.8348 L46.019 87.6414 L46.664 87.6414 L47.0945 87.8348 L47.5246 88.2221 L47.7394 88.8027 L47.7394 89.19 L47.5246 89.7706 L47.0945 90.1579 L46.664 90.3513 L46.019 90.3513 L45.5884 90.1579 L45.1583 89.7706 Z M45.1583 88.2221 L46.019 87.8348 L46.664 87.8348 L47.0945 88.0281 L47.3094 88.2221 L47.5246 88.8027 L47.5246 89.19 L47.3094 89.7706 L47.0945 89.964 L46.664 90.1579 L46.019 90.1579 L45.1583 89.7706 Z M43.0076 87.6414 L43.0076 90.3513 L43.2226 90.3513 Z M43.0076 87.6414 L43.2226 87.6414 L43.2226 90.3513 Z M43.0076 88.2221 L42.5774 87.8348 L42.1472 87.6414 L41.5019 87.6414 L41.0717 87.8348 L40.6415 88.2221 L40.4265 88.8027 L40.4265 89.19 L40.6415 89.7706 L41.0717 90.1579 L41.5019 90.3513 L42.1472 90.3513 L42.5774 90.1579 L43.0076 89.7706 Z M43.0076 88.2221 L42.1472 87.8348 L41.5019 87.8348 L41.0717 88.0281 L40.8566 88.2221 L40.6415 88.8027 L40.6415 89.19 L40.8566 89.7706 L41.0717 89.964 L41.5019 90.1579 L42.1472 90.1579 L43.0076 89.7706 Z M38.7057 86.2862 L38.7057 90.3513 L38.9208 90.3513 Z M38.7057 86.2862 L38.9208 86.2862 L38.9208 90.3513 Z M34.4039 86.2862 L34.4039 90.3513 L34.6189 90.3513 Z M34.4039 86.2862 L34.6189 86.2862 L34.6189 90.3513 Z M34.6189 88.2221 L35.0492 87.8348 L35.4793 87.6414 L36.1246 87.6414 L36.5547 87.8348 L36.985 88.2221 L37.2001 88.8027 L37.2001 89.19 L36.985 89.7706 L36.5547 90.1579 L36.1246 90.3513 L35.4793 90.3513 L35.0492 90.1579 L34.6189 89.7706 Z M34.6189 88.2221 L35.4793 87.8348 L36.1246 87.8348 L36.5547 88.0281 L36.7699 88.2221 L36.985 88.8027 L36.985 89.19 L36.7699 89.7706 L36.5547 89.964 L36.1246 90.1579 L35.4793 90.1579 L34.6189 89.7706 Z M32.4681 87.6414 L32.4681 90.3513 L32.6831 90.3513 Z M32.4681 87.6414 L32.6831 87.6414 L32.6831 90.3513 Z M32.4681 88.2221 L32.0378 87.8348 L31.6077 87.6414 L30.9624 87.6414 L30.5322 87.8348 L30.102 88.2221 L29.887 88.8027 L29.887 89.19 L30.102 89.7706 L30.5322 90.1579 L30.9624 90.3513 L31.6077 90.3513 L32.0378 90.1579 L32.4681 89.7706 Z M32.4681 88.2221 L31.6077 87.8348 L30.9624 87.8348 L30.5322 88.0281 L30.3171 88.2221 L30.102 88.8027 L30.102 89.19 L30.3171 89.7706 L30.5322 89.964 L30.9624 90.1579 L31.6077 90.1579 L32.4681 89.7706 Z M28.5964 86.2862 L28.1662 86.2862 L27.736 86.4802 L27.5209 87.0602 L27.5209 90.3513 L27.736 90.3513 Z M28.5964 86.2862 L28.5964 86.4802 L28.1662 86.4802 L27.736 86.6735 Z M27.9511 86.4802 L27.736 87.0602 L27.736 90.3513 Z M26.8757 87.6414 L28.3813 87.6414 L28.3813 87.8348 Z M26.8757 87.6414 L26.8757 87.8348 L28.3813 87.8348 Z M25.5851 85.5123 L21.7135 91.7058 L21.9285 91.7058 Z M25.5851 85.5123 L25.8002 85.5123 L21.9285 91.7058 Z M20.638 85.5123 L16.7664 91.7058 L16.9814 91.7058 Z M20.638 85.5123 L20.8531 85.5123 L16.9814 91.7058 Z M15.0456 87.6414 L14.8305 87.8348 L14.8305 88.0281 L15.0456 88.2221 L15.2607 88.2221 L15.4758 88.0281 L15.4758 87.8348 L15.2607 87.6414 L15.0456 87.6414 Z M15.0456 87.8348 L15.0456 88.0281 L15.2607 88.0281 L15.2607 87.8348 L15.0456 87.8348 Z M15.0456 89.7706 L14.8305 89.964 L14.8305 90.1579 L15.0456 90.3513 L15.2607 90.3513 L15.4758 90.1579 L15.4758 89.964 L15.2607 89.7706 L15.0456 89.7706 Z M15.0456 89.964 L15.0456 90.1579 L15.2607 90.1579 L15.2607 89.964 L15.0456 89.964 Z M10.5287 87.6414 L10.5287 91.7058 L10.7438 91.7058 Z M10.5287 87.6414 L10.7438 87.6414 L10.7438 91.7058 Z M10.7438 88.2221 L11.1739 87.8348 L11.6041 87.6414 L12.2494 87.6414 L12.6796 87.8348 L13.1097 88.2221 L13.3249 88.8027 L13.3249 89.19 L13.1097 89.7706 L12.6796 90.1579 L12.2494 90.3513 L11.6041 90.3513 L11.1739 90.1579 L10.7438 89.7706 Z M10.7438 88.2221 L11.6041 87.8348 L12.2494 87.8348 L12.6796 88.0281 L12.8946 88.2221 L13.1097 88.8027 L13.1097 89.19 L12.8946 89.7706 L12.6796 89.964 L12.2494 90.1579 L11.6041 90.1579 L10.7438 89.7706 Z M8.37773 86.2862 L8.37773 90.3513 L8.59282 90.3513 Z M8.37773 86.2862 L8.59282 86.2862 L8.59282 90.3513 Z M7.73242 87.6414 L9.23813 87.6414 L9.23813 87.8348 Z M7.73242 87.6414 L7.73242 87.8348 L9.23813 87.8348 Z M6.01175 86.2862 L6.01175 90.3513 L6.22685 90.3513 Z M6.01175 86.2862 L6.22685 86.2862 L6.22685 90.3513 Z M5.36645 87.6414 L6.8721 87.6414 L6.8721 87.8348 Z M5.36645 87.6414 L5.36645 87.8348 L6.8721 87.8348 Z M1.4948 86.2862 L1.4948 90.3513 L1.7099 90.3513 Z M1.4948 86.2862 L1.7099 86.2862 L1.7099 90.3513 Z M1.7099 88.4154 L2.35517 87.8348 L2.78536 87.6414 L3.43063 87.6414 L3.86081 87.8348 L4.0759 88.4154 L4.0759 90.3513 Z M1.7099 88.4154 L2.35517 88.0281 L2.78536 87.8348 L3.21554 87.8348 L3.64572 88.0281 L3.86081 88.4154 L3.86081 90.3513 L4.0759 90.3513 Z M79.8004 75.1505 L73.7375 65.6981 C73.7471 65.9555 73.761 66.2104 73.7775 66.4622 C73.7879 66.6779 73.7969 66.906 73.8031 67.1472 C73.8128 67.3841 73.8183 67.5936 73.8183 67.7776 L73.8183 75.1505 L72.4514 75.1505 L72.4514 64.052 L74.2361 64.052 L80.3646 73.5671 C80.3481 73.3097 80.3315 73.0524 80.3163 72.795 C80.3059 72.5749 80.2956 72.3356 80.2845 72.0782 C80.2742 71.8159 80.2686 71.5666 80.2686 71.3297 L80.2686 64.052 L81.6521 64.052 L81.6521 75.1505 L79.8017 75.1505 L79.8004 75.1505 Z M70.3192 69.5499 C70.3192 70.4165 70.1908 71.2042 69.9338 71.9129 C69.6817 72.6215 69.3143 73.2283 68.8318 73.7325 C68.349 74.2366 67.7594 74.6252 67.0626 74.8987 C66.3654 75.1716 65.5749 75.3077 64.6901 75.3077 C63.7571 75.3077 62.9398 75.166 62.2377 74.8825 C61.5351 74.5935 60.9504 74.1943 60.4841 73.6852 C60.0179 73.1705 59.6669 72.5612 59.431 71.8575 C59.1947 71.1538 59.0768 70.3848 59.0768 69.5499 C59.0768 68.684 59.2001 67.9013 59.4471 67.2025 C59.6936 66.5044 60.0554 65.9107 60.5324 65.4227 C61.0098 64.9291 61.5967 64.5506 62.2935 64.2882 C62.996 64.0203 63.7999 63.8866 64.7062 63.8866 C65.6071 63.8866 66.4056 64.0203 67.1028 64.2882 C67.8049 64.5561 68.3923 64.9366 68.864 65.4302 C69.3412 65.9238 69.7025 66.52 69.9497 67.2181 C70.1963 67.9168 70.3192 68.6939 70.3192 69.5499 L70.3192 69.5499 Z M68.7514 69.5499 C68.7514 68.8829 68.663 68.2768 68.4861 67.7303 C68.3146 67.1839 68.0569 66.717 67.7138 66.3285 C67.3762 65.94 66.9554 65.6403 66.4512 65.4302 C65.9474 65.2201 65.3659 65.1156 64.7062 65.1156 C64.0309 65.1156 63.4382 65.2201 62.9291 65.4302 C62.4199 65.6403 61.9938 65.94 61.6503 66.3285 C61.3127 66.717 61.0581 67.1839 60.8861 67.7303 C60.72 68.2768 60.6369 68.8829 60.6369 69.5499 C60.6369 70.217 60.7226 70.8287 60.8946 71.3851 C61.0715 71.9365 61.3287 72.4145 61.6664 72.8186 C62.0094 73.2177 62.4333 73.5304 62.9371 73.7561 C63.4462 73.9768 64.0304 74.0868 64.6901 74.0868 C65.3981 74.0868 66.0064 73.9737 66.5155 73.7486 C67.0305 73.5223 67.4512 73.2103 67.7781 72.8112 C68.1105 72.4071 68.3548 71.9259 68.5102 71.3695 C68.671 70.8125 68.7514 70.2064 68.7514 69.5499 L68.7514 69.5499 Z M55.2491 75.1505 L55.2491 64.052 L56.7851 64.052 L56.7851 75.1505 L55.2491 75.1505 Z M50.5287 75.1505 L44.4651 65.6981 C44.4755 65.9555 44.489 66.2104 44.5056 66.4622 C44.5159 66.6779 44.5245 66.906 44.5306 67.1472 C44.5409 67.3841 44.5463 67.5936 44.5463 67.7776 L44.5463 75.1505 L43.1792 75.1505 L43.1792 64.052 L44.9645 64.052 L51.0923 73.5671 C51.0753 73.3097 51.0597 73.0524 51.0445 72.795 C51.0343 72.5749 51.0235 72.3356 51.0124 72.0782 C51.0021 71.8159 50.9967 71.5666 50.9967 71.3297 L50.9967 64.052 L52.38 64.052 L52.38 75.1505 L50.53 75.1505 L50.5287 75.1505 Z M38.6267 75.1505 L32.5632 65.6981 C32.5735 65.9555 32.5871 66.2104 32.6036 66.4622 C32.614 66.6779 32.6226 66.906 32.6287 67.1472 C32.639 67.3841 32.6444 67.5936 32.6444 67.7776 L32.6444 75.1505 L31.2772 75.1505 L31.2772 64.052 L33.0625 64.052 L39.1904 73.5671 C39.1736 73.3097 39.1578 73.0524 39.1426 72.795 C39.1322 72.5749 39.1216 72.3356 39.1104 72.0782 C39.1001 71.8159 39.0948 71.5666 39.0948 71.3297 L39.0948 64.052 L40.4778 64.052 L40.4778 75.1505 L38.6283 75.1505 L38.6267 75.1505 Z M28.309 75.1505 L27.0143 71.9054 L21.8515 71.9054 L20.5488 75.1505 L18.9564 75.1505 L23.5805 64.052 L25.3255 64.052 L29.8772 75.1505 L28.309 75.1505 Z M25.1004 67.0689 C25.0147 66.8588 24.9315 66.6462 24.8511 66.4311 C24.7758 66.2154 24.7088 66.0214 24.6501 65.848 C24.5912 65.6689 24.5402 65.5222 24.4972 65.4066 C24.4598 65.286 24.438 65.2126 24.4317 65.1859 C24.4214 65.212 24.3971 65.286 24.359 65.4066 C24.3216 65.5278 24.2707 65.677 24.2062 65.8554 C24.1473 66.0345 24.0776 66.2309 23.9972 66.4466 C23.922 66.6617 23.8443 66.8743 23.7639 67.0844 L22.3164 70.7317 L26.5545 70.7317 L25.0989 67.0689 L25.1004 67.0689 Z M11.1077 75.1505 L11.1077 64.052 L12.6436 64.052 L12.6436 73.9214 L18.3693 73.9214 L18.3693 75.1505 L11.1077 75.1505 Z M42.7187 10.4265 L35.7933 10.4414 L22.5087 45.0883 L28.5014 45.0883 L31.6621 36.8961 L45.9006 36.8662 L53.7007 57.6133 L61.3131 57.6245 L42.7187 10.4304 L42.7187 10.4265 Z M38.8 18.4539 L43.9389 31.7806 L33.682 31.803 L38.8 18.454 L38.8 18.4539 Z M63.6865 9.66897 L63.7164 31.855 L75.402 31.8447 C86.3391 31.7466 85.0738 21.4821 79.0958 20.4706 C84.4791 18.1784 83.1682 9.76533 76.943 9.6699 L63.6865 9.66897 Z M75.114 13.3904 C78.7201 13.4007 78.7526 18.9214 75.114 18.9406 L68.5214 18.9406 L68.5214 13.3941 L75.114 13.3904 Z M68.5424 22.3585 L75.8758 22.3585 C79.8073 22.5527 79.5641 27.9194 75.8758 28.1935 L68.5174 28.1935 L68.5424 22.3585 Z M4.81856 0 C2.15824 0 0 1.94223 0 4.33632 L0 79.6855 C0 82.0795 2.15824 84.0215 4.81856 84.0215 L88.7248 84.0215 C91.3853 84.0215 93.543 82.0795 93.543 79.6855 L93.543 4.33632 C93.543 1.94223 91.3853 0 88.7248 0 L4.81856 0 Z M4.81856 0.961482 L88.7248 0.961482 C90.8113 0.961482 92.4745 2.45831 92.4745 4.33632 L92.4745 79.6855 C92.4745 81.5635 90.8113 83.0598 88.7248 83.0598 L4.81856 83.0598 C2.73172 83.0598 1.06842 81.5635 1.06842 79.6855 L1.06842 4.33632 C1.06842 2.45831 2.73172 0.961482 4.81856 0.961482 Z M63.8035 35.4308 L63.8325 57.6169 L75.5181 57.6057 C86.4545 57.5072 85.1898 47.2431 79.2119 46.2314 C84.5951 43.9392 83.2842 35.5261 77.059 35.4308 L63.8035 35.4308 Z M75.2307 39.1521 C78.8361 39.1634 78.87 44.6831 75.2307 44.7024 L68.6384 44.7024 L68.6384 39.1559 L75.2307 39.1521 Z M68.6594 48.1201 L75.9933 48.1201 C79.924 48.3146 79.6816 53.6812 75.9933 53.9553 L68.6344 53.9553 L68.6594 48.1201 Z M10.6412 9.96873 L27.1918 9.99024 L27.2043 13.7915 L15.4606 13.7699 L15.4481 19.4771 L25.2525 19.4883 L25.2525 22.979 L15.46 22.979 L15.46 32.1661 L10.6412 32.1661 L10.6412 9.96873 Z M10.6287 35.4419 L15.3883 35.4419 L15.3883 53.8162 L28.0006 53.8162 L28.0006 57.596 L10.6408 57.596 L10.6287 35.4419 Z" transform="translate(469.162, 295.241)"/>
  <g transform="translate(39.685, 55)">
   <use style="fill:#161413;stroke:none;" xlink:href="#GlSalaryman84" transform="matrix(7.2 0 0 7.2 23.629 -17.99)"/>
   <use style="fill:#161413;stroke:none;" xlink:href="#GlSalaryman82" transform="matrix(7.2 0 0 7.2 88.141 -17.99)"/>
   <use style="fill:#161413;stroke:none;" xlink:href="#GlSalaryman69" transform="matrix(7.2 0 0 7.2 155.749 -17.99)"/>
   <use style="fill:#161413;stroke:none;" xlink:href="#GlSalaryman78" transform="matrix(7.2 0 0 7.2 222.709 -17.99)"/>
   <use style="fill:#161413;stroke:none;" xlink:href="#GlSalaryman68" transform="matrix(7.2 0 0 7.2 289.093 -17.99)"/>
   <use style="fill:#161413;stroke:none;" xlink:href="#GlSalaryman69" transform="matrix(7.2 0 0 7.2 356.053 -17.99)"/>
   <use style="fill:#161413;stroke:none;" xlink:href="#GlSalaryman82" transform="matrix(7.2 0 0 7.2 423.013 -17.99)"/>
   <path style="fill:none; stroke:none;" d="M0 0 L515.065 0 L515.065 99 L0 99 L0 0 Z"/>
  </g>
  <g transform="translate(125.183, 241.155)">
   <use style="fill:#161413;stroke:none;" xlink:href="#GlGputeks-Regular104" transform="matrix(1.2 0 0 1.2 75.9102 -2.50195)"/>
   <use style="fill:#161413;stroke:none;" xlink:href="#GlGputeks-Regular116" transform="matrix(1.2 0 0 1.2 83.1582 -2.50195)"/>
   <use style="fill:#161413;stroke:none;" xlink:href="#GlGputeks-Regular116" transform="matrix(1.2 0 0 1.2 87.9043 -2.50195)"/>
   <use style="fill:#161413;stroke:none;" xlink:href="#GlGputeks-Regular112" transform="matrix(1.2 0 0 1.2 92.1523 -2.50195)"/>
   <use style="fill:#161413;stroke:none;" xlink:href="#GlGputeks-Regular58" transform="matrix(1.2 0 0 1.2 99.4004 -2.50195)"/>
   <use style="fill:#161413;stroke:none;" xlink:href="#GlGputeks-Regular47" transform="matrix(1.2 0 0 1.2 101.65 -2.50195)"/>
   <use style="fill:#161413;stroke:none;" xlink:href="#GlGputeks-Regular47" transform="matrix(1.2 0 0 1.2 108.271 -2.50195)"/>
   <use style="fill:#161413;stroke:none;" xlink:href="#GlGputeks-Regular116" transform="matrix(1.2 0 0 1.2 114.893 -2.50195)"/>
   <use style="fill:#161413;stroke:none;" xlink:href="#GlGputeks-Regular114" transform="matrix(1.2 0 0 1.2 119.639 -2.50195)"/>
   <use style="fill:#161413;stroke:none;" xlink:href="#GlGputeks-Regular101" transform="matrix(1.2 0 0 1.2 123.389 -2.50195)"/>
   <use style="fill:#161413;stroke:none;" xlink:href="#GlGputeks-Regular110" transform="matrix(1.2 0 0 1.2 130.637 -2.50195)"/>
   <use style="fill:#161413;stroke:none;" xlink:href="#GlGputeks-Regular100" transform="matrix(1.2 0 0 1.2 137.885 -2.50195)"/>
   <use style="fill:#161413;stroke:none;" xlink:href="#GlGputeks-Regular101" transform="matrix(1.2 0 0 1.2 145.133 -2.50195)"/>
   <use style="fill:#161413;stroke:none;" xlink:href="#GlGputeks-Regular114" transform="matrix(1.2 0 0 1.2 152.381 -2.50195)"/>
   <use style="fill:#161413;stroke:none;" xlink:href="#GlGputeks-Regular46" transform="matrix(1.2 0 0 1.2 156.629 -2.50195)"/>
   <use style="fill:#161413;stroke:none;" xlink:href="#GlGputeks-Regular102" transform="matrix(1.2 0 0 1.2 159.875 -2.50195)"/>
   <use style="fill:#161413;stroke:none;" xlink:href="#GlGputeks-Regular97" transform="matrix(1.2 0 0 1.2 163.619 -2.50195)"/>
   <use style="fill:#161413;stroke:none;" xlink:href="#GlGputeks-Regular98" transform="matrix(1.2 0 0 1.2 170.867 -2.50195)"/>
   <use style="fill:#161413;stroke:none;" xlink:href="#GlGputeks-Regular108" transform="matrix(1.2 0 0 1.2 178.115 -2.50195)"/>
   <use style="fill:#161413;stroke:none;" xlink:href="#GlGputeks-Regular97" transform="matrix(1.2 0 0 1.2 181.865 -2.50195)"/>
   <use style="fill:#161413;stroke:none;" xlink:href="#GlGputeks-Regular98" transform="matrix(1.2 0 0 1.2 189.113 -2.50195)"/>
   <use style="fill:#161413;stroke:none;" xlink:href="#GlGputeks-Regular45" transform="matrix(1.2 0 0 1.2 196.361 -2.50195)"/>
   <use style="fill:#161413;stroke:none;" xlink:href="#GlGputeks-Regular108" transform="matrix(1.2 0 0 1.2 204.107 -2.50195)"/>
   <use style="fill:#161413;stroke:none;" xlink:href="#GlGputeks-Regular97" transform="matrix(1.2 0 0 1.2 207.857 -2.50195)"/>
   <use style="fill:#161413;stroke:none;" xlink:href="#GlGputeks-Regular110" transform="matrix(1.2 0 0 1.2 215.105 -2.50195)"/>
   <use style="fill:#161413;stroke:none;" xlink:href="#GlGputeks-Regular110" transform="matrix(1.2 0 0 1.2 222.354 -2.50195)"/>
   <use style="fill:#161413;stroke:none;" xlink:href="#GlGputeks-Regular105" transform="matrix(1.2 0 0 1.2 229.602 -2.50195)"/>
   <use style="fill:#161413;stroke:none;" xlink:href="#GlGputeks-Regular111" transform="matrix(1.2 0 0 1.2 233.352 -2.50195)"/>
   <use style="fill:#161413;stroke:none;" xlink:href="#GlGputeks-Regular110" transform="matrix(1.2 0 0 1.2 240.6 -2.50195)"/>
   <use style="fill:#161413;stroke:none;" xlink:href="#GlGputeks-Regular46" transform="matrix(1.2 0 0 1.2 247.848 -2.50195)"/>
   <use style="fill:#161413;stroke:none;" xlink:href="#GlGputeks-Regular111" transform="matrix(1.2 0 0 1.2 251.094 -2.50195)"/>
   <use style="fill:#161413;stroke:none;" xlink:href="#GlGputeks-Regular114" transform="matrix(1.2 0 0 1.2 258.342 -2.50195)"/>
   <use style="fill:#161413;stroke:none;" xlink:href="#GlGputeks-Regular103" transform="matrix(1.2 0 0 1.2 262.092 -2.50195)"/>
   <path style="fill:none; stroke:none;" d="M0 0 L346.155 0 L346.155 16.5689 L0 16.5689 L0 0 Z"/>
  </g>
  <g id="svg12385" clip-path="url(#Clip0)">
   <g id="layer1" clip-path="url(#Clip1)">
    <path style="fill:#231f20; fill-rule:nonzero;stroke:none;" id=" path5252" d="M51.9451 58.9626 C55.8366 58.9626 59 55.8184 59 51.9227 L59 7.05187 C59 3.16201 55.8366 0 51.9451 0 L7.05496 0 C3.15741 0 0 3.16201 0 7.05187 L0 51.9227 C0 55.8184 3.15741 58.9626 7.05496 58.9626 L51.9451 58.9626 Z" transform="translate(268.76, 175.945)"/>
    <path style="fill:#ffffff; fill-rule:nonzero;stroke:none;" id=" path5254" d="M5.8612 0 C2.6262 0 0 2.6191 0 5.85271 L0 50.7235 C0 53.9452 2.6262 56.5702 5.8612 56.5702 L50.7513 56.5702 C53.9803 56.5702 56.6066 53.9452 56.6066 50.7235 L56.6066 5.85271 C56.6066 2.6191 53.9803 0 50.7513 0 L5.8612 0 Z" transform="translate(269.954, 177.145)"/>
    <path style="fill:#231f20; fill-rule:nonzero;stroke:none;" id=" path5256" d="M6.47597 12.9583 C10.0512 12.9583 12.9519 10.0528 12.9519 6.47319 C12.9519 2.89355 10.0512 0 6.47597 0 C2.89479 0 0 2.89355 0 6.47319 C0 10.0528 2.89479 12.9583 6.47597 12.9583 Z" transform="translate(291.888, 182.735)"/>
    <path style="fill:#231f20; fill-rule:nonzero;stroke:none;" id=" path5258" d="M20.8366 21.1974 L20.8366 21.1974 L28.3093 18.7215 L28.1481 18.6857 C22.9912 17.1703 24.9907 10.357 30.1476 11.8784 L30.8519 12.1231 L30.8519 4.43279 L20.8366 7.7022 L10.8212 4.43279 L10.8212 12.1231 L11.5255 11.8784 C16.6823 10.357 18.6938 17.1703 13.5309 18.6857 L13.3578 18.7215 L20.8366 21.1974 Z M27.2767 0 C30.2371 0.101423 31.4846 2.47592 31.4846 2.47592 L41.0463 15.5833 C41.4463 16.1681 41.679 16.878 41.679 17.6476 C41.679 19.6821 40.0198 21.3407 37.9784 21.3407 C37.4891 21.3407 37.0414 21.2332 36.6236 21.0721 L30.8519 19.4673 L30.8519 25.2245 L10.8212 25.2245 L10.8212 19.4673 L5.04948 21.0721 C4.64361 21.2332 4.17805 21.3407 3.68862 21.3407 C1.65331 21.3407 0 19.6821 0 17.6476 C0 16.878 0.226808 16.1681 0.644615 15.5833 L10.1944 2.47592 C10.1944 2.47592 11.4478 0.101423 14.3964 0 L27.2767 0 Z" transform="translate(277.385, 197.274)"/>
    <path style="fill:#231f20; fill-rule:nonzero;stroke:none;" id=" path5260" d="M41.3567 1.84351 C41.8701 1.84351 42.2759 1.43185 42.2759 0.924738 C42.2759 0.411658 41.8701 0 41.3567 0 L0.919174 0 C0.417804 0 0 0.411658 0 0.924738 C0 1.43185 0.417804 1.84351 0.919174 1.84351 L41.3567 1.84351 Z" transform="translate(277.45, 225.183)"/>
   </g>
  </g>
 </g>
</svg>
