<?xml version="1.0" encoding="UTF-8" standalone="no"?>
<!-- Created with Inkscape (http://www.inkscape.org/) -->

<svg
   xmlns:dc="http://purl.org/dc/elements/1.1/"
   xmlns:cc="http://creativecommons.org/ns#"
   xmlns:rdf="http://www.w3.org/1999/02/22-rdf-syntax-ns#"
   xmlns:svg="http://www.w3.org/2000/svg"
   xmlns="http://www.w3.org/2000/svg"
   xmlns:sodipodi="http://sodipodi.sourceforge.net/DTD/sodipodi-0.dtd"
   xmlns:inkscape="http://www.inkscape.org/namespaces/inkscape"
   width="74.055786mm"
   height="80.660858mm"
   viewBox="0 0 262.40239 285.80619"
   id="svg4923"
   version="1.1"
   inkscape:version="0.48.5 r10040"
   sodipodi:docname="logo_fablab-decoupeuse.svg">
  <defs
     id="defs4925" />
  <sodipodi:namedview
     id="base"
     pagecolor="#ffffff"
     bordercolor="#666666"
     borderopacity="1.0"
     inkscape:pageopacity="0.0"
     inkscape:pageshadow="2"
     inkscape:zoom="3.4416213"
     inkscape:cx="200.28733"
     inkscape:cy="200.45505"
     inkscape:document-units="px"
     inkscape:current-layer="g5437"
     showgrid="false"
     fit-margin-top="0"
     fit-margin-left="0"
     fit-margin-right="0"
     fit-margin-bottom="0"
     inkscape:window-width="1920"
     inkscape:window-height="1018"
     inkscape:window-x="-8"
     inkscape:window-y="-8"
     inkscape:window-maximized="1" />
  <metadata
     id="metadata4928">
    <rdf:RDF>
      <cc:Work
         rdf:about="">
        <dc:format>image/svg+xml</dc:format>
        <dc:type
           rdf:resource="http://purl.org/dc/dcmitype/StillImage" />
        <dc:title></dc:title>
      </cc:Work>
    </rdf:RDF>
  </metadata>
  <g
     inkscape:label="Calque 1"
     inkscape:groupmode="layer"
     id="layer1"
     transform="translate(-236.97858,-324.31625)">
    <g
       style="display:inline;stroke:#000000"
       inkscape:label="Hershey Text"
       transform="matrix(0.60197956,0,0,0.60197956,239.05517,600.18978)"
       id="g5437">
      <path
         d="m -50.942487,-69.531597 -28.190492,-48.831223 c 0.04818,1.32911 0.1113,2.64461 0.188379,3.94614 0.04817,1.11283 0.08804,2.29311 0.116283,3.54049 0.04817,1.22064 0.07309,2.30589 0.07309,3.25592 l 0,38.088673 -6.355365,0 0,-57.337163 8.299949,0 28.489008,49.157982 c -0.07808,-1.329281 -0.151168,-2.658728 -0.222267,-3.988341 -0.04818,-1.13891 -0.09801,-2.373171 -0.149507,-3.702784 -0.04817,-1.356524 -0.07309,-2.645106 -0.07309,-3.865912 l 0,-37.600945 6.430783,0 0,57.337163 -8.599627,0 z m -44.080068,-28.93271 c 0,4.476232 -0.598027,8.545639 -1.793914,12.208056 -1.171635,3.662417 -2.8795,6.795746 -5.123261,9.399821 -2.2431,2.604407 -4.98456,4.61195 -8.2247,6.02263 -3.23998,1.411011 -6.91635,2.116517 -11.02895,2.116517 -4.33752,0 -8.13865,-0.732583 -11.40337,-2.197583 -3.2654,-1.491911 -5.9826,-3.553443 -8.15128,-6.184928 -2.16801,-2.65906 -3.80046,-5.806343 -4.89734,-9.441516 -1.09705,-3.635506 -1.64557,-7.609727 -1.64557,-11.922997 0,-4.476233 0.57344,-8.518393 1.72049,-12.126493 1.14638,-3.60843 2.82883,-6.67415 5.04751,-9.19699 2.21818,-2.55025 4.94735,-4.50347 8.18749,-5.85983 3.26506,-1.3836 7.00389,-2.07549 11.21649,-2.07549 4.18736,0 7.90127,0.69189 11.14191,2.07549 3.2649,1.38393 5.99406,3.35078 8.18765,5.90036 2.217854,2.55042 3.900303,5.6296 5.047352,9.23769 1.146384,3.60793 1.719493,7.62302 1.719493,12.045263 z m -7.290445,0 c 0,-3.445463 -0.41115,-6.578793 -1.2336,-9.399823 -0.7977,-2.82185 -1.99425,-5.23639 -3.58982,-7.24377 -1.56999,-2.0077 -3.52653,-3.5541 -5.86947,-4.63936 -2.34294,-1.08475 -5.04735,-1.62713 -8.11307,-1.62713 -3.14063,0 -5.89488,0.54238 -8.2629,1.62713 -2.36736,1.08526 -4.34882,2.63166 -5.94439,4.63936 -1.57048,2.00738 -2.75458,4.42192 -3.55211,7.24377 -0.77279,2.82103 -1.15918,5.95436 -1.15918,9.399823 0,3.445134 0.39902,6.605374 1.19689,9.480887 0.82245,2.8491 2.01867,5.317955 3.58882,7.406564 1.59557,2.061698 3.56474,3.676038 5.90768,4.842689 2.36735,1.139574 5.08422,1.709361 8.15077,1.709361 3.28965,0 6.11848,-0.583409 8.4865,-1.75006 2.39311,-1.166319 4.34982,-2.780327 5.86997,-4.842025 1.5454,-2.089273 2.67949,-4.571584 3.40228,-7.447096 0.7477,-2.875846 1.12163,-6.009341 1.12163,-9.40032 z m -62.77389,28.93271 0,-57.337163 7.14077,0 0,57.337163 z m -21.9466,0 -28.19032,-48.831223 c 0.0482,1.32911 0.1113,2.64461 0.18838,3.94614 0.0482,1.11283 0.088,2.29311 0.11628,3.54049 0.0482,1.22064 0.0731,2.30589 0.0731,3.25592 l 0,38.088673 -6.35603,0 0,-57.337163 8.30012,0 28.48934,49.157982 c -0.0781,-1.329281 -0.15117,-2.658728 -0.2221,-3.988341 -0.0482,-1.13891 -0.098,-2.373171 -0.14951,-3.702784 -0.0482,-1.356524 -0.0731,-2.645106 -0.0731,-3.865912 l 0,-37.600945 6.43078,0 0,57.337163 -8.59946,0 z m -55.3336,0 -28.19083,-48.831223 c 0.0482,1.32911 0.1113,2.64461 0.18838,3.94614 0.0482,1.11283 0.088,2.29311 0.11628,3.54049 0.0482,1.22064 0.0731,2.30589 0.0731,3.25592 l 0,38.088673 -6.35636,0 0,-57.337163 8.29994,0 28.48984,49.157982 c -0.0781,-1.329281 -0.15117,-2.658728 -0.2221,-3.988341 -0.0482,-1.13891 -0.098,-2.373171 -0.1495,-3.702784 -0.0482,-1.356524 -0.0731,-2.645106 -0.0731,-3.865912 l 0,-37.600945 6.43029,0 0,57.337163 -8.59897,0 z m -47.96907,0 -6.01931,-16.765187 -24.00314,0 -6.05602,16.765187 -7.40357,0 21.49823,-57.337163 8.11324,0 21.16151,57.337163 z m -14.91729,-41.750923 c -0.39868,-1.08541 -0.78507,-2.18429 -1.15917,-3.29645 -0.34968,-1.1125 -0.66132,-2.11619 -0.93475,-3.01107 -0.2736,-0.92262 -0.51048,-1.68228 -0.71049,-2.27881 -0.17393,-0.62411 -0.27526,-1.00386 -0.30433,-1.13941 -0.0482,0.13455 -0.16114,0.51497 -0.33805,1.13941 -0.17393,0.62377 -0.41065,1.39672 -0.71049,2.31885 -0.27376,0.92278 -0.5977,1.94043 -0.97179,3.05259 -0.34935,1.11216 -0.71083,2.21087 -1.08443,3.29613 l -6.72979,18.841167 19.70349,0 -6.76701,-18.922407 z m -65.0547,41.750923 0,-57.337163 7.14078,0 0,50.988941 26.62017,0 0,6.348222 z m 146.96546,-334.379903 -32.19744,0.0772 -61.76256,178.99523 27.86108,0 14.69451,-42.32376 66.1966,-0.15449 36.26386,107.18427 35.39207,0.0581 -86.44812,-243.81615 z m -18.21873,41.47169 23.89168,68.84918 -47.68667,0.11595 23.79499,-68.96462 z m 115.70161,-45.38503 0.13954,114.61867 54.328086,-0.0532 c 50.846411,-0.50716 44.966643,-53.53583 17.173839,-58.76151 25.027594,-11.84196 18.932038,-55.30606 -10.009809,-55.79922 z m 53.127713,19.22572 c 16.763858,0.0532 16.918349,28.57484 0,28.67384 l -30.649383,0 0,-28.65452 z m -30.552363,46.33172 34.095175,0 c 18.276201,1.00322 17.148921,28.72895 0,30.14512 l -34.211465,0 z m -296.26272,-115.50984 c -12.36836,0 -22.40242,10.03405 -22.40242,22.40247 l 0,389.27254 c 0,12.36753 10.03406,22.401591 22.40242,22.401591 l 390.0946404,0 c 12.3680279,0 22.4020896,-10.034061 22.4020896,-22.401591 l 0,-389.27254 c 0,-12.36842 -10.0340617,-22.40247 -22.4020896,-22.40247 z m 0,4.96728 390.0946404,0 c 9.70182441,0 17.4343129,7.73299 17.4343129,17.43519 l 0,389.27254 c 0,9.701326 -7.73248849,17.434811 -17.4343129,17.434811 l -390.0946404,0 c -9.70216,0 -17.43514,-7.733485 -17.43514,-17.434811 l 0,-389.27254 c 0,-9.7022 7.73298,-17.43519 17.43514,-17.43519 z m 274.23124,178.07699 0.13455,114.61923 54.327098,-0.0581 c 50.846909,-0.50766 44.967141,-53.53637 17.173839,-58.76197 25.028092,-11.84242 18.932536,-55.30664 -10.009809,-55.7993 z m 53.126719,19.22572 c 16.764356,0.058 16.919345,28.57529 0,28.67397 l -30.648379,0 0,-28.65465 z m -30.551699,46.33121 34.095507,0 c 18.275703,1.00419 17.149419,28.72955 0,30.14571 l -34.211457,0 z m -269.73591,-197.10028 76.9468,0.11113 0.0581,19.63821 -54.59886,-0.11113 -0.0581,29.48436 45.58261,0.058 0,18.03365 -45.52713,0 0,47.46296 -22.40342,0 z m -0.0581,131.60131 22.12816,0 0,94.92638 58.63688,0 0,19.52708 -80.70906,0 z"
         style="fill:none;stroke:#000000"
         transform="translate(419,0)"
         id="path5487"
         inkscape:connector-curvature="0"
         sodipodi:nodetypes="ccccscccccccscccccscccscccscccscccsscccscccscccscccscccccccccscccccccscccccccccscccccccscccccccccccccccccccccccccccccccccccccccccccccccccccccccccccccccccsssssssssssssssssscccccccccccccccccccccccccccccccccc" />
    </g>
  </g>
</svg>
