<?xml version="1.0" encoding="UTF-8" standalone="no"?>
<!-- Created with Inkscape (http://www.inkscape.org/) -->
<svg
   xmlns:dc="http://purl.org/dc/elements/1.1/"
   xmlns:cc="http://creativecommons.org/ns#"
   xmlns:rdf="http://www.w3.org/1999/02/22-rdf-syntax-ns#"
   xmlns:svg="http://www.w3.org/2000/svg"
   xmlns="http://www.w3.org/2000/svg"
   xmlns:sodipodi="http://sodipodi.sourceforge.net/DTD/sodipodi-0.dtd"
   xmlns:inkscape="http://www.inkscape.org/namespaces/inkscape"
   width="744.09448819"
   height="1052.3622047"
   id="svg12385"
   sodipodi:version="0.32"
   inkscape:version="0.46+pre4"
   sodipodi:docname="library white.svg"
   inkscape:output_extension="org.inkscape.output.svg.inkscape">
  <defs
     id="defs12387">
    <inkscape:perspective
       sodipodi:type="inkscape:persp3d"
       inkscape:vp_x="0 : 526.18109 : 1"
       inkscape:vp_y="0 : 1000 : 0"
       inkscape:vp_z="744.09448 : 526.18109 : 1"
       inkscape:persp3d-origin="372.04724 : 350.78739 : 1"
       id="perspective12393" />
  </defs>
  <sodipodi:namedview
     id="base"
     pagecolor="#ffffff"
     bordercolor="#666666"
     borderopacity="1.0"
     gridtolerance="10000"
     guidetolerance="10"
     objecttolerance="10"
     inkscape:pageopacity="0.0"
     inkscape:pageshadow="2"
     inkscape:zoom="0.7"
     inkscape:cx="355.78278"
     inkscape:cy="452.4399"
     inkscape:document-units="px"
     inkscape:current-layer="layer1"
     showgrid="false"
     inkscape:window-width="1280"
     inkscape:window-height="938"
     inkscape:window-x="-4"
     inkscape:window-y="-4" />
  <metadata
     id="metadata12390">
    <rdf:RDF>
      <cc:Work
         rdf:about="">
        <dc:format>image/svg+xml</dc:format>
        <dc:type
           rdf:resource="http://purl.org/dc/dcmitype/StillImage" />
        <dc:title>Other map symbols</dc:title>
        <dc:creator>
          <cc:Agent>
            <dc:title>Mohamed Ibrahim</dc:title>
          </cc:Agent>
        </dc:creator>
        <dc:rights>
          <cc:Agent>
            <dc:title>Public Domain</dc:title>
          </cc:Agent>
        </dc:rights>
        <dc:publisher>
          <cc:Agent>
            <dc:title>clker.com</dc:title>
          </cc:Agent>
        </dc:publisher>
        <dc:subject>
          <rdf:Bag>
            <rdf:li>other map symbols</rdf:li>
          </rdf:Bag>
        </dc:subject>
        <cc:license
           rdf:resource="http://creativecommons.org/licenses/publicdomain/" />
      </cc:Work>
      <cc:License
         rdf:about="http://creativecommons.org/licenses/publicdomain/">
        <cc:permits
           rdf:resource="http://creativecommons.org/ns#Reproduction" />
        <cc:permits
           rdf:resource="http://creativecommons.org/ns#Distribution" />
        <cc:permits
           rdf:resource="http://creativecommons.org/ns#DerivativeWorks" />
      </cc:License>
    </rdf:RDF>
  </metadata>
  <g
     inkscape:label="Layer 1"
     inkscape:groupmode="layer"
     id="layer1">
    <path
       d="M 637.73726,792.68488 C 684.15787,792.68488 721.89241,755.16393 721.89241,708.67212 L 721.89241,173.1976 C 721.89241,126.77699 684.15787,89.04245 637.73726,89.04245 L 102.26274,89.04245 C 55.770935,89.04245 18.107589,126.77699 18.107589,173.1976 L 18.107589,708.67212 C 18.107589,755.16393 55.770935,792.68488 102.26274,792.68488 L 637.73726,792.68488 z"
       style="fill:#231f20;fill-opacity:1;fill-rule:nonzero;stroke:none"
       id="path5252" />
    <path
       d="M 102.26274,103.3531 C 63.673829,103.3531 32.347039,134.60869 32.347039,173.1976 L 32.347039,708.67212 C 32.347039,747.11864 63.673829,778.44543 102.26274,778.44543 L 637.73726,778.44543 C 676.25497,778.44543 707.58176,747.11864 707.58176,708.67212 L 707.58176,173.1976 C 707.58176,134.60869 676.25497,103.3531 637.73726,103.3531 L 102.26274,103.3531 z"
       style="fill:#ffffff;fill-opacity:1;fill-rule:nonzero;stroke:none"
       id="path5254" />
    <path
       d="M 371.24595,324.70535 C 413.8931,324.70535 448.49497,290.03229 448.49497,247.31394 C 448.49497,204.59559 413.8931,170.06492 371.24595,170.06492 C 328.5276,170.06492 293.99693,204.59559 293.99693,247.31394 C 293.99693,290.03229 328.5276,324.70535 371.24595,324.70535"
       style="fill:#231f20;fill-opacity:1;fill-rule:nonzero;stroke:none"
       id="path5256" />
    <path
       d="M 369.53722,596.53645 L 369.53722,596.53645 L 458.67618,566.98959 L 456.75385,566.56241 C 395.23943,548.47831 419.0905,467.17105 480.60493,485.32635 L 489.0062,488.24543 L 489.0062,396.47218 L 369.53722,435.48827 L 250.06823,396.47218 L 250.06823,488.24543 L 258.46951,485.32635 C 319.98393,467.17105 343.9774,548.47831 282.39178,566.56241 L 280.32706,566.98959 L 369.53722,596.53645 z M 446.35905,343.57262 C 481.67289,344.78297 496.55311,373.11948 496.55311,373.11948 L 610.61111,529.53984 C 615.38132,536.51717 618.15802,544.98964 618.15802,554.17409 C 618.15802,578.45235 598.36518,598.24519 574.01572,598.24519 C 568.17755,598.24519 562.83775,596.96364 557.85395,595.04131 L 489.0062,575.88925 L 489.0062,644.5946 L 250.06823,644.5946 L 250.06823,575.88925 L 181.22049,595.04131 C 176.37908,596.96364 170.82569,598.24519 164.98752,598.24519 C 140.70925,598.24519 120.98762,578.45235 120.98762,554.17409 C 120.98762,544.98964 123.69311,536.51717 128.67692,529.53984 L 242.59252,373.11948 C 242.59252,373.11948 257.54394,344.78297 292.71538,343.57262 L 446.35905,343.57262 z"
       style="fill:#231f20;fill-opacity:1;fill-rule:nonzero;stroke:none"
       id="path5258" />
    <path
       d="M 615.09653,698.63331 C 621.2195,698.63331 626.06091,693.7207 626.06091,687.66893 C 626.06091,681.54597 621.2195,676.63336 615.09653,676.63336 L 132.73516,676.63336 C 126.75459,676.63336 121.77079,681.54597 121.77079,687.66893 C 121.77079,693.7207 126.75459,698.63331 132.73516,698.63331 L 615.09653,698.63331 z"
       style="fill:#231f20;fill-opacity:1;fill-rule:nonzero;stroke:none"
       id="path5260" />
  </g>
</svg>
