M48
INCH,TZ
T1C0.039
T2C0.040
%
G90
G05
T1
X51600Y-43100
X52600Y-43100
X56000Y-32200
X57000Y-32200
X58000Y-32200
T2
X50193Y-33925
X50193Y-34925
X50193Y-35925
X50193Y-36925
X50193Y-37925
X50193Y-38925
X50193Y-39925
X50193Y-40925
X59193Y-33925
X59193Y-34925
X59193Y-35925
X59193Y-36925
X59193Y-37925
X59193Y-38925
X59193Y-39925
X59193Y-40925
T0
M30
