G04 #@! TF.FileFunction,Legend,Bot*
%FSLAX46Y46*%
G04 Gerber Fmt 4.6, Leading zero omitted, Abs format (unit mm)*
G04 Created by KiCad (PCBNEW 4.0.2+dfsg1-2~bpo8+1-stable) date mer. 29 juin 2016 11:45:21 CEST*
%MOMM*%
G01*
G04 APERTURE LIST*
%ADD10C,0.100000*%
%ADD11C,0.300000*%
%ADD12C,0.150000*%
%ADD13R,2.200000X2.200000*%
%ADD14O,2.200000X2.200000*%
%ADD15O,1.906220X3.414980*%
G04 APERTURE END LIST*
D10*
D11*
X148957142Y-103078571D02*
X148028571Y-103078571D01*
X148528571Y-103650000D01*
X148314285Y-103650000D01*
X148171428Y-103721429D01*
X148099999Y-103792857D01*
X148028571Y-103935714D01*
X148028571Y-104292857D01*
X148099999Y-104435714D01*
X148171428Y-104507143D01*
X148314285Y-104578571D01*
X148742857Y-104578571D01*
X148885714Y-104507143D01*
X148957142Y-104435714D01*
X147600000Y-103078571D02*
X147100000Y-104578571D01*
X146600000Y-103078571D01*
X146242857Y-103078571D02*
X145314286Y-103078571D01*
X145814286Y-103650000D01*
X145600000Y-103650000D01*
X145457143Y-103721429D01*
X145385714Y-103792857D01*
X145314286Y-103935714D01*
X145314286Y-104292857D01*
X145385714Y-104435714D01*
X145457143Y-104507143D01*
X145600000Y-104578571D01*
X146028572Y-104578571D01*
X146171429Y-104507143D01*
X146242857Y-104435714D01*
X148907142Y-102078571D02*
X148907142Y-100578571D01*
X148549999Y-100578571D01*
X148335714Y-100650000D01*
X148192856Y-100792857D01*
X148121428Y-100935714D01*
X148049999Y-101221429D01*
X148049999Y-101435714D01*
X148121428Y-101721429D01*
X148192856Y-101864286D01*
X148335714Y-102007143D01*
X148549999Y-102078571D01*
X148907142Y-102078571D01*
X147192856Y-101221429D02*
X147335714Y-101150000D01*
X147407142Y-101078571D01*
X147478571Y-100935714D01*
X147478571Y-100864286D01*
X147407142Y-100721429D01*
X147335714Y-100650000D01*
X147192856Y-100578571D01*
X146907142Y-100578571D01*
X146764285Y-100650000D01*
X146692856Y-100721429D01*
X146621428Y-100864286D01*
X146621428Y-100935714D01*
X146692856Y-101078571D01*
X146764285Y-101150000D01*
X146907142Y-101221429D01*
X147192856Y-101221429D01*
X147335714Y-101292857D01*
X147407142Y-101364286D01*
X147478571Y-101507143D01*
X147478571Y-101792857D01*
X147407142Y-101935714D01*
X147335714Y-102007143D01*
X147192856Y-102078571D01*
X146907142Y-102078571D01*
X146764285Y-102007143D01*
X146692856Y-101935714D01*
X146621428Y-101792857D01*
X146621428Y-101507143D01*
X146692856Y-101364286D01*
X146764285Y-101292857D01*
X146907142Y-101221429D01*
X148907142Y-99478571D02*
X148907142Y-97978571D01*
X148549999Y-97978571D01*
X148335714Y-98050000D01*
X148192856Y-98192857D01*
X148121428Y-98335714D01*
X148049999Y-98621429D01*
X148049999Y-98835714D01*
X148121428Y-99121429D01*
X148192856Y-99264286D01*
X148335714Y-99407143D01*
X148549999Y-99478571D01*
X148907142Y-99478571D01*
X147549999Y-97978571D02*
X146549999Y-97978571D01*
X147192856Y-99478571D01*
X148907142Y-97078571D02*
X148907142Y-95578571D01*
X148549999Y-95578571D01*
X148335714Y-95650000D01*
X148192856Y-95792857D01*
X148121428Y-95935714D01*
X148049999Y-96221429D01*
X148049999Y-96435714D01*
X148121428Y-96721429D01*
X148192856Y-96864286D01*
X148335714Y-97007143D01*
X148549999Y-97078571D01*
X148907142Y-97078571D01*
X146764285Y-95578571D02*
X147049999Y-95578571D01*
X147192856Y-95650000D01*
X147264285Y-95721429D01*
X147407142Y-95935714D01*
X147478571Y-96221429D01*
X147478571Y-96792857D01*
X147407142Y-96935714D01*
X147335714Y-97007143D01*
X147192856Y-97078571D01*
X146907142Y-97078571D01*
X146764285Y-97007143D01*
X146692856Y-96935714D01*
X146621428Y-96792857D01*
X146621428Y-96435714D01*
X146692856Y-96292857D01*
X146764285Y-96221429D01*
X146907142Y-96150000D01*
X147192856Y-96150000D01*
X147335714Y-96221429D01*
X147407142Y-96292857D01*
X147478571Y-96435714D01*
X148907142Y-94578571D02*
X148907142Y-93078571D01*
X148549999Y-93078571D01*
X148335714Y-93150000D01*
X148192856Y-93292857D01*
X148121428Y-93435714D01*
X148049999Y-93721429D01*
X148049999Y-93935714D01*
X148121428Y-94221429D01*
X148192856Y-94364286D01*
X148335714Y-94507143D01*
X148549999Y-94578571D01*
X148907142Y-94578571D01*
X146692856Y-93078571D02*
X147407142Y-93078571D01*
X147478571Y-93792857D01*
X147407142Y-93721429D01*
X147264285Y-93650000D01*
X146907142Y-93650000D01*
X146764285Y-93721429D01*
X146692856Y-93792857D01*
X146621428Y-93935714D01*
X146621428Y-94292857D01*
X146692856Y-94435714D01*
X146764285Y-94507143D01*
X146907142Y-94578571D01*
X147264285Y-94578571D01*
X147407142Y-94507143D01*
X147478571Y-94435714D01*
X148907142Y-91978571D02*
X148907142Y-90478571D01*
X148549999Y-90478571D01*
X148335714Y-90550000D01*
X148192856Y-90692857D01*
X148121428Y-90835714D01*
X148049999Y-91121429D01*
X148049999Y-91335714D01*
X148121428Y-91621429D01*
X148192856Y-91764286D01*
X148335714Y-91907143D01*
X148549999Y-91978571D01*
X148907142Y-91978571D01*
X147121428Y-90478571D02*
X146978571Y-90478571D01*
X146835714Y-90550000D01*
X146764285Y-90621429D01*
X146692856Y-90764286D01*
X146621428Y-91050000D01*
X146621428Y-91407143D01*
X146692856Y-91692857D01*
X146764285Y-91835714D01*
X146835714Y-91907143D01*
X146978571Y-91978571D01*
X147121428Y-91978571D01*
X147264285Y-91907143D01*
X147335714Y-91835714D01*
X147407142Y-91692857D01*
X147478571Y-91407143D01*
X147478571Y-91050000D01*
X147407142Y-90764286D01*
X147335714Y-90621429D01*
X147264285Y-90550000D01*
X147121428Y-90478571D01*
X148871428Y-88950000D02*
X148157142Y-88950000D01*
X149014285Y-89378571D02*
X148514285Y-87878571D01*
X148014285Y-89378571D01*
X147228571Y-87878571D02*
X147085714Y-87878571D01*
X146942857Y-87950000D01*
X146871428Y-88021429D01*
X146799999Y-88164286D01*
X146728571Y-88450000D01*
X146728571Y-88807143D01*
X146799999Y-89092857D01*
X146871428Y-89235714D01*
X146942857Y-89307143D01*
X147085714Y-89378571D01*
X147228571Y-89378571D01*
X147371428Y-89307143D01*
X147442857Y-89235714D01*
X147514285Y-89092857D01*
X147585714Y-88807143D01*
X147585714Y-88450000D01*
X147514285Y-88164286D01*
X147442857Y-88021429D01*
X147371428Y-87950000D01*
X147228571Y-87878571D01*
X147971428Y-86778571D02*
X148471428Y-86064286D01*
X148828571Y-86778571D02*
X148828571Y-85278571D01*
X148257143Y-85278571D01*
X148114285Y-85350000D01*
X148042857Y-85421429D01*
X147971428Y-85564286D01*
X147971428Y-85778571D01*
X148042857Y-85921429D01*
X148114285Y-85992857D01*
X148257143Y-86064286D01*
X148828571Y-86064286D01*
X147400000Y-86707143D02*
X147257143Y-86778571D01*
X146971428Y-86778571D01*
X146828571Y-86707143D01*
X146757143Y-86564286D01*
X146757143Y-86492857D01*
X146828571Y-86350000D01*
X146971428Y-86278571D01*
X147185714Y-86278571D01*
X147328571Y-86207143D01*
X147400000Y-86064286D01*
X147400000Y-85992857D01*
X147328571Y-85850000D01*
X147185714Y-85778571D01*
X146971428Y-85778571D01*
X146828571Y-85850000D01*
X146328571Y-85778571D02*
X145757142Y-85778571D01*
X146114285Y-85278571D02*
X146114285Y-86564286D01*
X146042857Y-86707143D01*
X145899999Y-86778571D01*
X145757142Y-86778571D01*
X130285713Y-103178571D02*
X130999999Y-103178571D01*
X131071428Y-103892857D01*
X130999999Y-103821429D01*
X130857142Y-103750000D01*
X130499999Y-103750000D01*
X130357142Y-103821429D01*
X130285713Y-103892857D01*
X130214285Y-104035714D01*
X130214285Y-104392857D01*
X130285713Y-104535714D01*
X130357142Y-104607143D01*
X130499999Y-104678571D01*
X130857142Y-104678571D01*
X130999999Y-104607143D01*
X131071428Y-104535714D01*
X129785714Y-103178571D02*
X129285714Y-104678571D01*
X128785714Y-103178571D01*
X129107143Y-100750000D02*
X129250000Y-100678571D01*
X129464286Y-100678571D01*
X129678571Y-100750000D01*
X129821429Y-100892857D01*
X129892857Y-101035714D01*
X129964286Y-101321429D01*
X129964286Y-101535714D01*
X129892857Y-101821429D01*
X129821429Y-101964286D01*
X129678571Y-102107143D01*
X129464286Y-102178571D01*
X129321429Y-102178571D01*
X129107143Y-102107143D01*
X129035714Y-102035714D01*
X129035714Y-101535714D01*
X129321429Y-101535714D01*
X131207142Y-99678571D02*
X131207142Y-98178571D01*
X130849999Y-98178571D01*
X130635714Y-98250000D01*
X130492856Y-98392857D01*
X130421428Y-98535714D01*
X130349999Y-98821429D01*
X130349999Y-99035714D01*
X130421428Y-99321429D01*
X130492856Y-99464286D01*
X130635714Y-99607143D01*
X130849999Y-99678571D01*
X131207142Y-99678571D01*
X129064285Y-98678571D02*
X129064285Y-99678571D01*
X129421428Y-98107143D02*
X129778571Y-99178571D01*
X128849999Y-99178571D01*
X131207142Y-97078571D02*
X131207142Y-95578571D01*
X130849999Y-95578571D01*
X130635714Y-95650000D01*
X130492856Y-95792857D01*
X130421428Y-95935714D01*
X130349999Y-96221429D01*
X130349999Y-96435714D01*
X130421428Y-96721429D01*
X130492856Y-96864286D01*
X130635714Y-97007143D01*
X130849999Y-97078571D01*
X131207142Y-97078571D01*
X129849999Y-95578571D02*
X128921428Y-95578571D01*
X129421428Y-96150000D01*
X129207142Y-96150000D01*
X129064285Y-96221429D01*
X128992856Y-96292857D01*
X128921428Y-96435714D01*
X128921428Y-96792857D01*
X128992856Y-96935714D01*
X129064285Y-97007143D01*
X129207142Y-97078571D01*
X129635714Y-97078571D01*
X129778571Y-97007143D01*
X129849999Y-96935714D01*
X131207142Y-94478571D02*
X131207142Y-92978571D01*
X130849999Y-92978571D01*
X130635714Y-93050000D01*
X130492856Y-93192857D01*
X130421428Y-93335714D01*
X130349999Y-93621429D01*
X130349999Y-93835714D01*
X130421428Y-94121429D01*
X130492856Y-94264286D01*
X130635714Y-94407143D01*
X130849999Y-94478571D01*
X131207142Y-94478571D01*
X129778571Y-93121429D02*
X129707142Y-93050000D01*
X129564285Y-92978571D01*
X129207142Y-92978571D01*
X129064285Y-93050000D01*
X128992856Y-93121429D01*
X128921428Y-93264286D01*
X128921428Y-93407143D01*
X128992856Y-93621429D01*
X129849999Y-94478571D01*
X128921428Y-94478571D01*
X131207142Y-91878571D02*
X131207142Y-90378571D01*
X130849999Y-90378571D01*
X130635714Y-90450000D01*
X130492856Y-90592857D01*
X130421428Y-90735714D01*
X130349999Y-91021429D01*
X130349999Y-91235714D01*
X130421428Y-91521429D01*
X130492856Y-91664286D01*
X130635714Y-91807143D01*
X130849999Y-91878571D01*
X131207142Y-91878571D01*
X128921428Y-91878571D02*
X129778571Y-91878571D01*
X129349999Y-91878571D02*
X129349999Y-90378571D01*
X129492856Y-90592857D01*
X129635714Y-90735714D01*
X129778571Y-90807143D01*
X130349999Y-89478571D02*
X130849999Y-88764286D01*
X131207142Y-89478571D02*
X131207142Y-87978571D01*
X130635714Y-87978571D01*
X130492856Y-88050000D01*
X130421428Y-88121429D01*
X130349999Y-88264286D01*
X130349999Y-88478571D01*
X130421428Y-88621429D01*
X130492856Y-88692857D01*
X130635714Y-88764286D01*
X131207142Y-88764286D01*
X129849999Y-87978571D02*
X128849999Y-89478571D01*
X128849999Y-87978571D02*
X129849999Y-89478571D01*
X131042857Y-85378571D02*
X130185714Y-85378571D01*
X130614285Y-86878571D02*
X130614285Y-85378571D01*
X129828571Y-85378571D02*
X128828571Y-86878571D01*
X128828571Y-85378571D02*
X129828571Y-86878571D01*
D10*
X149762480Y-106014181D02*
X149800000Y-112800000D01*
X151706026Y-105053285D02*
X149762480Y-106014181D01*
X151681078Y-82498193D02*
X151706026Y-105053285D01*
X151565482Y-81605425D02*
X151681078Y-82498193D01*
X151337122Y-80850387D02*
X151565482Y-81605425D01*
X151009595Y-80218540D02*
X151337122Y-80850387D01*
X150596503Y-79695342D02*
X151009595Y-80218540D01*
X150111445Y-79266257D02*
X150596503Y-79695342D01*
X149568018Y-78916742D02*
X150111445Y-79266257D01*
X148979824Y-78632259D02*
X149568018Y-78916742D01*
X148360460Y-78398266D02*
X148979824Y-78632259D01*
X129322547Y-78427024D02*
X148360460Y-78398266D01*
X128724750Y-78612690D02*
X129322547Y-78427024D01*
X128180560Y-78859623D02*
X128724750Y-78612690D01*
X127689488Y-79167259D02*
X128180560Y-78859623D01*
X127251047Y-79535048D02*
X127689488Y-79167259D01*
X126864747Y-79962423D02*
X127251047Y-79535048D01*
X126530099Y-80448833D02*
X126864747Y-79962423D01*
X126246616Y-80993714D02*
X126530099Y-80448833D01*
X126013805Y-81596507D02*
X126246616Y-80993714D01*
X125999807Y-112766658D02*
X126013805Y-81596507D01*
X135080603Y-112792736D02*
X125999807Y-112766658D01*
X135078627Y-111590483D02*
X135080603Y-112792736D01*
X143909849Y-111583795D02*
X135078627Y-111590483D01*
X143900000Y-112800000D02*
X143909849Y-111583795D01*
X149800000Y-112800000D02*
X143900000Y-112800000D01*
D12*
X148590000Y-78613000D02*
X148590000Y-84963000D01*
X140970000Y-78613000D02*
X140970000Y-84963000D01*
X140970000Y-80518000D02*
X148590000Y-80518000D01*
X148590000Y-78613000D02*
X140970000Y-78613000D01*
X140970000Y-84963000D02*
X148590000Y-84963000D01*
%LPC*%
D13*
X127490000Y-103950000D03*
D14*
X127490000Y-101410000D03*
X127490000Y-98870000D03*
X127490000Y-96330000D03*
X127490000Y-93790000D03*
X127490000Y-91250000D03*
X127490000Y-88710000D03*
X127490000Y-86170000D03*
D13*
X150350000Y-103950000D03*
D14*
X150350000Y-101410000D03*
X150350000Y-98870000D03*
X150350000Y-96330000D03*
X150350000Y-93790000D03*
X150350000Y-91250000D03*
X150350000Y-88710000D03*
X150350000Y-86170000D03*
D15*
X133604000Y-109474000D03*
X131064000Y-109474000D03*
X147320000Y-81788000D03*
X144780000Y-81788000D03*
X142240000Y-81788000D03*
M02*
