G04 #@! TF.FileFunction,Copper,L1,Top,Signal*
%FSLAX46Y46*%
G04 Gerber Fmt 4.6, Leading zero omitted, Abs format (unit mm)*
G04 Created by KiCad (PCBNEW 4.0.2+dfsg1-2~bpo8+1-stable) date mer. 29 juin 2016 11:45:21 CEST*
%MOMM*%
G01*
G04 APERTURE LIST*
%ADD10C,0.100000*%
%ADD11R,1.800000X1.800000*%
%ADD12O,1.800000X1.800000*%
%ADD13R,0.600000X0.500000*%
%ADD14R,1.500000X1.000000*%
%ADD15O,1.506220X3.014980*%
%ADD16R,0.400000X0.600000*%
%ADD17R,1.699260X1.300480*%
%ADD18C,0.250000*%
%ADD19C,0.254000*%
G04 APERTURE END LIST*
D10*
X149762480Y-106014181D02*
X149800000Y-112800000D01*
X151706026Y-105053285D02*
X149762480Y-106014181D01*
X151681078Y-82498193D02*
X151706026Y-105053285D01*
X151565482Y-81605425D02*
X151681078Y-82498193D01*
X151337122Y-80850387D02*
X151565482Y-81605425D01*
X151009595Y-80218540D02*
X151337122Y-80850387D01*
X150596503Y-79695342D02*
X151009595Y-80218540D01*
X150111445Y-79266257D02*
X150596503Y-79695342D01*
X149568018Y-78916742D02*
X150111445Y-79266257D01*
X148979824Y-78632259D02*
X149568018Y-78916742D01*
X148360460Y-78398266D02*
X148979824Y-78632259D01*
X129322547Y-78427024D02*
X148360460Y-78398266D01*
X128724750Y-78612690D02*
X129322547Y-78427024D01*
X128180560Y-78859623D02*
X128724750Y-78612690D01*
X127689488Y-79167259D02*
X128180560Y-78859623D01*
X127251047Y-79535048D02*
X127689488Y-79167259D01*
X126864747Y-79962423D02*
X127251047Y-79535048D01*
X126530099Y-80448833D02*
X126864747Y-79962423D01*
X126246616Y-80993714D02*
X126530099Y-80448833D01*
X126013805Y-81596507D02*
X126246616Y-80993714D01*
X125999807Y-112766658D02*
X126013805Y-81596507D01*
X135080603Y-112792736D02*
X125999807Y-112766658D01*
X135078627Y-111590483D02*
X135080603Y-112792736D01*
X143909849Y-111583795D02*
X135078627Y-111590483D01*
X143900000Y-112800000D02*
X143909849Y-111583795D01*
X149800000Y-112800000D02*
X143900000Y-112800000D01*
D11*
X127490000Y-103950000D03*
D12*
X127490000Y-101410000D03*
X127490000Y-98870000D03*
X127490000Y-96330000D03*
X127490000Y-93790000D03*
X127490000Y-91250000D03*
X127490000Y-88710000D03*
X127490000Y-86170000D03*
D11*
X150350000Y-103950000D03*
D12*
X150350000Y-101410000D03*
X150350000Y-98870000D03*
X150350000Y-96330000D03*
X150350000Y-93790000D03*
X150350000Y-91250000D03*
X150350000Y-88710000D03*
X150350000Y-86170000D03*
D13*
X131614000Y-105410000D03*
X130514000Y-105410000D03*
D14*
X137578000Y-93548000D03*
X132678000Y-93548000D03*
X137578000Y-90348000D03*
X132678000Y-90348000D03*
X144690000Y-96850000D03*
X139790000Y-96850000D03*
X144690000Y-93650000D03*
X139790000Y-93650000D03*
X144690000Y-90246000D03*
X139790000Y-90246000D03*
X144690000Y-87046000D03*
X139790000Y-87046000D03*
D15*
X133604000Y-109474000D03*
X131064000Y-109474000D03*
D16*
X134054000Y-105410000D03*
X133154000Y-105410000D03*
D13*
X137202000Y-96774000D03*
X136102000Y-96774000D03*
D16*
X131006000Y-93726000D03*
X130106000Y-93726000D03*
D17*
X132842000Y-97563940D03*
X132842000Y-101064060D03*
D15*
X147320000Y-81788000D03*
X144780000Y-81788000D03*
X142240000Y-81788000D03*
D18*
X147320000Y-81788000D02*
X147320000Y-83820000D01*
X146050000Y-88886000D02*
X144690000Y-90246000D01*
X146050000Y-85090000D02*
X146050000Y-88886000D01*
X147320000Y-83820000D02*
X146050000Y-85090000D01*
X137202000Y-96774000D02*
X137202000Y-97324000D01*
X143242000Y-98298000D02*
X144690000Y-96850000D01*
X138176000Y-98298000D02*
X143242000Y-98298000D01*
X137202000Y-97324000D02*
X138176000Y-98298000D01*
X137202000Y-96774000D02*
X137202000Y-98510000D01*
X134647940Y-101064060D02*
X132842000Y-101064060D01*
X137202000Y-98510000D02*
X134647940Y-101064060D01*
X144690000Y-90246000D02*
X145212000Y-90246000D01*
X144690000Y-96850000D02*
X144958000Y-96850000D01*
X144958000Y-96850000D02*
X146050000Y-95758000D01*
X146050000Y-91606000D02*
X144690000Y-90246000D01*
X146050000Y-95758000D02*
X146050000Y-91606000D01*
X132842000Y-101064060D02*
X133123940Y-101064060D01*
X127490000Y-103950000D02*
X129956060Y-103950000D01*
X129956060Y-103950000D02*
X132842000Y-101064060D01*
X130106000Y-93726000D02*
X127554000Y-93726000D01*
X127554000Y-93726000D02*
X127490000Y-93790000D01*
X134054000Y-105410000D02*
X140208000Y-105410000D01*
X141668000Y-103950000D02*
X150350000Y-103950000D01*
X140208000Y-105410000D02*
X141668000Y-103950000D01*
X150350000Y-93790000D02*
X149796000Y-93790000D01*
X149796000Y-93790000D02*
X148082000Y-95504000D01*
X148082000Y-95504000D02*
X148082000Y-101346000D01*
X148082000Y-101346000D02*
X146050000Y-103378000D01*
X146050000Y-103378000D02*
X134366000Y-103378000D01*
X134366000Y-103378000D02*
X133154000Y-104590000D01*
X133154000Y-104590000D02*
X133154000Y-105410000D01*
X133154000Y-105410000D02*
X133154000Y-109024000D01*
X133154000Y-109024000D02*
X133604000Y-109474000D01*
X131614000Y-105410000D02*
X133154000Y-105410000D01*
X127490000Y-101410000D02*
X127952000Y-101410000D01*
X131064000Y-109474000D02*
X131064000Y-107950000D01*
X130514000Y-107400000D02*
X130514000Y-105410000D01*
X131064000Y-107950000D02*
X130514000Y-107400000D01*
X132842000Y-97563940D02*
X133068060Y-97563940D01*
X133068060Y-97563940D02*
X134620000Y-96012000D01*
X134620000Y-96012000D02*
X134620000Y-95250000D01*
X134620000Y-95250000D02*
X135128000Y-94742000D01*
X135128000Y-94742000D02*
X136384000Y-94742000D01*
X136384000Y-94742000D02*
X137578000Y-93548000D01*
X137578000Y-90348000D02*
X137578000Y-91096000D01*
X141224000Y-95416000D02*
X139790000Y-96850000D01*
X141224000Y-92710000D02*
X141224000Y-95416000D01*
X140716000Y-92202000D02*
X141224000Y-92710000D01*
X138684000Y-92202000D02*
X140716000Y-92202000D01*
X137578000Y-91096000D02*
X138684000Y-92202000D01*
X139790000Y-90246000D02*
X141300000Y-90246000D01*
X141300000Y-90246000D02*
X144690000Y-93636000D01*
X144690000Y-93636000D02*
X144690000Y-93650000D01*
X144780000Y-81788000D02*
X144780000Y-86956000D01*
X144780000Y-86956000D02*
X144690000Y-87046000D01*
X131006000Y-93726000D02*
X132500000Y-93726000D01*
X132500000Y-93726000D02*
X132678000Y-93548000D01*
X132436000Y-93790000D02*
X132678000Y-93548000D01*
D19*
G36*
X150885398Y-81723004D02*
X150893424Y-81749540D01*
X150996126Y-82542729D01*
X150998593Y-84772627D01*
X150967491Y-84751845D01*
X150380072Y-84635000D01*
X150319928Y-84635000D01*
X149732509Y-84751845D01*
X149234519Y-85084591D01*
X148901773Y-85582581D01*
X148784928Y-86170000D01*
X148901773Y-86757419D01*
X149234519Y-87255409D01*
X149510779Y-87440000D01*
X149234519Y-87624591D01*
X148901773Y-88122581D01*
X148784928Y-88710000D01*
X148901773Y-89297419D01*
X149234519Y-89795409D01*
X149510779Y-89980000D01*
X149234519Y-90164591D01*
X148901773Y-90662581D01*
X148784928Y-91250000D01*
X148901773Y-91837419D01*
X149234519Y-92335409D01*
X149510779Y-92520000D01*
X149234519Y-92704591D01*
X148901773Y-93202581D01*
X148800752Y-93710446D01*
X147544599Y-94966599D01*
X147379852Y-95213161D01*
X147322000Y-95504000D01*
X147322000Y-101031198D01*
X145735198Y-102618000D01*
X134366000Y-102618000D01*
X134075161Y-102675852D01*
X133828599Y-102840599D01*
X132616599Y-104052599D01*
X132451852Y-104299161D01*
X132394000Y-104590000D01*
X132394000Y-104650000D01*
X132292386Y-104650000D01*
X132165890Y-104563569D01*
X131914000Y-104512560D01*
X131314000Y-104512560D01*
X131078683Y-104556838D01*
X131054594Y-104572339D01*
X130940309Y-104525000D01*
X130799750Y-104525000D01*
X130641000Y-104683750D01*
X130641000Y-105285000D01*
X130661000Y-105285000D01*
X130661000Y-105535000D01*
X130641000Y-105535000D01*
X130641000Y-106136250D01*
X130799750Y-106295000D01*
X130940309Y-106295000D01*
X131051283Y-106249033D01*
X131062110Y-106256431D01*
X131314000Y-106307440D01*
X131914000Y-106307440D01*
X132149317Y-106263162D01*
X132294095Y-106170000D01*
X132394000Y-106170000D01*
X132394000Y-108038016D01*
X132321554Y-108146439D01*
X132320984Y-108149306D01*
X132297846Y-108071081D01*
X131955740Y-107648276D01*
X131477875Y-107388573D01*
X131405674Y-107374217D01*
X131191000Y-107496838D01*
X131191000Y-109347000D01*
X131211000Y-109347000D01*
X131211000Y-109601000D01*
X131191000Y-109601000D01*
X131191000Y-111451162D01*
X131405674Y-111573783D01*
X131477875Y-111559427D01*
X131955740Y-111299724D01*
X132297846Y-110876919D01*
X132320984Y-110798694D01*
X132321554Y-110801561D01*
X132622458Y-111251896D01*
X133072793Y-111552800D01*
X133604000Y-111658464D01*
X134135207Y-111552800D01*
X134441663Y-111348033D01*
X134419549Y-111460166D01*
X134393627Y-111591002D01*
X134393688Y-111591306D01*
X134393628Y-111591609D01*
X134394473Y-112105763D01*
X126685114Y-112083623D01*
X126686228Y-109601000D01*
X129675890Y-109601000D01*
X129675890Y-110355380D01*
X129830154Y-110876919D01*
X130172260Y-111299724D01*
X130650125Y-111559427D01*
X130722326Y-111573783D01*
X130937000Y-111451162D01*
X130937000Y-109601000D01*
X129675890Y-109601000D01*
X126686228Y-109601000D01*
X126686680Y-108592620D01*
X129675890Y-108592620D01*
X129675890Y-109347000D01*
X130937000Y-109347000D01*
X130937000Y-107496838D01*
X130722326Y-107374217D01*
X130650125Y-107388573D01*
X130172260Y-107648276D01*
X129830154Y-108071081D01*
X129675890Y-108592620D01*
X126686680Y-108592620D01*
X126687983Y-105693750D01*
X129579000Y-105693750D01*
X129579000Y-105786310D01*
X129675673Y-106019699D01*
X129854302Y-106198327D01*
X130087691Y-106295000D01*
X130228250Y-106295000D01*
X130387000Y-106136250D01*
X130387000Y-105535000D01*
X129737750Y-105535000D01*
X129579000Y-105693750D01*
X126687983Y-105693750D01*
X126688072Y-105497440D01*
X128390000Y-105497440D01*
X128625317Y-105453162D01*
X128841441Y-105314090D01*
X128986431Y-105101890D01*
X129037440Y-104850000D01*
X129037440Y-104710000D01*
X129765975Y-104710000D01*
X129675673Y-104800301D01*
X129579000Y-105033690D01*
X129579000Y-105126250D01*
X129737750Y-105285000D01*
X130387000Y-105285000D01*
X130387000Y-104683750D01*
X130311939Y-104608689D01*
X130493461Y-104487401D01*
X132619122Y-102361740D01*
X133691630Y-102361740D01*
X133926947Y-102317462D01*
X134143071Y-102178390D01*
X134288061Y-101966190D01*
X134316843Y-101824060D01*
X134647940Y-101824060D01*
X134938779Y-101766208D01*
X135185341Y-101601461D01*
X137739401Y-99047401D01*
X137806219Y-98947401D01*
X137885161Y-99000148D01*
X138176000Y-99058000D01*
X143242000Y-99058000D01*
X143532839Y-99000148D01*
X143779401Y-98835401D01*
X144617362Y-97997440D01*
X145440000Y-97997440D01*
X145675317Y-97953162D01*
X145891441Y-97814090D01*
X146036431Y-97601890D01*
X146087440Y-97350000D01*
X146087440Y-96795362D01*
X146587401Y-96295401D01*
X146752148Y-96048840D01*
X146810000Y-95758000D01*
X146810000Y-91606000D01*
X146752148Y-91315161D01*
X146752148Y-91315160D01*
X146587401Y-91068599D01*
X146087440Y-90568638D01*
X146087440Y-89923362D01*
X146587401Y-89423401D01*
X146752148Y-89176840D01*
X146767719Y-89098560D01*
X146810000Y-88886000D01*
X146810000Y-85404802D01*
X147857401Y-84357401D01*
X148022148Y-84110840D01*
X148080000Y-83820000D01*
X148080000Y-83713926D01*
X148301542Y-83565896D01*
X148602446Y-83115561D01*
X148708110Y-82584354D01*
X148708110Y-80991646D01*
X148602446Y-80460439D01*
X148301542Y-80010104D01*
X147851207Y-79709200D01*
X147320000Y-79603536D01*
X146788793Y-79709200D01*
X146338458Y-80010104D01*
X146050000Y-80441812D01*
X145761542Y-80010104D01*
X145311207Y-79709200D01*
X144780000Y-79603536D01*
X144248793Y-79709200D01*
X143798458Y-80010104D01*
X143497554Y-80460439D01*
X143496984Y-80463306D01*
X143473846Y-80385081D01*
X143131740Y-79962276D01*
X142653875Y-79702573D01*
X142581674Y-79688217D01*
X142367000Y-79810838D01*
X142367000Y-81661000D01*
X142387000Y-81661000D01*
X142387000Y-81915000D01*
X142367000Y-81915000D01*
X142367000Y-83765162D01*
X142581674Y-83887783D01*
X142653875Y-83873427D01*
X143131740Y-83613724D01*
X143473846Y-83190919D01*
X143496984Y-83112694D01*
X143497554Y-83115561D01*
X143798458Y-83565896D01*
X144020000Y-83713926D01*
X144020000Y-85898560D01*
X143940000Y-85898560D01*
X143704683Y-85942838D01*
X143488559Y-86081910D01*
X143343569Y-86294110D01*
X143292560Y-86546000D01*
X143292560Y-87546000D01*
X143336838Y-87781317D01*
X143475910Y-87997441D01*
X143688110Y-88142431D01*
X143940000Y-88193440D01*
X145290000Y-88193440D01*
X145290000Y-88571198D01*
X144762638Y-89098560D01*
X143940000Y-89098560D01*
X143704683Y-89142838D01*
X143488559Y-89281910D01*
X143343569Y-89494110D01*
X143292560Y-89746000D01*
X143292560Y-90746000D01*
X143336838Y-90981317D01*
X143475910Y-91197441D01*
X143688110Y-91342431D01*
X143940000Y-91393440D01*
X144762638Y-91393440D01*
X145290000Y-91920802D01*
X145290000Y-92502560D01*
X144631362Y-92502560D01*
X141837401Y-89708599D01*
X141590839Y-89543852D01*
X141300000Y-89486000D01*
X141127279Y-89486000D01*
X141004090Y-89294559D01*
X140791890Y-89149569D01*
X140540000Y-89098560D01*
X139040000Y-89098560D01*
X138804683Y-89142838D01*
X138606963Y-89270067D01*
X138579890Y-89251569D01*
X138328000Y-89200560D01*
X136828000Y-89200560D01*
X136592683Y-89244838D01*
X136376559Y-89383910D01*
X136231569Y-89596110D01*
X136180560Y-89848000D01*
X136180560Y-90848000D01*
X136224838Y-91083317D01*
X136363910Y-91299441D01*
X136576110Y-91444431D01*
X136828000Y-91495440D01*
X136948417Y-91495440D01*
X137040599Y-91633401D01*
X137807758Y-92400560D01*
X136828000Y-92400560D01*
X136592683Y-92444838D01*
X136376559Y-92583910D01*
X136231569Y-92796110D01*
X136180560Y-93048000D01*
X136180560Y-93870638D01*
X136069198Y-93982000D01*
X135128000Y-93982000D01*
X134837161Y-94039852D01*
X134637290Y-94173401D01*
X134590599Y-94204599D01*
X134082599Y-94712599D01*
X133917852Y-94959161D01*
X133860000Y-95250000D01*
X133860000Y-95697198D01*
X133290938Y-96266260D01*
X131992370Y-96266260D01*
X131757053Y-96310538D01*
X131540929Y-96449610D01*
X131395939Y-96661810D01*
X131344930Y-96913700D01*
X131344930Y-98214180D01*
X131389208Y-98449497D01*
X131528280Y-98665621D01*
X131740480Y-98810611D01*
X131992370Y-98861620D01*
X133691630Y-98861620D01*
X133926947Y-98817342D01*
X134143071Y-98678270D01*
X134288061Y-98466070D01*
X134339070Y-98214180D01*
X134339070Y-97367732D01*
X134649052Y-97057750D01*
X135167000Y-97057750D01*
X135167000Y-97150310D01*
X135263673Y-97383699D01*
X135442302Y-97562327D01*
X135675691Y-97659000D01*
X135816250Y-97659000D01*
X135975000Y-97500250D01*
X135975000Y-96899000D01*
X135325750Y-96899000D01*
X135167000Y-97057750D01*
X134649052Y-97057750D01*
X135157401Y-96549401D01*
X135184938Y-96508188D01*
X135325750Y-96649000D01*
X135975000Y-96649000D01*
X135975000Y-96047750D01*
X135816250Y-95889000D01*
X135675691Y-95889000D01*
X135442302Y-95985673D01*
X135371067Y-96056907D01*
X135380000Y-96012000D01*
X135380000Y-95564802D01*
X135442802Y-95502000D01*
X136384000Y-95502000D01*
X136674839Y-95444148D01*
X136921401Y-95279401D01*
X137505362Y-94695440D01*
X138328000Y-94695440D01*
X138563317Y-94651162D01*
X138611884Y-94619910D01*
X138680301Y-94688327D01*
X138913690Y-94785000D01*
X139504250Y-94785000D01*
X139663000Y-94626250D01*
X139663000Y-93777000D01*
X139643000Y-93777000D01*
X139643000Y-93523000D01*
X139663000Y-93523000D01*
X139663000Y-93503000D01*
X139917000Y-93503000D01*
X139917000Y-93523000D01*
X139937000Y-93523000D01*
X139937000Y-93777000D01*
X139917000Y-93777000D01*
X139917000Y-94626250D01*
X140075750Y-94785000D01*
X140464000Y-94785000D01*
X140464000Y-95101198D01*
X139862638Y-95702560D01*
X139040000Y-95702560D01*
X138804683Y-95746838D01*
X138588559Y-95885910D01*
X138443569Y-96098110D01*
X138392560Y-96350000D01*
X138392560Y-97350000D01*
X138413364Y-97460562D01*
X138120367Y-97167565D01*
X138149440Y-97024000D01*
X138149440Y-96524000D01*
X138105162Y-96288683D01*
X137966090Y-96072559D01*
X137753890Y-95927569D01*
X137502000Y-95876560D01*
X136902000Y-95876560D01*
X136666683Y-95920838D01*
X136642594Y-95936339D01*
X136528309Y-95889000D01*
X136387750Y-95889000D01*
X136229000Y-96047750D01*
X136229000Y-96649000D01*
X136249000Y-96649000D01*
X136249000Y-96899000D01*
X136229000Y-96899000D01*
X136229000Y-97500250D01*
X136387750Y-97659000D01*
X136442000Y-97659000D01*
X136442000Y-98195198D01*
X134333138Y-100304060D01*
X134318417Y-100304060D01*
X134294792Y-100178503D01*
X134155720Y-99962379D01*
X133943520Y-99817389D01*
X133691630Y-99766380D01*
X131992370Y-99766380D01*
X131757053Y-99810658D01*
X131540929Y-99949730D01*
X131395939Y-100161930D01*
X131344930Y-100413820D01*
X131344930Y-101486328D01*
X129641258Y-103190000D01*
X129037440Y-103190000D01*
X129037440Y-103050000D01*
X128993162Y-102814683D01*
X128854090Y-102598559D01*
X128641890Y-102453569D01*
X128586090Y-102442269D01*
X128802240Y-102206417D01*
X128981036Y-101774740D01*
X128860378Y-101537000D01*
X127617000Y-101537000D01*
X127617000Y-101557000D01*
X127363000Y-101557000D01*
X127363000Y-101537000D01*
X127343000Y-101537000D01*
X127343000Y-101283000D01*
X127363000Y-101283000D01*
X127363000Y-101263000D01*
X127617000Y-101263000D01*
X127617000Y-101283000D01*
X128860378Y-101283000D01*
X128981036Y-101045260D01*
X128802240Y-100613583D01*
X128397576Y-100172034D01*
X128329075Y-100140097D01*
X128605481Y-99955409D01*
X128938227Y-99457419D01*
X129055072Y-98870000D01*
X128938227Y-98282581D01*
X128605481Y-97784591D01*
X128329221Y-97600000D01*
X128605481Y-97415409D01*
X128938227Y-96917419D01*
X129055072Y-96330000D01*
X128938227Y-95742581D01*
X128605481Y-95244591D01*
X128329221Y-95060000D01*
X128605481Y-94875409D01*
X128865676Y-94486000D01*
X129454437Y-94486000D01*
X129654110Y-94622431D01*
X129906000Y-94673440D01*
X130306000Y-94673440D01*
X130541317Y-94629162D01*
X130552979Y-94621658D01*
X130554110Y-94622431D01*
X130806000Y-94673440D01*
X131206000Y-94673440D01*
X131441317Y-94629162D01*
X131550726Y-94558760D01*
X131676110Y-94644431D01*
X131928000Y-94695440D01*
X133428000Y-94695440D01*
X133663317Y-94651162D01*
X133879441Y-94512090D01*
X134024431Y-94299890D01*
X134075440Y-94048000D01*
X134075440Y-93048000D01*
X134031162Y-92812683D01*
X133892090Y-92596559D01*
X133679890Y-92451569D01*
X133428000Y-92400560D01*
X131928000Y-92400560D01*
X131692683Y-92444838D01*
X131476559Y-92583910D01*
X131331569Y-92796110D01*
X131330036Y-92803678D01*
X131206000Y-92778560D01*
X130806000Y-92778560D01*
X130570683Y-92822838D01*
X130559021Y-92830342D01*
X130557890Y-92829569D01*
X130306000Y-92778560D01*
X129906000Y-92778560D01*
X129670683Y-92822838D01*
X129454559Y-92961910D01*
X129451764Y-92966000D01*
X128780149Y-92966000D01*
X128605481Y-92704591D01*
X128329221Y-92520000D01*
X128605481Y-92335409D01*
X128938227Y-91837419D01*
X129055072Y-91250000D01*
X128938227Y-90662581D01*
X128918963Y-90633750D01*
X131293000Y-90633750D01*
X131293000Y-90974309D01*
X131389673Y-91207698D01*
X131568301Y-91386327D01*
X131801690Y-91483000D01*
X132392250Y-91483000D01*
X132551000Y-91324250D01*
X132551000Y-90475000D01*
X132805000Y-90475000D01*
X132805000Y-91324250D01*
X132963750Y-91483000D01*
X133554310Y-91483000D01*
X133787699Y-91386327D01*
X133966327Y-91207698D01*
X134063000Y-90974309D01*
X134063000Y-90633750D01*
X133904250Y-90475000D01*
X132805000Y-90475000D01*
X132551000Y-90475000D01*
X131451750Y-90475000D01*
X131293000Y-90633750D01*
X128918963Y-90633750D01*
X128605481Y-90164591D01*
X128329221Y-89980000D01*
X128605481Y-89795409D01*
X128654737Y-89721691D01*
X131293000Y-89721691D01*
X131293000Y-90062250D01*
X131451750Y-90221000D01*
X132551000Y-90221000D01*
X132551000Y-89371750D01*
X132805000Y-89371750D01*
X132805000Y-90221000D01*
X133904250Y-90221000D01*
X134063000Y-90062250D01*
X134063000Y-89721691D01*
X133966327Y-89488302D01*
X133787699Y-89309673D01*
X133554310Y-89213000D01*
X132963750Y-89213000D01*
X132805000Y-89371750D01*
X132551000Y-89371750D01*
X132392250Y-89213000D01*
X131801690Y-89213000D01*
X131568301Y-89309673D01*
X131389673Y-89488302D01*
X131293000Y-89721691D01*
X128654737Y-89721691D01*
X128938227Y-89297419D01*
X129055072Y-88710000D01*
X128938227Y-88122581D01*
X128605481Y-87624591D01*
X128329221Y-87440000D01*
X128491228Y-87331750D01*
X138405000Y-87331750D01*
X138405000Y-87672309D01*
X138501673Y-87905698D01*
X138680301Y-88084327D01*
X138913690Y-88181000D01*
X139504250Y-88181000D01*
X139663000Y-88022250D01*
X139663000Y-87173000D01*
X139917000Y-87173000D01*
X139917000Y-88022250D01*
X140075750Y-88181000D01*
X140666310Y-88181000D01*
X140899699Y-88084327D01*
X141078327Y-87905698D01*
X141175000Y-87672309D01*
X141175000Y-87331750D01*
X141016250Y-87173000D01*
X139917000Y-87173000D01*
X139663000Y-87173000D01*
X138563750Y-87173000D01*
X138405000Y-87331750D01*
X128491228Y-87331750D01*
X128605481Y-87255409D01*
X128938227Y-86757419D01*
X129005405Y-86419691D01*
X138405000Y-86419691D01*
X138405000Y-86760250D01*
X138563750Y-86919000D01*
X139663000Y-86919000D01*
X139663000Y-86069750D01*
X139917000Y-86069750D01*
X139917000Y-86919000D01*
X141016250Y-86919000D01*
X141175000Y-86760250D01*
X141175000Y-86419691D01*
X141078327Y-86186302D01*
X140899699Y-86007673D01*
X140666310Y-85911000D01*
X140075750Y-85911000D01*
X139917000Y-86069750D01*
X139663000Y-86069750D01*
X139504250Y-85911000D01*
X138913690Y-85911000D01*
X138680301Y-86007673D01*
X138501673Y-86186302D01*
X138405000Y-86419691D01*
X129005405Y-86419691D01*
X129055072Y-86170000D01*
X128938227Y-85582581D01*
X128605481Y-85084591D01*
X128107491Y-84751845D01*
X127520072Y-84635000D01*
X127459928Y-84635000D01*
X126872509Y-84751845D01*
X126697336Y-84868892D01*
X126698662Y-81915000D01*
X140851890Y-81915000D01*
X140851890Y-82669380D01*
X141006154Y-83190919D01*
X141348260Y-83613724D01*
X141826125Y-83873427D01*
X141898326Y-83887783D01*
X142113000Y-83765162D01*
X142113000Y-81915000D01*
X140851890Y-81915000D01*
X126698662Y-81915000D01*
X126698732Y-81760874D01*
X127552986Y-80906620D01*
X140851890Y-80906620D01*
X140851890Y-81661000D01*
X142113000Y-81661000D01*
X142113000Y-79810838D01*
X141898326Y-79688217D01*
X141826125Y-79702573D01*
X141348260Y-79962276D01*
X141006154Y-80385081D01*
X140851890Y-80906620D01*
X127552986Y-80906620D01*
X129312040Y-79147566D01*
X129397575Y-79121000D01*
X148283394Y-79121000D01*
X150885398Y-81723004D01*
X150885398Y-81723004D01*
G37*
X150885398Y-81723004D02*
X150893424Y-81749540D01*
X150996126Y-82542729D01*
X150998593Y-84772627D01*
X150967491Y-84751845D01*
X150380072Y-84635000D01*
X150319928Y-84635000D01*
X149732509Y-84751845D01*
X149234519Y-85084591D01*
X148901773Y-85582581D01*
X148784928Y-86170000D01*
X148901773Y-86757419D01*
X149234519Y-87255409D01*
X149510779Y-87440000D01*
X149234519Y-87624591D01*
X148901773Y-88122581D01*
X148784928Y-88710000D01*
X148901773Y-89297419D01*
X149234519Y-89795409D01*
X149510779Y-89980000D01*
X149234519Y-90164591D01*
X148901773Y-90662581D01*
X148784928Y-91250000D01*
X148901773Y-91837419D01*
X149234519Y-92335409D01*
X149510779Y-92520000D01*
X149234519Y-92704591D01*
X148901773Y-93202581D01*
X148800752Y-93710446D01*
X147544599Y-94966599D01*
X147379852Y-95213161D01*
X147322000Y-95504000D01*
X147322000Y-101031198D01*
X145735198Y-102618000D01*
X134366000Y-102618000D01*
X134075161Y-102675852D01*
X133828599Y-102840599D01*
X132616599Y-104052599D01*
X132451852Y-104299161D01*
X132394000Y-104590000D01*
X132394000Y-104650000D01*
X132292386Y-104650000D01*
X132165890Y-104563569D01*
X131914000Y-104512560D01*
X131314000Y-104512560D01*
X131078683Y-104556838D01*
X131054594Y-104572339D01*
X130940309Y-104525000D01*
X130799750Y-104525000D01*
X130641000Y-104683750D01*
X130641000Y-105285000D01*
X130661000Y-105285000D01*
X130661000Y-105535000D01*
X130641000Y-105535000D01*
X130641000Y-106136250D01*
X130799750Y-106295000D01*
X130940309Y-106295000D01*
X131051283Y-106249033D01*
X131062110Y-106256431D01*
X131314000Y-106307440D01*
X131914000Y-106307440D01*
X132149317Y-106263162D01*
X132294095Y-106170000D01*
X132394000Y-106170000D01*
X132394000Y-108038016D01*
X132321554Y-108146439D01*
X132320984Y-108149306D01*
X132297846Y-108071081D01*
X131955740Y-107648276D01*
X131477875Y-107388573D01*
X131405674Y-107374217D01*
X131191000Y-107496838D01*
X131191000Y-109347000D01*
X131211000Y-109347000D01*
X131211000Y-109601000D01*
X131191000Y-109601000D01*
X131191000Y-111451162D01*
X131405674Y-111573783D01*
X131477875Y-111559427D01*
X131955740Y-111299724D01*
X132297846Y-110876919D01*
X132320984Y-110798694D01*
X132321554Y-110801561D01*
X132622458Y-111251896D01*
X133072793Y-111552800D01*
X133604000Y-111658464D01*
X134135207Y-111552800D01*
X134441663Y-111348033D01*
X134419549Y-111460166D01*
X134393627Y-111591002D01*
X134393688Y-111591306D01*
X134393628Y-111591609D01*
X134394473Y-112105763D01*
X126685114Y-112083623D01*
X126686228Y-109601000D01*
X129675890Y-109601000D01*
X129675890Y-110355380D01*
X129830154Y-110876919D01*
X130172260Y-111299724D01*
X130650125Y-111559427D01*
X130722326Y-111573783D01*
X130937000Y-111451162D01*
X130937000Y-109601000D01*
X129675890Y-109601000D01*
X126686228Y-109601000D01*
X126686680Y-108592620D01*
X129675890Y-108592620D01*
X129675890Y-109347000D01*
X130937000Y-109347000D01*
X130937000Y-107496838D01*
X130722326Y-107374217D01*
X130650125Y-107388573D01*
X130172260Y-107648276D01*
X129830154Y-108071081D01*
X129675890Y-108592620D01*
X126686680Y-108592620D01*
X126687983Y-105693750D01*
X129579000Y-105693750D01*
X129579000Y-105786310D01*
X129675673Y-106019699D01*
X129854302Y-106198327D01*
X130087691Y-106295000D01*
X130228250Y-106295000D01*
X130387000Y-106136250D01*
X130387000Y-105535000D01*
X129737750Y-105535000D01*
X129579000Y-105693750D01*
X126687983Y-105693750D01*
X126688072Y-105497440D01*
X128390000Y-105497440D01*
X128625317Y-105453162D01*
X128841441Y-105314090D01*
X128986431Y-105101890D01*
X129037440Y-104850000D01*
X129037440Y-104710000D01*
X129765975Y-104710000D01*
X129675673Y-104800301D01*
X129579000Y-105033690D01*
X129579000Y-105126250D01*
X129737750Y-105285000D01*
X130387000Y-105285000D01*
X130387000Y-104683750D01*
X130311939Y-104608689D01*
X130493461Y-104487401D01*
X132619122Y-102361740D01*
X133691630Y-102361740D01*
X133926947Y-102317462D01*
X134143071Y-102178390D01*
X134288061Y-101966190D01*
X134316843Y-101824060D01*
X134647940Y-101824060D01*
X134938779Y-101766208D01*
X135185341Y-101601461D01*
X137739401Y-99047401D01*
X137806219Y-98947401D01*
X137885161Y-99000148D01*
X138176000Y-99058000D01*
X143242000Y-99058000D01*
X143532839Y-99000148D01*
X143779401Y-98835401D01*
X144617362Y-97997440D01*
X145440000Y-97997440D01*
X145675317Y-97953162D01*
X145891441Y-97814090D01*
X146036431Y-97601890D01*
X146087440Y-97350000D01*
X146087440Y-96795362D01*
X146587401Y-96295401D01*
X146752148Y-96048840D01*
X146810000Y-95758000D01*
X146810000Y-91606000D01*
X146752148Y-91315161D01*
X146752148Y-91315160D01*
X146587401Y-91068599D01*
X146087440Y-90568638D01*
X146087440Y-89923362D01*
X146587401Y-89423401D01*
X146752148Y-89176840D01*
X146767719Y-89098560D01*
X146810000Y-88886000D01*
X146810000Y-85404802D01*
X147857401Y-84357401D01*
X148022148Y-84110840D01*
X148080000Y-83820000D01*
X148080000Y-83713926D01*
X148301542Y-83565896D01*
X148602446Y-83115561D01*
X148708110Y-82584354D01*
X148708110Y-80991646D01*
X148602446Y-80460439D01*
X148301542Y-80010104D01*
X147851207Y-79709200D01*
X147320000Y-79603536D01*
X146788793Y-79709200D01*
X146338458Y-80010104D01*
X146050000Y-80441812D01*
X145761542Y-80010104D01*
X145311207Y-79709200D01*
X144780000Y-79603536D01*
X144248793Y-79709200D01*
X143798458Y-80010104D01*
X143497554Y-80460439D01*
X143496984Y-80463306D01*
X143473846Y-80385081D01*
X143131740Y-79962276D01*
X142653875Y-79702573D01*
X142581674Y-79688217D01*
X142367000Y-79810838D01*
X142367000Y-81661000D01*
X142387000Y-81661000D01*
X142387000Y-81915000D01*
X142367000Y-81915000D01*
X142367000Y-83765162D01*
X142581674Y-83887783D01*
X142653875Y-83873427D01*
X143131740Y-83613724D01*
X143473846Y-83190919D01*
X143496984Y-83112694D01*
X143497554Y-83115561D01*
X143798458Y-83565896D01*
X144020000Y-83713926D01*
X144020000Y-85898560D01*
X143940000Y-85898560D01*
X143704683Y-85942838D01*
X143488559Y-86081910D01*
X143343569Y-86294110D01*
X143292560Y-86546000D01*
X143292560Y-87546000D01*
X143336838Y-87781317D01*
X143475910Y-87997441D01*
X143688110Y-88142431D01*
X143940000Y-88193440D01*
X145290000Y-88193440D01*
X145290000Y-88571198D01*
X144762638Y-89098560D01*
X143940000Y-89098560D01*
X143704683Y-89142838D01*
X143488559Y-89281910D01*
X143343569Y-89494110D01*
X143292560Y-89746000D01*
X143292560Y-90746000D01*
X143336838Y-90981317D01*
X143475910Y-91197441D01*
X143688110Y-91342431D01*
X143940000Y-91393440D01*
X144762638Y-91393440D01*
X145290000Y-91920802D01*
X145290000Y-92502560D01*
X144631362Y-92502560D01*
X141837401Y-89708599D01*
X141590839Y-89543852D01*
X141300000Y-89486000D01*
X141127279Y-89486000D01*
X141004090Y-89294559D01*
X140791890Y-89149569D01*
X140540000Y-89098560D01*
X139040000Y-89098560D01*
X138804683Y-89142838D01*
X138606963Y-89270067D01*
X138579890Y-89251569D01*
X138328000Y-89200560D01*
X136828000Y-89200560D01*
X136592683Y-89244838D01*
X136376559Y-89383910D01*
X136231569Y-89596110D01*
X136180560Y-89848000D01*
X136180560Y-90848000D01*
X136224838Y-91083317D01*
X136363910Y-91299441D01*
X136576110Y-91444431D01*
X136828000Y-91495440D01*
X136948417Y-91495440D01*
X137040599Y-91633401D01*
X137807758Y-92400560D01*
X136828000Y-92400560D01*
X136592683Y-92444838D01*
X136376559Y-92583910D01*
X136231569Y-92796110D01*
X136180560Y-93048000D01*
X136180560Y-93870638D01*
X136069198Y-93982000D01*
X135128000Y-93982000D01*
X134837161Y-94039852D01*
X134637290Y-94173401D01*
X134590599Y-94204599D01*
X134082599Y-94712599D01*
X133917852Y-94959161D01*
X133860000Y-95250000D01*
X133860000Y-95697198D01*
X133290938Y-96266260D01*
X131992370Y-96266260D01*
X131757053Y-96310538D01*
X131540929Y-96449610D01*
X131395939Y-96661810D01*
X131344930Y-96913700D01*
X131344930Y-98214180D01*
X131389208Y-98449497D01*
X131528280Y-98665621D01*
X131740480Y-98810611D01*
X131992370Y-98861620D01*
X133691630Y-98861620D01*
X133926947Y-98817342D01*
X134143071Y-98678270D01*
X134288061Y-98466070D01*
X134339070Y-98214180D01*
X134339070Y-97367732D01*
X134649052Y-97057750D01*
X135167000Y-97057750D01*
X135167000Y-97150310D01*
X135263673Y-97383699D01*
X135442302Y-97562327D01*
X135675691Y-97659000D01*
X135816250Y-97659000D01*
X135975000Y-97500250D01*
X135975000Y-96899000D01*
X135325750Y-96899000D01*
X135167000Y-97057750D01*
X134649052Y-97057750D01*
X135157401Y-96549401D01*
X135184938Y-96508188D01*
X135325750Y-96649000D01*
X135975000Y-96649000D01*
X135975000Y-96047750D01*
X135816250Y-95889000D01*
X135675691Y-95889000D01*
X135442302Y-95985673D01*
X135371067Y-96056907D01*
X135380000Y-96012000D01*
X135380000Y-95564802D01*
X135442802Y-95502000D01*
X136384000Y-95502000D01*
X136674839Y-95444148D01*
X136921401Y-95279401D01*
X137505362Y-94695440D01*
X138328000Y-94695440D01*
X138563317Y-94651162D01*
X138611884Y-94619910D01*
X138680301Y-94688327D01*
X138913690Y-94785000D01*
X139504250Y-94785000D01*
X139663000Y-94626250D01*
X139663000Y-93777000D01*
X139643000Y-93777000D01*
X139643000Y-93523000D01*
X139663000Y-93523000D01*
X139663000Y-93503000D01*
X139917000Y-93503000D01*
X139917000Y-93523000D01*
X139937000Y-93523000D01*
X139937000Y-93777000D01*
X139917000Y-93777000D01*
X139917000Y-94626250D01*
X140075750Y-94785000D01*
X140464000Y-94785000D01*
X140464000Y-95101198D01*
X139862638Y-95702560D01*
X139040000Y-95702560D01*
X138804683Y-95746838D01*
X138588559Y-95885910D01*
X138443569Y-96098110D01*
X138392560Y-96350000D01*
X138392560Y-97350000D01*
X138413364Y-97460562D01*
X138120367Y-97167565D01*
X138149440Y-97024000D01*
X138149440Y-96524000D01*
X138105162Y-96288683D01*
X137966090Y-96072559D01*
X137753890Y-95927569D01*
X137502000Y-95876560D01*
X136902000Y-95876560D01*
X136666683Y-95920838D01*
X136642594Y-95936339D01*
X136528309Y-95889000D01*
X136387750Y-95889000D01*
X136229000Y-96047750D01*
X136229000Y-96649000D01*
X136249000Y-96649000D01*
X136249000Y-96899000D01*
X136229000Y-96899000D01*
X136229000Y-97500250D01*
X136387750Y-97659000D01*
X136442000Y-97659000D01*
X136442000Y-98195198D01*
X134333138Y-100304060D01*
X134318417Y-100304060D01*
X134294792Y-100178503D01*
X134155720Y-99962379D01*
X133943520Y-99817389D01*
X133691630Y-99766380D01*
X131992370Y-99766380D01*
X131757053Y-99810658D01*
X131540929Y-99949730D01*
X131395939Y-100161930D01*
X131344930Y-100413820D01*
X131344930Y-101486328D01*
X129641258Y-103190000D01*
X129037440Y-103190000D01*
X129037440Y-103050000D01*
X128993162Y-102814683D01*
X128854090Y-102598559D01*
X128641890Y-102453569D01*
X128586090Y-102442269D01*
X128802240Y-102206417D01*
X128981036Y-101774740D01*
X128860378Y-101537000D01*
X127617000Y-101537000D01*
X127617000Y-101557000D01*
X127363000Y-101557000D01*
X127363000Y-101537000D01*
X127343000Y-101537000D01*
X127343000Y-101283000D01*
X127363000Y-101283000D01*
X127363000Y-101263000D01*
X127617000Y-101263000D01*
X127617000Y-101283000D01*
X128860378Y-101283000D01*
X128981036Y-101045260D01*
X128802240Y-100613583D01*
X128397576Y-100172034D01*
X128329075Y-100140097D01*
X128605481Y-99955409D01*
X128938227Y-99457419D01*
X129055072Y-98870000D01*
X128938227Y-98282581D01*
X128605481Y-97784591D01*
X128329221Y-97600000D01*
X128605481Y-97415409D01*
X128938227Y-96917419D01*
X129055072Y-96330000D01*
X128938227Y-95742581D01*
X128605481Y-95244591D01*
X128329221Y-95060000D01*
X128605481Y-94875409D01*
X128865676Y-94486000D01*
X129454437Y-94486000D01*
X129654110Y-94622431D01*
X129906000Y-94673440D01*
X130306000Y-94673440D01*
X130541317Y-94629162D01*
X130552979Y-94621658D01*
X130554110Y-94622431D01*
X130806000Y-94673440D01*
X131206000Y-94673440D01*
X131441317Y-94629162D01*
X131550726Y-94558760D01*
X131676110Y-94644431D01*
X131928000Y-94695440D01*
X133428000Y-94695440D01*
X133663317Y-94651162D01*
X133879441Y-94512090D01*
X134024431Y-94299890D01*
X134075440Y-94048000D01*
X134075440Y-93048000D01*
X134031162Y-92812683D01*
X133892090Y-92596559D01*
X133679890Y-92451569D01*
X133428000Y-92400560D01*
X131928000Y-92400560D01*
X131692683Y-92444838D01*
X131476559Y-92583910D01*
X131331569Y-92796110D01*
X131330036Y-92803678D01*
X131206000Y-92778560D01*
X130806000Y-92778560D01*
X130570683Y-92822838D01*
X130559021Y-92830342D01*
X130557890Y-92829569D01*
X130306000Y-92778560D01*
X129906000Y-92778560D01*
X129670683Y-92822838D01*
X129454559Y-92961910D01*
X129451764Y-92966000D01*
X128780149Y-92966000D01*
X128605481Y-92704591D01*
X128329221Y-92520000D01*
X128605481Y-92335409D01*
X128938227Y-91837419D01*
X129055072Y-91250000D01*
X128938227Y-90662581D01*
X128918963Y-90633750D01*
X131293000Y-90633750D01*
X131293000Y-90974309D01*
X131389673Y-91207698D01*
X131568301Y-91386327D01*
X131801690Y-91483000D01*
X132392250Y-91483000D01*
X132551000Y-91324250D01*
X132551000Y-90475000D01*
X132805000Y-90475000D01*
X132805000Y-91324250D01*
X132963750Y-91483000D01*
X133554310Y-91483000D01*
X133787699Y-91386327D01*
X133966327Y-91207698D01*
X134063000Y-90974309D01*
X134063000Y-90633750D01*
X133904250Y-90475000D01*
X132805000Y-90475000D01*
X132551000Y-90475000D01*
X131451750Y-90475000D01*
X131293000Y-90633750D01*
X128918963Y-90633750D01*
X128605481Y-90164591D01*
X128329221Y-89980000D01*
X128605481Y-89795409D01*
X128654737Y-89721691D01*
X131293000Y-89721691D01*
X131293000Y-90062250D01*
X131451750Y-90221000D01*
X132551000Y-90221000D01*
X132551000Y-89371750D01*
X132805000Y-89371750D01*
X132805000Y-90221000D01*
X133904250Y-90221000D01*
X134063000Y-90062250D01*
X134063000Y-89721691D01*
X133966327Y-89488302D01*
X133787699Y-89309673D01*
X133554310Y-89213000D01*
X132963750Y-89213000D01*
X132805000Y-89371750D01*
X132551000Y-89371750D01*
X132392250Y-89213000D01*
X131801690Y-89213000D01*
X131568301Y-89309673D01*
X131389673Y-89488302D01*
X131293000Y-89721691D01*
X128654737Y-89721691D01*
X128938227Y-89297419D01*
X129055072Y-88710000D01*
X128938227Y-88122581D01*
X128605481Y-87624591D01*
X128329221Y-87440000D01*
X128491228Y-87331750D01*
X138405000Y-87331750D01*
X138405000Y-87672309D01*
X138501673Y-87905698D01*
X138680301Y-88084327D01*
X138913690Y-88181000D01*
X139504250Y-88181000D01*
X139663000Y-88022250D01*
X139663000Y-87173000D01*
X139917000Y-87173000D01*
X139917000Y-88022250D01*
X140075750Y-88181000D01*
X140666310Y-88181000D01*
X140899699Y-88084327D01*
X141078327Y-87905698D01*
X141175000Y-87672309D01*
X141175000Y-87331750D01*
X141016250Y-87173000D01*
X139917000Y-87173000D01*
X139663000Y-87173000D01*
X138563750Y-87173000D01*
X138405000Y-87331750D01*
X128491228Y-87331750D01*
X128605481Y-87255409D01*
X128938227Y-86757419D01*
X129005405Y-86419691D01*
X138405000Y-86419691D01*
X138405000Y-86760250D01*
X138563750Y-86919000D01*
X139663000Y-86919000D01*
X139663000Y-86069750D01*
X139917000Y-86069750D01*
X139917000Y-86919000D01*
X141016250Y-86919000D01*
X141175000Y-86760250D01*
X141175000Y-86419691D01*
X141078327Y-86186302D01*
X140899699Y-86007673D01*
X140666310Y-85911000D01*
X140075750Y-85911000D01*
X139917000Y-86069750D01*
X139663000Y-86069750D01*
X139504250Y-85911000D01*
X138913690Y-85911000D01*
X138680301Y-86007673D01*
X138501673Y-86186302D01*
X138405000Y-86419691D01*
X129005405Y-86419691D01*
X129055072Y-86170000D01*
X128938227Y-85582581D01*
X128605481Y-85084591D01*
X128107491Y-84751845D01*
X127520072Y-84635000D01*
X127459928Y-84635000D01*
X126872509Y-84751845D01*
X126697336Y-84868892D01*
X126698662Y-81915000D01*
X140851890Y-81915000D01*
X140851890Y-82669380D01*
X141006154Y-83190919D01*
X141348260Y-83613724D01*
X141826125Y-83873427D01*
X141898326Y-83887783D01*
X142113000Y-83765162D01*
X142113000Y-81915000D01*
X140851890Y-81915000D01*
X126698662Y-81915000D01*
X126698732Y-81760874D01*
X127552986Y-80906620D01*
X140851890Y-80906620D01*
X140851890Y-81661000D01*
X142113000Y-81661000D01*
X142113000Y-79810838D01*
X141898326Y-79688217D01*
X141826125Y-79702573D01*
X141348260Y-79962276D01*
X141006154Y-80385081D01*
X140851890Y-80906620D01*
X127552986Y-80906620D01*
X129312040Y-79147566D01*
X129397575Y-79121000D01*
X148283394Y-79121000D01*
X150885398Y-81723004D01*
M02*
