<?xml version="1.0" standalone="no"?>
 <!DOCTYPE svg PUBLIC "-//W3C//DTD SVG 1.1//EN" 
 "http://www.w3.org/Graphics/SVG/1.1/DTD/svg11.dtd"> 
<svg xmlns="http://www.w3.org/2000/svg" version="1.1" 
    width="3.30708cm" height="3.6322cm" viewBox="0 0 13020 14300 ">
<title>SVG Picture created as hardware-brd.svg date 2016/06/29 00:10:40 </title>
  <desc>Picture generated by PCBNEW </desc>
<g style="fill:#000000; fill-opacity:1;stroke:#000000; stroke-opacity:1;
stroke-linecap:round; stroke-linejoin:round; "
 transform="translate(0 0) scale(1 1)">
</g>
<g style="fill:#000000; fill-opacity:0.0; 
stroke:#000000; stroke-width:-0.000393701; stroke-opacity:1; 
stroke-linecap:round; stroke-linejoin:round;">
</g>
<g style="fill:#840084; fill-opacity:0.0; 
stroke:#840084; stroke-width:-0.000393701; stroke-opacity:1; 
stroke-linecap:round; stroke-linejoin:round;">
</g>
<g style="fill:#840084; fill-opacity:0.0; 
stroke:#840084; stroke-width:118.11; stroke-opacity:1; 
stroke-linecap:round; stroke-linejoin:round;">
<path d="M10462 10430
L10097 10430
L10294 10655
L10209 10655
L10153 10683
L10125 10711
L10097 10767
L10097 10908
L10125 10964
L10153 10992
L10209 11020
L10378 11020
L10434 10992
L10462 10964
" />
<path d="M9928 10430
L9731 11020
L9534 10430
" />
<path d="M9394 10430
L9028 10430
L9225 10655
L9141 10655
L9084 10683
L9056 10711
L9028 10767
L9028 10908
L9056 10964
L9084 10992
L9141 11020
L9309 11020
L9366 10992
L9394 10964
" />
<path d="M10443 10036
L10443 9445
L10302 9445
L10218 9474
L10161 9530
L10133 9586
L10105 9699
L10105 9783
L10133 9895
L10161 9952
L10218 10008
L10302 10036
L10443 10036
" />
<path d="M9768 9699
L9824 9670
L9852 9642
L9880 9586
L9880 9558
L9852 9502
L9824 9474
L9768 9445
L9655 9445
L9599 9474
L9571 9502
L9543 9558
L9543 9586
L9571 9642
L9599 9670
L9655 9699
L9768 9699
L9824 9727
L9852 9755
L9880 9811
L9880 9924
L9852 9980
L9824 10008
L9768 10036
L9655 10036
L9599 10008
L9571 9980
L9543 9924
L9543 9811
L9571 9755
L9599 9727
L9655 9699
" />
<path d="M10443 9012
L10443 8422
L10302 8422
L10218 8450
L10161 8506
L10133 8562
L10105 8675
L10105 8759
L10133 8872
L10161 8928
L10218 8984
L10302 9012
L10443 9012
" />
<path d="M9908 8422
L9515 8422
L9768 9012
" />
<path d="M10443 8067
L10443 7477
L10302 7477
L10218 7505
L10161 7561
L10133 7618
L10105 7730
L10105 7814
L10133 7927
L10161 7983
L10218 8039
L10302 8067
L10443 8067
" />
<path d="M9599 7477
L9711 7477
L9768 7505
L9796 7533
L9852 7618
L9880 7730
L9880 7955
L9852 8011
L9824 8039
L9768 8067
L9655 8067
L9599 8039
L9571 8011
L9543 7955
L9543 7814
L9571 7758
L9599 7730
L9655 7702
L9768 7702
L9824 7730
L9852 7758
L9880 7814
" />
<path d="M10443 7083
L10443 6493
L10302 6493
L10218 6521
L10161 6577
L10133 6633
L10105 6746
L10105 6830
L10133 6943
L10161 6999
L10218 7055
L10302 7083
L10443 7083
" />
<path d="M9571 6493
L9852 6493
L9880 6774
L9852 6746
L9796 6718
L9655 6718
L9599 6746
L9571 6774
L9543 6830
L9543 6971
L9571 7027
L9599 7055
L9655 7083
L9796 7083
L9852 7055
L9880 7027
" />
<path d="M10443 6060
L10443 5469
L10302 5469
L10218 5497
L10161 5553
L10133 5610
L10105 5722
L10105 5807
L10133 5919
L10161 5975
L10218 6031
L10302 6060
L10443 6060
" />
<path d="M9740 5469
L9683 5469
L9627 5497
L9599 5525
L9571 5582
L9543 5694
L9543 5835
L9571 5947
L9599 6003
L9627 6031
L9683 6060
L9740 6060
L9796 6031
L9824 6003
L9852 5947
L9880 5835
L9880 5694
L9852 5582
L9824 5525
L9796 5497
L9740 5469
" />
<path d="M10429 4867
L10147 4867
" />
<path d="M10485 5036
L10288 4445
L10091 5036
" />
<path d="M9782 4445
L9726 4445
L9669 4474
L9641 4502
L9613 4558
L9585 4670
L9585 4811
L9613 4924
L9641 4980
L9669 5008
L9726 5036
L9782 5036
L9838 5008
L9866 4980
L9894 4924
L9922 4811
L9922 4670
L9894 4558
L9866 4502
L9838 4474
L9782 4445
" />
<path d="M10074 4012
L10271 3731
" />
<path d="M10412 4012
L10412 3422
L10187 3422
L10130 3450
L10102 3478
L10074 3534
L10074 3619
L10102 3675
L10130 3703
L10187 3731
L10412 3731
" />
<path d="M9849 3984
L9793 4012
L9681 4012
L9624 3984
L9596 3928
L9596 3900
L9624 3844
L9681 3816
L9765 3816
L9821 3787
L9849 3731
L9849 3703
L9821 3647
L9765 3619
L9681 3619
L9624 3647
" />
<path d="M9427 3619
L9202 3619
" />
<path d="M9343 3422
L9343 3928
L9315 3984
L9259 4012
L9202 4012
" />
<path d="M3111 10469
L3393 10469
L3421 10750
L3393 10722
L3336 10694
L3196 10694
L3139 10722
L3111 10750
L3083 10807
L3083 10947
L3111 11003
L3139 11031
L3196 11060
L3336 11060
L3393 11031
L3421 11003
" />
<path d="M2914 10469
L2718 11060
L2521 10469
" />
<path d="M2647 9513
L2704 9485
L2788 9485
L2872 9513
L2929 9569
L2957 9625
L2985 9738
L2985 9822
L2957 9935
L2929 9991
L2872 10047
L2788 10075
L2732 10075
L2647 10047
L2619 10019
L2619 9822
L2732 9822
" />
<path d="M3474 9091
L3474 8501
L3333 8501
L3249 8529
L3193 8585
L3165 8641
L3137 8754
L3137 8838
L3165 8951
L3193 9007
L3249 9063
L3333 9091
L3474 9091
" />
<path d="M2630 8697
L2630 9091
" />
<path d="M2771 8472
L2912 8894
L2546 8894
" />
<path d="M3474 8067
L3474 7477
L3333 7477
L3249 7505
L3193 7561
L3165 7618
L3137 7730
L3137 7814
L3165 7927
L3193 7983
L3249 8039
L3333 8067
L3474 8067
" />
<path d="M2940 7477
L2574 7477
L2771 7702
L2687 7702
L2630 7730
L2602 7758
L2574 7814
L2574 7955
L2602 8011
L2630 8039
L2687 8067
L2855 8067
L2912 8039
L2940 8011
" />
<path d="M3474 7044
L3474 6453
L3333 6453
L3249 6481
L3193 6538
L3165 6594
L3137 6706
L3137 6791
L3165 6903
L3193 6960
L3249 7016
L3333 7044
L3474 7044
" />
<path d="M2912 6510
L2884 6481
L2827 6453
L2687 6453
L2630 6481
L2602 6510
L2574 6566
L2574 6622
L2602 6706
L2940 7044
L2574 7044
" />
<path d="M3474 6020
L3474 5430
L3333 5430
L3249 5458
L3193 5514
L3165 5570
L3137 5683
L3137 5767
L3165 5880
L3193 5936
L3249 5992
L3333 6020
L3474 6020
" />
<path d="M2574 6020
L2912 6020
" />
<path d="M2743 6020
L2743 5430
L2799 5514
L2855 5570
L2912 5598
" />
<path d="M3137 5075
L3333 4794
" />
<path d="M3474 5075
L3474 4485
L3249 4485
L3193 4513
L3165 4541
L3137 4597
L3137 4682
L3165 4738
L3193 4766
L3249 4794
L3474 4794
" />
<path d="M2940 4485
L2546 5075
" />
<path d="M2546 4485
L2940 5075
" />
<path d="M3409 3461
L3072 3461
" />
<path d="M3241 4052
L3241 3461
" />
<path d="M2931 3461
L2538 4052
" />
<path d="M2538 3461
L2931 4052
" />
</g>
<g style="fill:#840084; fill-opacity:0.0; 
stroke:#840084; stroke-width:59.0551; stroke-opacity:1; 
stroke-linecap:round; stroke-linejoin:round;">
<path d="M10318 798
L10318 3298
" />
<path d="M7318 798
L7318 3298
" />
<path d="M7318 1548
L10318 1548
" />
<path d="M10318 798
L7318 798
" />
<path d="M7318 3298
L10318 3298
" />
</g>
<g style="fill:#000000; fill-opacity:0.0; 
stroke:#000000; stroke-width:59.0551; stroke-opacity:1; 
stroke-linecap:round; stroke-linejoin:round;">
</g>
<g style="fill:#840000; fill-opacity:0.0; 
stroke:#840000; stroke-width:59.0551; stroke-opacity:1; 
stroke-linecap:round; stroke-linejoin:round;">
</g>
<g style="fill:#840000; fill-opacity:0.0; 
stroke:#840000; stroke-width:0; stroke-opacity:1; 
stroke-linecap:round; stroke-linejoin:round;">
</g>
<g style="fill:#840000; fill-opacity:1.0; 
stroke:#840000; stroke-width:0; stroke-opacity:1; 
stroke-linecap:round; stroke-linejoin:round;">
<polyline style="fill-rule:evenodd;"
points="2365,10418
2365,11127
1656,11127
1656,10418
2365,10418
" /> 
</g>
<g style="fill:#840000; fill-opacity:1.0; 
stroke:#840000; stroke-width:708.661; stroke-opacity:1; 
stroke-linecap:round; stroke-linejoin:round;">
</g>
<g style="fill:#840000; fill-opacity:0.0; 
stroke:#840000; stroke-width:708.661; stroke-opacity:1; 
stroke-linecap:round; stroke-linejoin:round;">
<path d="M2011 9773
L2011 9773
" />
<path d="M2011 8773
L2011 8773
" />
<path d="M2011 7773
L2011 7773
" />
<path d="M2011 6773
L2011 6773
" />
<path d="M2011 5773
L2011 5773
" />
<path d="M2011 4773
L2011 4773
" />
<path d="M2011 3773
L2011 3773
" />
</g>
<g style="fill:#840000; fill-opacity:0.0; 
stroke:#840000; stroke-width:0; stroke-opacity:1; 
stroke-linecap:round; stroke-linejoin:round;">
</g>
<g style="fill:#840000; fill-opacity:1.0; 
stroke:#840000; stroke-width:0; stroke-opacity:1; 
stroke-linecap:round; stroke-linejoin:round;">
<polyline style="fill-rule:evenodd;"
points="11365,10418
11365,11127
10656,11127
10656,10418
11365,10418
" /> 
</g>
<g style="fill:#840000; fill-opacity:1.0; 
stroke:#840000; stroke-width:708.661; stroke-opacity:1; 
stroke-linecap:round; stroke-linejoin:round;">
</g>
<g style="fill:#840000; fill-opacity:0.0; 
stroke:#840000; stroke-width:708.661; stroke-opacity:1; 
stroke-linecap:round; stroke-linejoin:round;">
<path d="M11011 9773
L11011 9773
" />
<path d="M11011 8773
L11011 8773
" />
<path d="M11011 7773
L11011 7773
" />
<path d="M11011 6773
L11011 6773
" />
<path d="M11011 5773
L11011 5773
" />
<path d="M11011 4773
L11011 4773
" />
<path d="M11011 3773
L11011 3773
" />
</g>
<g style="fill:#840000; fill-opacity:0.0; 
stroke:#840000; stroke-width:593; stroke-opacity:1; 
stroke-linecap:round; stroke-linejoin:round;">
<path d="M4418 13245
L4418 12651
" />
<path d="M3418 13245
L3418 12651
" />
<path d="M9818 2345
L9818 1751
" />
<path d="M8818 2345
L8818 1751
" />
<path d="M7818 2345
L7818 1751
" />
</g>
<g style="fill:#FFFFFF; fill-opacity:0.0; 
stroke:#FFFFFF; stroke-width:593; stroke-opacity:1; 
stroke-linecap:round; stroke-linejoin:round;">
</g>
<g style="fill:#FFFFFF; fill-opacity:1.0; 
stroke:#FFFFFF; stroke-width:0; stroke-opacity:1; 
stroke-linecap:round; stroke-linejoin:round;">
<circle cx="2011.15" cy="10773.3" r="200" /> 
</g>
<g style="fill:#FFFFFF; fill-opacity:1.0; 
stroke:#FFFFFF; stroke-width:39.3701; stroke-opacity:1; 
stroke-linecap:round; stroke-linejoin:round;">
</g>
<g style="fill:#FFFFFF; fill-opacity:1.0; 
stroke:#FFFFFF; stroke-width:0; stroke-opacity:1; 
stroke-linecap:round; stroke-linejoin:round;">
<circle cx="2011.15" cy="9773.28" r="200" /> 
</g>
<g style="fill:#FFFFFF; fill-opacity:1.0; 
stroke:#FFFFFF; stroke-width:39.3701; stroke-opacity:1; 
stroke-linecap:round; stroke-linejoin:round;">
</g>
<g style="fill:#FFFFFF; fill-opacity:1.0; 
stroke:#FFFFFF; stroke-width:0; stroke-opacity:1; 
stroke-linecap:round; stroke-linejoin:round;">
<circle cx="2011.15" cy="8773.28" r="200" /> 
</g>
<g style="fill:#FFFFFF; fill-opacity:1.0; 
stroke:#FFFFFF; stroke-width:39.3701; stroke-opacity:1; 
stroke-linecap:round; stroke-linejoin:round;">
</g>
<g style="fill:#FFFFFF; fill-opacity:1.0; 
stroke:#FFFFFF; stroke-width:0; stroke-opacity:1; 
stroke-linecap:round; stroke-linejoin:round;">
<circle cx="2011.15" cy="7773.28" r="200" /> 
</g>
<g style="fill:#FFFFFF; fill-opacity:1.0; 
stroke:#FFFFFF; stroke-width:39.3701; stroke-opacity:1; 
stroke-linecap:round; stroke-linejoin:round;">
</g>
<g style="fill:#FFFFFF; fill-opacity:1.0; 
stroke:#FFFFFF; stroke-width:0; stroke-opacity:1; 
stroke-linecap:round; stroke-linejoin:round;">
<circle cx="2011.15" cy="6773.28" r="200" /> 
</g>
<g style="fill:#FFFFFF; fill-opacity:1.0; 
stroke:#FFFFFF; stroke-width:39.3701; stroke-opacity:1; 
stroke-linecap:round; stroke-linejoin:round;">
</g>
<g style="fill:#FFFFFF; fill-opacity:1.0; 
stroke:#FFFFFF; stroke-width:0; stroke-opacity:1; 
stroke-linecap:round; stroke-linejoin:round;">
<circle cx="2011.15" cy="5773.28" r="200" /> 
</g>
<g style="fill:#FFFFFF; fill-opacity:1.0; 
stroke:#FFFFFF; stroke-width:39.3701; stroke-opacity:1; 
stroke-linecap:round; stroke-linejoin:round;">
</g>
<g style="fill:#FFFFFF; fill-opacity:1.0; 
stroke:#FFFFFF; stroke-width:0; stroke-opacity:1; 
stroke-linecap:round; stroke-linejoin:round;">
<circle cx="2011.15" cy="4773.28" r="200" /> 
</g>
<g style="fill:#FFFFFF; fill-opacity:1.0; 
stroke:#FFFFFF; stroke-width:39.3701; stroke-opacity:1; 
stroke-linecap:round; stroke-linejoin:round;">
</g>
<g style="fill:#FFFFFF; fill-opacity:1.0; 
stroke:#FFFFFF; stroke-width:0; stroke-opacity:1; 
stroke-linecap:round; stroke-linejoin:round;">
<circle cx="2011.15" cy="3773.28" r="200" /> 
</g>
<g style="fill:#FFFFFF; fill-opacity:1.0; 
stroke:#FFFFFF; stroke-width:39.3701; stroke-opacity:1; 
stroke-linecap:round; stroke-linejoin:round;">
</g>
<g style="fill:#FFFFFF; fill-opacity:1.0; 
stroke:#FFFFFF; stroke-width:0; stroke-opacity:1; 
stroke-linecap:round; stroke-linejoin:round;">
<circle cx="11011.2" cy="10773.3" r="200" /> 
</g>
<g style="fill:#FFFFFF; fill-opacity:1.0; 
stroke:#FFFFFF; stroke-width:39.3701; stroke-opacity:1; 
stroke-linecap:round; stroke-linejoin:round;">
</g>
<g style="fill:#FFFFFF; fill-opacity:1.0; 
stroke:#FFFFFF; stroke-width:0; stroke-opacity:1; 
stroke-linecap:round; stroke-linejoin:round;">
<circle cx="11011.2" cy="9773.28" r="200" /> 
</g>
<g style="fill:#FFFFFF; fill-opacity:1.0; 
stroke:#FFFFFF; stroke-width:39.3701; stroke-opacity:1; 
stroke-linecap:round; stroke-linejoin:round;">
</g>
<g style="fill:#FFFFFF; fill-opacity:1.0; 
stroke:#FFFFFF; stroke-width:0; stroke-opacity:1; 
stroke-linecap:round; stroke-linejoin:round;">
<circle cx="11011.2" cy="8773.28" r="200" /> 
</g>
<g style="fill:#FFFFFF; fill-opacity:1.0; 
stroke:#FFFFFF; stroke-width:39.3701; stroke-opacity:1; 
stroke-linecap:round; stroke-linejoin:round;">
</g>
<g style="fill:#FFFFFF; fill-opacity:1.0; 
stroke:#FFFFFF; stroke-width:0; stroke-opacity:1; 
stroke-linecap:round; stroke-linejoin:round;">
<circle cx="11011.2" cy="7773.28" r="200" /> 
</g>
<g style="fill:#FFFFFF; fill-opacity:1.0; 
stroke:#FFFFFF; stroke-width:39.3701; stroke-opacity:1; 
stroke-linecap:round; stroke-linejoin:round;">
</g>
<g style="fill:#FFFFFF; fill-opacity:1.0; 
stroke:#FFFFFF; stroke-width:0; stroke-opacity:1; 
stroke-linecap:round; stroke-linejoin:round;">
<circle cx="11011.2" cy="6773.28" r="200" /> 
</g>
<g style="fill:#FFFFFF; fill-opacity:1.0; 
stroke:#FFFFFF; stroke-width:39.3701; stroke-opacity:1; 
stroke-linecap:round; stroke-linejoin:round;">
</g>
<g style="fill:#FFFFFF; fill-opacity:1.0; 
stroke:#FFFFFF; stroke-width:0; stroke-opacity:1; 
stroke-linecap:round; stroke-linejoin:round;">
<circle cx="11011.2" cy="5773.28" r="200" /> 
</g>
<g style="fill:#FFFFFF; fill-opacity:1.0; 
stroke:#FFFFFF; stroke-width:39.3701; stroke-opacity:1; 
stroke-linecap:round; stroke-linejoin:round;">
</g>
<g style="fill:#FFFFFF; fill-opacity:1.0; 
stroke:#FFFFFF; stroke-width:0; stroke-opacity:1; 
stroke-linecap:round; stroke-linejoin:round;">
<circle cx="11011.2" cy="4773.28" r="200" /> 
</g>
<g style="fill:#FFFFFF; fill-opacity:1.0; 
stroke:#FFFFFF; stroke-width:39.3701; stroke-opacity:1; 
stroke-linecap:round; stroke-linejoin:round;">
</g>
<g style="fill:#FFFFFF; fill-opacity:1.0; 
stroke:#FFFFFF; stroke-width:0; stroke-opacity:1; 
stroke-linecap:round; stroke-linejoin:round;">
<circle cx="11011.2" cy="3773.28" r="200" /> 
</g>
<g style="fill:#FFFFFF; fill-opacity:1.0; 
stroke:#FFFFFF; stroke-width:39.3701; stroke-opacity:1; 
stroke-linecap:round; stroke-linejoin:round;">
</g>
<g style="fill:#FFFFFF; fill-opacity:1.0; 
stroke:#FFFFFF; stroke-width:0; stroke-opacity:1; 
stroke-linecap:round; stroke-linejoin:round;">
<circle cx="4418.24" cy="12948.1" r="196.5" /> 
</g>
<g style="fill:#FFFFFF; fill-opacity:1.0; 
stroke:#FFFFFF; stroke-width:39.3701; stroke-opacity:1; 
stroke-linecap:round; stroke-linejoin:round;">
</g>
<g style="fill:#FFFFFF; fill-opacity:1.0; 
stroke:#FFFFFF; stroke-width:0; stroke-opacity:1; 
stroke-linecap:round; stroke-linejoin:round;">
<circle cx="3418.24" cy="12948.1" r="196.5" /> 
</g>
<g style="fill:#FFFFFF; fill-opacity:1.0; 
stroke:#FFFFFF; stroke-width:39.3701; stroke-opacity:1; 
stroke-linecap:round; stroke-linejoin:round;">
</g>
<g style="fill:#FFFFFF; fill-opacity:1.0; 
stroke:#FFFFFF; stroke-width:0; stroke-opacity:1; 
stroke-linecap:round; stroke-linejoin:round;">
<circle cx="9818.24" cy="2048.08" r="196.5" /> 
</g>
<g style="fill:#FFFFFF; fill-opacity:1.0; 
stroke:#FFFFFF; stroke-width:39.3701; stroke-opacity:1; 
stroke-linecap:round; stroke-linejoin:round;">
</g>
<g style="fill:#FFFFFF; fill-opacity:1.0; 
stroke:#FFFFFF; stroke-width:0; stroke-opacity:1; 
stroke-linecap:round; stroke-linejoin:round;">
<circle cx="8818.24" cy="2048.08" r="196.5" /> 
</g>
<g style="fill:#FFFFFF; fill-opacity:1.0; 
stroke:#FFFFFF; stroke-width:39.3701; stroke-opacity:1; 
stroke-linecap:round; stroke-linejoin:round;">
</g>
<g style="fill:#FFFFFF; fill-opacity:1.0; 
stroke:#FFFFFF; stroke-width:0; stroke-opacity:1; 
stroke-linecap:round; stroke-linejoin:round;">
<circle cx="7818.24" cy="2048.08" r="196.5" /> 
</g>
<g style="fill:#FFFFFF; fill-opacity:1.0; 
stroke:#FFFFFF; stroke-width:39.3701; stroke-opacity:1; 
stroke-linecap:round; stroke-linejoin:round;">
</g>
<g style="fill:#000000; fill-opacity:1.0; 
stroke:#000000; stroke-width:39.3701; stroke-opacity:1; 
stroke-linecap:round; stroke-linejoin:round;">
</g>
<g style="fill:#840000; fill-opacity:1.0; 
stroke:#840000; stroke-width:39.3701; stroke-opacity:1; 
stroke-linecap:round; stroke-linejoin:round;">
</g>
<g style="fill:#840000; fill-opacity:1.0; 
stroke:#840000; stroke-width:0; stroke-opacity:1; 
stroke-linecap:round; stroke-linejoin:round;">
<polyline style="fill-rule:evenodd;"
points="2365,10418
2365,11127
1656,11127
1656,10418
2365,10418
" /> 
</g>
<g style="fill:#840000; fill-opacity:1.0; 
stroke:#840000; stroke-width:708.661; stroke-opacity:1; 
stroke-linecap:round; stroke-linejoin:round;">
</g>
<g style="fill:#840000; fill-opacity:0.0; 
stroke:#840000; stroke-width:708.661; stroke-opacity:1; 
stroke-linecap:round; stroke-linejoin:round;">
<path d="M2011 9773
L2011 9773
" />
<path d="M2011 8773
L2011 8773
" />
<path d="M2011 7773
L2011 7773
" />
<path d="M2011 6773
L2011 6773
" />
<path d="M2011 5773
L2011 5773
" />
<path d="M2011 4773
L2011 4773
" />
<path d="M2011 3773
L2011 3773
" />
</g>
<g style="fill:#840000; fill-opacity:0.0; 
stroke:#840000; stroke-width:0; stroke-opacity:1; 
stroke-linecap:round; stroke-linejoin:round;">
</g>
<g style="fill:#840000; fill-opacity:1.0; 
stroke:#840000; stroke-width:0; stroke-opacity:1; 
stroke-linecap:round; stroke-linejoin:round;">
<polyline style="fill-rule:evenodd;"
points="11365,10418
11365,11127
10656,11127
10656,10418
11365,10418
" /> 
</g>
<g style="fill:#840000; fill-opacity:1.0; 
stroke:#840000; stroke-width:708.661; stroke-opacity:1; 
stroke-linecap:round; stroke-linejoin:round;">
</g>
<g style="fill:#840000; fill-opacity:0.0; 
stroke:#840000; stroke-width:708.661; stroke-opacity:1; 
stroke-linecap:round; stroke-linejoin:round;">
<path d="M11011 9773
L11011 9773
" />
<path d="M11011 8773
L11011 8773
" />
<path d="M11011 7773
L11011 7773
" />
<path d="M11011 6773
L11011 6773
" />
<path d="M11011 5773
L11011 5773
" />
<path d="M11011 4773
L11011 4773
" />
<path d="M11011 3773
L11011 3773
" />
</g>
<g style="fill:#840000; fill-opacity:0.0; 
stroke:#840000; stroke-width:0; stroke-opacity:1; 
stroke-linecap:round; stroke-linejoin:round;">
</g>
<g style="fill:#840000; fill-opacity:1.0; 
stroke:#840000; stroke-width:0; stroke-opacity:1; 
stroke-linecap:round; stroke-linejoin:round;">
<polyline style="fill-rule:evenodd;"
points="3752,11249
3752,11446
3516,11446
3516,11249
3752,11249
" /> 
<polyline style="fill-rule:evenodd;"
points="3319,11249
3319,11446
3083,11446
3083,11249
3319,11249
" /> 
<polyline style="fill-rule:evenodd;"
points="5687,6481
6278,6481
6278,6874
5687,6874
5687,6481
" /> 
<polyline style="fill-rule:evenodd;"
points="3758,6481
4348,6481
4348,6874
3758,6874
3758,6481
" /> 
<polyline style="fill-rule:evenodd;"
points="5687,5221
6278,5221
6278,5615
5687,5615
5687,5221
" /> 
<polyline style="fill-rule:evenodd;"
points="3758,5221
4348,5221
4348,5615
3758,5615
3758,5221
" /> 
<polyline style="fill-rule:evenodd;"
points="8487,7781
9078,7781
9078,8174
8487,8174
8487,7781
" /> 
<polyline style="fill-rule:evenodd;"
points="6558,7781
7148,7781
7148,8174
6558,8174
6558,7781
" /> 
<polyline style="fill-rule:evenodd;"
points="8487,6521
9078,6521
9078,6915
8487,6915
8487,6521
" /> 
<polyline style="fill-rule:evenodd;"
points="6558,6521
7148,6521
7148,6915
6558,6915
6558,6521
" /> 
<polyline style="fill-rule:evenodd;"
points="8487,5181
9078,5181
9078,5574
8487,5574
8487,5181
" /> 
<polyline style="fill-rule:evenodd;"
points="6558,5181
7148,5181
7148,5574
6558,5574
6558,5181
" /> 
<polyline style="fill-rule:evenodd;"
points="8487,3921
9078,3921
9078,4315
8487,4315
8487,3921
" /> 
<polyline style="fill-rule:evenodd;"
points="6558,3921
7148,3921
7148,4315
6558,4315
6558,3921
" /> 
</g>
<g style="fill:#840000; fill-opacity:1.0; 
stroke:#840000; stroke-width:593; stroke-opacity:1; 
stroke-linecap:round; stroke-linejoin:round;">
</g>
<g style="fill:#840000; fill-opacity:0.0; 
stroke:#840000; stroke-width:593; stroke-opacity:1; 
stroke-linecap:round; stroke-linejoin:round;">
<path d="M4418 13245
L4418 12651
" />
<path d="M3418 13245
L3418 12651
" />
</g>
<g style="fill:#840000; fill-opacity:0.0; 
stroke:#840000; stroke-width:0; stroke-opacity:1; 
stroke-linecap:round; stroke-linejoin:round;">
</g>
<g style="fill:#840000; fill-opacity:1.0; 
stroke:#840000; stroke-width:0; stroke-opacity:1; 
stroke-linecap:round; stroke-linejoin:round;">
<polyline style="fill-rule:evenodd;"
points="4674,11229
4674,11466
4516,11466
4516,11229
4674,11229
" /> 
<polyline style="fill-rule:evenodd;"
points="4319,11229
4319,11466
4162,11466
4162,11229
4319,11229
" /> 
<polyline style="fill-rule:evenodd;"
points="5952,7849
5952,8046
5716,8046
5716,7849
5952,7849
" /> 
<polyline style="fill-rule:evenodd;"
points="5519,7849
5519,8046
5283,8046
5283,7849
5519,7849
" /> 
<polyline style="fill-rule:evenodd;"
points="3474,6629
3474,6866
3316,6866
3316,6629
3474,6629
" /> 
<polyline style="fill-rule:evenodd;"
points="3119,6629
3119,6866
2962,6866
2962,6629
3119,6629
" /> 
<polyline style="fill-rule:evenodd;"
points="3783,8003
4452,8003
4452,8515
3783,8515
3783,8003
" /> 
<polyline style="fill-rule:evenodd;"
points="3783,9381
4452,9381
4452,9893
3783,9893
3783,9381
" /> 
</g>
<g style="fill:#840000; fill-opacity:1.0; 
stroke:#840000; stroke-width:593; stroke-opacity:1; 
stroke-linecap:round; stroke-linejoin:round;">
</g>
<g style="fill:#840000; fill-opacity:0.0; 
stroke:#840000; stroke-width:593; stroke-opacity:1; 
stroke-linecap:round; stroke-linejoin:round;">
<path d="M9818 2345
L9818 1751
" />
<path d="M8818 2345
L8818 1751
" />
<path d="M7818 2345
L7818 1751
" />
</g>
<g style="fill:#840000; fill-opacity:0.0; 
stroke:#840000; stroke-width:98.4252; stroke-opacity:1; 
stroke-linecap:round; stroke-linejoin:round;">
<path d="M9818 2048
L9818 2848
" />
<path d="M9318 4842
L8782 5378
" />
<path d="M9318 3348
L9318 4842
" />
<path d="M9818 2848
L9318 3348
" />
<path d="M5834 7948
L5834 8164
" />
<path d="M8212 8548
L8782 7978
" />
<path d="M6218 8548
L8212 8548
" />
<path d="M5834 8164
L6218 8548
" />
<path d="M5834 7948
L5834 8631
" />
<path d="M4829 9637
L4118 9637
" />
<path d="M5834 8631
L4829 9637
" />
<path d="M8782 5378
L8988 5378
" />
<path d="M8782 7978
L8888 7978
" />
<path d="M8888 7978
L9318 7548
" />
<path d="M9318 5913
L8782 5378
" />
<path d="M9318 7548
L9318 5913
" />
<path d="M4118 9637
L4229 9637
" />
<path d="M2011 10773
L2982 10773
" />
<path d="M2982 10773
L4118 9637
" />
<path d="M3041 6748
L2036 6748
" />
<path d="M2036 6748
L2011 6773
" />
<path d="M4595 11348
L7018 11348
" />
<path d="M7593 10773
L11011 10773
" />
<path d="M7018 11348
L7593 10773
" />
<path d="M11011 6773
L10793 6773
" />
<path d="M10793 6773
L10118 7448
" />
<path d="M10118 7448
L10118 9748
" />
<path d="M10118 9748
L9318 10548
" />
<path d="M9318 10548
L4718 10548
" />
<path d="M4718 10548
L4241 11025
" />
<path d="M4241 11025
L4241 11348
" />
<path d="M4241 11348
L4241 12770
" />
<path d="M4241 12770
L4418 12948
" />
<path d="M3634 11348
L4241 11348
" />
<path d="M2011 9773
L2193 9773
" />
<path d="M3418 12948
L3418 12348
" />
<path d="M3201 12131
L3201 11348
" />
<path d="M3418 12348
L3201 12131
" />
<path d="M4118 8259
L4207 8259
" />
<path d="M4207 8259
L4818 7648
" />
<path d="M4818 7648
L4818 7348
" />
<path d="M4818 7348
L5018 7148
" />
<path d="M5018 7148
L5512 7148
" />
<path d="M5512 7148
L5982 6678
" />
<path d="M5982 5418
L5982 5712
" />
<path d="M7418 7413
L6853 7978
" />
<path d="M7418 6348
L7418 7413
" />
<path d="M7218 6148
L7418 6348
" />
<path d="M6418 6148
L7218 6148
" />
<path d="M5982 5712
L6418 6148
" />
<path d="M6853 5378
L7448 5378
" />
<path d="M7448 5378
L8782 6712
" />
<path d="M8782 6712
L8782 6718
" />
<path d="M8818 2048
L8818 4082
" />
<path d="M8818 4082
L8782 4118
" />
<path d="M3395 6748
L3983 6748
" />
<path d="M3983 6748
L4053 6678
" />
<path d="M3958 6773
L4053 6678
" />
</g>
<g style="fill:#840000; fill-opacity:1.0; 
stroke:#840000; stroke-width:100; stroke-opacity:1; 
stroke-linecap:round; stroke-linejoin:round;">
<polyline style="fill-rule:evenodd;"
points="11221,2022
11225,2032
11265,2345
11266,3223
11254,3214
11022,3168
10999,3168
10768,3214
10571,3345
10440,3542
10394,3773
10440,4004
10571,4200
10680,4273
10571,4345
10440,4542
10394,4773
10440,5004
10571,5200
10680,5273
10571,5345
10440,5542
10394,5773
10440,6004
10571,6200
10680,6273
10571,6345
10440,6542
10401,6741
9906,7236
9841,7333
9819,7448
9819,9624
9194,10248
4718,10248
4603,10271
4506,10336
4029,10813
3964,10910
3941,11025
3941,11048
3901,11048
3852,11014
3752,10994
3516,10994
3424,11012
3414,11018
3369,10999
3314,10999
3251,11062
3251,11298
3259,11298
3259,11397
3251,11397
3251,11634
3314,11696
3369,11696
3413,11678
3417,11681
3516,11701
3752,11701
3845,11683
3902,11647
3941,11647
3941,12382
3913,12425
3913,12426
3904,12395
3769,12229
3581,12127
3552,12121
3468,12169
3468,12898
3476,12898
3476,12998
3468,12998
3468,13726
3552,13774
3581,13769
3769,13666
3904,13500
3913,13469
3913,13470
4031,13648
4209,13766
4418,13808
4627,13766
4748,13685
4739,13730
4729,13781
4729,13781
4729,13781
4729,13984
1694,13975
1694,12998
2871,12998
2871,13295
2932,13500
3067,13666
3255,13769
3283,13774
3368,13726
3368,12998
2871,12998
1694,12998
1694,12601
2871,12601
2871,12898
3368,12898
3368,12169
3283,12121
3255,12127
3067,12229
2932,12395
2871,12601
1694,12601
1695,11459
2833,11459
2833,11496
2871,11588
2941,11658
3033,11696
3089,11696
3151,11634
3151,11397
2896,11397
2833,11459
1695,11459
1695,11382
2365,11382
2458,11365
2543,11310
2600,11226
2620,11127
2620,11072
2907,11072
2871,11108
2833,11199
2833,11236
2896,11298
3151,11298
3151,11062
3122,11032
3193,10984
4030,10147
4452,10147
4545,10130
4630,10075
4687,9992
4698,9936
4829,9936
4943,9913
5040,9848
6046,8843
6072,8803
6103,8824
6218,8847
8212,8847
8327,8824
8424,8759
8754,8429
9078,8429
9170,8412
9255,8357
9312,8274
9332,8174
9332,7956
9529,7759
9594,7662
9617,7548
9617,5913
9594,5798
9594,5798
9529,5701
9332,5505
9332,5250
9529,5054
9594,4957
9600,4926
9617,4842
9617,3472
10029,3059
10094,2962
10117,2848
10117,2806
10204,2748
10323,2570
10364,2361
10364,1734
10323,1525
10204,1348
10027,1229
9818,1188
9609,1229
9431,1348
9318,1518
9204,1348
9027,1229
8818,1188
8609,1229
8431,1348
8313,1525
8313,1526
8304,1495
8169,1329
7981,1227
7952,1221
7868,1269
7868,1998
7876,1998
7876,2098
7868,2098
7868,2826
7952,2874
7981,2869
8169,2766
8304,2600
8313,2569
8313,2570
8431,2748
8519,2806
8519,3666
8487,3666
8394,3683
8309,3738
8252,3822
8232,3921
8232,4315
8250,4407
8304,4492
8388,4549
8487,4569
9019,4569
9019,4718
8811,4926
8487,4926
8394,4943
8309,4998
8252,5081
8232,5181
8232,5574
8250,5667
8304,5752
8388,5809
8487,5829
8811,5829
9019,6037
9019,6266
8759,6266
7659,5166
7562,5101
7448,5078
7380,5078
7331,5003
7248,4946
7148,4926
6558,4926
6465,4943
6387,4993
6377,4986
6278,4966
5687,4966
5594,4983
5509,5038
5452,5122
5432,5221
5432,5615
5450,5707
5504,5792
5588,5849
5687,5869
5734,5869
5771,5924
6073,6226
5687,6226
5594,6243
5509,6298
5452,6381
5432,6481
5432,6805
5388,6848
5018,6848
4903,6871
4825,6924
4806,6936
4606,7136
4541,7233
4519,7348
4519,7524
4294,7748
3783,7748
3691,7765
3606,7820
3548,7903
3528,8003
3528,8515
3546,8607
3601,8692
3684,8749
3783,8769
4452,8769
4545,8752
4630,8697
4687,8614
4707,8515
4707,8181
4829,8059
5033,8059
5033,8096
5071,8188
5141,8258
5233,8296
5289,8296
5351,8234
5351,7997
5096,7997
5033,8059
4829,8059
5029,7859
5040,7843
5096,7898
5351,7898
5351,7662
5289,7599
5233,7599
5141,7637
5113,7665
5117,7648
5117,7472
5142,7447
5512,7447
5627,7424
5724,7359
5954,7129
6278,7129
6370,7112
6389,7100
6416,7126
6508,7165
6741,7165
6803,7102
6803,6768
6795,6768
6795,6668
6803,6668
6803,6660
6903,6660
6903,6668
6911,6668
6911,6768
6903,6768
6903,7102
6966,7165
7119,7165
7119,7289
6882,7526
6558,7526
6465,7543
6380,7598
6323,7681
6303,7781
6303,8174
6311,8218
6196,8103
6207,8046
6207,7849
6190,7757
6135,7671
6052,7614
5952,7594
5716,7594
5624,7612
5614,7618
5569,7599
5514,7599
5451,7662
5451,7898
5459,7898
5459,7997
5451,7997
5451,8234
5514,8296
5535,8296
5535,8507
4705,9337
4699,9337
4690,9288
4635,9203
4551,9146
4452,9126
3783,9126
3691,9143
3606,9198
3548,9281
3528,9381
3528,9803
2858,10474
2620,10474
2620,10418
2602,10326
2548,10241
2464,10184
2442,10179
2527,10086
2598,9916
2550,9823
2061,9823
2061,9831
1961,9831
1961,9823
1953,9823
1953,9723
1961,9723
1961,9715
2061,9715
2061,9723
2550,9723
2598,9629
2527,9459
2368,9285
2341,9273
2450,9200
2581,9004
2627,8773
2581,8542
2450,8345
2341,8273
2450,8200
2581,8004
2627,7773
2581,7542
2450,7345
2341,7273
2450,7200
2552,7047
2784,7047
2863,7101
2962,7121
3119,7121
3212,7103
3217,7100
3217,7101
3316,7121
3474,7121
3566,7103
3609,7075
3659,7109
3758,7129
4348,7129
4441,7112
4526,7057
4583,6974
4603,6874
4603,6481
4586,6388
4531,6303
4448,6246
4348,6226
3758,6226
3665,6243
3580,6298
3523,6381
3522,6384
3474,6375
3316,6375
3224,6392
3219,6395
3218,6395
3119,6375
2962,6375
2869,6392
2784,6447
2783,6448
2519,6448
2450,6345
2341,6273
2450,6200
2581,6004
2627,5773
2581,5542
2573,5530
3508,5530
3508,5664
3546,5756
3616,5826
3708,5865
3941,5865
4003,5802
4003,5468
4103,5468
4103,5802
4166,5865
4398,5865
4490,5826
4560,5756
4598,5664
4598,5530
4536,5468
4103,5468
4003,5468
3570,5468
3508,5530
2573,5530
2450,5345
2341,5273
2450,5200
2469,5171
3508,5171
3508,5305
3570,5368
4003,5368
4003,5033
4103,5033
4103,5368
4536,5368
4598,5305
4598,5171
4560,5079
4490,5009
4398,4971
4166,4971
4103,5033
4003,5033
3941,4971
3708,4971
3616,5009
3546,5079
3508,5171
2469,5171
2581,5004
2627,4773
2581,4542
2450,4345
2341,4273
2405,4230
6308,4230
6308,4364
6346,4456
6416,4526
6508,4565
6741,4565
6803,4502
6803,4168
6903,4168
6903,4502
6966,4565
7198,4565
7290,4526
7360,4456
7398,4364
7398,4230
7336,4168
6903,4168
6803,4168
6370,4168
6308,4230
2405,4230
2450,4200
2581,4004
2607,3871
6308,3871
6308,4005
6370,4068
6803,4068
6803,3733
6903,3733
6903,4068
7336,4068
7398,4005
7398,3871
7360,3779
7290,3709
7198,3671
6966,3671
6903,3733
6803,3733
6741,3671
6508,3671
6416,3709
6346,3779
6308,3871
2607,3871
2627,3773
2581,3542
2450,3345
2254,3214
2022,3168
1999,3168
1768,3214
1699,3261
1699,2098
7271,2098
7271,2395
7332,2600
7467,2766
7655,2869
7683,2874
7768,2826
7768,2098
7271,2098
1699,2098
1699,2037
2035,1701
7271,1701
7271,1998
7768,1998
7768,1269
7683,1221
7655,1227
7467,1329
7332,1495
7271,1701
2035,1701
2728,1008
2762,998
10197,998
11221,2022
" /> 
</g>
<g style="fill:#FFFFFF; fill-opacity:1.0; 
stroke:#FFFFFF; stroke-width:100; stroke-opacity:1; 
stroke-linecap:round; stroke-linejoin:round;">
</g>
<g style="fill:#FFFFFF; fill-opacity:1.0; 
stroke:#FFFFFF; stroke-width:0; stroke-opacity:1; 
stroke-linecap:round; stroke-linejoin:round;">
<circle cx="2011.15" cy="10773.3" r="200" /> 
</g>
<g style="fill:#FFFFFF; fill-opacity:1.0; 
stroke:#FFFFFF; stroke-width:39.3701; stroke-opacity:1; 
stroke-linecap:round; stroke-linejoin:round;">
</g>
<g style="fill:#FFFFFF; fill-opacity:1.0; 
stroke:#FFFFFF; stroke-width:0; stroke-opacity:1; 
stroke-linecap:round; stroke-linejoin:round;">
<circle cx="2011.15" cy="9773.28" r="200" /> 
</g>
<g style="fill:#FFFFFF; fill-opacity:1.0; 
stroke:#FFFFFF; stroke-width:39.3701; stroke-opacity:1; 
stroke-linecap:round; stroke-linejoin:round;">
</g>
<g style="fill:#FFFFFF; fill-opacity:1.0; 
stroke:#FFFFFF; stroke-width:0; stroke-opacity:1; 
stroke-linecap:round; stroke-linejoin:round;">
<circle cx="2011.15" cy="8773.28" r="200" /> 
</g>
<g style="fill:#FFFFFF; fill-opacity:1.0; 
stroke:#FFFFFF; stroke-width:39.3701; stroke-opacity:1; 
stroke-linecap:round; stroke-linejoin:round;">
</g>
<g style="fill:#FFFFFF; fill-opacity:1.0; 
stroke:#FFFFFF; stroke-width:0; stroke-opacity:1; 
stroke-linecap:round; stroke-linejoin:round;">
<circle cx="2011.15" cy="7773.28" r="200" /> 
</g>
<g style="fill:#FFFFFF; fill-opacity:1.0; 
stroke:#FFFFFF; stroke-width:39.3701; stroke-opacity:1; 
stroke-linecap:round; stroke-linejoin:round;">
</g>
<g style="fill:#FFFFFF; fill-opacity:1.0; 
stroke:#FFFFFF; stroke-width:0; stroke-opacity:1; 
stroke-linecap:round; stroke-linejoin:round;">
<circle cx="2011.15" cy="6773.28" r="200" /> 
</g>
<g style="fill:#FFFFFF; fill-opacity:1.0; 
stroke:#FFFFFF; stroke-width:39.3701; stroke-opacity:1; 
stroke-linecap:round; stroke-linejoin:round;">
</g>
<g style="fill:#FFFFFF; fill-opacity:1.0; 
stroke:#FFFFFF; stroke-width:0; stroke-opacity:1; 
stroke-linecap:round; stroke-linejoin:round;">
<circle cx="2011.15" cy="5773.28" r="200" /> 
</g>
<g style="fill:#FFFFFF; fill-opacity:1.0; 
stroke:#FFFFFF; stroke-width:39.3701; stroke-opacity:1; 
stroke-linecap:round; stroke-linejoin:round;">
</g>
<g style="fill:#FFFFFF; fill-opacity:1.0; 
stroke:#FFFFFF; stroke-width:0; stroke-opacity:1; 
stroke-linecap:round; stroke-linejoin:round;">
<circle cx="2011.15" cy="4773.28" r="200" /> 
</g>
<g style="fill:#FFFFFF; fill-opacity:1.0; 
stroke:#FFFFFF; stroke-width:39.3701; stroke-opacity:1; 
stroke-linecap:round; stroke-linejoin:round;">
</g>
<g style="fill:#FFFFFF; fill-opacity:1.0; 
stroke:#FFFFFF; stroke-width:0; stroke-opacity:1; 
stroke-linecap:round; stroke-linejoin:round;">
<circle cx="2011.15" cy="3773.28" r="200" /> 
</g>
<g style="fill:#FFFFFF; fill-opacity:1.0; 
stroke:#FFFFFF; stroke-width:39.3701; stroke-opacity:1; 
stroke-linecap:round; stroke-linejoin:round;">
</g>
<g style="fill:#FFFFFF; fill-opacity:1.0; 
stroke:#FFFFFF; stroke-width:0; stroke-opacity:1; 
stroke-linecap:round; stroke-linejoin:round;">
<circle cx="11011.2" cy="10773.3" r="200" /> 
</g>
<g style="fill:#FFFFFF; fill-opacity:1.0; 
stroke:#FFFFFF; stroke-width:39.3701; stroke-opacity:1; 
stroke-linecap:round; stroke-linejoin:round;">
</g>
<g style="fill:#FFFFFF; fill-opacity:1.0; 
stroke:#FFFFFF; stroke-width:0; stroke-opacity:1; 
stroke-linecap:round; stroke-linejoin:round;">
<circle cx="11011.2" cy="9773.28" r="200" /> 
</g>
<g style="fill:#FFFFFF; fill-opacity:1.0; 
stroke:#FFFFFF; stroke-width:39.3701; stroke-opacity:1; 
stroke-linecap:round; stroke-linejoin:round;">
</g>
<g style="fill:#FFFFFF; fill-opacity:1.0; 
stroke:#FFFFFF; stroke-width:0; stroke-opacity:1; 
stroke-linecap:round; stroke-linejoin:round;">
<circle cx="11011.2" cy="8773.28" r="200" /> 
</g>
<g style="fill:#FFFFFF; fill-opacity:1.0; 
stroke:#FFFFFF; stroke-width:39.3701; stroke-opacity:1; 
stroke-linecap:round; stroke-linejoin:round;">
</g>
<g style="fill:#FFFFFF; fill-opacity:1.0; 
stroke:#FFFFFF; stroke-width:0; stroke-opacity:1; 
stroke-linecap:round; stroke-linejoin:round;">
<circle cx="11011.2" cy="7773.28" r="200" /> 
</g>
<g style="fill:#FFFFFF; fill-opacity:1.0; 
stroke:#FFFFFF; stroke-width:39.3701; stroke-opacity:1; 
stroke-linecap:round; stroke-linejoin:round;">
</g>
<g style="fill:#FFFFFF; fill-opacity:1.0; 
stroke:#FFFFFF; stroke-width:0; stroke-opacity:1; 
stroke-linecap:round; stroke-linejoin:round;">
<circle cx="11011.2" cy="6773.28" r="200" /> 
</g>
<g style="fill:#FFFFFF; fill-opacity:1.0; 
stroke:#FFFFFF; stroke-width:39.3701; stroke-opacity:1; 
stroke-linecap:round; stroke-linejoin:round;">
</g>
<g style="fill:#FFFFFF; fill-opacity:1.0; 
stroke:#FFFFFF; stroke-width:0; stroke-opacity:1; 
stroke-linecap:round; stroke-linejoin:round;">
<circle cx="11011.2" cy="5773.28" r="200" /> 
</g>
<g style="fill:#FFFFFF; fill-opacity:1.0; 
stroke:#FFFFFF; stroke-width:39.3701; stroke-opacity:1; 
stroke-linecap:round; stroke-linejoin:round;">
</g>
<g style="fill:#FFFFFF; fill-opacity:1.0; 
stroke:#FFFFFF; stroke-width:0; stroke-opacity:1; 
stroke-linecap:round; stroke-linejoin:round;">
<circle cx="11011.2" cy="4773.28" r="200" /> 
</g>
<g style="fill:#FFFFFF; fill-opacity:1.0; 
stroke:#FFFFFF; stroke-width:39.3701; stroke-opacity:1; 
stroke-linecap:round; stroke-linejoin:round;">
</g>
<g style="fill:#FFFFFF; fill-opacity:1.0; 
stroke:#FFFFFF; stroke-width:0; stroke-opacity:1; 
stroke-linecap:round; stroke-linejoin:round;">
<circle cx="11011.2" cy="3773.28" r="200" /> 
</g>
<g style="fill:#FFFFFF; fill-opacity:1.0; 
stroke:#FFFFFF; stroke-width:39.3701; stroke-opacity:1; 
stroke-linecap:round; stroke-linejoin:round;">
</g>
<g style="fill:#FFFFFF; fill-opacity:1.0; 
stroke:#FFFFFF; stroke-width:0; stroke-opacity:1; 
stroke-linecap:round; stroke-linejoin:round;">
<circle cx="4418.24" cy="12948.1" r="196.5" /> 
</g>
<g style="fill:#FFFFFF; fill-opacity:1.0; 
stroke:#FFFFFF; stroke-width:39.3701; stroke-opacity:1; 
stroke-linecap:round; stroke-linejoin:round;">
</g>
<g style="fill:#FFFFFF; fill-opacity:1.0; 
stroke:#FFFFFF; stroke-width:0; stroke-opacity:1; 
stroke-linecap:round; stroke-linejoin:round;">
<circle cx="3418.24" cy="12948.1" r="196.5" /> 
</g>
<g style="fill:#FFFFFF; fill-opacity:1.0; 
stroke:#FFFFFF; stroke-width:39.3701; stroke-opacity:1; 
stroke-linecap:round; stroke-linejoin:round;">
</g>
<g style="fill:#FFFFFF; fill-opacity:1.0; 
stroke:#FFFFFF; stroke-width:0; stroke-opacity:1; 
stroke-linecap:round; stroke-linejoin:round;">
<circle cx="9818.24" cy="2048.08" r="196.5" /> 
</g>
<g style="fill:#FFFFFF; fill-opacity:1.0; 
stroke:#FFFFFF; stroke-width:39.3701; stroke-opacity:1; 
stroke-linecap:round; stroke-linejoin:round;">
</g>
<g style="fill:#FFFFFF; fill-opacity:1.0; 
stroke:#FFFFFF; stroke-width:0; stroke-opacity:1; 
stroke-linecap:round; stroke-linejoin:round;">
<circle cx="8818.24" cy="2048.08" r="196.5" /> 
</g>
<g style="fill:#FFFFFF; fill-opacity:1.0; 
stroke:#FFFFFF; stroke-width:39.3701; stroke-opacity:1; 
stroke-linecap:round; stroke-linejoin:round;">
</g>
<g style="fill:#FFFFFF; fill-opacity:1.0; 
stroke:#FFFFFF; stroke-width:0; stroke-opacity:1; 
stroke-linecap:round; stroke-linejoin:round;">
<circle cx="7818.24" cy="2048.08" r="196.5" /> 
</g>
<g style="fill:#FFFFFF; fill-opacity:1.0; 
stroke:#FFFFFF; stroke-width:39.3701; stroke-opacity:1; 
stroke-linecap:round; stroke-linejoin:round;">
</g>
<g style="fill:#000000; fill-opacity:1.0; 
stroke:#000000; stroke-width:39.3701; stroke-opacity:1; 
stroke-linecap:round; stroke-linejoin:round;">
</g>
<g style="fill:#008484; fill-opacity:1.0; 
stroke:#008484; stroke-width:39.3701; stroke-opacity:1; 
stroke-linecap:round; stroke-linejoin:round;">
</g>
<g style="fill:#008484; fill-opacity:0.0; 
stroke:#008484; stroke-width:39.3701; stroke-opacity:1; 
stroke-linecap:round; stroke-linejoin:round;">
</g>
<g style="fill:#008484; fill-opacity:0.0; 
stroke:#008484; stroke-width:118.11; stroke-opacity:1; 
stroke-linecap:round; stroke-linejoin:round;">
<path d="M10393 1990
L10843 1990
" />
<path d="M10618 2215
L10618 1765
" />
<path d="M3943 1724
L4280 1724
" />
<path d="M4112 2315
L4112 1724
" />
<path d="M4477 2315
L4477 1921
" />
<path d="M4477 2034
L4505 1977
L4533 1949
L4590 1921
L4646 1921
" />
<path d="M5068 2287
L5012 2315
L4899 2315
L4843 2287
L4815 2230
L4815 2005
L4843 1949
L4899 1921
L5012 1921
L5068 1949
L5096 2005
L5096 2062
L4815 2118
" />
<path d="M5349 1921
L5349 2315
" />
<path d="M5349 1977
L5377 1949
L5433 1921
L5518 1921
L5574 1949
L5602 2005
L5602 2315
" />
<path d="M6136 2315
L6136 1724
" />
<path d="M6136 2287
L6080 2315
L5968 2315
L5911 2287
L5883 2258
L5855 2202
L5855 2034
L5883 1977
L5911 1949
L5968 1921
L6080 1921
L6136 1949
" />
<path d="M6643 2287
L6586 2315
L6474 2315
L6418 2287
L6390 2230
L6390 2005
L6418 1949
L6474 1921
L6586 1921
L6643 1949
L6671 2005
L6671 2062
L6390 2118
" />
<path d="M6924 2315
L6924 1921
" />
<path d="M6924 2034
L6952 1977
L6980 1949
L7036 1921
L7093 1921
" />
</g>
<g style="fill:#008484; fill-opacity:0.0; 
stroke:#008484; stroke-width:98.4252; stroke-opacity:1; 
stroke-linecap:round; stroke-linejoin:round;">
<path d="M3665 3063
L3665 3326
" />
<path d="M3496 3063
L3496 3269
L3515 3307
L3552 3326
L3609 3326
L3646 3307
L3665 3288
" />
<path d="M3852 3288
L3871 3307
L3852 3326
L3834 3307
L3852 3288
L3852 3326
" />
<path d="M4209 3326
L4209 2932
" />
<path d="M4209 3307
L4171 3326
L4096 3326
L4059 3307
L4040 3288
L4021 3251
L4021 3138
L4040 3101
L4059 3082
L4096 3063
L4171 3063
L4209 3082
" />
<path d="M4396 3326
L4396 3063
" />
<path d="M4396 2932
L4377 2951
L4396 2969
L4415 2951
L4396 2932
L4396 2969
" />
<path d="M4584 3063
L4584 3326
" />
<path d="M4584 3101
L4602 3082
L4640 3063
L4696 3063
L4734 3082
L4752 3119
L4752 3326
" />
<path d="M5109 3326
L5109 3119
L5090 3082
L5052 3063
L4977 3063
L4940 3082
" />
<path d="M5109 3307
L5071 3326
L4977 3326
L4940 3307
L4921 3269
L4921 3232
L4940 3194
L4977 3176
L5071 3176
L5109 3157
" />
<path d="M5277 3307
L5315 3326
L5390 3326
L5427 3307
L5446 3269
L5446 3251
L5427 3213
L5390 3194
L5333 3194
L5296 3176
L5277 3138
L5277 3119
L5296 3082
L5333 3063
L5390 3063
L5427 3082
" />
<path d="M5615 3326
L5615 2932
" />
<path d="M5652 3176
L5765 3326
" />
<path d="M5765 3063
L5615 3213
" />
<path d="M5933 3288
L5952 3307
L5933 3326
L5915 3307
L5933 3288
L5933 3326
" />
<path d="M6271 3307
L6233 3326
L6158 3326
L6121 3307
L6102 3269
L6102 3119
L6121 3082
L6158 3063
L6233 3063
L6271 3082
L6290 3119
L6290 3157
L6102 3194
" />
<path d="M6627 3063
L6627 3326
" />
<path d="M6458 3063
L6458 3269
L6477 3307
L6515 3326
L6571 3326
L6608 3307
L6627 3288
" />
<path d="M7096 2913
L6758 3419
" />
<path d="M7171 3063
L7321 3063
" />
<path d="M7227 2932
L7227 3269
L7246 3307
L7283 3326
L7321 3326
" />
<path d="M7452 3326
L7452 3063
" />
<path d="M7452 3138
L7471 3101
L7489 3082
L7527 3063
L7564 3063
" />
<path d="M7846 3307
L7808 3326
L7733 3326
L7696 3307
L7677 3269
L7677 3119
L7696 3082
L7733 3063
L7808 3063
L7846 3082
L7864 3119
L7864 3157
L7677 3194
" />
<path d="M8033 3063
L8033 3326
" />
<path d="M8033 3101
L8052 3082
L8089 3063
L8146 3063
L8183 3082
L8202 3119
L8202 3326
" />
<path d="M8558 3326
L8558 2932
" />
<path d="M8558 3307
L8521 3326
L8446 3326
L8408 3307
L8389 3288
L8371 3251
L8371 3138
L8389 3101
L8408 3082
L8446 3063
L8521 3063
L8558 3082
" />
<path d="M8896 3307
L8858 3326
L8783 3326
L8746 3307
L8727 3269
L8727 3119
L8746 3082
L8783 3063
L8858 3063
L8896 3082
L8914 3119
L8914 3157
L8727 3194
" />
<path d="M9083 3326
L9083 3063
" />
<path d="M9083 3138
L9102 3101
L9121 3082
L9158 3063
L9196 3063
" />
</g>
<g style="fill:#008484; fill-opacity:0.0; 
stroke:#008484; stroke-width:118.11; stroke-opacity:1; 
stroke-linecap:round; stroke-linejoin:round;">
<path d="M9624 4012
L9427 3731
" />
<path d="M9287 4012
L9287 3422
L9512 3422
L9568 3450
L9596 3478
L9624 3534
L9624 3619
L9596 3675
L9568 3703
L9512 3731
L9287 3731
" />
<path d="M9849 3984
L9905 4012
L10018 4012
L10074 3984
L10102 3928
L10102 3900
L10074 3844
L10018 3816
L9934 3816
L9877 3787
L9849 3731
L9849 3703
L9877 3647
L9934 3619
L10018 3619
L10074 3647
" />
<path d="M10271 3619
L10496 3619
" />
<path d="M10355 3422
L10355 3928
L10384 3984
L10440 4012
L10496 4012
" />
<path d="M9585 4867
L9866 4867
" />
<path d="M9529 5036
L9726 4445
L9922 5036
" />
<path d="M10232 4445
L10288 4445
L10344 4474
L10372 4502
L10400 4558
L10429 4670
L10429 4811
L10400 4924
L10372 4980
L10344 5008
L10288 5036
L10232 5036
L10175 5008
L10147 4980
L10119 4924
L10091 4811
L10091 4670
L10119 4558
L10147 4502
L10175 4474
L10232 4445
" />
<path d="M9571 6060
L9571 5469
L9711 5469
L9796 5497
L9852 5553
L9880 5610
L9908 5722
L9908 5807
L9880 5919
L9852 5975
L9796 6031
L9711 6060
L9571 6060
" />
<path d="M10274 5469
L10330 5469
L10386 5497
L10414 5525
L10443 5582
L10471 5694
L10471 5835
L10443 5947
L10414 6003
L10386 6031
L10330 6060
L10274 6060
L10218 6031
L10190 6003
L10161 5947
L10133 5835
L10133 5694
L10161 5582
L10190 5525
L10218 5497
L10274 5469
" />
<path d="M9571 7083
L9571 6493
L9711 6493
L9796 6521
L9852 6577
L9880 6633
L9908 6746
L9908 6830
L9880 6943
L9852 6999
L9796 7055
L9711 7083
L9571 7083
" />
<path d="M10443 6493
L10161 6493
L10133 6774
L10161 6746
L10218 6718
L10358 6718
L10414 6746
L10443 6774
L10471 6830
L10471 6971
L10443 7027
L10414 7055
L10358 7083
L10218 7083
L10161 7055
L10133 7027
" />
<path d="M9571 8067
L9571 7477
L9711 7477
L9796 7505
L9852 7561
L9880 7618
L9908 7730
L9908 7814
L9880 7927
L9852 7983
L9796 8039
L9711 8067
L9571 8067
" />
<path d="M10414 7477
L10302 7477
L10246 7505
L10218 7533
L10161 7618
L10133 7730
L10133 7955
L10161 8011
L10190 8039
L10246 8067
L10358 8067
L10414 8039
L10443 8011
L10471 7955
L10471 7814
L10443 7758
L10414 7730
L10358 7702
L10246 7702
L10190 7730
L10161 7758
L10133 7814
" />
<path d="M9571 9012
L9571 8422
L9711 8422
L9796 8450
L9852 8506
L9880 8562
L9908 8675
L9908 8759
L9880 8872
L9852 8928
L9796 8984
L9711 9012
L9571 9012
" />
<path d="M10105 8422
L10499 8422
L10246 9012
" />
<path d="M9571 10036
L9571 9445
L9711 9445
L9796 9474
L9852 9530
L9880 9586
L9908 9699
L9908 9783
L9880 9895
L9852 9952
L9796 10008
L9711 10036
L9571 10036
" />
<path d="M10246 9699
L10190 9670
L10161 9642
L10133 9586
L10133 9558
L10161 9502
L10190 9474
L10246 9445
L10358 9445
L10414 9474
L10443 9502
L10471 9558
L10471 9586
L10443 9642
L10414 9670
L10358 9699
L10246 9699
L10190 9727
L10161 9755
L10133 9811
L10133 9924
L10161 9980
L10190 10008
L10246 10036
L10358 10036
L10414 10008
L10443 9980
L10471 9924
L10471 9811
L10443 9755
L10414 9727
L10358 9699
" />
<path d="M9000 10430
L9366 10430
L9169 10655
L9253 10655
L9309 10683
L9337 10711
L9366 10767
L9366 10908
L9337 10964
L9309 10992
L9253 11020
L9084 11020
L9028 10992
L9000 10964
" />
<path d="M9534 10430
L9731 11020
L9928 10430
" />
<path d="M10069 10430
L10434 10430
L10237 10655
L10322 10655
L10378 10683
L10406 10711
L10434 10767
L10434 10908
L10406 10964
L10378 10992
L10322 11020
L10153 11020
L10097 10992
L10069 10964
" />
<path d="M2470 3461
L2808 3461
" />
<path d="M2639 4052
L2639 3461
" />
<path d="M2948 3461
L3342 4052
" />
<path d="M3342 3461
L2948 4052
" />
<path d="M2900 5075
L2704 4794
" />
<path d="M2563 5075
L2563 4485
L2788 4485
L2844 4513
L2872 4541
L2900 4597
L2900 4682
L2872 4738
L2844 4766
L2788 4794
L2563 4794
" />
<path d="M3097 4485
L3491 5075
" />
<path d="M3491 4485
L3097 5075
" />
<path d="M2563 6020
L2563 5430
L2704 5430
L2788 5458
L2844 5514
L2872 5570
L2900 5683
L2900 5767
L2872 5880
L2844 5936
L2788 5992
L2704 6020
L2563 6020
" />
<path d="M3463 6020
L3125 6020
" />
<path d="M3294 6020
L3294 5430
L3238 5514
L3182 5570
L3125 5598
" />
<path d="M2563 7044
L2563 6453
L2704 6453
L2788 6481
L2844 6538
L2872 6594
L2900 6706
L2900 6791
L2872 6903
L2844 6960
L2788 7016
L2704 7044
L2563 7044
" />
<path d="M3125 6510
L3154 6481
L3210 6453
L3350 6453
L3407 6481
L3435 6510
L3463 6566
L3463 6622
L3435 6706
L3097 7044
L3463 7044
" />
<path d="M2563 8067
L2563 7477
L2704 7477
L2788 7505
L2844 7561
L2872 7618
L2900 7730
L2900 7814
L2872 7927
L2844 7983
L2788 8039
L2704 8067
L2563 8067
" />
<path d="M3097 7477
L3463 7477
L3266 7702
L3350 7702
L3407 7730
L3435 7758
L3463 7814
L3463 7955
L3435 8011
L3407 8039
L3350 8067
L3182 8067
L3125 8039
L3097 8011
" />
<path d="M2563 9091
L2563 8501
L2704 8501
L2788 8529
L2844 8585
L2872 8641
L2900 8754
L2900 8838
L2872 8951
L2844 9007
L2788 9063
L2704 9091
L2563 9091
" />
<path d="M3407 8697
L3407 9091
" />
<path d="M3266 8472
L3125 8894
L3491 8894
" />
<path d="M2917 9513
L2861 9485
L2777 9485
L2692 9513
L2636 9569
L2608 9625
L2580 9738
L2580 9822
L2608 9935
L2636 9991
L2692 10047
L2777 10075
L2833 10075
L2917 10047
L2945 10019
L2945 9822
L2833 9822
" />
<path d="M2847 10469
L2566 10469
L2538 10750
L2566 10722
L2622 10694
L2763 10694
L2819 10722
L2847 10750
L2875 10807
L2875 10947
L2847 11003
L2819 11031
L2763 11060
L2622 11060
L2566 11031
L2538 11003
" />
<path d="M3044 10469
L3241 11060
L3438 10469
" />
</g>
<g style="fill:#008484; fill-opacity:0.0; 
stroke:#008484; stroke-width:59.0551; stroke-opacity:1; 
stroke-linecap:round; stroke-linejoin:round;">
<path d="M1865 2536
L1763 2757
" />
<path d="M1763 2757
L1975 2961
" />
<path d="M1975 2961
L2180 2855
" />
<path d="M2180 2855
L2290 2918
" />
<path d="M2857 2910
L2987 2835
" />
<path d="M2987 2835
L3160 2965
" />
<path d="M3160 2965
L3346 2772
" />
<path d="M3346 2772
L3235 2583
" />
<path d="M3235 2583
L3310 2398
" />
<path d="M3310 2398
L3550 2324
" />
<path d="M3550 2324
L3550 2056
" />
<path d="M3550 2056
L3330 2001
" />
<path d="M3330 2001
L3251 1776
" />
<path d="M3251 1776
L3357 1591
" />
<path d="M3357 1591
L3172 1390
" />
<path d="M3172 1390
L2968 1493
" />
<path d="M2968 1493
L2783 1414
" />
<path d="M2783 1414
L2716 1201
" />
<path d="M2716 1201
L2444 1194
" />
<path d="M2444 1194
L2361 1410
" />
<path d="M2361 1410
L2196 1477
" />
<path d="M2196 1477
L1979 1371
" />
<path d="M1979 1371
L1775 1579
" />
<path d="M1775 1579
L1873 1792
" />
<path d="M1873 1792
L1806 1981
" />
<path d="M1806 1981
L1590 2020
" />
<path d="M1590 2020
L1586 2296
" />
<path d="M1586 2296
L1806 2375
" />
<path d="M1806 2375
L1861 2532
" />
<path d="M2704 2524
L2822 2465
" />
<path d="M2822 2465
L2901 2387
" />
<path d="M2901 2387
L2960 2229
" />
<path d="M2960 2229
L2960 2072
" />
<path d="M2960 2072
L2901 1934
" />
<path d="M2901 1934
L2723 1796
" />
<path d="M2723 1796
L2546 1776
" />
<path d="M2546 1776
L2389 1816
" />
<path d="M2389 1816
L2231 1953
" />
<path d="M2231 1953
L2172 2131
" />
<path d="M2172 2131
L2192 2327
" />
<path d="M2192 2327
L2290 2446
" />
<path d="M2290 2446
L2428 2524
" />
<path d="M2428 2524
L2290 2918
" />
<path d="M2704 2524
L2861 2918
" />
<path d="M3319 11535
L3516 11535
" />
<path d="M3516 11161
L3319 11161
" />
<path d="M2918 13448
L4918 13448
" />
<path d="M2918 11698
L4918 11698
" />
<path d="M4918 14198
L2918 14198
" />
<path d="M4918 14198
L4918 11698
" />
<path d="M2918 14198
L2918 11698
" />
<path d="M4319 11554
L4516 11554
" />
<path d="M4516 11141
L4319 11141
" />
<path d="M5519 8135
L5716 8135
" />
<path d="M5716 7761
L5519 7761
" />
<path d="M3119 6954
L3316 6954
" />
<path d="M3316 6541
L3119 6541
" />
<path d="M4098 8790
L4452 9184
" />
<path d="M4452 9184
L3783 9184
" />
<path d="M3783 9184
L4118 8790
" />
<path d="M4452 8790
L3783 8790
" />
</g>
<g style="fill:#C2C200; fill-opacity:0.0; 
stroke:#C2C200; stroke-width:59.0551; stroke-opacity:1; 
stroke-linecap:round; stroke-linejoin:round;">
<path d="M3552 12088
L3533 12107
L3477 12126
L3440 12126
L3383 12107
L3346 12069
L3327 12032
L3308 11957
L3308 11901
L3327 11826
L3346 11788
L3383 11751
L3440 11732
L3477 11732
L3533 11751
L3552 11769
" />
<path d="M3927 12126
L3702 12126
" />
<path d="M3815 12126
L3815 11732
L3777 11788
L3740 11826
L3702 11844
" />
</g>
<g style="fill:#008484; fill-opacity:0.0; 
stroke:#008484; stroke-width:59.0551; stroke-opacity:1; 
stroke-linecap:round; stroke-linejoin:round;">
</g>
<g style="fill:#008484; fill-opacity:0.0; 
stroke:#008484; stroke-width:19.685; stroke-opacity:1; 
stroke-linecap:round; stroke-linejoin:round;">
<path d="M4832 4962
L4832 4710
L4892 4710
L4928 4722
L4952 4746
L4964 4770
L4976 4818
L4976 4854
L4964 4902
L4952 4926
L4928 4950
L4892 4962
L4832 4962
" />
<path d="M5216 4962
L5072 4962
" />
<path d="M5144 4962
L5144 4710
L5120 4746
L5096 4770
L5072 4782
" />
<path d="M7632 8762
L7632 8510
L7692 8510
L7728 8522
L7752 8546
L7764 8570
L7776 8618
L7776 8654
L7764 8702
L7752 8726
L7728 8750
L7692 8762
L7632 8762
" />
<path d="M7872 8534
L7884 8522
L7908 8510
L7968 8510
L7992 8522
L8004 8534
L8016 8558
L8016 8582
L8004 8618
L7860 8762
L8016 8762
" />
<path d="M6332 4862
L6332 4610
L6392 4610
L6428 4622
L6452 4646
L6464 4670
L6476 4718
L6476 4754
L6464 4802
L6452 4826
L6428 4850
L6392 4862
L6332 4862
" />
<path d="M6560 4610
L6716 4610
L6632 4706
L6668 4706
L6692 4718
L6704 4730
L6716 4754
L6716 4814
L6704 4838
L6692 4850
L6668 4862
L6596 4862
L6572 4850
L6560 4838
" />
</g>
<g style="fill:#C2C200; fill-opacity:0.0; 
stroke:#C2C200; stroke-width:19.685; stroke-opacity:1; 
stroke-linecap:round; stroke-linejoin:round;">
</g>
<g style="fill:#C2C200; fill-opacity:0.0; 
stroke:#C2C200; stroke-width:59.0551; stroke-opacity:1; 
stroke-linecap:round; stroke-linejoin:round;">
<path d="M3627 14026
L3627 13632
L3777 13632
L3815 13651
L3833 13669
L3852 13707
L3852 13763
L3833 13801
L3815 13819
L3777 13838
L3627 13838
" />
<path d="M3983 13632
L4227 13632
L4096 13782
L4152 13782
L4190 13801
L4208 13819
L4227 13857
L4227 13951
L4208 13988
L4190 14007
L4152 14026
L4040 14026
L4002 14007
L3983 13988
" />
<path d="M5152 11526
L5021 11338
" />
<path d="M4927 11526
L4927 11132
L5077 11132
L5115 11151
L5133 11169
L5152 11207
L5152 11263
L5133 11301
L5115 11319
L5077 11338
L4927 11338
" />
<path d="M5527 11526
L5302 11526
" />
<path d="M5415 11526
L5415 11132
L5377 11188
L5340 11226
L5302 11244
" />
<path d="M5552 8688
L5533 8707
L5477 8726
L5440 8726
L5383 8707
L5346 8669
L5327 8632
L5308 8557
L5308 8501
L5327 8426
L5346 8388
L5383 8351
L5440 8332
L5477 8332
L5533 8351
L5552 8369
" />
<path d="M5702 8369
L5721 8351
L5758 8332
L5852 8332
L5890 8351
L5908 8369
L5927 8407
L5927 8444
L5908 8501
L5683 8726
L5927 8726
" />
<path d="M3152 7634
L3021 7447
" />
<path d="M2927 7634
L2927 7241
L3077 7241
L3115 7259
L3133 7278
L3152 7316
L3152 7372
L3133 7409
L3115 7428
L3077 7447
L2927 7447
" />
<path d="M3302 7278
L3321 7259
L3358 7241
L3452 7241
L3490 7259
L3508 7278
L3527 7316
L3527 7353
L3508 7409
L3283 7634
L3527 7634
" />
<path d="M4996 9238
L4602 9238
L4602 9144
L4621 9088
L4658 9051
L4696 9032
L4771 9013
L4827 9013
L4902 9032
L4940 9051
L4977 9088
L4996 9144
L4996 9238
" />
<path d="M4733 8676
L4996 8676
" />
<path d="M4583 8769
L4865 8863
L4865 8619
" />
</g>
<g style="fill:#000000; fill-opacity:0.0; 
stroke:#000000; stroke-width:59.0551; stroke-opacity:1; 
stroke-linecap:round; stroke-linejoin:round;">
</g>
<g style="fill:#C2C200; fill-opacity:0.0; 
stroke:#C2C200; stroke-width:59.0551; stroke-opacity:1; 
stroke-linecap:round; stroke-linejoin:round;">
</g>
<g style="fill:#C2C200; fill-opacity:0.0; 
stroke:#C2C200; stroke-width:39.3701; stroke-opacity:1; 
stroke-linecap:round; stroke-linejoin:round;">
<path d="M10779 11585
L10794 14257
" />
<path d="M11545 11207
L10779 11585
" />
<path d="M11535 2327
L11545 11207
" />
<path d="M11489 1976
L11535 2327
" />
<path d="M11399 1678
L11489 1976
" />
<path d="M11270 1430
L11399 1678
" />
<path d="M11108 1224
L11270 1430
" />
<path d="M10917 1055
L11108 1224
" />
<path d="M10703 917
L10917 1055
" />
<path d="M10471 805
L10703 917
" />
<path d="M10227 713
L10471 805
" />
<path d="M2732 724
L10227 713
" />
<path d="M2497 797
L2732 724
" />
<path d="M2283 895
L2497 797
" />
<path d="M2089 1016
L2283 895
" />
<path d="M1917 1161
L2089 1016
" />
<path d="M1764 1329
L1917 1161
" />
<path d="M1633 1520
L1764 1329
" />
<path d="M1521 1735
L1633 1520
" />
<path d="M1429 1972
L1521 1735
" />
<path d="M1424 14244
L1429 1972
" />
<path d="M4999 14254
L1424 14244
" />
<path d="M4998 13781
L4999 14254
" />
<path d="M8475 13778
L4998 13781
" />
<path d="M8471 14257
L8475 13778
" />
<path d="M10794 14257
L8471 14257
" />
</g> 
</svg>
