<?xml version="1.0" standalone="no"?>
 <!DOCTYPE svg PUBLIC "-//W3C//DTD SVG 1.1//EN" 
 "http://www.w3.org/Graphics/SVG/1.1/DTD/svg11.dtd"> 
<svg xmlns="http://www.w3.org/2000/svg" version="1.1" 
    width="3.30708cm" height="3.77444cm" viewBox="0 0 13020 14860 ">
<title>SVG Picture created as hardware-brd.svg date 2016/06/27 21:42:56 </title>
  <desc>Picture generated by PCBNEW </desc>
<g style="fill:#000000; fill-opacity:1;stroke:#000000; stroke-opacity:1;
stroke-linecap:round; stroke-linejoin:round; "
 transform="translate(0 0) scale(1 1)">
</g>
<g style="fill:#000000; fill-opacity:0.0; 
stroke:#000000; stroke-width:-0.000393701; stroke-opacity:1; 
stroke-linecap:round; stroke-linejoin:round;">
</g>
<g style="fill:#840084; fill-opacity:0.0; 
stroke:#840084; stroke-width:-0.000393701; stroke-opacity:1; 
stroke-linecap:round; stroke-linejoin:round;">
</g>
<g style="fill:#840084; fill-opacity:0.0; 
stroke:#840084; stroke-width:118.11; stroke-opacity:1; 
stroke-linecap:round; stroke-linejoin:round;">
<path d="M10462 10430
L10097 10430
L10294 10655
L10209 10655
L10153 10683
L10125 10711
L10097 10767
L10097 10908
L10125 10964
L10153 10992
L10209 11020
L10378 11020
L10434 10992
L10462 10964
" />
<path d="M9928 10430
L9731 11020
L9534 10430
" />
<path d="M9394 10430
L9028 10430
L9225 10655
L9141 10655
L9084 10683
L9056 10711
L9028 10767
L9028 10908
L9056 10964
L9084 10992
L9141 11020
L9309 11020
L9366 10992
L9394 10964
" />
<path d="M10443 10036
L10443 9445
L10302 9445
L10218 9474
L10161 9530
L10133 9586
L10105 9699
L10105 9783
L10133 9895
L10161 9952
L10218 10008
L10302 10036
L10443 10036
" />
<path d="M9768 9699
L9824 9670
L9852 9642
L9880 9586
L9880 9558
L9852 9502
L9824 9474
L9768 9445
L9655 9445
L9599 9474
L9571 9502
L9543 9558
L9543 9586
L9571 9642
L9599 9670
L9655 9699
L9768 9699
L9824 9727
L9852 9755
L9880 9811
L9880 9924
L9852 9980
L9824 10008
L9768 10036
L9655 10036
L9599 10008
L9571 9980
L9543 9924
L9543 9811
L9571 9755
L9599 9727
L9655 9699
" />
<path d="M10443 9012
L10443 8422
L10302 8422
L10218 8450
L10161 8506
L10133 8562
L10105 8675
L10105 8759
L10133 8872
L10161 8928
L10218 8984
L10302 9012
L10443 9012
" />
<path d="M9908 8422
L9515 8422
L9768 9012
" />
<path d="M10443 8067
L10443 7477
L10302 7477
L10218 7505
L10161 7561
L10133 7618
L10105 7730
L10105 7814
L10133 7927
L10161 7983
L10218 8039
L10302 8067
L10443 8067
" />
<path d="M9599 7477
L9711 7477
L9768 7505
L9796 7533
L9852 7618
L9880 7730
L9880 7955
L9852 8011
L9824 8039
L9768 8067
L9655 8067
L9599 8039
L9571 8011
L9543 7955
L9543 7814
L9571 7758
L9599 7730
L9655 7702
L9768 7702
L9824 7730
L9852 7758
L9880 7814
" />
<path d="M10443 7083
L10443 6493
L10302 6493
L10218 6521
L10161 6577
L10133 6633
L10105 6746
L10105 6830
L10133 6943
L10161 6999
L10218 7055
L10302 7083
L10443 7083
" />
<path d="M9571 6493
L9852 6493
L9880 6774
L9852 6746
L9796 6718
L9655 6718
L9599 6746
L9571 6774
L9543 6830
L9543 6971
L9571 7027
L9599 7055
L9655 7083
L9796 7083
L9852 7055
L9880 7027
" />
<path d="M10443 6060
L10443 5469
L10302 5469
L10218 5497
L10161 5553
L10133 5610
L10105 5722
L10105 5807
L10133 5919
L10161 5975
L10218 6031
L10302 6060
L10443 6060
" />
<path d="M9740 5469
L9683 5469
L9627 5497
L9599 5525
L9571 5582
L9543 5694
L9543 5835
L9571 5947
L9599 6003
L9627 6031
L9683 6060
L9740 6060
L9796 6031
L9824 6003
L9852 5947
L9880 5835
L9880 5694
L9852 5582
L9824 5525
L9796 5497
L9740 5469
" />
<path d="M10429 4867
L10147 4867
" />
<path d="M10485 5036
L10288 4445
L10091 5036
" />
<path d="M9782 4445
L9726 4445
L9669 4474
L9641 4502
L9613 4558
L9585 4670
L9585 4811
L9613 4924
L9641 4980
L9669 5008
L9726 5036
L9782 5036
L9838 5008
L9866 4980
L9894 4924
L9922 4811
L9922 4670
L9894 4558
L9866 4502
L9838 4474
L9782 4445
" />
<path d="M10074 4012
L10271 3731
" />
<path d="M10412 4012
L10412 3422
L10187 3422
L10130 3450
L10102 3478
L10074 3534
L10074 3619
L10102 3675
L10130 3703
L10187 3731
L10412 3731
" />
<path d="M9849 3984
L9793 4012
L9681 4012
L9624 3984
L9596 3928
L9596 3900
L9624 3844
L9681 3816
L9765 3816
L9821 3787
L9849 3731
L9849 3703
L9821 3647
L9765 3619
L9681 3619
L9624 3647
" />
<path d="M9427 3619
L9202 3619
" />
<path d="M9343 3422
L9343 3928
L9315 3984
L9259 4012
L9202 4012
" />
<path d="M3111 10469
L3393 10469
L3421 10750
L3393 10722
L3336 10694
L3196 10694
L3139 10722
L3111 10750
L3083 10807
L3083 10947
L3111 11003
L3139 11031
L3196 11060
L3336 11060
L3393 11031
L3421 11003
" />
<path d="M2914 10469
L2718 11060
L2521 10469
" />
<path d="M2647 9513
L2704 9485
L2788 9485
L2872 9513
L2929 9569
L2957 9625
L2985 9738
L2985 9822
L2957 9935
L2929 9991
L2872 10047
L2788 10075
L2732 10075
L2647 10047
L2619 10019
L2619 9822
L2732 9822
" />
<path d="M3474 9091
L3474 8501
L3333 8501
L3249 8529
L3193 8585
L3165 8641
L3137 8754
L3137 8838
L3165 8951
L3193 9007
L3249 9063
L3333 9091
L3474 9091
" />
<path d="M2630 8697
L2630 9091
" />
<path d="M2771 8472
L2912 8894
L2546 8894
" />
<path d="M3474 8067
L3474 7477
L3333 7477
L3249 7505
L3193 7561
L3165 7618
L3137 7730
L3137 7814
L3165 7927
L3193 7983
L3249 8039
L3333 8067
L3474 8067
" />
<path d="M2940 7477
L2574 7477
L2771 7702
L2687 7702
L2630 7730
L2602 7758
L2574 7814
L2574 7955
L2602 8011
L2630 8039
L2687 8067
L2855 8067
L2912 8039
L2940 8011
" />
<path d="M3474 7044
L3474 6453
L3333 6453
L3249 6481
L3193 6538
L3165 6594
L3137 6706
L3137 6791
L3165 6903
L3193 6960
L3249 7016
L3333 7044
L3474 7044
" />
<path d="M2912 6510
L2884 6481
L2827 6453
L2687 6453
L2630 6481
L2602 6510
L2574 6566
L2574 6622
L2602 6706
L2940 7044
L2574 7044
" />
<path d="M3474 6020
L3474 5430
L3333 5430
L3249 5458
L3193 5514
L3165 5570
L3137 5683
L3137 5767
L3165 5880
L3193 5936
L3249 5992
L3333 6020
L3474 6020
" />
<path d="M2574 6020
L2912 6020
" />
<path d="M2743 6020
L2743 5430
L2799 5514
L2855 5570
L2912 5598
" />
<path d="M3137 5075
L3333 4794
" />
<path d="M3474 5075
L3474 4485
L3249 4485
L3193 4513
L3165 4541
L3137 4597
L3137 4682
L3165 4738
L3193 4766
L3249 4794
L3474 4794
" />
<path d="M2940 4485
L2546 5075
" />
<path d="M2546 4485
L2940 5075
" />
<path d="M3409 3461
L3072 3461
" />
<path d="M3241 4052
L3241 3461
" />
<path d="M2931 3461
L2538 4052
" />
<path d="M2538 3461
L2931 4052
" />
</g>
<g style="fill:#000000; fill-opacity:0.0; 
stroke:#000000; stroke-width:118.11; stroke-opacity:1; 
stroke-linecap:round; stroke-linejoin:round;">
</g>
<g style="fill:#840000; fill-opacity:0.0; 
stroke:#840000; stroke-width:118.11; stroke-opacity:1; 
stroke-linecap:round; stroke-linejoin:round;">
</g>
<g style="fill:#840000; fill-opacity:0.0; 
stroke:#840000; stroke-width:0; stroke-opacity:1; 
stroke-linecap:round; stroke-linejoin:round;">
</g>
<g style="fill:#840000; fill-opacity:1.0; 
stroke:#840000; stroke-width:0; stroke-opacity:1; 
stroke-linecap:round; stroke-linejoin:round;">
<polyline style="fill-rule:evenodd;"
points="2365,10418
2365,11127
1656,11127
1656,10418
2365,10418
" /> 
</g>
<g style="fill:#840000; fill-opacity:1.0; 
stroke:#840000; stroke-width:708.661; stroke-opacity:1; 
stroke-linecap:round; stroke-linejoin:round;">
</g>
<g style="fill:#840000; fill-opacity:0.0; 
stroke:#840000; stroke-width:708.661; stroke-opacity:1; 
stroke-linecap:round; stroke-linejoin:round;">
<path d="M2011 9773
L2011 9773
" />
<path d="M2011 8773
L2011 8773
" />
<path d="M2011 7773
L2011 7773
" />
<path d="M2011 6773
L2011 6773
" />
<path d="M2011 5773
L2011 5773
" />
<path d="M2011 4773
L2011 4773
" />
<path d="M2011 3773
L2011 3773
" />
</g>
<g style="fill:#840000; fill-opacity:0.0; 
stroke:#840000; stroke-width:0; stroke-opacity:1; 
stroke-linecap:round; stroke-linejoin:round;">
</g>
<g style="fill:#840000; fill-opacity:1.0; 
stroke:#840000; stroke-width:0; stroke-opacity:1; 
stroke-linecap:round; stroke-linejoin:round;">
<polyline style="fill-rule:evenodd;"
points="11365,10418
11365,11127
10656,11127
10656,10418
11365,10418
" /> 
</g>
<g style="fill:#840000; fill-opacity:1.0; 
stroke:#840000; stroke-width:708.661; stroke-opacity:1; 
stroke-linecap:round; stroke-linejoin:round;">
</g>
<g style="fill:#840000; fill-opacity:0.0; 
stroke:#840000; stroke-width:708.661; stroke-opacity:1; 
stroke-linecap:round; stroke-linejoin:round;">
<path d="M11011 9773
L11011 9773
" />
<path d="M11011 8773
L11011 8773
" />
<path d="M11011 7773
L11011 7773
" />
<path d="M11011 6773
L11011 6773
" />
<path d="M11011 5773
L11011 5773
" />
<path d="M11011 4773
L11011 4773
" />
<path d="M11011 3773
L11011 3773
" />
</g>
<g style="fill:#840000; fill-opacity:1.0; 
stroke:#840000; stroke-width:0; stroke-opacity:1; 
stroke-linecap:round; stroke-linejoin:round;">
<circle cx="3218.04" cy="8949.08" r="334.5" /> 
</g>
<g style="fill:#840000; fill-opacity:1.0; 
stroke:#840000; stroke-width:39.3701; stroke-opacity:1; 
stroke-linecap:round; stroke-linejoin:round;">
</g>
<g style="fill:#840000; fill-opacity:1.0; 
stroke:#840000; stroke-width:0; stroke-opacity:1; 
stroke-linecap:round; stroke-linejoin:round;">
<polyline style="fill-rule:evenodd;"
points="6883,9283
6883,8614
7552,8614
7552,9283
6883,9283
" /> 
</g>
<g style="fill:#840000; fill-opacity:1.0; 
stroke:#840000; stroke-width:593; stroke-opacity:1; 
stroke-linecap:round; stroke-linejoin:round;">
</g>
<g style="fill:#840000; fill-opacity:0.0; 
stroke:#840000; stroke-width:593; stroke-opacity:1; 
stroke-linecap:round; stroke-linejoin:round;">
<path d="M4418 13245
L4418 12651
" />
<path d="M3418 13245
L3418 12651
" />
</g>
<g style="fill:#C2C2C2; fill-opacity:0.0; 
stroke:#C2C2C2; stroke-width:593; stroke-opacity:1; 
stroke-linecap:round; stroke-linejoin:round;">
</g>
<g style="fill:#C2C2C2; fill-opacity:1.0; 
stroke:#C2C2C2; stroke-width:0; stroke-opacity:1; 
stroke-linecap:round; stroke-linejoin:round;">
<circle cx="10018.2" cy="8248.08" r="118.11" /> 
</g>
<g style="fill:#C2C2C2; fill-opacity:1.0; 
stroke:#C2C2C2; stroke-width:39.3701; stroke-opacity:1; 
stroke-linecap:round; stroke-linejoin:round;">
</g>
<g style="fill:#008400; fill-opacity:1.0; 
stroke:#008400; stroke-width:39.3701; stroke-opacity:1; 
stroke-linecap:round; stroke-linejoin:round;">
</g>
<g style="fill:#008400; fill-opacity:1.0; 
stroke:#008400; stroke-width:98.4252; stroke-opacity:1; 
stroke-linecap:round; stroke-linejoin:round;">
</g>
<g style="fill:#008400; fill-opacity:0.0; 
stroke:#008400; stroke-width:98.4252; stroke-opacity:1; 
stroke-linecap:round; stroke-linejoin:round;">
<path d="M10493 7773
L11011 7773
" />
<path d="M10018 8248
L10493 7773
" />
</g>
<g style="fill:#FFFFFF; fill-opacity:0.0; 
stroke:#FFFFFF; stroke-width:98.4252; stroke-opacity:1; 
stroke-linecap:round; stroke-linejoin:round;">
</g>
<g style="fill:#FFFFFF; fill-opacity:1.0; 
stroke:#FFFFFF; stroke-width:0; stroke-opacity:1; 
stroke-linecap:round; stroke-linejoin:round;">
<circle cx="10018.2" cy="8248.08" r="78.7402" /> 
</g>
<g style="fill:#FFFFFF; fill-opacity:1.0; 
stroke:#FFFFFF; stroke-width:39.3701; stroke-opacity:1; 
stroke-linecap:round; stroke-linejoin:round;">
</g>
<g style="fill:#FFFFFF; fill-opacity:1.0; 
stroke:#FFFFFF; stroke-width:0; stroke-opacity:1; 
stroke-linecap:round; stroke-linejoin:round;">
<circle cx="2011.15" cy="10773.3" r="200" /> 
</g>
<g style="fill:#FFFFFF; fill-opacity:1.0; 
stroke:#FFFFFF; stroke-width:39.3701; stroke-opacity:1; 
stroke-linecap:round; stroke-linejoin:round;">
</g>
<g style="fill:#FFFFFF; fill-opacity:1.0; 
stroke:#FFFFFF; stroke-width:0; stroke-opacity:1; 
stroke-linecap:round; stroke-linejoin:round;">
<circle cx="2011.15" cy="9773.28" r="200" /> 
</g>
<g style="fill:#FFFFFF; fill-opacity:1.0; 
stroke:#FFFFFF; stroke-width:39.3701; stroke-opacity:1; 
stroke-linecap:round; stroke-linejoin:round;">
</g>
<g style="fill:#FFFFFF; fill-opacity:1.0; 
stroke:#FFFFFF; stroke-width:0; stroke-opacity:1; 
stroke-linecap:round; stroke-linejoin:round;">
<circle cx="2011.15" cy="8773.28" r="200" /> 
</g>
<g style="fill:#FFFFFF; fill-opacity:1.0; 
stroke:#FFFFFF; stroke-width:39.3701; stroke-opacity:1; 
stroke-linecap:round; stroke-linejoin:round;">
</g>
<g style="fill:#FFFFFF; fill-opacity:1.0; 
stroke:#FFFFFF; stroke-width:0; stroke-opacity:1; 
stroke-linecap:round; stroke-linejoin:round;">
<circle cx="2011.15" cy="7773.28" r="200" /> 
</g>
<g style="fill:#FFFFFF; fill-opacity:1.0; 
stroke:#FFFFFF; stroke-width:39.3701; stroke-opacity:1; 
stroke-linecap:round; stroke-linejoin:round;">
</g>
<g style="fill:#FFFFFF; fill-opacity:1.0; 
stroke:#FFFFFF; stroke-width:0; stroke-opacity:1; 
stroke-linecap:round; stroke-linejoin:round;">
<circle cx="2011.15" cy="6773.28" r="200" /> 
</g>
<g style="fill:#FFFFFF; fill-opacity:1.0; 
stroke:#FFFFFF; stroke-width:39.3701; stroke-opacity:1; 
stroke-linecap:round; stroke-linejoin:round;">
</g>
<g style="fill:#FFFFFF; fill-opacity:1.0; 
stroke:#FFFFFF; stroke-width:0; stroke-opacity:1; 
stroke-linecap:round; stroke-linejoin:round;">
<circle cx="2011.15" cy="5773.28" r="200" /> 
</g>
<g style="fill:#FFFFFF; fill-opacity:1.0; 
stroke:#FFFFFF; stroke-width:39.3701; stroke-opacity:1; 
stroke-linecap:round; stroke-linejoin:round;">
</g>
<g style="fill:#FFFFFF; fill-opacity:1.0; 
stroke:#FFFFFF; stroke-width:0; stroke-opacity:1; 
stroke-linecap:round; stroke-linejoin:round;">
<circle cx="2011.15" cy="4773.28" r="200" /> 
</g>
<g style="fill:#FFFFFF; fill-opacity:1.0; 
stroke:#FFFFFF; stroke-width:39.3701; stroke-opacity:1; 
stroke-linecap:round; stroke-linejoin:round;">
</g>
<g style="fill:#FFFFFF; fill-opacity:1.0; 
stroke:#FFFFFF; stroke-width:0; stroke-opacity:1; 
stroke-linecap:round; stroke-linejoin:round;">
<circle cx="2011.15" cy="3773.28" r="200" /> 
</g>
<g style="fill:#FFFFFF; fill-opacity:1.0; 
stroke:#FFFFFF; stroke-width:39.3701; stroke-opacity:1; 
stroke-linecap:round; stroke-linejoin:round;">
</g>
<g style="fill:#FFFFFF; fill-opacity:1.0; 
stroke:#FFFFFF; stroke-width:0; stroke-opacity:1; 
stroke-linecap:round; stroke-linejoin:round;">
<circle cx="11011.2" cy="10773.3" r="200" /> 
</g>
<g style="fill:#FFFFFF; fill-opacity:1.0; 
stroke:#FFFFFF; stroke-width:39.3701; stroke-opacity:1; 
stroke-linecap:round; stroke-linejoin:round;">
</g>
<g style="fill:#FFFFFF; fill-opacity:1.0; 
stroke:#FFFFFF; stroke-width:0; stroke-opacity:1; 
stroke-linecap:round; stroke-linejoin:round;">
<circle cx="11011.2" cy="9773.28" r="200" /> 
</g>
<g style="fill:#FFFFFF; fill-opacity:1.0; 
stroke:#FFFFFF; stroke-width:39.3701; stroke-opacity:1; 
stroke-linecap:round; stroke-linejoin:round;">
</g>
<g style="fill:#FFFFFF; fill-opacity:1.0; 
stroke:#FFFFFF; stroke-width:0; stroke-opacity:1; 
stroke-linecap:round; stroke-linejoin:round;">
<circle cx="11011.2" cy="8773.28" r="200" /> 
</g>
<g style="fill:#FFFFFF; fill-opacity:1.0; 
stroke:#FFFFFF; stroke-width:39.3701; stroke-opacity:1; 
stroke-linecap:round; stroke-linejoin:round;">
</g>
<g style="fill:#FFFFFF; fill-opacity:1.0; 
stroke:#FFFFFF; stroke-width:0; stroke-opacity:1; 
stroke-linecap:round; stroke-linejoin:round;">
<circle cx="11011.2" cy="7773.28" r="200" /> 
</g>
<g style="fill:#FFFFFF; fill-opacity:1.0; 
stroke:#FFFFFF; stroke-width:39.3701; stroke-opacity:1; 
stroke-linecap:round; stroke-linejoin:round;">
</g>
<g style="fill:#FFFFFF; fill-opacity:1.0; 
stroke:#FFFFFF; stroke-width:0; stroke-opacity:1; 
stroke-linecap:round; stroke-linejoin:round;">
<circle cx="11011.2" cy="6773.28" r="200" /> 
</g>
<g style="fill:#FFFFFF; fill-opacity:1.0; 
stroke:#FFFFFF; stroke-width:39.3701; stroke-opacity:1; 
stroke-linecap:round; stroke-linejoin:round;">
</g>
<g style="fill:#FFFFFF; fill-opacity:1.0; 
stroke:#FFFFFF; stroke-width:0; stroke-opacity:1; 
stroke-linecap:round; stroke-linejoin:round;">
<circle cx="11011.2" cy="5773.28" r="200" /> 
</g>
<g style="fill:#FFFFFF; fill-opacity:1.0; 
stroke:#FFFFFF; stroke-width:39.3701; stroke-opacity:1; 
stroke-linecap:round; stroke-linejoin:round;">
</g>
<g style="fill:#FFFFFF; fill-opacity:1.0; 
stroke:#FFFFFF; stroke-width:0; stroke-opacity:1; 
stroke-linecap:round; stroke-linejoin:round;">
<circle cx="11011.2" cy="4773.28" r="200" /> 
</g>
<g style="fill:#FFFFFF; fill-opacity:1.0; 
stroke:#FFFFFF; stroke-width:39.3701; stroke-opacity:1; 
stroke-linecap:round; stroke-linejoin:round;">
</g>
<g style="fill:#FFFFFF; fill-opacity:1.0; 
stroke:#FFFFFF; stroke-width:0; stroke-opacity:1; 
stroke-linecap:round; stroke-linejoin:round;">
<circle cx="11011.2" cy="3773.28" r="200" /> 
</g>
<g style="fill:#FFFFFF; fill-opacity:1.0; 
stroke:#FFFFFF; stroke-width:39.3701; stroke-opacity:1; 
stroke-linecap:round; stroke-linejoin:round;">
</g>
<g style="fill:#FFFFFF; fill-opacity:1.0; 
stroke:#FFFFFF; stroke-width:0; stroke-opacity:1; 
stroke-linecap:round; stroke-linejoin:round;">
<circle cx="3218.04" cy="8949.08" r="138" /> 
</g>
<g style="fill:#FFFFFF; fill-opacity:1.0; 
stroke:#FFFFFF; stroke-width:39.3701; stroke-opacity:1; 
stroke-linecap:round; stroke-linejoin:round;">
</g>
<g style="fill:#FFFFFF; fill-opacity:1.0; 
stroke:#FFFFFF; stroke-width:0; stroke-opacity:1; 
stroke-linecap:round; stroke-linejoin:round;">
<circle cx="7218.04" cy="8949.08" r="138" /> 
</g>
<g style="fill:#FFFFFF; fill-opacity:1.0; 
stroke:#FFFFFF; stroke-width:39.3701; stroke-opacity:1; 
stroke-linecap:round; stroke-linejoin:round;">
</g>
<g style="fill:#FFFFFF; fill-opacity:1.0; 
stroke:#FFFFFF; stroke-width:0; stroke-opacity:1; 
stroke-linecap:round; stroke-linejoin:round;">
<circle cx="4418.24" cy="12948.1" r="196.5" /> 
</g>
<g style="fill:#FFFFFF; fill-opacity:1.0; 
stroke:#FFFFFF; stroke-width:39.3701; stroke-opacity:1; 
stroke-linecap:round; stroke-linejoin:round;">
</g>
<g style="fill:#FFFFFF; fill-opacity:1.0; 
stroke:#FFFFFF; stroke-width:0; stroke-opacity:1; 
stroke-linecap:round; stroke-linejoin:round;">
<circle cx="3418.24" cy="12948.1" r="196.5" /> 
</g>
<g style="fill:#FFFFFF; fill-opacity:1.0; 
stroke:#FFFFFF; stroke-width:39.3701; stroke-opacity:1; 
stroke-linecap:round; stroke-linejoin:round;">
</g>
<g style="fill:#000000; fill-opacity:1.0; 
stroke:#000000; stroke-width:39.3701; stroke-opacity:1; 
stroke-linecap:round; stroke-linejoin:round;">
</g>
<g style="fill:#840000; fill-opacity:1.0; 
stroke:#840000; stroke-width:39.3701; stroke-opacity:1; 
stroke-linecap:round; stroke-linejoin:round;">
</g>
<g style="fill:#840000; fill-opacity:1.0; 
stroke:#840000; stroke-width:0; stroke-opacity:1; 
stroke-linecap:round; stroke-linejoin:round;">
<polyline style="fill-rule:evenodd;"
points="2365,10418
2365,11127
1656,11127
1656,10418
2365,10418
" /> 
</g>
<g style="fill:#840000; fill-opacity:1.0; 
stroke:#840000; stroke-width:708.661; stroke-opacity:1; 
stroke-linecap:round; stroke-linejoin:round;">
</g>
<g style="fill:#840000; fill-opacity:0.0; 
stroke:#840000; stroke-width:708.661; stroke-opacity:1; 
stroke-linecap:round; stroke-linejoin:round;">
<path d="M2011 9773
L2011 9773
" />
<path d="M2011 8773
L2011 8773
" />
<path d="M2011 7773
L2011 7773
" />
<path d="M2011 6773
L2011 6773
" />
<path d="M2011 5773
L2011 5773
" />
<path d="M2011 4773
L2011 4773
" />
<path d="M2011 3773
L2011 3773
" />
</g>
<g style="fill:#840000; fill-opacity:0.0; 
stroke:#840000; stroke-width:0; stroke-opacity:1; 
stroke-linecap:round; stroke-linejoin:round;">
</g>
<g style="fill:#840000; fill-opacity:1.0; 
stroke:#840000; stroke-width:0; stroke-opacity:1; 
stroke-linecap:round; stroke-linejoin:round;">
<polyline style="fill-rule:evenodd;"
points="11365,10418
11365,11127
10656,11127
10656,10418
11365,10418
" /> 
</g>
<g style="fill:#840000; fill-opacity:1.0; 
stroke:#840000; stroke-width:708.661; stroke-opacity:1; 
stroke-linecap:round; stroke-linejoin:round;">
</g>
<g style="fill:#840000; fill-opacity:0.0; 
stroke:#840000; stroke-width:708.661; stroke-opacity:1; 
stroke-linecap:round; stroke-linejoin:round;">
<path d="M11011 9773
L11011 9773
" />
<path d="M11011 8773
L11011 8773
" />
<path d="M11011 7773
L11011 7773
" />
<path d="M11011 6773
L11011 6773
" />
<path d="M11011 5773
L11011 5773
" />
<path d="M11011 4773
L11011 4773
" />
<path d="M11011 3773
L11011 3773
" />
</g>
<g style="fill:#840000; fill-opacity:0.0; 
stroke:#840000; stroke-width:0; stroke-opacity:1; 
stroke-linecap:round; stroke-linejoin:round;">
</g>
<g style="fill:#840000; fill-opacity:1.0; 
stroke:#840000; stroke-width:0; stroke-opacity:1; 
stroke-linecap:round; stroke-linejoin:round;">
<polyline style="fill-rule:evenodd;"
points="3752,11249
3752,11446
3516,11446
3516,11249
3752,11249
" /> 
<polyline style="fill-rule:evenodd;"
points="3319,11249
3319,11446
3083,11446
3083,11249
3319,11249
" /> 
<polyline style="fill-rule:evenodd;"
points="5687,6481
6278,6481
6278,6874
5687,6874
5687,6481
" /> 
<polyline style="fill-rule:evenodd;"
points="3758,6481
4348,6481
4348,6874
3758,6874
3758,6481
" /> 
<polyline style="fill-rule:evenodd;"
points="5687,5221
6278,5221
6278,5615
5687,5615
5687,5221
" /> 
<polyline style="fill-rule:evenodd;"
points="3758,5221
4348,5221
4348,5615
3758,5615
3758,5221
" /> 
<polyline style="fill-rule:evenodd;"
points="8487,5181
9078,5181
9078,5574
8487,5574
8487,5181
" /> 
<polyline style="fill-rule:evenodd;"
points="6558,5181
7148,5181
7148,5574
6558,5574
6558,5181
" /> 
<polyline style="fill-rule:evenodd;"
points="8487,3921
9078,3921
9078,4315
8487,4315
8487,3921
" /> 
<polyline style="fill-rule:evenodd;"
points="6558,3921
7148,3921
7148,4315
6558,4315
6558,3921
" /> 
<polyline style="fill-rule:evenodd;"
points="7148,6915
6558,6915
6558,6521
7148,6521
7148,6915
" /> 
<polyline style="fill-rule:evenodd;"
points="9078,6915
8487,6915
8487,6521
9078,6521
9078,6915
" /> 
<polyline style="fill-rule:evenodd;"
points="7148,8174
6558,8174
6558,7781
7148,7781
7148,8174
" /> 
<polyline style="fill-rule:evenodd;"
points="9078,8174
8487,8174
8487,7781
9078,7781
9078,8174
" /> 
<circle cx="3218.04" cy="8949.08" r="334.5" /> 
</g>
<g style="fill:#840000; fill-opacity:1.0; 
stroke:#840000; stroke-width:39.3701; stroke-opacity:1; 
stroke-linecap:round; stroke-linejoin:round;">
</g>
<g style="fill:#840000; fill-opacity:1.0; 
stroke:#840000; stroke-width:0; stroke-opacity:1; 
stroke-linecap:round; stroke-linejoin:round;">
<polyline style="fill-rule:evenodd;"
points="6883,9283
6883,8614
7552,8614
7552,9283
6883,9283
" /> 
</g>
<g style="fill:#840000; fill-opacity:1.0; 
stroke:#840000; stroke-width:593; stroke-opacity:1; 
stroke-linecap:round; stroke-linejoin:round;">
</g>
<g style="fill:#840000; fill-opacity:0.0; 
stroke:#840000; stroke-width:593; stroke-opacity:1; 
stroke-linecap:round; stroke-linejoin:round;">
<path d="M4418 13245
L4418 12651
" />
<path d="M3418 13245
L3418 12651
" />
</g>
<g style="fill:#840000; fill-opacity:0.0; 
stroke:#840000; stroke-width:0; stroke-opacity:1; 
stroke-linecap:round; stroke-linejoin:round;">
</g>
<g style="fill:#840000; fill-opacity:1.0; 
stroke:#840000; stroke-width:0; stroke-opacity:1; 
stroke-linecap:round; stroke-linejoin:round;">
<polyline style="fill-rule:evenodd;"
points="4674,11229
4674,11466
4516,11466
4516,11229
4674,11229
" /> 
<polyline style="fill-rule:evenodd;"
points="4319,11229
4319,11466
4162,11466
4162,11229
4319,11229
" /> 
</g>
<g style="fill:#C2C2C2; fill-opacity:1.0; 
stroke:#C2C2C2; stroke-width:0; stroke-opacity:1; 
stroke-linecap:round; stroke-linejoin:round;">
<circle cx="10018.2" cy="8248.08" r="118.11" /> 
</g>
<g style="fill:#C2C2C2; fill-opacity:1.0; 
stroke:#C2C2C2; stroke-width:39.3701; stroke-opacity:1; 
stroke-linecap:round; stroke-linejoin:round;">
</g>
<g style="fill:#840000; fill-opacity:1.0; 
stroke:#840000; stroke-width:39.3701; stroke-opacity:1; 
stroke-linecap:round; stroke-linejoin:round;">
</g>
<g style="fill:#840000; fill-opacity:1.0; 
stroke:#840000; stroke-width:98.4252; stroke-opacity:1; 
stroke-linecap:round; stroke-linejoin:round;">
</g>
<g style="fill:#840000; fill-opacity:0.0; 
stroke:#840000; stroke-width:98.4252; stroke-opacity:1; 
stroke-linecap:round; stroke-linejoin:round;">
<path d="M7900 7765
L7900 6165
" />
<path d="M7900 6165
L8688 5378
" />
<path d="M8688 5378
L8782 5378
" />
<path d="M3218 8949
L5419 8949
" />
<path d="M7918 7782
L7900 7765
" />
<path d="M7900 7765
L6853 6718
" />
<path d="M7918 9348
L7918 7782
" />
<path d="M7618 9648
L7918 9348
" />
<path d="M6118 9648
L7618 9648
" />
<path d="M5419 8949
L6118 9648
" />
<path d="M2011 10773
L2793 10773
" />
<path d="M3218 10348
L3218 8949
" />
<path d="M2793 10773
L3218 10348
" />
<path d="M2011 6773
L3958 6773
" />
<path d="M3958 6773
L4053 6678
" />
<path d="M4241 11348
L4241 11225
" />
<path d="M10018 8848
L10018 8248
" />
<path d="M7918 10948
L10018 8848
" />
<path d="M4518 10948
L7918 10948
" />
<path d="M4241 11225
L4518 10948
" />
<path d="M4241 11348
L4241 12770
" />
<path d="M4241 12770
L4418 12948
" />
<path d="M3634 11348
L4241 11348
" />
<path d="M4595 11348
L8118 11348
" />
<path d="M10318 7466
L11011 6773
" />
<path d="M10318 9148
L10318 7466
" />
<path d="M8118 11348
L10318 9148
" />
<path d="M2011 9773
L2193 9773
" />
<path d="M3418 12948
L3418 12348
" />
<path d="M3201 12131
L3201 11348
" />
<path d="M3418 12348
L3201 12131
" />
<path d="M7218 8949
L6719 8949
" />
<path d="M5982 8212
L5982 6678
" />
<path d="M6719 8949
L5982 8212
" />
<path d="M5982 5418
L6813 5418
" />
<path d="M6813 5418
L6853 5378
" />
<path d="M8782 4118
L9088 4118
" />
<path d="M9418 6082
L8782 6718
" />
<path d="M9418 4448
L9418 6082
" />
<path d="M9088 4118
L9418 4448
" />
</g>
<g style="fill:#840000; fill-opacity:1.0; 
stroke:#840000; stroke-width:100; stroke-opacity:1; 
stroke-linecap:round; stroke-linejoin:round;">
<polyline style="fill-rule:evenodd;"
points="11221,2022
11225,2032
11265,2345
11266,3223
11254,3214
11022,3168
10999,3168
10768,3214
10571,3345
10440,3542
10394,3773
10440,4004
10571,4200
10680,4273
10571,4345
10440,4542
10394,4773
10440,5004
10571,5200
10680,5273
10571,5345
10440,5542
10394,5773
10440,6004
10571,6200
10680,6273
10571,6345
10440,6542
10394,6773
10427,6934
10106,7254
10041,7351
10019,7466
10019,7879
9945,7879
9809,7935
9706,8039
9650,8174
9650,8320
9705,8456
9719,8469
9719,8724
7794,10648
4518,10648
4403,10671
4306,10736
4029,11013
4023,11021
3984,11047
3983,11048
3901,11048
3852,11014
3752,10994
3516,10994
3424,11012
3414,11018
3369,10999
3314,10999
3251,11062
3251,11298
3259,11298
3259,11397
3251,11397
3251,11634
3314,11696
3369,11696
3413,11678
3417,11681
3516,11701
3752,11701
3845,11683
3902,11647
3941,11647
3941,12382
3913,12425
3913,12426
3904,12395
3769,12229
3581,12127
3552,12121
3468,12169
3468,12898
3476,12898
3476,12998
3468,12998
3468,13726
3552,13774
3581,13769
3769,13666
3904,13500
3913,13469
3913,13470
4031,13648
4209,13766
4418,13808
4627,13766
4748,13685
4739,13730
4729,13781
4729,13781
4729,13781
4729,13984
1694,13975
1694,12998
2871,12998
2871,13295
2932,13500
3067,13666
3255,13769
3283,13774
3368,13726
3368,12998
2871,12998
1694,12998
1694,12601
2871,12601
2871,12898
3368,12898
3368,12169
3283,12121
3255,12127
3067,12229
2932,12395
2871,12601
1694,12601
1695,11459
2833,11459
2833,11496
2871,11588
2941,11658
3033,11696
3089,11696
3151,11634
3151,11397
2896,11397
2833,11459
1695,11459
1695,11382
2365,11382
2458,11365
2543,11310
2600,11226
2605,11199
2833,11199
2833,11236
2896,11298
3151,11298
3151,11062
3089,10999
3033,10999
2941,11037
2871,11108
2833,11199
2605,11199
2620,11127
2620,11072
2793,11072
2907,11049
3004,10984
3429,10559
3494,10462
3517,10348
3517,9457
3548,9444
3713,9280
3726,9248
5295,9248
5906,9859
6003,9924
6118,9947
7618,9947
7732,9924
7829,9859
8129,9559
8194,9462
8217,9348
8217,8090
8237,8090
8237,8224
8275,8316
8345,8386
8437,8424
8670,8424
8732,8362
8732,8028
8832,8028
8832,8362
8895,8424
9127,8424
9219,8386
9290,8316
9328,8224
9328,8090
9265,8028
8832,8028
8732,8028
8300,8028
8237,8090
8217,8090
8217,7782
8207,7731
8237,7731
8237,7865
8300,7928
8732,7928
8732,7593
8832,7593
8832,7928
9265,7928
9328,7865
9328,7731
9290,7639
9219,7569
9127,7531
8895,7531
8832,7593
8732,7593
8670,7531
8437,7531
8345,7569
8275,7639
8237,7731
8207,7731
8200,7695
8200,6289
8659,5829
9078,5829
9119,5822
9119,5958
8811,6266
8487,6266
8394,6283
8309,6338
8252,6422
8232,6521
8232,6915
8250,7007
8304,7092
8388,7149
8487,7169
9078,7169
9170,7152
9255,7097
9312,7014
9332,6915
9332,6591
9629,6294
9694,6197
9717,6082
9717,4448
9694,4333
9629,4236
9332,3939
9332,3921
9315,3828
9260,3743
9177,3686
9078,3666
8487,3666
8394,3683
8309,3738
8252,3822
8232,3921
8232,4315
8250,4407
8304,4492
8388,4549
8487,4569
9078,4569
9110,4563
9119,4572
9119,4934
9078,4926
8487,4926
8394,4943
8309,4998
8252,5081
8232,5181
8232,5410
7689,5953
7624,6050
7601,6165
7601,7043
7403,6845
7403,6521
7386,6428
7331,6343
7248,6286
7148,6266
6558,6266
6465,6283
6448,6294
6377,6246
6278,6226
5687,6226
5594,6243
5509,6298
5452,6381
5432,6481
5432,6874
5450,6967
5504,7052
5588,7109
5683,7128
5683,8212
5706,8327
5771,8424
6507,9160
6604,9225
6628,9230
6628,9283
6640,9348
6242,9348
5630,8737
5533,8672
5419,8649
3726,8649
3713,8618
3549,8453
3334,8364
3102,8364
2887,8453
2722,8617
2633,8832
2633,9064
2722,9279
2886,9444
2918,9457
2918,10224
2669,10474
2620,10474
2620,10418
2602,10326
2548,10241
2464,10184
2442,10179
2527,10086
2598,9916
2550,9823
2061,9823
2061,9831
1961,9831
1961,9823
1953,9823
1953,9723
1961,9723
1961,9715
2061,9715
2061,9723
2550,9723
2598,9629
2527,9459
2368,9285
2341,9273
2450,9200
2581,9004
2627,8773
2581,8542
2450,8345
2341,8273
2450,8200
2581,8004
2627,7773
2581,7542
2450,7345
2341,7273
2450,7200
2535,7072
3604,7072
3659,7109
3758,7129
4348,7129
4441,7112
4526,7057
4583,6974
4603,6874
4603,6481
4586,6388
4531,6303
4448,6246
4348,6226
3758,6226
3665,6243
3580,6298
3523,6381
3504,6474
2535,6474
2450,6345
2341,6273
2450,6200
2581,6004
2627,5773
2581,5542
2573,5530
3508,5530
3508,5664
3546,5756
3616,5826
3708,5865
3941,5865
4003,5802
4003,5468
4103,5468
4103,5802
4166,5865
4398,5865
4490,5826
4560,5756
4598,5664
4598,5530
4536,5468
4103,5468
4003,5468
3570,5468
3508,5530
2573,5530
2450,5345
2341,5273
2450,5200
2469,5171
3508,5171
3508,5305
3570,5368
4003,5368
4003,5033
4103,5033
4103,5368
4536,5368
4598,5305
4598,5221
5432,5221
5432,5615
5450,5707
5504,5792
5588,5849
5687,5869
6278,5869
6370,5852
6448,5802
6459,5809
6558,5829
7148,5829
7241,5812
7326,5757
7383,5674
7403,5574
7403,5181
7386,5088
7331,5003
7248,4946
7148,4926
6558,4926
6465,4943
6387,4993
6377,4986
6278,4966
5687,4966
5594,4983
5509,5038
5452,5122
5432,5221
4598,5221
4598,5171
4560,5079
4490,5009
4398,4971
4166,4971
4103,5033
4003,5033
3941,4971
3708,4971
3616,5009
3546,5079
3508,5171
2469,5171
2581,5004
2627,4773
2581,4542
2450,4345
2341,4273
2405,4230
6308,4230
6308,4364
6346,4456
6416,4526
6508,4565
6741,4565
6803,4502
6803,4168
6903,4168
6903,4502
6966,4565
7198,4565
7290,4526
7360,4456
7398,4364
7398,4230
7336,4168
6903,4168
6803,4168
6370,4168
6308,4230
2405,4230
2450,4200
2581,4004
2607,3871
6308,3871
6308,4005
6370,4068
6803,4068
6803,3733
6903,3733
6903,4068
7336,4068
7398,4005
7398,3871
7360,3779
7290,3709
7198,3671
6966,3671
6903,3733
6803,3733
6741,3671
6508,3671
6416,3709
6346,3779
6308,3871
2607,3871
2627,3773
2581,3542
2450,3345
2254,3214
2022,3168
1999,3168
1768,3214
1699,3261
1699,2037
2728,1008
2762,998
10197,998
11221,2022
" /> 
</g>
<g style="fill:#FFFFFF; fill-opacity:1.0; 
stroke:#FFFFFF; stroke-width:100; stroke-opacity:1; 
stroke-linecap:round; stroke-linejoin:round;">
</g>
<g style="fill:#FFFFFF; fill-opacity:1.0; 
stroke:#FFFFFF; stroke-width:0; stroke-opacity:1; 
stroke-linecap:round; stroke-linejoin:round;">
<circle cx="10018.2" cy="8248.08" r="78.7402" /> 
</g>
<g style="fill:#FFFFFF; fill-opacity:1.0; 
stroke:#FFFFFF; stroke-width:39.3701; stroke-opacity:1; 
stroke-linecap:round; stroke-linejoin:round;">
</g>
<g style="fill:#FFFFFF; fill-opacity:1.0; 
stroke:#FFFFFF; stroke-width:0; stroke-opacity:1; 
stroke-linecap:round; stroke-linejoin:round;">
<circle cx="2011.15" cy="10773.3" r="200" /> 
</g>
<g style="fill:#FFFFFF; fill-opacity:1.0; 
stroke:#FFFFFF; stroke-width:39.3701; stroke-opacity:1; 
stroke-linecap:round; stroke-linejoin:round;">
</g>
<g style="fill:#FFFFFF; fill-opacity:1.0; 
stroke:#FFFFFF; stroke-width:0; stroke-opacity:1; 
stroke-linecap:round; stroke-linejoin:round;">
<circle cx="2011.15" cy="9773.28" r="200" /> 
</g>
<g style="fill:#FFFFFF; fill-opacity:1.0; 
stroke:#FFFFFF; stroke-width:39.3701; stroke-opacity:1; 
stroke-linecap:round; stroke-linejoin:round;">
</g>
<g style="fill:#FFFFFF; fill-opacity:1.0; 
stroke:#FFFFFF; stroke-width:0; stroke-opacity:1; 
stroke-linecap:round; stroke-linejoin:round;">
<circle cx="2011.15" cy="8773.28" r="200" /> 
</g>
<g style="fill:#FFFFFF; fill-opacity:1.0; 
stroke:#FFFFFF; stroke-width:39.3701; stroke-opacity:1; 
stroke-linecap:round; stroke-linejoin:round;">
</g>
<g style="fill:#FFFFFF; fill-opacity:1.0; 
stroke:#FFFFFF; stroke-width:0; stroke-opacity:1; 
stroke-linecap:round; stroke-linejoin:round;">
<circle cx="2011.15" cy="7773.28" r="200" /> 
</g>
<g style="fill:#FFFFFF; fill-opacity:1.0; 
stroke:#FFFFFF; stroke-width:39.3701; stroke-opacity:1; 
stroke-linecap:round; stroke-linejoin:round;">
</g>
<g style="fill:#FFFFFF; fill-opacity:1.0; 
stroke:#FFFFFF; stroke-width:0; stroke-opacity:1; 
stroke-linecap:round; stroke-linejoin:round;">
<circle cx="2011.15" cy="6773.28" r="200" /> 
</g>
<g style="fill:#FFFFFF; fill-opacity:1.0; 
stroke:#FFFFFF; stroke-width:39.3701; stroke-opacity:1; 
stroke-linecap:round; stroke-linejoin:round;">
</g>
<g style="fill:#FFFFFF; fill-opacity:1.0; 
stroke:#FFFFFF; stroke-width:0; stroke-opacity:1; 
stroke-linecap:round; stroke-linejoin:round;">
<circle cx="2011.15" cy="5773.28" r="200" /> 
</g>
<g style="fill:#FFFFFF; fill-opacity:1.0; 
stroke:#FFFFFF; stroke-width:39.3701; stroke-opacity:1; 
stroke-linecap:round; stroke-linejoin:round;">
</g>
<g style="fill:#FFFFFF; fill-opacity:1.0; 
stroke:#FFFFFF; stroke-width:0; stroke-opacity:1; 
stroke-linecap:round; stroke-linejoin:round;">
<circle cx="2011.15" cy="4773.28" r="200" /> 
</g>
<g style="fill:#FFFFFF; fill-opacity:1.0; 
stroke:#FFFFFF; stroke-width:39.3701; stroke-opacity:1; 
stroke-linecap:round; stroke-linejoin:round;">
</g>
<g style="fill:#FFFFFF; fill-opacity:1.0; 
stroke:#FFFFFF; stroke-width:0; stroke-opacity:1; 
stroke-linecap:round; stroke-linejoin:round;">
<circle cx="2011.15" cy="3773.28" r="200" /> 
</g>
<g style="fill:#FFFFFF; fill-opacity:1.0; 
stroke:#FFFFFF; stroke-width:39.3701; stroke-opacity:1; 
stroke-linecap:round; stroke-linejoin:round;">
</g>
<g style="fill:#FFFFFF; fill-opacity:1.0; 
stroke:#FFFFFF; stroke-width:0; stroke-opacity:1; 
stroke-linecap:round; stroke-linejoin:round;">
<circle cx="11011.2" cy="10773.3" r="200" /> 
</g>
<g style="fill:#FFFFFF; fill-opacity:1.0; 
stroke:#FFFFFF; stroke-width:39.3701; stroke-opacity:1; 
stroke-linecap:round; stroke-linejoin:round;">
</g>
<g style="fill:#FFFFFF; fill-opacity:1.0; 
stroke:#FFFFFF; stroke-width:0; stroke-opacity:1; 
stroke-linecap:round; stroke-linejoin:round;">
<circle cx="11011.2" cy="9773.28" r="200" /> 
</g>
<g style="fill:#FFFFFF; fill-opacity:1.0; 
stroke:#FFFFFF; stroke-width:39.3701; stroke-opacity:1; 
stroke-linecap:round; stroke-linejoin:round;">
</g>
<g style="fill:#FFFFFF; fill-opacity:1.0; 
stroke:#FFFFFF; stroke-width:0; stroke-opacity:1; 
stroke-linecap:round; stroke-linejoin:round;">
<circle cx="11011.2" cy="8773.28" r="200" /> 
</g>
<g style="fill:#FFFFFF; fill-opacity:1.0; 
stroke:#FFFFFF; stroke-width:39.3701; stroke-opacity:1; 
stroke-linecap:round; stroke-linejoin:round;">
</g>
<g style="fill:#FFFFFF; fill-opacity:1.0; 
stroke:#FFFFFF; stroke-width:0; stroke-opacity:1; 
stroke-linecap:round; stroke-linejoin:round;">
<circle cx="11011.2" cy="7773.28" r="200" /> 
</g>
<g style="fill:#FFFFFF; fill-opacity:1.0; 
stroke:#FFFFFF; stroke-width:39.3701; stroke-opacity:1; 
stroke-linecap:round; stroke-linejoin:round;">
</g>
<g style="fill:#FFFFFF; fill-opacity:1.0; 
stroke:#FFFFFF; stroke-width:0; stroke-opacity:1; 
stroke-linecap:round; stroke-linejoin:round;">
<circle cx="11011.2" cy="6773.28" r="200" /> 
</g>
<g style="fill:#FFFFFF; fill-opacity:1.0; 
stroke:#FFFFFF; stroke-width:39.3701; stroke-opacity:1; 
stroke-linecap:round; stroke-linejoin:round;">
</g>
<g style="fill:#FFFFFF; fill-opacity:1.0; 
stroke:#FFFFFF; stroke-width:0; stroke-opacity:1; 
stroke-linecap:round; stroke-linejoin:round;">
<circle cx="11011.2" cy="5773.28" r="200" /> 
</g>
<g style="fill:#FFFFFF; fill-opacity:1.0; 
stroke:#FFFFFF; stroke-width:39.3701; stroke-opacity:1; 
stroke-linecap:round; stroke-linejoin:round;">
</g>
<g style="fill:#FFFFFF; fill-opacity:1.0; 
stroke:#FFFFFF; stroke-width:0; stroke-opacity:1; 
stroke-linecap:round; stroke-linejoin:round;">
<circle cx="11011.2" cy="4773.28" r="200" /> 
</g>
<g style="fill:#FFFFFF; fill-opacity:1.0; 
stroke:#FFFFFF; stroke-width:39.3701; stroke-opacity:1; 
stroke-linecap:round; stroke-linejoin:round;">
</g>
<g style="fill:#FFFFFF; fill-opacity:1.0; 
stroke:#FFFFFF; stroke-width:0; stroke-opacity:1; 
stroke-linecap:round; stroke-linejoin:round;">
<circle cx="11011.2" cy="3773.28" r="200" /> 
</g>
<g style="fill:#FFFFFF; fill-opacity:1.0; 
stroke:#FFFFFF; stroke-width:39.3701; stroke-opacity:1; 
stroke-linecap:round; stroke-linejoin:round;">
</g>
<g style="fill:#FFFFFF; fill-opacity:1.0; 
stroke:#FFFFFF; stroke-width:0; stroke-opacity:1; 
stroke-linecap:round; stroke-linejoin:round;">
<circle cx="3218.04" cy="8949.08" r="138" /> 
</g>
<g style="fill:#FFFFFF; fill-opacity:1.0; 
stroke:#FFFFFF; stroke-width:39.3701; stroke-opacity:1; 
stroke-linecap:round; stroke-linejoin:round;">
</g>
<g style="fill:#FFFFFF; fill-opacity:1.0; 
stroke:#FFFFFF; stroke-width:0; stroke-opacity:1; 
stroke-linecap:round; stroke-linejoin:round;">
<circle cx="7218.04" cy="8949.08" r="138" /> 
</g>
<g style="fill:#FFFFFF; fill-opacity:1.0; 
stroke:#FFFFFF; stroke-width:39.3701; stroke-opacity:1; 
stroke-linecap:round; stroke-linejoin:round;">
</g>
<g style="fill:#FFFFFF; fill-opacity:1.0; 
stroke:#FFFFFF; stroke-width:0; stroke-opacity:1; 
stroke-linecap:round; stroke-linejoin:round;">
<circle cx="4418.24" cy="12948.1" r="196.5" /> 
</g>
<g style="fill:#FFFFFF; fill-opacity:1.0; 
stroke:#FFFFFF; stroke-width:39.3701; stroke-opacity:1; 
stroke-linecap:round; stroke-linejoin:round;">
</g>
<g style="fill:#FFFFFF; fill-opacity:1.0; 
stroke:#FFFFFF; stroke-width:0; stroke-opacity:1; 
stroke-linecap:round; stroke-linejoin:round;">
<circle cx="3418.24" cy="12948.1" r="196.5" /> 
</g>
<g style="fill:#FFFFFF; fill-opacity:1.0; 
stroke:#FFFFFF; stroke-width:39.3701; stroke-opacity:1; 
stroke-linecap:round; stroke-linejoin:round;">
</g>
<g style="fill:#000000; fill-opacity:1.0; 
stroke:#000000; stroke-width:39.3701; stroke-opacity:1; 
stroke-linecap:round; stroke-linejoin:round;">
</g>
<g style="fill:#008484; fill-opacity:1.0; 
stroke:#008484; stroke-width:39.3701; stroke-opacity:1; 
stroke-linecap:round; stroke-linejoin:round;">
</g>
<g style="fill:#008484; fill-opacity:0.0; 
stroke:#008484; stroke-width:39.3701; stroke-opacity:1; 
stroke-linecap:round; stroke-linejoin:round;">
</g>
<g style="fill:#008484; fill-opacity:0.0; 
stroke:#008484; stroke-width:118.11; stroke-opacity:1; 
stroke-linecap:round; stroke-linejoin:round;">
<path d="M4652 1887
L4737 1915
L4877 1915
L4934 1887
L4962 1858
L4990 1802
L4990 1746
L4962 1690
L4934 1662
L4877 1634
L4765 1605
L4709 1577
L4681 1549
L4652 1493
L4652 1437
L4681 1380
L4709 1352
L4765 1324
L4905 1324
L4990 1352
" />
<path d="M5187 1521
L5299 1915
L5412 1634
L5524 1915
L5637 1521
" />
<path d="M6087 1887
L6030 1915
L5918 1915
L5862 1887
L5833 1830
L5833 1605
L5862 1549
L5918 1521
L6030 1521
L6087 1549
L6115 1605
L6115 1662
L5833 1718
" />
<path d="M6593 1887
L6537 1915
L6424 1915
L6368 1887
L6340 1830
L6340 1605
L6368 1549
L6424 1521
L6537 1521
L6593 1549
L6621 1605
L6621 1662
L6340 1718
" />
<path d="M6790 1521
L7015 1521
" />
<path d="M6874 1324
L6874 1830
L6902 1887
L6958 1915
L7015 1915
" />
<path d="M7127 1324
L7465 1324
" />
<path d="M7296 1915
L7296 1324
" />
<path d="M7661 1915
L7661 1521
" />
<path d="M7661 1324
L7633 1352
L7661 1380
L7690 1352
L7661 1324
L7661 1380
" />
<path d="M7943 1915
L7943 1521
" />
<path d="M7943 1577
L7971 1549
L8027 1521
L8111 1521
L8168 1549
L8196 1605
L8196 1915
" />
<path d="M8196 1605
L8224 1549
L8280 1521
L8364 1521
L8421 1549
L8449 1605
L8449 1915
" />
<path d="M8955 1887
L8899 1915
L8786 1915
L8730 1887
L8702 1830
L8702 1605
L8730 1549
L8786 1521
L8899 1521
L8955 1549
L8983 1605
L8983 1662
L8702 1718
" />
</g>
<g style="fill:#008484; fill-opacity:0.0; 
stroke:#008484; stroke-width:98.4252; stroke-opacity:1; 
stroke-linecap:round; stroke-linejoin:round;">
<path d="M4165 2363
L4165 2626
" />
<path d="M3996 2363
L3996 2569
L4015 2607
L4052 2626
L4109 2626
L4146 2607
L4165 2588
" />
<path d="M4352 2588
L4371 2607
L4352 2626
L4334 2607
L4352 2588
L4352 2626
" />
<path d="M4709 2626
L4709 2232
" />
<path d="M4709 2607
L4671 2626
L4596 2626
L4559 2607
L4540 2588
L4521 2551
L4521 2438
L4540 2401
L4559 2382
L4596 2363
L4671 2363
L4709 2382
" />
<path d="M4896 2626
L4896 2363
" />
<path d="M4896 2232
L4877 2251
L4896 2269
L4915 2251
L4896 2232
L4896 2269
" />
<path d="M5084 2363
L5084 2626
" />
<path d="M5084 2401
L5102 2382
L5140 2363
L5196 2363
L5234 2382
L5252 2419
L5252 2626
" />
<path d="M5609 2626
L5609 2419
L5590 2382
L5552 2363
L5477 2363
L5440 2382
" />
<path d="M5609 2607
L5571 2626
L5477 2626
L5440 2607
L5421 2569
L5421 2532
L5440 2494
L5477 2476
L5571 2476
L5609 2457
" />
<path d="M5777 2607
L5815 2626
L5890 2626
L5927 2607
L5946 2569
L5946 2551
L5927 2513
L5890 2494
L5833 2494
L5796 2476
L5777 2438
L5777 2419
L5796 2382
L5833 2363
L5890 2363
L5927 2382
" />
<path d="M6115 2626
L6115 2232
" />
<path d="M6152 2476
L6265 2626
" />
<path d="M6265 2363
L6115 2513
" />
<path d="M6433 2588
L6452 2607
L6433 2626
L6415 2607
L6433 2588
L6433 2626
" />
<path d="M6771 2607
L6733 2626
L6658 2626
L6621 2607
L6602 2569
L6602 2419
L6621 2382
L6658 2363
L6733 2363
L6771 2382
L6790 2419
L6790 2457
L6602 2494
" />
<path d="M7127 2363
L7127 2626
" />
<path d="M6958 2363
L6958 2569
L6977 2607
L7015 2626
L7071 2626
L7108 2607
L7127 2588
" />
<path d="M7596 2213
L7258 2719
" />
<path d="M7671 2363
L7821 2363
" />
<path d="M7727 2232
L7727 2569
L7746 2607
L7783 2626
L7821 2626
" />
<path d="M7952 2626
L7952 2363
" />
<path d="M7952 2438
L7971 2401
L7989 2382
L8027 2363
L8064 2363
" />
<path d="M8346 2607
L8308 2626
L8233 2626
L8196 2607
L8177 2569
L8177 2419
L8196 2382
L8233 2363
L8308 2363
L8346 2382
L8364 2419
L8364 2457
L8177 2494
" />
<path d="M8533 2363
L8533 2626
" />
<path d="M8533 2401
L8552 2382
L8589 2363
L8646 2363
L8683 2382
L8702 2419
L8702 2626
" />
<path d="M9058 2626
L9058 2232
" />
<path d="M9058 2607
L9021 2626
L8946 2626
L8908 2607
L8889 2588
L8871 2551
L8871 2438
L8889 2401
L8908 2382
L8946 2363
L9021 2363
L9058 2382
" />
<path d="M9396 2607
L9358 2626
L9283 2626
L9246 2607
L9227 2569
L9227 2419
L9246 2382
L9283 2363
L9358 2363
L9396 2382
L9414 2419
L9414 2457
L9227 2494
" />
<path d="M9583 2626
L9583 2363
" />
<path d="M9583 2438
L9602 2401
L9621 2382
L9658 2363
L9696 2363
" />
</g>
<g style="fill:#008484; fill-opacity:0.0; 
stroke:#008484; stroke-width:118.11; stroke-opacity:1; 
stroke-linecap:round; stroke-linejoin:round;">
<path d="M9624 4012
L9427 3731
" />
<path d="M9287 4012
L9287 3422
L9512 3422
L9568 3450
L9596 3478
L9624 3534
L9624 3619
L9596 3675
L9568 3703
L9512 3731
L9287 3731
" />
<path d="M9849 3984
L9905 4012
L10018 4012
L10074 3984
L10102 3928
L10102 3900
L10074 3844
L10018 3816
L9934 3816
L9877 3787
L9849 3731
L9849 3703
L9877 3647
L9934 3619
L10018 3619
L10074 3647
" />
<path d="M10271 3619
L10496 3619
" />
<path d="M10355 3422
L10355 3928
L10384 3984
L10440 4012
L10496 4012
" />
<path d="M9585 4867
L9866 4867
" />
<path d="M9529 5036
L9726 4445
L9922 5036
" />
<path d="M10232 4445
L10288 4445
L10344 4474
L10372 4502
L10400 4558
L10429 4670
L10429 4811
L10400 4924
L10372 4980
L10344 5008
L10288 5036
L10232 5036
L10175 5008
L10147 4980
L10119 4924
L10091 4811
L10091 4670
L10119 4558
L10147 4502
L10175 4474
L10232 4445
" />
<path d="M9571 6060
L9571 5469
L9711 5469
L9796 5497
L9852 5553
L9880 5610
L9908 5722
L9908 5807
L9880 5919
L9852 5975
L9796 6031
L9711 6060
L9571 6060
" />
<path d="M10274 5469
L10330 5469
L10386 5497
L10414 5525
L10443 5582
L10471 5694
L10471 5835
L10443 5947
L10414 6003
L10386 6031
L10330 6060
L10274 6060
L10218 6031
L10190 6003
L10161 5947
L10133 5835
L10133 5694
L10161 5582
L10190 5525
L10218 5497
L10274 5469
" />
<path d="M9571 7083
L9571 6493
L9711 6493
L9796 6521
L9852 6577
L9880 6633
L9908 6746
L9908 6830
L9880 6943
L9852 6999
L9796 7055
L9711 7083
L9571 7083
" />
<path d="M10443 6493
L10161 6493
L10133 6774
L10161 6746
L10218 6718
L10358 6718
L10414 6746
L10443 6774
L10471 6830
L10471 6971
L10443 7027
L10414 7055
L10358 7083
L10218 7083
L10161 7055
L10133 7027
" />
<path d="M9571 8067
L9571 7477
L9711 7477
L9796 7505
L9852 7561
L9880 7618
L9908 7730
L9908 7814
L9880 7927
L9852 7983
L9796 8039
L9711 8067
L9571 8067
" />
<path d="M10414 7477
L10302 7477
L10246 7505
L10218 7533
L10161 7618
L10133 7730
L10133 7955
L10161 8011
L10190 8039
L10246 8067
L10358 8067
L10414 8039
L10443 8011
L10471 7955
L10471 7814
L10443 7758
L10414 7730
L10358 7702
L10246 7702
L10190 7730
L10161 7758
L10133 7814
" />
<path d="M9571 9012
L9571 8422
L9711 8422
L9796 8450
L9852 8506
L9880 8562
L9908 8675
L9908 8759
L9880 8872
L9852 8928
L9796 8984
L9711 9012
L9571 9012
" />
<path d="M10105 8422
L10499 8422
L10246 9012
" />
<path d="M9571 10036
L9571 9445
L9711 9445
L9796 9474
L9852 9530
L9880 9586
L9908 9699
L9908 9783
L9880 9895
L9852 9952
L9796 10008
L9711 10036
L9571 10036
" />
<path d="M10246 9699
L10190 9670
L10161 9642
L10133 9586
L10133 9558
L10161 9502
L10190 9474
L10246 9445
L10358 9445
L10414 9474
L10443 9502
L10471 9558
L10471 9586
L10443 9642
L10414 9670
L10358 9699
L10246 9699
L10190 9727
L10161 9755
L10133 9811
L10133 9924
L10161 9980
L10190 10008
L10246 10036
L10358 10036
L10414 10008
L10443 9980
L10471 9924
L10471 9811
L10443 9755
L10414 9727
L10358 9699
" />
<path d="M9000 10430
L9366 10430
L9169 10655
L9253 10655
L9309 10683
L9337 10711
L9366 10767
L9366 10908
L9337 10964
L9309 10992
L9253 11020
L9084 11020
L9028 10992
L9000 10964
" />
<path d="M9534 10430
L9731 11020
L9928 10430
" />
<path d="M10069 10430
L10434 10430
L10237 10655
L10322 10655
L10378 10683
L10406 10711
L10434 10767
L10434 10908
L10406 10964
L10378 10992
L10322 11020
L10153 11020
L10097 10992
L10069 10964
" />
<path d="M2470 3461
L2808 3461
" />
<path d="M2639 4052
L2639 3461
" />
<path d="M2948 3461
L3342 4052
" />
<path d="M3342 3461
L2948 4052
" />
<path d="M2900 5075
L2704 4794
" />
<path d="M2563 5075
L2563 4485
L2788 4485
L2844 4513
L2872 4541
L2900 4597
L2900 4682
L2872 4738
L2844 4766
L2788 4794
L2563 4794
" />
<path d="M3097 4485
L3491 5075
" />
<path d="M3491 4485
L3097 5075
" />
<path d="M2563 6020
L2563 5430
L2704 5430
L2788 5458
L2844 5514
L2872 5570
L2900 5683
L2900 5767
L2872 5880
L2844 5936
L2788 5992
L2704 6020
L2563 6020
" />
<path d="M3463 6020
L3125 6020
" />
<path d="M3294 6020
L3294 5430
L3238 5514
L3182 5570
L3125 5598
" />
<path d="M2563 7044
L2563 6453
L2704 6453
L2788 6481
L2844 6538
L2872 6594
L2900 6706
L2900 6791
L2872 6903
L2844 6960
L2788 7016
L2704 7044
L2563 7044
" />
<path d="M3125 6510
L3154 6481
L3210 6453
L3350 6453
L3407 6481
L3435 6510
L3463 6566
L3463 6622
L3435 6706
L3097 7044
L3463 7044
" />
<path d="M2563 8067
L2563 7477
L2704 7477
L2788 7505
L2844 7561
L2872 7618
L2900 7730
L2900 7814
L2872 7927
L2844 7983
L2788 8039
L2704 8067
L2563 8067
" />
<path d="M3097 7477
L3463 7477
L3266 7702
L3350 7702
L3407 7730
L3435 7758
L3463 7814
L3463 7955
L3435 8011
L3407 8039
L3350 8067
L3182 8067
L3125 8039
L3097 8011
" />
<path d="M2563 9091
L2563 8501
L2704 8501
L2788 8529
L2844 8585
L2872 8641
L2900 8754
L2900 8838
L2872 8951
L2844 9007
L2788 9063
L2704 9091
L2563 9091
" />
<path d="M3407 8697
L3407 9091
" />
<path d="M3266 8472
L3125 8894
L3491 8894
" />
<path d="M2917 9513
L2861 9485
L2777 9485
L2692 9513
L2636 9569
L2608 9625
L2580 9738
L2580 9822
L2608 9935
L2636 9991
L2692 10047
L2777 10075
L2833 10075
L2917 10047
L2945 10019
L2945 9822
L2833 9822
" />
<path d="M2847 10469
L2566 10469
L2538 10750
L2566 10722
L2622 10694
L2763 10694
L2819 10722
L2847 10750
L2875 10807
L2875 10947
L2847 11003
L2819 11031
L2763 11060
L2622 11060
L2566 11031
L2538 11003
" />
<path d="M3044 10469
L3241 11060
L3438 10469
" />
</g>
<g style="fill:#008484; fill-opacity:0.0; 
stroke:#008484; stroke-width:59.0551; stroke-opacity:1; 
stroke-linecap:round; stroke-linejoin:round;">
<path d="M1865 2536
L1763 2757
" />
<path d="M1763 2757
L1975 2961
" />
<path d="M1975 2961
L2180 2855
" />
<path d="M2180 2855
L2290 2918
" />
<path d="M2857 2910
L2987 2835
" />
<path d="M2987 2835
L3160 2965
" />
<path d="M3160 2965
L3346 2772
" />
<path d="M3346 2772
L3235 2583
" />
<path d="M3235 2583
L3310 2398
" />
<path d="M3310 2398
L3550 2324
" />
<path d="M3550 2324
L3550 2056
" />
<path d="M3550 2056
L3330 2001
" />
<path d="M3330 2001
L3251 1776
" />
<path d="M3251 1776
L3357 1591
" />
<path d="M3357 1591
L3172 1390
" />
<path d="M3172 1390
L2968 1493
" />
<path d="M2968 1493
L2783 1414
" />
<path d="M2783 1414
L2716 1201
" />
<path d="M2716 1201
L2444 1194
" />
<path d="M2444 1194
L2361 1410
" />
<path d="M2361 1410
L2196 1477
" />
<path d="M2196 1477
L1979 1371
" />
<path d="M1979 1371
L1775 1579
" />
<path d="M1775 1579
L1873 1792
" />
<path d="M1873 1792
L1806 1981
" />
<path d="M1806 1981
L1590 2020
" />
<path d="M1590 2020
L1586 2296
" />
<path d="M1586 2296
L1806 2375
" />
<path d="M1806 2375
L1861 2532
" />
<path d="M2704 2524
L2822 2465
" />
<path d="M2822 2465
L2901 2387
" />
<path d="M2901 2387
L2960 2229
" />
<path d="M2960 2229
L2960 2072
" />
<path d="M2960 2072
L2901 1934
" />
<path d="M2901 1934
L2723 1796
" />
<path d="M2723 1796
L2546 1776
" />
<path d="M2546 1776
L2389 1816
" />
<path d="M2389 1816
L2231 1953
" />
<path d="M2231 1953
L2172 2131
" />
<path d="M2172 2131
L2192 2327
" />
<path d="M2192 2327
L2290 2446
" />
<path d="M2290 2446
L2428 2524
" />
<path d="M2428 2524
L2290 2918
" />
<path d="M2704 2524
L2861 2918
" />
<path d="M3319 11535
L3516 11535
" />
<path d="M3516 11161
L3319 11161
" />
<path d="M4318 8949
L3768 8949
" />
<path d="M6068 8949
L6668 8949
" />
<path d="M5918 9249
L5918 8649
" />
<path d="M6018 9249
L6018 8649
" />
<path d="M6118 8949
L6118 8649
" />
<path d="M6118 8649
L4318 8649
" />
<path d="M4318 8649
L4318 9249
" />
<path d="M4318 9249
L6118 9249
" />
<path d="M6118 9249
L6118 8949
" />
<path d="M2918 13448
L4918 13448
" />
<path d="M2918 11698
L4918 11698
" />
<path d="M4918 14198
L2918 14198
" />
<path d="M4918 14198
L4918 11698
" />
<path d="M2918 14198
L2918 11698
" />
<path d="M4319 11554
L4516 11554
" />
<path d="M4516 11141
L4319 11141
" />
</g>
<g style="fill:#C2C200; fill-opacity:0.0; 
stroke:#C2C200; stroke-width:59.0551; stroke-opacity:1; 
stroke-linecap:round; stroke-linejoin:round;">
<path d="M1763 11915
L1763 11522
L1913 11522
L1951 11540
L1970 11559
L1988 11597
L1988 11653
L1970 11690
L1951 11709
L1913 11728
L1763 11728
" />
<path d="M2363 11915
L2138 11915
" />
<path d="M2251 11915
L2251 11522
L2213 11578
L2176 11615
L2138 11634
" />
<path d="M10700 3018
L10700 2624
L10850 2624
L10888 2643
L10907 2662
L10925 2699
L10925 2755
L10907 2793
L10888 2812
L10850 2830
L10700 2830
" />
<path d="M11075 2662
L11094 2643
L11132 2624
L11225 2624
L11263 2643
L11282 2662
L11300 2699
L11300 2737
L11282 2793
L11057 3018
L11300 3018
" />
<path d="M3352 12157
L3333 12176
L3277 12195
L3240 12195
L3183 12176
L3146 12139
L3127 12101
L3108 12026
L3108 11970
L3127 11895
L3146 11858
L3183 11820
L3240 11801
L3277 11801
L3333 11820
L3352 11839
" />
<path d="M3727 12195
L3502 12195
" />
<path d="M3615 12195
L3615 11801
L3577 11858
L3540 11895
L3502 11914
" />
</g>
<g style="fill:#008484; fill-opacity:0.0; 
stroke:#008484; stroke-width:59.0551; stroke-opacity:1; 
stroke-linecap:round; stroke-linejoin:round;">
</g>
<g style="fill:#008484; fill-opacity:0.0; 
stroke:#008484; stroke-width:19.685; stroke-opacity:1; 
stroke-linecap:round; stroke-linejoin:round;">
<path d="M4732 7462
L4732 7210
L4792 7210
L4828 7222
L4852 7246
L4864 7270
L4876 7318
L4876 7354
L4864 7402
L4852 7426
L4828 7450
L4792 7462
L4732 7462
" />
<path d="M5116 7462
L4972 7462
" />
<path d="M5044 7462
L5044 7210
L5020 7246
L4996 7270
L4972 7282
" />
<path d="M7632 3662
L7632 3410
L7692 3410
L7728 3422
L7752 3446
L7764 3470
L7776 3518
L7776 3554
L7764 3602
L7752 3626
L7728 3650
L7692 3662
L7632 3662
" />
<path d="M7872 3434
L7884 3422
L7908 3410
L7968 3410
L7992 3422
L8004 3434
L8016 3458
L8016 3482
L8004 3518
L7860 3662
L8016 3662
" />
<path d="M8232 8762
L8232 8510
L8292 8510
L8328 8522
L8352 8546
L8364 8570
L8376 8618
L8376 8654
L8364 8702
L8352 8726
L8328 8750
L8292 8762
L8232 8762
" />
<path d="M8460 8510
L8616 8510
L8532 8606
L8568 8606
L8592 8618
L8604 8630
L8616 8654
L8616 8714
L8604 8738
L8592 8750
L8568 8762
L8496 8762
L8472 8750
L8460 8738
" />
</g>
<g style="fill:#C2C200; fill-opacity:0.0; 
stroke:#C2C200; stroke-width:19.685; stroke-opacity:1; 
stroke-linecap:round; stroke-linejoin:round;">
</g>
<g style="fill:#C2C200; fill-opacity:0.0; 
stroke:#C2C200; stroke-width:59.0551; stroke-opacity:1; 
stroke-linecap:round; stroke-linejoin:round;">
<path d="M4927 8526
L4927 8132
L5021 8132
L5077 8151
L5115 8188
L5133 8226
L5152 8301
L5152 8357
L5133 8432
L5115 8469
L5077 8507
L5021 8526
L4927 8526
" />
<path d="M5490 8263
L5490 8526
" />
<path d="M5396 8113
L5302 8394
L5546 8394
" />
<path d="M3627 14661
L3627 14267
L3777 14267
L3815 14286
L3833 14305
L3852 14342
L3852 14399
L3833 14436
L3815 14455
L3777 14474
L3627 14474
" />
<path d="M3983 14267
L4227 14267
L4096 14417
L4152 14417
L4190 14436
L4208 14455
L4227 14492
L4227 14586
L4208 14624
L4190 14642
L4152 14661
L4040 14661
L4002 14642
L3983 14624
" />
<path d="M4352 12234
L4221 12047
" />
<path d="M4127 12234
L4127 11841
L4277 11841
L4315 11859
L4333 11878
L4352 11916
L4352 11972
L4333 12009
L4315 12028
L4277 12047
L4127 12047
" />
<path d="M4727 12234
L4502 12234
" />
<path d="M4615 12234
L4615 11841
L4577 11897
L4540 11934
L4502 11953
" />
</g>
<g style="fill:#000000; fill-opacity:0.0; 
stroke:#000000; stroke-width:59.0551; stroke-opacity:1; 
stroke-linecap:round; stroke-linejoin:round;">
</g>
<g style="fill:#C2C200; fill-opacity:0.0; 
stroke:#C2C200; stroke-width:59.0551; stroke-opacity:1; 
stroke-linecap:round; stroke-linejoin:round;">
</g>
<g style="fill:#C2C200; fill-opacity:0.0; 
stroke:#C2C200; stroke-width:39.3701; stroke-opacity:1; 
stroke-linecap:round; stroke-linejoin:round;">
<path d="M10779 11585
L10794 14257
" />
<path d="M11545 11207
L10779 11585
" />
<path d="M11535 2327
L11545 11207
" />
<path d="M11489 1976
L11535 2327
" />
<path d="M11399 1678
L11489 1976
" />
<path d="M11270 1430
L11399 1678
" />
<path d="M11108 1224
L11270 1430
" />
<path d="M10917 1055
L11108 1224
" />
<path d="M10703 917
L10917 1055
" />
<path d="M10471 805
L10703 917
" />
<path d="M10227 713
L10471 805
" />
<path d="M2732 724
L10227 713
" />
<path d="M2497 797
L2732 724
" />
<path d="M2283 895
L2497 797
" />
<path d="M2089 1016
L2283 895
" />
<path d="M1917 1161
L2089 1016
" />
<path d="M1764 1329
L1917 1161
" />
<path d="M1633 1520
L1764 1329
" />
<path d="M1521 1735
L1633 1520
" />
<path d="M1429 1972
L1521 1735
" />
<path d="M1424 14244
L1429 1972
" />
<path d="M4999 14254
L1424 14244
" />
<path d="M4998 13781
L4999 14254
" />
<path d="M8475 13778
L4998 13781
" />
<path d="M8471 14257
L8475 13778
" />
<path d="M10794 14257
L8471 14257
" />
</g> 
</svg>
