<?xml version="1.0" standalone="no"?>
 <!DOCTYPE svg PUBLIC "-//W3C//DTD SVG 1.1//EN" 
 "http://www.w3.org/Graphics/SVG/1.1/DTD/svg11.dtd"> 
<svg xmlns="http://www.w3.org/2000/svg" version="1.1" 
    width="4.72694cm" height="4.99872cm" viewBox="0 0 18610 19680 ">
<title>SVG Picture created as hardware-brd.svg date 2016/07/23 22:46:49 </title>
  <desc>Picture generated by PCBNEW </desc>
<g style="fill:#000000; fill-opacity:1;stroke:#000000; stroke-opacity:1;
stroke-linecap:round; stroke-linejoin:round; "
 transform="translate(0 0) scale(1 1)">
</g>
<g style="fill:#000000; fill-opacity:0.0; 
stroke:#000000; stroke-width:-0.000393701; stroke-opacity:1; 
stroke-linecap:round; stroke-linejoin:round;">
</g>
<g style="fill:#840084; fill-opacity:0.0; 
stroke:#840084; stroke-width:-0.000393701; stroke-opacity:1; 
stroke-linecap:round; stroke-linejoin:round;">
</g>
<g style="fill:#840084; fill-opacity:0.0; 
stroke:#840084; stroke-width:118.11; stroke-opacity:1; 
stroke-linecap:round; stroke-linejoin:round;">
<path d="M13694 12204
L13328 12204
L13525 12429
L13441 12429
L13384 12457
L13356 12485
L13328 12541
L13328 12682
L13356 12738
L13384 12766
L13441 12794
L13609 12794
L13666 12766
L13694 12738
" />
<path d="M13159 12204
L12962 12794
L12766 12204
" />
<path d="M12625 12204
L12259 12204
L12456 12429
L12372 12429
L12316 12457
L12288 12485
L12259 12541
L12259 12682
L12288 12738
L12316 12766
L12372 12794
L12541 12794
L12597 12766
L12625 12738
" />
<path d="M13674 11810
L13674 11219
L13533 11219
L13449 11248
L13393 11304
L13365 11360
L13337 11473
L13337 11557
L13365 11669
L13393 11726
L13449 11782
L13533 11810
L13674 11810
" />
<path d="M12999 11473
L13055 11444
L13083 11416
L13112 11360
L13112 11332
L13083 11276
L13055 11248
L12999 11219
L12887 11219
L12830 11248
L12802 11276
L12774 11332
L12774 11360
L12802 11416
L12830 11444
L12887 11473
L12999 11473
L13055 11501
L13083 11529
L13112 11585
L13112 11697
L13083 11754
L13055 11782
L12999 11810
L12887 11810
L12830 11782
L12802 11754
L12774 11697
L12774 11585
L12802 11529
L12830 11501
L12887 11473
" />
<path d="M13674 10786
L13674 10196
L13533 10196
L13449 10224
L13393 10280
L13365 10336
L13337 10449
L13337 10533
L13365 10646
L13393 10702
L13449 10758
L13533 10786
L13674 10786
" />
<path d="M13140 10196
L12746 10196
L12999 10786
" />
<path d="M13674 9841
L13674 9251
L13533 9251
L13449 9279
L13393 9335
L13365 9392
L13337 9504
L13337 9588
L13365 9701
L13393 9757
L13449 9813
L13533 9841
L13674 9841
" />
<path d="M12830 9251
L12943 9251
L12999 9279
L13027 9307
L13083 9392
L13112 9504
L13112 9729
L13083 9785
L13055 9813
L12999 9841
L12887 9841
L12830 9813
L12802 9785
L12774 9729
L12774 9588
L12802 9532
L12830 9504
L12887 9476
L12999 9476
L13055 9504
L13083 9532
L13112 9588
" />
<path d="M13674 8857
L13674 8267
L13533 8267
L13449 8295
L13393 8351
L13365 8407
L13337 8520
L13337 8604
L13365 8717
L13393 8773
L13449 8829
L13533 8857
L13674 8857
" />
<path d="M12802 8267
L13083 8267
L13112 8548
L13083 8520
L13027 8492
L12887 8492
L12830 8520
L12802 8548
L12774 8604
L12774 8745
L12802 8801
L12830 8829
L12887 8857
L13027 8857
L13083 8829
L13112 8801
" />
<path d="M13674 7834
L13674 7243
L13533 7243
L13449 7271
L13393 7327
L13365 7384
L13337 7496
L13337 7580
L13365 7693
L13393 7749
L13449 7805
L13533 7834
L13674 7834
" />
<path d="M12971 7243
L12915 7243
L12858 7271
L12830 7299
L12802 7356
L12774 7468
L12774 7609
L12802 7721
L12830 7777
L12858 7805
L12915 7834
L12971 7834
L13027 7805
L13055 7777
L13083 7721
L13112 7609
L13112 7468
L13083 7356
L13055 7299
L13027 7271
L12971 7243
" />
<path d="M13660 6641
L13379 6641
" />
<path d="M13716 6810
L13519 6219
L13322 6810
" />
<path d="M13013 6219
L12957 6219
L12901 6248
L12873 6276
L12844 6332
L12816 6444
L12816 6585
L12844 6697
L12873 6754
L12901 6782
L12957 6810
L13013 6810
L13069 6782
L13097 6754
L13126 6697
L13154 6585
L13154 6444
L13126 6332
L13097 6276
L13069 6248
L13013 6219
" />
<path d="M13306 5786
L13502 5505
" />
<path d="M13643 5786
L13643 5196
L13418 5196
L13362 5224
L13334 5252
L13306 5308
L13306 5393
L13334 5449
L13362 5477
L13418 5505
L13643 5505
" />
<path d="M13081 5758
L13024 5786
L12912 5786
L12856 5758
L12828 5702
L12828 5674
L12856 5618
L12912 5589
L12996 5589
L13052 5561
L13081 5505
L13081 5477
L13052 5421
L12996 5393
L12912 5393
L12856 5421
" />
<path d="M12659 5393
L12434 5393
" />
<path d="M12574 5196
L12574 5702
L12546 5758
L12490 5786
L12434 5786
" />
<path d="M6343 12243
L6624 12243
L6652 12524
L6624 12496
L6568 12468
L6427 12468
L6371 12496
L6343 12524
L6315 12580
L6315 12721
L6343 12777
L6371 12805
L6427 12834
L6568 12834
L6624 12805
L6652 12777
" />
<path d="M6146 12243
L5949 12834
L5752 12243
" />
<path d="M5879 11287
L5935 11259
L6019 11259
L6104 11287
L6160 11343
L6188 11399
L6216 11512
L6216 11596
L6188 11709
L6160 11765
L6104 11821
L6019 11849
L5963 11849
L5879 11821
L5851 11793
L5851 11596
L5963 11596
" />
<path d="M6705 10865
L6705 10275
L6565 10275
L6480 10303
L6424 10359
L6396 10415
L6368 10528
L6368 10612
L6396 10724
L6424 10781
L6480 10837
L6565 10865
L6705 10865
" />
<path d="M5862 10471
L5862 10865
" />
<path d="M6002 10246
L6143 10668
L5777 10668
" />
<path d="M6705 9841
L6705 9251
L6565 9251
L6480 9279
L6424 9335
L6396 9392
L6368 9504
L6368 9588
L6396 9701
L6424 9757
L6480 9813
L6565 9841
L6705 9841
" />
<path d="M6171 9251
L5806 9251
L6002 9476
L5918 9476
L5862 9504
L5834 9532
L5806 9588
L5806 9729
L5834 9785
L5862 9813
L5918 9841
L6087 9841
L6143 9813
L6171 9785
" />
<path d="M6705 8818
L6705 8227
L6565 8227
L6480 8255
L6424 8312
L6396 8368
L6368 8480
L6368 8565
L6396 8677
L6424 8733
L6480 8790
L6565 8818
L6705 8818
" />
<path d="M6143 8284
L6115 8255
L6059 8227
L5918 8227
L5862 8255
L5834 8284
L5806 8340
L5806 8396
L5834 8480
L6171 8818
L5806 8818
" />
<path d="M6705 7794
L6705 7204
L6565 7204
L6480 7232
L6424 7288
L6396 7344
L6368 7457
L6368 7541
L6396 7654
L6424 7710
L6480 7766
L6565 7794
L6705 7794
" />
<path d="M5806 7794
L6143 7794
" />
<path d="M5974 7794
L5974 7204
L6031 7288
L6087 7344
L6143 7372
" />
<path d="M6368 6849
L6565 6568
" />
<path d="M6705 6849
L6705 6259
L6480 6259
L6424 6287
L6396 6315
L6368 6371
L6368 6456
L6396 6512
L6424 6540
L6480 6568
L6705 6568
" />
<path d="M6171 6259
L5777 6849
" />
<path d="M5777 6259
L6171 6849
" />
<path d="M6641 5235
L6303 5235
" />
<path d="M6472 5826
L6472 5235
" />
<path d="M6163 5235
L5769 5826
" />
<path d="M5769 5235
L6163 5826
" />
</g>
<g style="fill:#840084; fill-opacity:0.0; 
stroke:#840084; stroke-width:59.0551; stroke-opacity:1; 
stroke-linecap:round; stroke-linejoin:round;">
<path d="M13549 2572
L13549 5072
" />
<path d="M10549 2572
L10549 5072
" />
<path d="M10549 3322
L13549 3322
" />
<path d="M13549 2572
L10549 2572
" />
<path d="M10549 5072
L13549 5072
" />
</g>
<g style="fill:#000000; fill-opacity:0.0; 
stroke:#000000; stroke-width:59.0551; stroke-opacity:1; 
stroke-linecap:round; stroke-linejoin:round;">
</g>
<g style="fill:#840000; fill-opacity:0.0; 
stroke:#840000; stroke-width:59.0551; stroke-opacity:1; 
stroke-linecap:round; stroke-linejoin:round;">
</g>
<g style="fill:#840000; fill-opacity:0.0; 
stroke:#840000; stroke-width:0; stroke-opacity:1; 
stroke-linecap:round; stroke-linejoin:round;">
</g>
<g style="fill:#840000; fill-opacity:1.0; 
stroke:#840000; stroke-width:0; stroke-opacity:1; 
stroke-linecap:round; stroke-linejoin:round;">
<polyline style="fill-rule:evenodd;"
points="4888,12901
4888,12192
5596,12192
5596,12901
4888,12901
" /> 
</g>
<g style="fill:#840000; fill-opacity:1.0; 
stroke:#840000; stroke-width:708.661; stroke-opacity:1; 
stroke-linecap:round; stroke-linejoin:round;">
</g>
<g style="fill:#840000; fill-opacity:0.0; 
stroke:#840000; stroke-width:708.661; stroke-opacity:1; 
stroke-linecap:round; stroke-linejoin:round;">
<path d="M5242 11547
L5242 11547
" />
<path d="M5242 10547
L5242 10547
" />
<path d="M5242 9547
L5242 9547
" />
<path d="M5242 8547
L5242 8547
" />
<path d="M5242 7547
L5242 7547
" />
<path d="M5242 6547
L5242 6547
" />
<path d="M5242 5547
L5242 5547
" />
</g>
<g style="fill:#840000; fill-opacity:0.0; 
stroke:#840000; stroke-width:0; stroke-opacity:1; 
stroke-linecap:round; stroke-linejoin:round;">
</g>
<g style="fill:#840000; fill-opacity:1.0; 
stroke:#840000; stroke-width:0; stroke-opacity:1; 
stroke-linecap:round; stroke-linejoin:round;">
<polyline style="fill-rule:evenodd;"
points="13888,12901
13888,12192
14596,12192
14596,12901
13888,12901
" /> 
</g>
<g style="fill:#840000; fill-opacity:1.0; 
stroke:#840000; stroke-width:708.661; stroke-opacity:1; 
stroke-linecap:round; stroke-linejoin:round;">
</g>
<g style="fill:#840000; fill-opacity:0.0; 
stroke:#840000; stroke-width:708.661; stroke-opacity:1; 
stroke-linecap:round; stroke-linejoin:round;">
<path d="M14242 11547
L14242 11547
" />
<path d="M14242 10547
L14242 10547
" />
<path d="M14242 9547
L14242 9547
" />
<path d="M14242 8547
L14242 8547
" />
<path d="M14242 7547
L14242 7547
" />
<path d="M14242 6547
L14242 6547
" />
<path d="M14242 5547
L14242 5547
" />
</g>
<g style="fill:#840000; fill-opacity:0.0; 
stroke:#840000; stroke-width:593; stroke-opacity:1; 
stroke-linecap:round; stroke-linejoin:round;">
<path d="M7649 15019
L7649 14425
" />
<path d="M6649 15019
L6649 14425
" />
<path d="M13049 4119
L13049 3525
" />
<path d="M12049 4119
L12049 3525
" />
<path d="M11049 4119
L11049 3525
" />
</g>
<g style="fill:#FFFFFF; fill-opacity:0.0; 
stroke:#FFFFFF; stroke-width:593; stroke-opacity:1; 
stroke-linecap:round; stroke-linejoin:round;">
</g>
<g style="fill:#FFFFFF; fill-opacity:1.0; 
stroke:#FFFFFF; stroke-width:0; stroke-opacity:1; 
stroke-linecap:round; stroke-linejoin:round;">
<circle cx="5242.52" cy="12547.2" r="200" /> 
</g>
<g style="fill:#FFFFFF; fill-opacity:1.0; 
stroke:#FFFFFF; stroke-width:39.3701; stroke-opacity:1; 
stroke-linecap:round; stroke-linejoin:round;">
</g>
<g style="fill:#FFFFFF; fill-opacity:1.0; 
stroke:#FFFFFF; stroke-width:0; stroke-opacity:1; 
stroke-linecap:round; stroke-linejoin:round;">
<circle cx="5242.52" cy="11547.2" r="200" /> 
</g>
<g style="fill:#FFFFFF; fill-opacity:1.0; 
stroke:#FFFFFF; stroke-width:39.3701; stroke-opacity:1; 
stroke-linecap:round; stroke-linejoin:round;">
</g>
<g style="fill:#FFFFFF; fill-opacity:1.0; 
stroke:#FFFFFF; stroke-width:0; stroke-opacity:1; 
stroke-linecap:round; stroke-linejoin:round;">
<circle cx="5242.52" cy="10547.2" r="200" /> 
</g>
<g style="fill:#FFFFFF; fill-opacity:1.0; 
stroke:#FFFFFF; stroke-width:39.3701; stroke-opacity:1; 
stroke-linecap:round; stroke-linejoin:round;">
</g>
<g style="fill:#FFFFFF; fill-opacity:1.0; 
stroke:#FFFFFF; stroke-width:0; stroke-opacity:1; 
stroke-linecap:round; stroke-linejoin:round;">
<circle cx="5242.52" cy="9547.24" r="200" /> 
</g>
<g style="fill:#FFFFFF; fill-opacity:1.0; 
stroke:#FFFFFF; stroke-width:39.3701; stroke-opacity:1; 
stroke-linecap:round; stroke-linejoin:round;">
</g>
<g style="fill:#FFFFFF; fill-opacity:1.0; 
stroke:#FFFFFF; stroke-width:0; stroke-opacity:1; 
stroke-linecap:round; stroke-linejoin:round;">
<circle cx="5242.52" cy="8547.24" r="200" /> 
</g>
<g style="fill:#FFFFFF; fill-opacity:1.0; 
stroke:#FFFFFF; stroke-width:39.3701; stroke-opacity:1; 
stroke-linecap:round; stroke-linejoin:round;">
</g>
<g style="fill:#FFFFFF; fill-opacity:1.0; 
stroke:#FFFFFF; stroke-width:0; stroke-opacity:1; 
stroke-linecap:round; stroke-linejoin:round;">
<circle cx="5242.52" cy="7547.24" r="200" /> 
</g>
<g style="fill:#FFFFFF; fill-opacity:1.0; 
stroke:#FFFFFF; stroke-width:39.3701; stroke-opacity:1; 
stroke-linecap:round; stroke-linejoin:round;">
</g>
<g style="fill:#FFFFFF; fill-opacity:1.0; 
stroke:#FFFFFF; stroke-width:0; stroke-opacity:1; 
stroke-linecap:round; stroke-linejoin:round;">
<circle cx="5242.52" cy="6547.24" r="200" /> 
</g>
<g style="fill:#FFFFFF; fill-opacity:1.0; 
stroke:#FFFFFF; stroke-width:39.3701; stroke-opacity:1; 
stroke-linecap:round; stroke-linejoin:round;">
</g>
<g style="fill:#FFFFFF; fill-opacity:1.0; 
stroke:#FFFFFF; stroke-width:0; stroke-opacity:1; 
stroke-linecap:round; stroke-linejoin:round;">
<circle cx="5242.52" cy="5547.24" r="200" /> 
</g>
<g style="fill:#FFFFFF; fill-opacity:1.0; 
stroke:#FFFFFF; stroke-width:39.3701; stroke-opacity:1; 
stroke-linecap:round; stroke-linejoin:round;">
</g>
<g style="fill:#FFFFFF; fill-opacity:1.0; 
stroke:#FFFFFF; stroke-width:0; stroke-opacity:1; 
stroke-linecap:round; stroke-linejoin:round;">
<circle cx="14242.5" cy="12547.2" r="200" /> 
</g>
<g style="fill:#FFFFFF; fill-opacity:1.0; 
stroke:#FFFFFF; stroke-width:39.3701; stroke-opacity:1; 
stroke-linecap:round; stroke-linejoin:round;">
</g>
<g style="fill:#FFFFFF; fill-opacity:1.0; 
stroke:#FFFFFF; stroke-width:0; stroke-opacity:1; 
stroke-linecap:round; stroke-linejoin:round;">
<circle cx="14242.5" cy="11547.2" r="200" /> 
</g>
<g style="fill:#FFFFFF; fill-opacity:1.0; 
stroke:#FFFFFF; stroke-width:39.3701; stroke-opacity:1; 
stroke-linecap:round; stroke-linejoin:round;">
</g>
<g style="fill:#FFFFFF; fill-opacity:1.0; 
stroke:#FFFFFF; stroke-width:0; stroke-opacity:1; 
stroke-linecap:round; stroke-linejoin:round;">
<circle cx="14242.5" cy="10547.2" r="200" /> 
</g>
<g style="fill:#FFFFFF; fill-opacity:1.0; 
stroke:#FFFFFF; stroke-width:39.3701; stroke-opacity:1; 
stroke-linecap:round; stroke-linejoin:round;">
</g>
<g style="fill:#FFFFFF; fill-opacity:1.0; 
stroke:#FFFFFF; stroke-width:0; stroke-opacity:1; 
stroke-linecap:round; stroke-linejoin:round;">
<circle cx="14242.5" cy="9547.24" r="200" /> 
</g>
<g style="fill:#FFFFFF; fill-opacity:1.0; 
stroke:#FFFFFF; stroke-width:39.3701; stroke-opacity:1; 
stroke-linecap:round; stroke-linejoin:round;">
</g>
<g style="fill:#FFFFFF; fill-opacity:1.0; 
stroke:#FFFFFF; stroke-width:0; stroke-opacity:1; 
stroke-linecap:round; stroke-linejoin:round;">
<circle cx="14242.5" cy="8547.24" r="200" /> 
</g>
<g style="fill:#FFFFFF; fill-opacity:1.0; 
stroke:#FFFFFF; stroke-width:39.3701; stroke-opacity:1; 
stroke-linecap:round; stroke-linejoin:round;">
</g>
<g style="fill:#FFFFFF; fill-opacity:1.0; 
stroke:#FFFFFF; stroke-width:0; stroke-opacity:1; 
stroke-linecap:round; stroke-linejoin:round;">
<circle cx="14242.5" cy="7547.24" r="200" /> 
</g>
<g style="fill:#FFFFFF; fill-opacity:1.0; 
stroke:#FFFFFF; stroke-width:39.3701; stroke-opacity:1; 
stroke-linecap:round; stroke-linejoin:round;">
</g>
<g style="fill:#FFFFFF; fill-opacity:1.0; 
stroke:#FFFFFF; stroke-width:0; stroke-opacity:1; 
stroke-linecap:round; stroke-linejoin:round;">
<circle cx="14242.5" cy="6547.24" r="200" /> 
</g>
<g style="fill:#FFFFFF; fill-opacity:1.0; 
stroke:#FFFFFF; stroke-width:39.3701; stroke-opacity:1; 
stroke-linecap:round; stroke-linejoin:round;">
</g>
<g style="fill:#FFFFFF; fill-opacity:1.0; 
stroke:#FFFFFF; stroke-width:0; stroke-opacity:1; 
stroke-linecap:round; stroke-linejoin:round;">
<circle cx="14242.5" cy="5547.24" r="200" /> 
</g>
<g style="fill:#FFFFFF; fill-opacity:1.0; 
stroke:#FFFFFF; stroke-width:39.3701; stroke-opacity:1; 
stroke-linecap:round; stroke-linejoin:round;">
</g>
<g style="fill:#FFFFFF; fill-opacity:1.0; 
stroke:#FFFFFF; stroke-width:0; stroke-opacity:1; 
stroke-linecap:round; stroke-linejoin:round;">
<circle cx="7649.61" cy="14722" r="196.5" /> 
</g>
<g style="fill:#FFFFFF; fill-opacity:1.0; 
stroke:#FFFFFF; stroke-width:39.3701; stroke-opacity:1; 
stroke-linecap:round; stroke-linejoin:round;">
</g>
<g style="fill:#FFFFFF; fill-opacity:1.0; 
stroke:#FFFFFF; stroke-width:0; stroke-opacity:1; 
stroke-linecap:round; stroke-linejoin:round;">
<circle cx="6649.61" cy="14722" r="196.5" /> 
</g>
<g style="fill:#FFFFFF; fill-opacity:1.0; 
stroke:#FFFFFF; stroke-width:39.3701; stroke-opacity:1; 
stroke-linecap:round; stroke-linejoin:round;">
</g>
<g style="fill:#FFFFFF; fill-opacity:1.0; 
stroke:#FFFFFF; stroke-width:0; stroke-opacity:1; 
stroke-linecap:round; stroke-linejoin:round;">
<circle cx="13049.6" cy="3822.05" r="196.5" /> 
</g>
<g style="fill:#FFFFFF; fill-opacity:1.0; 
stroke:#FFFFFF; stroke-width:39.3701; stroke-opacity:1; 
stroke-linecap:round; stroke-linejoin:round;">
</g>
<g style="fill:#FFFFFF; fill-opacity:1.0; 
stroke:#FFFFFF; stroke-width:0; stroke-opacity:1; 
stroke-linecap:round; stroke-linejoin:round;">
<circle cx="12049.6" cy="3822.05" r="196.5" /> 
</g>
<g style="fill:#FFFFFF; fill-opacity:1.0; 
stroke:#FFFFFF; stroke-width:39.3701; stroke-opacity:1; 
stroke-linecap:round; stroke-linejoin:round;">
</g>
<g style="fill:#FFFFFF; fill-opacity:1.0; 
stroke:#FFFFFF; stroke-width:0; stroke-opacity:1; 
stroke-linecap:round; stroke-linejoin:round;">
<circle cx="11049.6" cy="3822.05" r="196.5" /> 
</g>
<g style="fill:#FFFFFF; fill-opacity:1.0; 
stroke:#FFFFFF; stroke-width:39.3701; stroke-opacity:1; 
stroke-linecap:round; stroke-linejoin:round;">
</g>
<g style="fill:#000000; fill-opacity:1.0; 
stroke:#000000; stroke-width:39.3701; stroke-opacity:1; 
stroke-linecap:round; stroke-linejoin:round;">
</g>
<g style="fill:#840000; fill-opacity:1.0; 
stroke:#840000; stroke-width:39.3701; stroke-opacity:1; 
stroke-linecap:round; stroke-linejoin:round;">
</g>
<g style="fill:#840000; fill-opacity:1.0; 
stroke:#840000; stroke-width:0; stroke-opacity:1; 
stroke-linecap:round; stroke-linejoin:round;">
<polyline style="fill-rule:evenodd;"
points="4888,12901
4888,12192
5596,12192
5596,12901
4888,12901
" /> 
</g>
<g style="fill:#840000; fill-opacity:1.0; 
stroke:#840000; stroke-width:708.661; stroke-opacity:1; 
stroke-linecap:round; stroke-linejoin:round;">
</g>
<g style="fill:#840000; fill-opacity:0.0; 
stroke:#840000; stroke-width:708.661; stroke-opacity:1; 
stroke-linecap:round; stroke-linejoin:round;">
<path d="M5242 11547
L5242 11547
" />
<path d="M5242 10547
L5242 10547
" />
<path d="M5242 9547
L5242 9547
" />
<path d="M5242 8547
L5242 8547
" />
<path d="M5242 7547
L5242 7547
" />
<path d="M5242 6547
L5242 6547
" />
<path d="M5242 5547
L5242 5547
" />
</g>
<g style="fill:#840000; fill-opacity:0.0; 
stroke:#840000; stroke-width:0; stroke-opacity:1; 
stroke-linecap:round; stroke-linejoin:round;">
</g>
<g style="fill:#840000; fill-opacity:1.0; 
stroke:#840000; stroke-width:0; stroke-opacity:1; 
stroke-linecap:round; stroke-linejoin:round;">
<polyline style="fill-rule:evenodd;"
points="13888,12901
13888,12192
14596,12192
14596,12901
13888,12901
" /> 
</g>
<g style="fill:#840000; fill-opacity:1.0; 
stroke:#840000; stroke-width:708.661; stroke-opacity:1; 
stroke-linecap:round; stroke-linejoin:round;">
</g>
<g style="fill:#840000; fill-opacity:0.0; 
stroke:#840000; stroke-width:708.661; stroke-opacity:1; 
stroke-linecap:round; stroke-linejoin:round;">
<path d="M14242 11547
L14242 11547
" />
<path d="M14242 10547
L14242 10547
" />
<path d="M14242 9547
L14242 9547
" />
<path d="M14242 8547
L14242 8547
" />
<path d="M14242 7547
L14242 7547
" />
<path d="M14242 6547
L14242 6547
" />
<path d="M14242 5547
L14242 5547
" />
</g>
<g style="fill:#840000; fill-opacity:0.0; 
stroke:#840000; stroke-width:0; stroke-opacity:1; 
stroke-linecap:round; stroke-linejoin:round;">
</g>
<g style="fill:#840000; fill-opacity:1.0; 
stroke:#840000; stroke-width:0; stroke-opacity:1; 
stroke-linecap:round; stroke-linejoin:round;">
<polyline style="fill-rule:evenodd;"
points="6984,13023
6984,13220
6748,13220
6748,13023
6984,13023
" /> 
<polyline style="fill-rule:evenodd;"
points="6551,13023
6551,13220
6314,13220
6314,13023
6551,13023
" /> 
<polyline style="fill-rule:evenodd;"
points="8918,8255
9509,8255
9509,8648
8918,8648
8918,8255
" /> 
<polyline style="fill-rule:evenodd;"
points="6989,8255
7580,8255
7580,8648
6989,8648
6989,8255
" /> 
<polyline style="fill-rule:evenodd;"
points="8918,6995
9509,6995
9509,7388
8918,7388
8918,6995
" /> 
<polyline style="fill-rule:evenodd;"
points="6989,6995
7580,6995
7580,7388
6989,7388
6989,6995
" /> 
<polyline style="fill-rule:evenodd;"
points="11718,9555
12309,9555
12309,9948
11718,9948
11718,9555
" /> 
<polyline style="fill-rule:evenodd;"
points="9789,9555
10380,9555
10380,9948
9789,9948
9789,9555
" /> 
<polyline style="fill-rule:evenodd;"
points="11718,8295
12309,8295
12309,8688
11718,8688
11718,8295
" /> 
<polyline style="fill-rule:evenodd;"
points="9789,8295
10380,8295
10380,8688
9789,8688
9789,8295
" /> 
<polyline style="fill-rule:evenodd;"
points="11718,6955
12309,6955
12309,7348
11718,7348
11718,6955
" /> 
<polyline style="fill-rule:evenodd;"
points="9789,6955
10380,6955
10380,7348
9789,7348
9789,6955
" /> 
<polyline style="fill-rule:evenodd;"
points="11718,5695
12309,5695
12309,6088
11718,6088
11718,5695
" /> 
<polyline style="fill-rule:evenodd;"
points="9789,5695
10380,5695
10380,6088
9789,6088
9789,5695
" /> 
</g>
<g style="fill:#840000; fill-opacity:1.0; 
stroke:#840000; stroke-width:593; stroke-opacity:1; 
stroke-linecap:round; stroke-linejoin:round;">
</g>
<g style="fill:#840000; fill-opacity:0.0; 
stroke:#840000; stroke-width:593; stroke-opacity:1; 
stroke-linecap:round; stroke-linejoin:round;">
<path d="M7649 15019
L7649 14425
" />
<path d="M6649 15019
L6649 14425
" />
</g>
<g style="fill:#840000; fill-opacity:0.0; 
stroke:#840000; stroke-width:0; stroke-opacity:1; 
stroke-linecap:round; stroke-linejoin:round;">
</g>
<g style="fill:#840000; fill-opacity:1.0; 
stroke:#840000; stroke-width:0; stroke-opacity:1; 
stroke-linecap:round; stroke-linejoin:round;">
<polyline style="fill-rule:evenodd;"
points="7905,13003
7905,13240
7748,13240
7748,13003
7905,13003
" /> 
<polyline style="fill-rule:evenodd;"
points="7551,13003
7551,13240
7393,13240
7393,13003
7551,13003
" /> 
<polyline style="fill-rule:evenodd;"
points="9184,9623
9184,9820
8948,9820
8948,9623
9184,9623
" /> 
<polyline style="fill-rule:evenodd;"
points="8751,9623
8751,9820
8514,9820
8514,9623
8751,9623
" /> 
<polyline style="fill-rule:evenodd;"
points="6705,8403
6705,8640
6548,8640
6548,8403
6705,8403
" /> 
<polyline style="fill-rule:evenodd;"
points="6351,8403
6351,8640
6193,8640
6193,8403
6351,8403
" /> 
<polyline style="fill-rule:evenodd;"
points="7015,9777
7684,9777
7684,10289
7015,10289
7015,9777
" /> 
<polyline style="fill-rule:evenodd;"
points="7015,11155
7684,11155
7684,11667
7015,11667
7015,11155
" /> 
</g>
<g style="fill:#840000; fill-opacity:1.0; 
stroke:#840000; stroke-width:593; stroke-opacity:1; 
stroke-linecap:round; stroke-linejoin:round;">
</g>
<g style="fill:#840000; fill-opacity:0.0; 
stroke:#840000; stroke-width:593; stroke-opacity:1; 
stroke-linecap:round; stroke-linejoin:round;">
<path d="M13049 4119
L13049 3525
" />
<path d="M12049 4119
L12049 3525
" />
<path d="M11049 4119
L11049 3525
" />
</g>
<g style="fill:#840000; fill-opacity:0.0; 
stroke:#840000; stroke-width:98.4252; stroke-opacity:1; 
stroke-linecap:round; stroke-linejoin:round;">
<path d="M13049 3822
L13049 4622
" />
<path d="M12549 6616
L12014 7151
" />
<path d="M12549 5122
L12549 6616
" />
<path d="M13049 4622
L12549 5122
" />
<path d="M9066 9722
L9066 9938
" />
<path d="M11444 10322
L12014 9751
" />
<path d="M9449 10322
L11444 10322
" />
<path d="M9066 9938
L9449 10322
" />
<path d="M9066 9722
L9066 10405
" />
<path d="M8060 11411
L7349 11411
" />
<path d="M9066 10405
L8060 11411
" />
<path d="M12014 7151
L12219 7151
" />
<path d="M12014 9751
L12119 9751
" />
<path d="M12119 9751
L12549 9322
" />
<path d="M12549 7687
L12014 7151
" />
<path d="M12549 9322
L12549 7687
" />
<path d="M7349 11411
L7460 11411
" />
<path d="M5242 12547
L6213 12547
" />
<path d="M6213 12547
L7349 11411
" />
<path d="M6272 8522
L5267 8522
" />
<path d="M5267 8522
L5242 8547
" />
<path d="M7826 13122
L10249 13122
" />
<path d="M10824 12547
L14242 12547
" />
<path d="M10249 13122
L10824 12547
" />
<path d="M7949 12322
L7472 12799
" />
<path d="M7472 12799
L7472 13122
" />
<path d="M14242 8547
L14024 8547
" />
<path d="M14024 8547
L13349 9222
" />
<path d="M13349 9222
L13349 11522
" />
<path d="M13349 11522
L12549 12322
" />
<path d="M12549 12322
L7949 12322
" />
<path d="M7472 13122
L7472 14544
" />
<path d="M7472 14544
L7649 14722
" />
<path d="M6866 13122
L7472 13122
" />
<path d="M5242 11547
L5424 11547
" />
<path d="M6649 14722
L6649 14122
" />
<path d="M6433 13905
L6433 13122
" />
<path d="M6649 14122
L6433 13905
" />
<path d="M7349 10033
L7438 10033
" />
<path d="M7438 10033
L8049 9422
" />
<path d="M8049 9422
L8049 9122
" />
<path d="M8049 9122
L8249 8922
" />
<path d="M8249 8922
L8744 8922
" />
<path d="M8744 8922
L9214 8451
" />
<path d="M9214 7192
L9214 7486
" />
<path d="M10649 9187
L10085 9751
" />
<path d="M10649 8122
L10649 9187
" />
<path d="M10449 7922
L10649 8122
" />
<path d="M9649 7922
L10449 7922
" />
<path d="M9214 7486
L9649 7922
" />
<path d="M10085 7151
L10679 7151
" />
<path d="M10679 7151
L12014 8486
" />
<path d="M12014 8486
L12014 8492
" />
<path d="M12049 3822
L12049 5856
" />
<path d="M12049 5856
L12014 5892
" />
<path d="M6626 8522
L7214 8522
" />
<path d="M7214 8522
L7285 8451
" />
<path d="M7189 8547
L7285 8451
" />
</g>
<g style="fill:#840000; fill-opacity:1.0; 
stroke:#840000; stroke-width:100; stroke-opacity:1; 
stroke-linecap:round; stroke-linejoin:round;">
<polyline style="fill-rule:evenodd;"
points="14453,3796
14456,3806
14496,4119
14497,4997
14485,4988
14254,4942
14230,4942
13999,4988
13803,5119
13672,5315
13626,5547
13672,5778
13803,5974
13912,6047
13803,6119
13672,6315
13626,6547
13672,6778
13803,6974
13912,7047
13803,7119
13672,7315
13626,7547
13672,7778
13803,7974
13912,8047
13803,8119
13672,8315
13632,8515
13138,9010
13073,9107
13050,9222
13050,11398
12425,12022
7949,12022
7835,12045
7738,12110
7260,12587
7196,12684
7173,12799
7173,12822
7133,12822
7083,12788
6984,12768
6748,12768
6655,12786
6645,12792
6600,12773
6545,12773
6483,12836
6483,13072
6490,13072
6490,13171
6483,13171
6483,13407
6545,13470
6600,13470
6644,13452
6648,13455
6748,13475
6984,13475
7076,13457
7133,13421
7173,13421
7173,14156
7144,14199
7144,14200
7135,14169
7000,14003
6812,13901
6784,13895
6699,13943
6699,14672
6707,14672
6707,14772
6699,14772
6699,15500
6784,15548
6812,15543
7000,15440
7135,15274
7144,15243
7144,15244
7263,15422
7440,15540
7649,15582
7858,15540
7979,15459
7970,15504
7960,15555
7960,15555
7960,15555
7960,15758
4925,15749
4926,14772
6103,14772
6103,15069
6163,15274
6298,15440
6486,15543
6515,15548
6599,15500
6599,14772
6103,14772
4926,14772
4926,14375
6103,14375
6103,14672
6599,14672
6599,13943
6515,13895
6486,13901
6298,14003
6163,14169
6103,14375
4926,14375
4926,13233
6064,13233
6064,13270
6103,13362
6173,13432
6265,13470
6320,13470
6383,13407
6383,13171
6127,13171
6064,13233
4926,13233
4926,13156
5596,13156
5689,13139
5774,13084
5831,13000
5851,12901
5851,12846
6138,12846
6103,12882
6064,12973
6064,13010
6127,13072
6383,13072
6383,12836
6353,12806
6424,12758
7261,11921
7684,11921
7776,11904
7861,11849
7918,11766
7930,11710
8060,11710
8175,11687
8272,11622
9277,10617
9304,10577
9335,10598
9449,10621
11444,10621
11558,10598
11655,10533
11985,10203
12309,10203
12402,10186
12487,10131
12544,10047
12564,9948
12564,9730
12761,9533
12826,9436
12848,9322
12848,7687
12826,7572
12826,7572
12761,7475
12564,7278
12564,7024
12761,6828
12826,6731
12832,6700
12848,6616
12848,5245
13261,4833
13326,4736
13348,4622
13348,4580
13436,4522
13554,4344
13596,4135
13596,3508
13554,3299
13436,3122
13258,3003
13049,2962
12840,3003
12663,3122
12549,3292
12436,3122
12258,3003
12049,2962
11840,3003
11663,3122
11544,3299
11544,3300
11535,3269
11400,3103
11212,3001
11184,2995
11099,3043
11099,3772
11107,3772
11107,3872
11099,3872
11099,4600
11184,4648
11212,4643
11400,4540
11535,4374
11544,4343
11544,4344
11663,4522
11750,4580
11750,5440
11718,5440
11626,5457
11541,5512
11484,5596
11463,5695
11463,6088
11481,6181
11536,6266
11619,6323
11718,6343
12250,6343
12250,6492
12042,6700
11718,6700
11626,6717
11541,6772
11484,6855
11463,6955
11463,7348
11481,7441
11536,7526
11619,7583
11718,7603
12042,7603
12250,7811
12250,8040
11991,8040
10891,6940
10794,6875
10679,6852
10611,6852
10563,6777
10479,6720
10380,6700
9789,6700
9697,6717
9619,6767
9608,6760
9509,6740
8918,6740
8826,6757
8741,6812
8684,6896
8663,6995
8663,7388
8681,7481
8736,7566
8819,7623
8918,7643
8966,7643
9002,7698
9304,8000
8918,8000
8826,8017
8741,8072
8684,8155
8663,8255
8663,8578
8620,8622
8249,8622
8135,8645
8056,8698
8038,8710
7838,8910
7773,9007
7750,9122
7750,9298
7526,9522
7015,9522
6922,9539
6837,9594
6780,9677
6760,9777
6760,10289
6777,10381
6832,10466
6915,10523
7015,10543
7684,10543
7776,10526
7861,10471
7918,10388
7939,10289
7939,9955
8061,9833
8264,9833
8264,9870
8303,9962
8373,10032
8465,10070
8520,10070
8583,10007
8583,9771
8327,9771
8264,9833
8061,9833
8261,9633
8272,9617
8327,9672
8583,9672
8583,9436
8520,9373
8465,9373
8373,9411
8345,9439
8348,9422
8348,9245
8373,9221
8744,9221
8858,9198
8955,9133
9185,8903
9509,8903
9602,8886
9621,8873
9648,8900
9740,8938
9972,8938
10035,8876
10035,8542
10027,8542
10027,8442
10035,8442
10035,8434
10135,8434
10135,8442
10142,8442
10142,8542
10135,8542
10135,8876
10197,8938
10350,8938
10350,9063
10113,9300
9789,9300
9697,9317
9612,9372
9554,9455
9534,9555
9534,9948
9543,9992
9427,9876
9439,9820
9439,9623
9421,9530
9366,9445
9283,9388
9184,9368
8948,9368
8855,9386
8845,9392
8800,9373
8745,9373
8683,9436
8683,9672
8690,9672
8690,9771
8683,9771
8683,10007
8745,10070
8766,10070
8766,10281
7936,11111
7930,11111
7921,11062
7866,10977
7783,10920
7684,10900
7015,10900
6922,10917
6837,10972
6780,11055
6760,11155
6760,11577
6089,12248
5851,12248
5851,12192
5834,12100
5779,12015
5696,11958
5674,11953
5759,11860
5829,11690
5782,11597
5292,11597
5292,11605
5192,11605
5192,11597
5184,11597
5184,11497
5192,11497
5192,11489
5292,11489
5292,11497
5782,11497
5829,11403
5759,11233
5599,11059
5572,11047
5681,10974
5812,10778
5858,10547
5812,10315
5681,10119
5572,10047
5681,9974
5812,9778
5858,9547
5812,9315
5681,9119
5572,9047
5681,8974
5784,8821
6015,8821
6094,8874
6193,8895
6351,8895
6443,8877
6448,8874
6448,8874
6548,8895
6705,8895
6798,8877
6841,8849
6890,8883
6989,8903
7580,8903
7672,8886
7758,8831
7815,8747
7835,8648
7835,8255
7817,8162
7763,8077
7679,8020
7580,8000
6989,8000
6897,8017
6812,8072
6754,8155
6754,8158
6705,8149
6548,8149
6455,8166
6450,8169
6450,8169
6351,8149
6193,8149
6101,8166
6015,8221
6014,8222
5750,8222
5681,8119
5572,8047
5681,7974
5812,7778
5858,7547
5812,7315
5805,7304
6739,7304
6739,7438
6777,7530
6848,7600
6940,7638
7172,7638
7235,7576
7235,7242
7335,7242
7335,7576
7397,7638
7630,7638
7721,7600
7792,7530
7830,7438
7830,7304
7767,7242
7335,7242
7235,7242
6802,7242
6739,7304
5805,7304
5681,7119
5572,7047
5681,6974
5701,6945
6739,6945
6739,7079
6802,7142
7235,7142
7235,6807
7335,6807
7335,7142
7767,7142
7830,7079
7830,6945
7792,6853
7721,6783
7630,6745
7397,6745
7335,6807
7235,6807
7172,6745
6940,6745
6848,6783
6777,6853
6739,6945
5701,6945
5812,6778
5858,6547
5812,6315
5681,6119
5572,6047
5636,6004
9539,6004
9539,6138
9577,6230
9648,6300
9740,6338
9972,6338
10035,6276
10035,5942
10135,5942
10135,6276
10197,6338
10430,6338
10521,6300
10592,6230
10630,6138
10630,6004
10567,5942
10135,5942
10035,5942
9602,5942
9539,6004
5636,6004
5681,5974
5812,5778
5839,5645
9539,5645
9539,5779
9602,5842
10035,5842
10035,5507
10135,5507
10135,5842
10567,5842
10630,5779
10630,5645
10592,5553
10521,5483
10430,5445
10197,5445
10135,5507
10035,5507
9972,5445
9740,5445
9648,5483
9577,5553
9539,5645
5839,5645
5858,5547
5812,5315
5681,5119
5485,4988
5254,4942
5230,4942
4999,4988
4930,5034
4930,3872
10503,3872
10503,4169
10563,4374
10698,4540
10886,4643
10915,4648
10999,4600
10999,3872
10503,3872
4930,3872
4930,3811
5267,3475
10503,3475
10503,3772
10999,3772
10999,3043
10915,2995
10886,3001
10698,3103
10563,3269
10503,3475
5267,3475
5959,2782
5993,2772
13428,2772
14453,3796
" /> 
</g>
<g style="fill:#FFFFFF; fill-opacity:1.0; 
stroke:#FFFFFF; stroke-width:100; stroke-opacity:1; 
stroke-linecap:round; stroke-linejoin:round;">
</g>
<g style="fill:#FFFFFF; fill-opacity:1.0; 
stroke:#FFFFFF; stroke-width:0; stroke-opacity:1; 
stroke-linecap:round; stroke-linejoin:round;">
<circle cx="5242.52" cy="12547.2" r="200" /> 
</g>
<g style="fill:#FFFFFF; fill-opacity:1.0; 
stroke:#FFFFFF; stroke-width:39.3701; stroke-opacity:1; 
stroke-linecap:round; stroke-linejoin:round;">
</g>
<g style="fill:#FFFFFF; fill-opacity:1.0; 
stroke:#FFFFFF; stroke-width:0; stroke-opacity:1; 
stroke-linecap:round; stroke-linejoin:round;">
<circle cx="5242.52" cy="11547.2" r="200" /> 
</g>
<g style="fill:#FFFFFF; fill-opacity:1.0; 
stroke:#FFFFFF; stroke-width:39.3701; stroke-opacity:1; 
stroke-linecap:round; stroke-linejoin:round;">
</g>
<g style="fill:#FFFFFF; fill-opacity:1.0; 
stroke:#FFFFFF; stroke-width:0; stroke-opacity:1; 
stroke-linecap:round; stroke-linejoin:round;">
<circle cx="5242.52" cy="10547.2" r="200" /> 
</g>
<g style="fill:#FFFFFF; fill-opacity:1.0; 
stroke:#FFFFFF; stroke-width:39.3701; stroke-opacity:1; 
stroke-linecap:round; stroke-linejoin:round;">
</g>
<g style="fill:#FFFFFF; fill-opacity:1.0; 
stroke:#FFFFFF; stroke-width:0; stroke-opacity:1; 
stroke-linecap:round; stroke-linejoin:round;">
<circle cx="5242.52" cy="9547.24" r="200" /> 
</g>
<g style="fill:#FFFFFF; fill-opacity:1.0; 
stroke:#FFFFFF; stroke-width:39.3701; stroke-opacity:1; 
stroke-linecap:round; stroke-linejoin:round;">
</g>
<g style="fill:#FFFFFF; fill-opacity:1.0; 
stroke:#FFFFFF; stroke-width:0; stroke-opacity:1; 
stroke-linecap:round; stroke-linejoin:round;">
<circle cx="5242.52" cy="8547.24" r="200" /> 
</g>
<g style="fill:#FFFFFF; fill-opacity:1.0; 
stroke:#FFFFFF; stroke-width:39.3701; stroke-opacity:1; 
stroke-linecap:round; stroke-linejoin:round;">
</g>
<g style="fill:#FFFFFF; fill-opacity:1.0; 
stroke:#FFFFFF; stroke-width:0; stroke-opacity:1; 
stroke-linecap:round; stroke-linejoin:round;">
<circle cx="5242.52" cy="7547.24" r="200" /> 
</g>
<g style="fill:#FFFFFF; fill-opacity:1.0; 
stroke:#FFFFFF; stroke-width:39.3701; stroke-opacity:1; 
stroke-linecap:round; stroke-linejoin:round;">
</g>
<g style="fill:#FFFFFF; fill-opacity:1.0; 
stroke:#FFFFFF; stroke-width:0; stroke-opacity:1; 
stroke-linecap:round; stroke-linejoin:round;">
<circle cx="5242.52" cy="6547.24" r="200" /> 
</g>
<g style="fill:#FFFFFF; fill-opacity:1.0; 
stroke:#FFFFFF; stroke-width:39.3701; stroke-opacity:1; 
stroke-linecap:round; stroke-linejoin:round;">
</g>
<g style="fill:#FFFFFF; fill-opacity:1.0; 
stroke:#FFFFFF; stroke-width:0; stroke-opacity:1; 
stroke-linecap:round; stroke-linejoin:round;">
<circle cx="5242.52" cy="5547.24" r="200" /> 
</g>
<g style="fill:#FFFFFF; fill-opacity:1.0; 
stroke:#FFFFFF; stroke-width:39.3701; stroke-opacity:1; 
stroke-linecap:round; stroke-linejoin:round;">
</g>
<g style="fill:#FFFFFF; fill-opacity:1.0; 
stroke:#FFFFFF; stroke-width:0; stroke-opacity:1; 
stroke-linecap:round; stroke-linejoin:round;">
<circle cx="14242.5" cy="12547.2" r="200" /> 
</g>
<g style="fill:#FFFFFF; fill-opacity:1.0; 
stroke:#FFFFFF; stroke-width:39.3701; stroke-opacity:1; 
stroke-linecap:round; stroke-linejoin:round;">
</g>
<g style="fill:#FFFFFF; fill-opacity:1.0; 
stroke:#FFFFFF; stroke-width:0; stroke-opacity:1; 
stroke-linecap:round; stroke-linejoin:round;">
<circle cx="14242.5" cy="11547.2" r="200" /> 
</g>
<g style="fill:#FFFFFF; fill-opacity:1.0; 
stroke:#FFFFFF; stroke-width:39.3701; stroke-opacity:1; 
stroke-linecap:round; stroke-linejoin:round;">
</g>
<g style="fill:#FFFFFF; fill-opacity:1.0; 
stroke:#FFFFFF; stroke-width:0; stroke-opacity:1; 
stroke-linecap:round; stroke-linejoin:round;">
<circle cx="14242.5" cy="10547.2" r="200" /> 
</g>
<g style="fill:#FFFFFF; fill-opacity:1.0; 
stroke:#FFFFFF; stroke-width:39.3701; stroke-opacity:1; 
stroke-linecap:round; stroke-linejoin:round;">
</g>
<g style="fill:#FFFFFF; fill-opacity:1.0; 
stroke:#FFFFFF; stroke-width:0; stroke-opacity:1; 
stroke-linecap:round; stroke-linejoin:round;">
<circle cx="14242.5" cy="9547.24" r="200" /> 
</g>
<g style="fill:#FFFFFF; fill-opacity:1.0; 
stroke:#FFFFFF; stroke-width:39.3701; stroke-opacity:1; 
stroke-linecap:round; stroke-linejoin:round;">
</g>
<g style="fill:#FFFFFF; fill-opacity:1.0; 
stroke:#FFFFFF; stroke-width:0; stroke-opacity:1; 
stroke-linecap:round; stroke-linejoin:round;">
<circle cx="14242.5" cy="8547.24" r="200" /> 
</g>
<g style="fill:#FFFFFF; fill-opacity:1.0; 
stroke:#FFFFFF; stroke-width:39.3701; stroke-opacity:1; 
stroke-linecap:round; stroke-linejoin:round;">
</g>
<g style="fill:#FFFFFF; fill-opacity:1.0; 
stroke:#FFFFFF; stroke-width:0; stroke-opacity:1; 
stroke-linecap:round; stroke-linejoin:round;">
<circle cx="14242.5" cy="7547.24" r="200" /> 
</g>
<g style="fill:#FFFFFF; fill-opacity:1.0; 
stroke:#FFFFFF; stroke-width:39.3701; stroke-opacity:1; 
stroke-linecap:round; stroke-linejoin:round;">
</g>
<g style="fill:#FFFFFF; fill-opacity:1.0; 
stroke:#FFFFFF; stroke-width:0; stroke-opacity:1; 
stroke-linecap:round; stroke-linejoin:round;">
<circle cx="14242.5" cy="6547.24" r="200" /> 
</g>
<g style="fill:#FFFFFF; fill-opacity:1.0; 
stroke:#FFFFFF; stroke-width:39.3701; stroke-opacity:1; 
stroke-linecap:round; stroke-linejoin:round;">
</g>
<g style="fill:#FFFFFF; fill-opacity:1.0; 
stroke:#FFFFFF; stroke-width:0; stroke-opacity:1; 
stroke-linecap:round; stroke-linejoin:round;">
<circle cx="14242.5" cy="5547.24" r="200" /> 
</g>
<g style="fill:#FFFFFF; fill-opacity:1.0; 
stroke:#FFFFFF; stroke-width:39.3701; stroke-opacity:1; 
stroke-linecap:round; stroke-linejoin:round;">
</g>
<g style="fill:#FFFFFF; fill-opacity:1.0; 
stroke:#FFFFFF; stroke-width:0; stroke-opacity:1; 
stroke-linecap:round; stroke-linejoin:round;">
<circle cx="7649.61" cy="14722" r="196.5" /> 
</g>
<g style="fill:#FFFFFF; fill-opacity:1.0; 
stroke:#FFFFFF; stroke-width:39.3701; stroke-opacity:1; 
stroke-linecap:round; stroke-linejoin:round;">
</g>
<g style="fill:#FFFFFF; fill-opacity:1.0; 
stroke:#FFFFFF; stroke-width:0; stroke-opacity:1; 
stroke-linecap:round; stroke-linejoin:round;">
<circle cx="6649.61" cy="14722" r="196.5" /> 
</g>
<g style="fill:#FFFFFF; fill-opacity:1.0; 
stroke:#FFFFFF; stroke-width:39.3701; stroke-opacity:1; 
stroke-linecap:round; stroke-linejoin:round;">
</g>
<g style="fill:#FFFFFF; fill-opacity:1.0; 
stroke:#FFFFFF; stroke-width:0; stroke-opacity:1; 
stroke-linecap:round; stroke-linejoin:round;">
<circle cx="13049.6" cy="3822.05" r="196.5" /> 
</g>
<g style="fill:#FFFFFF; fill-opacity:1.0; 
stroke:#FFFFFF; stroke-width:39.3701; stroke-opacity:1; 
stroke-linecap:round; stroke-linejoin:round;">
</g>
<g style="fill:#FFFFFF; fill-opacity:1.0; 
stroke:#FFFFFF; stroke-width:0; stroke-opacity:1; 
stroke-linecap:round; stroke-linejoin:round;">
<circle cx="12049.6" cy="3822.05" r="196.5" /> 
</g>
<g style="fill:#FFFFFF; fill-opacity:1.0; 
stroke:#FFFFFF; stroke-width:39.3701; stroke-opacity:1; 
stroke-linecap:round; stroke-linejoin:round;">
</g>
<g style="fill:#FFFFFF; fill-opacity:1.0; 
stroke:#FFFFFF; stroke-width:0; stroke-opacity:1; 
stroke-linecap:round; stroke-linejoin:round;">
<circle cx="11049.6" cy="3822.05" r="196.5" /> 
</g>
<g style="fill:#FFFFFF; fill-opacity:1.0; 
stroke:#FFFFFF; stroke-width:39.3701; stroke-opacity:1; 
stroke-linecap:round; stroke-linejoin:round;">
</g>
<g style="fill:#000000; fill-opacity:1.0; 
stroke:#000000; stroke-width:39.3701; stroke-opacity:1; 
stroke-linecap:round; stroke-linejoin:round;">
</g>
<g style="fill:#008484; fill-opacity:1.0; 
stroke:#008484; stroke-width:39.3701; stroke-opacity:1; 
stroke-linecap:round; stroke-linejoin:round;">
</g>
<g style="fill:#008484; fill-opacity:0.0; 
stroke:#008484; stroke-width:39.3701; stroke-opacity:1; 
stroke-linecap:round; stroke-linejoin:round;">
</g>
<g style="fill:#008484; fill-opacity:0.0; 
stroke:#008484; stroke-width:118.11; stroke-opacity:1; 
stroke-linecap:round; stroke-linejoin:round;">
<path d="M13624 3764
L14074 3764
" />
<path d="M13849 3989
L13849 3539
" />
<path d="M7174 3498
L7512 3498
" />
<path d="M7343 4089
L7343 3498
" />
<path d="M7709 4089
L7709 3695
" />
<path d="M7709 3807
L7737 3751
L7765 3723
L7821 3695
L7877 3695
" />
<path d="M8299 4061
L8243 4089
L8130 4089
L8074 4061
L8046 4004
L8046 3779
L8074 3723
L8130 3695
L8243 3695
L8299 3723
L8327 3779
L8327 3836
L8046 3892
" />
<path d="M8580 3695
L8580 4089
" />
<path d="M8580 3751
L8608 3723
L8665 3695
L8749 3695
L8805 3723
L8833 3779
L8833 4089
" />
<path d="M9368 4089
L9368 3498
" />
<path d="M9368 4061
L9312 4089
L9199 4089
L9143 4061
L9115 4032
L9087 3976
L9087 3807
L9115 3751
L9143 3723
L9199 3695
L9312 3695
L9368 3723
" />
<path d="M9874 4061
L9818 4089
L9705 4089
L9649 4061
L9621 4004
L9621 3779
L9649 3723
L9705 3695
L9818 3695
L9874 3723
L9902 3779
L9902 3836
L9621 3892
" />
<path d="M10155 4089
L10155 3695
" />
<path d="M10155 3807
L10183 3751
L10211 3723
L10268 3695
L10324 3695
" />
</g>
<g style="fill:#008484; fill-opacity:0.0; 
stroke:#008484; stroke-width:98.4252; stroke-opacity:1; 
stroke-linecap:round; stroke-linejoin:round;">
<path d="M6896 4837
L6896 5100
" />
<path d="M6728 4837
L6728 5043
L6746 5081
L6784 5100
L6840 5100
L6878 5081
L6896 5062
" />
<path d="M7084 5062
L7103 5081
L7084 5100
L7065 5081
L7084 5062
L7084 5100
" />
<path d="M7440 5100
L7440 4706
" />
<path d="M7440 5081
L7402 5100
L7328 5100
L7290 5081
L7271 5062
L7253 5025
L7253 4912
L7271 4875
L7290 4856
L7328 4837
L7402 4837
L7440 4856
" />
<path d="M7627 5100
L7627 4837
" />
<path d="M7627 4706
L7609 4725
L7627 4743
L7646 4725
L7627 4706
L7627 4743
" />
<path d="M7815 4837
L7815 5100
" />
<path d="M7815 4875
L7834 4856
L7871 4837
L7927 4837
L7965 4856
L7984 4893
L7984 5100
" />
<path d="M8340 5100
L8340 4893
L8321 4856
L8284 4837
L8209 4837
L8171 4856
" />
<path d="M8340 5081
L8302 5100
L8209 5100
L8171 5081
L8152 5043
L8152 5006
L8171 4968
L8209 4950
L8302 4950
L8340 4931
" />
<path d="M8509 5081
L8546 5100
L8621 5100
L8659 5081
L8677 5043
L8677 5025
L8659 4987
L8621 4968
L8565 4968
L8527 4950
L8509 4912
L8509 4893
L8527 4856
L8565 4837
L8621 4837
L8659 4856
" />
<path d="M8846 5100
L8846 4706
" />
<path d="M8884 4950
L8996 5100
" />
<path d="M8996 4837
L8846 4987
" />
<path d="M9165 5062
L9184 5081
L9165 5100
L9146 5081
L9165 5062
L9165 5100
" />
<path d="M9502 5081
L9465 5100
L9390 5100
L9352 5081
L9334 5043
L9334 4893
L9352 4856
L9390 4837
L9465 4837
L9502 4856
L9521 4893
L9521 4931
L9334 4968
" />
<path d="M9858 4837
L9858 5100
" />
<path d="M9690 4837
L9690 5043
L9708 5081
L9746 5100
L9802 5100
L9840 5081
L9858 5062
" />
<path d="M10327 4687
L9990 5193
" />
<path d="M10402 4837
L10552 4837
" />
<path d="M10458 4706
L10458 5043
L10477 5081
L10515 5100
L10552 5100
" />
<path d="M10683 5100
L10683 4837
" />
<path d="M10683 4912
L10702 4875
L10721 4856
L10758 4837
L10796 4837
" />
<path d="M11077 5081
L11040 5100
L10965 5100
L10927 5081
L10908 5043
L10908 4893
L10927 4856
L10965 4837
L11040 4837
L11077 4856
L11096 4893
L11096 4931
L10908 4968
" />
<path d="M11265 4837
L11265 5100
" />
<path d="M11265 4875
L11283 4856
L11321 4837
L11377 4837
L11414 4856
L11433 4893
L11433 5100
" />
<path d="M11789 5100
L11789 4706
" />
<path d="M11789 5081
L11752 5100
L11677 5100
L11639 5081
L11621 5062
L11602 5025
L11602 4912
L11621 4875
L11639 4856
L11677 4837
L11752 4837
L11789 4856
" />
<path d="M12127 5081
L12089 5100
L12014 5100
L11977 5081
L11958 5043
L11958 4893
L11977 4856
L12014 4837
L12089 4837
L12127 4856
L12146 4893
L12146 4931
L11958 4968
" />
<path d="M12314 5100
L12314 4837
" />
<path d="M12314 4912
L12333 4875
L12352 4856
L12389 4837
L12427 4837
" />
</g>
<g style="fill:#008484; fill-opacity:0.0; 
stroke:#008484; stroke-width:118.11; stroke-opacity:1; 
stroke-linecap:round; stroke-linejoin:round;">
<path d="M12856 5786
L12659 5505
" />
<path d="M12518 5786
L12518 5196
L12743 5196
L12799 5224
L12828 5252
L12856 5308
L12856 5393
L12828 5449
L12799 5477
L12743 5505
L12518 5505
" />
<path d="M13081 5758
L13137 5786
L13249 5786
L13306 5758
L13334 5702
L13334 5674
L13306 5618
L13249 5589
L13165 5589
L13109 5561
L13081 5505
L13081 5477
L13109 5421
L13165 5393
L13249 5393
L13306 5421
" />
<path d="M13502 5393
L13727 5393
" />
<path d="M13587 5196
L13587 5702
L13615 5758
L13671 5786
L13727 5786
" />
<path d="M12816 6641
L13097 6641
" />
<path d="M12760 6810
L12957 6219
L13154 6810
" />
<path d="M13463 6219
L13519 6219
L13576 6248
L13604 6276
L13632 6332
L13660 6444
L13660 6585
L13632 6697
L13604 6754
L13576 6782
L13519 6810
L13463 6810
L13407 6782
L13379 6754
L13351 6697
L13322 6585
L13322 6444
L13351 6332
L13379 6276
L13407 6248
L13463 6219
" />
<path d="M12802 7834
L12802 7243
L12943 7243
L13027 7271
L13083 7327
L13112 7384
L13140 7496
L13140 7580
L13112 7693
L13083 7749
L13027 7805
L12943 7834
L12802 7834
" />
<path d="M13505 7243
L13561 7243
L13618 7271
L13646 7299
L13674 7356
L13702 7468
L13702 7609
L13674 7721
L13646 7777
L13618 7805
L13561 7834
L13505 7834
L13449 7805
L13421 7777
L13393 7721
L13365 7609
L13365 7468
L13393 7356
L13421 7299
L13449 7271
L13505 7243
" />
<path d="M12802 8857
L12802 8267
L12943 8267
L13027 8295
L13083 8351
L13112 8407
L13140 8520
L13140 8604
L13112 8717
L13083 8773
L13027 8829
L12943 8857
L12802 8857
" />
<path d="M13674 8267
L13393 8267
L13365 8548
L13393 8520
L13449 8492
L13590 8492
L13646 8520
L13674 8548
L13702 8604
L13702 8745
L13674 8801
L13646 8829
L13590 8857
L13449 8857
L13393 8829
L13365 8801
" />
<path d="M12802 9841
L12802 9251
L12943 9251
L13027 9279
L13083 9335
L13112 9392
L13140 9504
L13140 9588
L13112 9701
L13083 9757
L13027 9813
L12943 9841
L12802 9841
" />
<path d="M13646 9251
L13533 9251
L13477 9279
L13449 9307
L13393 9392
L13365 9504
L13365 9729
L13393 9785
L13421 9813
L13477 9841
L13590 9841
L13646 9813
L13674 9785
L13702 9729
L13702 9588
L13674 9532
L13646 9504
L13590 9476
L13477 9476
L13421 9504
L13393 9532
L13365 9588
" />
<path d="M12802 10786
L12802 10196
L12943 10196
L13027 10224
L13083 10280
L13112 10336
L13140 10449
L13140 10533
L13112 10646
L13083 10702
L13027 10758
L12943 10786
L12802 10786
" />
<path d="M13337 10196
L13730 10196
L13477 10786
" />
<path d="M12802 11810
L12802 11219
L12943 11219
L13027 11248
L13083 11304
L13112 11360
L13140 11473
L13140 11557
L13112 11669
L13083 11726
L13027 11782
L12943 11810
L12802 11810
" />
<path d="M13477 11473
L13421 11444
L13393 11416
L13365 11360
L13365 11332
L13393 11276
L13421 11248
L13477 11219
L13590 11219
L13646 11248
L13674 11276
L13702 11332
L13702 11360
L13674 11416
L13646 11444
L13590 11473
L13477 11473
L13421 11501
L13393 11529
L13365 11585
L13365 11697
L13393 11754
L13421 11782
L13477 11810
L13590 11810
L13646 11782
L13674 11754
L13702 11697
L13702 11585
L13674 11529
L13646 11501
L13590 11473
" />
<path d="M12231 12204
L12597 12204
L12400 12429
L12484 12429
L12541 12457
L12569 12485
L12597 12541
L12597 12682
L12569 12738
L12541 12766
L12484 12794
L12316 12794
L12259 12766
L12231 12738
" />
<path d="M12766 12204
L12962 12794
L13159 12204
" />
<path d="M13300 12204
L13666 12204
L13469 12429
L13553 12429
L13609 12457
L13637 12485
L13666 12541
L13666 12682
L13637 12738
L13609 12766
L13553 12794
L13384 12794
L13328 12766
L13300 12738
" />
<path d="M5702 5235
L6039 5235
" />
<path d="M5870 5826
L5870 5235
" />
<path d="M6180 5235
L6573 5826
" />
<path d="M6573 5235
L6180 5826
" />
<path d="M6132 6849
L5935 6568
" />
<path d="M5794 6849
L5794 6259
L6019 6259
L6076 6287
L6104 6315
L6132 6371
L6132 6456
L6104 6512
L6076 6540
L6019 6568
L5794 6568
" />
<path d="M6329 6259
L6722 6849
" />
<path d="M6722 6259
L6329 6849
" />
<path d="M5794 7794
L5794 7204
L5935 7204
L6019 7232
L6076 7288
L6104 7344
L6132 7457
L6132 7541
L6104 7654
L6076 7710
L6019 7766
L5935 7794
L5794 7794
" />
<path d="M6694 7794
L6357 7794
" />
<path d="M6525 7794
L6525 7204
L6469 7288
L6413 7344
L6357 7372
" />
<path d="M5794 8818
L5794 8227
L5935 8227
L6019 8255
L6076 8312
L6104 8368
L6132 8480
L6132 8565
L6104 8677
L6076 8733
L6019 8790
L5935 8818
L5794 8818
" />
<path d="M6357 8284
L6385 8255
L6441 8227
L6582 8227
L6638 8255
L6666 8284
L6694 8340
L6694 8396
L6666 8480
L6329 8818
L6694 8818
" />
<path d="M5794 9841
L5794 9251
L5935 9251
L6019 9279
L6076 9335
L6104 9392
L6132 9504
L6132 9588
L6104 9701
L6076 9757
L6019 9813
L5935 9841
L5794 9841
" />
<path d="M6329 9251
L6694 9251
L6497 9476
L6582 9476
L6638 9504
L6666 9532
L6694 9588
L6694 9729
L6666 9785
L6638 9813
L6582 9841
L6413 9841
L6357 9813
L6329 9785
" />
<path d="M5794 10865
L5794 10275
L5935 10275
L6019 10303
L6076 10359
L6104 10415
L6132 10528
L6132 10612
L6104 10724
L6076 10781
L6019 10837
L5935 10865
L5794 10865
" />
<path d="M6638 10471
L6638 10865
" />
<path d="M6497 10246
L6357 10668
L6722 10668
" />
<path d="M6149 11287
L6092 11259
L6008 11259
L5924 11287
L5867 11343
L5839 11399
L5811 11512
L5811 11596
L5839 11709
L5867 11765
L5924 11821
L6008 11849
L6064 11849
L6149 11821
L6177 11793
L6177 11596
L6064 11596
" />
<path d="M6078 12243
L5797 12243
L5769 12524
L5797 12496
L5853 12468
L5994 12468
L6050 12496
L6078 12524
L6106 12580
L6106 12721
L6078 12777
L6050 12805
L5994 12834
L5853 12834
L5797 12805
L5769 12777
" />
<path d="M6275 12243
L6472 12834
L6669 12243
" />
</g>
<g style="fill:#008484; fill-opacity:0.0; 
stroke:#008484; stroke-width:59.0551; stroke-opacity:1; 
stroke-linecap:round; stroke-linejoin:round;">
<path d="M5096 4310
L4994 4531
" />
<path d="M4994 4531
L5206 4735
" />
<path d="M5206 4735
L5411 4629
" />
<path d="M5411 4629
L5521 4692
" />
<path d="M6088 4684
L6218 4609
" />
<path d="M6218 4609
L6391 4739
" />
<path d="M6391 4739
L6577 4546
" />
<path d="M6577 4546
L6466 4357
" />
<path d="M6466 4357
L6541 4172
" />
<path d="M6541 4172
L6781 4098
" />
<path d="M6781 4098
L6781 3830
" />
<path d="M6781 3830
L6561 3775
" />
<path d="M6561 3775
L6482 3550
" />
<path d="M6482 3550
L6588 3365
" />
<path d="M6588 3365
L6403 3164
" />
<path d="M6403 3164
L6199 3267
" />
<path d="M6199 3267
L6014 3188
" />
<path d="M6014 3188
L5947 2975
" />
<path d="M5947 2975
L5675 2968
" />
<path d="M5675 2968
L5592 3184
" />
<path d="M5592 3184
L5427 3251
" />
<path d="M5427 3251
L5210 3145
" />
<path d="M5210 3145
L5006 3353
" />
<path d="M5006 3353
L5104 3566
" />
<path d="M5104 3566
L5037 3755
" />
<path d="M5037 3755
L4821 3794
" />
<path d="M4821 3794
L4817 4070
" />
<path d="M4817 4070
L5037 4149
" />
<path d="M5037 4149
L5092 4306
" />
<path d="M5935 4298
L6053 4239
" />
<path d="M6053 4239
L6132 4161
" />
<path d="M6132 4161
L6191 4003
" />
<path d="M6191 4003
L6191 3846
" />
<path d="M6191 3846
L6132 3708
" />
<path d="M6132 3708
L5954 3570
" />
<path d="M5954 3570
L5777 3550
" />
<path d="M5777 3550
L5620 3590
" />
<path d="M5620 3590
L5462 3727
" />
<path d="M5462 3727
L5403 3905
" />
<path d="M5403 3905
L5423 4101
" />
<path d="M5423 4101
L5521 4220
" />
<path d="M5521 4220
L5659 4298
" />
<path d="M5659 4298
L5521 4692
" />
<path d="M5935 4298
L6092 4692
" />
<path d="M6551 13309
L6748 13309
" />
<path d="M6748 12935
L6551 12935
" />
<path d="M6149 15222
L8149 15222
" />
<path d="M6149 13472
L8149 13472
" />
<path d="M8149 15972
L6149 15972
" />
<path d="M8149 15972
L8149 13472
" />
<path d="M6149 15972
L6149 13472
" />
<path d="M7551 13328
L7748 13328
" />
<path d="M7748 12915
L7551 12915
" />
<path d="M8751 9909
L8948 9909
" />
<path d="M8948 9535
L8751 9535
" />
<path d="M6351 8728
L6548 8728
" />
<path d="M6548 8315
L6351 8315
" />
<path d="M7329 10564
L7684 10958
" />
<path d="M7684 10958
L7014 10958
" />
<path d="M7014 10958
L7349 10564
" />
<path d="M7684 10564
L7014 10564
" />
</g>
<g style="fill:#C2C200; fill-opacity:0.0; 
stroke:#C2C200; stroke-width:59.0551; stroke-opacity:1; 
stroke-linecap:round; stroke-linejoin:round;">
<path d="M6783 13862
L6765 13881
L6708 13900
L6671 13900
L6615 13881
L6577 13843
L6559 13806
L6540 13731
L6540 13675
L6559 13600
L6577 13562
L6615 13525
L6671 13506
L6708 13506
L6765 13525
L6783 13543
" />
<path d="M7158 13900
L6933 13900
" />
<path d="M7046 13900
L7046 13506
L7008 13562
L6971 13600
L6933 13618
" />
</g>
<g style="fill:#008484; fill-opacity:0.0; 
stroke:#008484; stroke-width:59.0551; stroke-opacity:1; 
stroke-linecap:round; stroke-linejoin:round;">
</g>
<g style="fill:#008484; fill-opacity:0.0; 
stroke:#008484; stroke-width:19.685; stroke-opacity:1; 
stroke-linecap:round; stroke-linejoin:round;">
<path d="M8063 6736
L8063 6484
L8123 6484
L8159 6496
L8183 6520
L8195 6544
L8207 6592
L8207 6628
L8195 6676
L8183 6700
L8159 6724
L8123 6736
L8063 6736
" />
<path d="M8447 6736
L8303 6736
" />
<path d="M8375 6736
L8375 6484
L8351 6520
L8327 6544
L8303 6556
" />
<path d="M10863 10536
L10863 10284
L10923 10284
L10959 10296
L10983 10320
L10995 10344
L11007 10392
L11007 10428
L10995 10476
L10983 10500
L10959 10524
L10923 10536
L10863 10536
" />
<path d="M11103 10308
L11115 10296
L11139 10284
L11199 10284
L11223 10296
L11235 10308
L11247 10332
L11247 10356
L11235 10392
L11091 10536
L11247 10536
" />
<path d="M9563 6636
L9563 6384
L9623 6384
L9659 6396
L9683 6420
L9695 6444
L9707 6492
L9707 6528
L9695 6576
L9683 6600
L9659 6624
L9623 6636
L9563 6636
" />
<path d="M9791 6384
L9947 6384
L9863 6480
L9899 6480
L9923 6492
L9935 6504
L9947 6528
L9947 6588
L9935 6612
L9923 6624
L9899 6636
L9827 6636
L9803 6624
L9791 6612
" />
</g>
<g style="fill:#C2C200; fill-opacity:0.0; 
stroke:#C2C200; stroke-width:19.685; stroke-opacity:1; 
stroke-linecap:round; stroke-linejoin:round;">
</g>
<g style="fill:#C2C200; fill-opacity:0.0; 
stroke:#C2C200; stroke-width:59.0551; stroke-opacity:1; 
stroke-linecap:round; stroke-linejoin:round;">
<path d="M6859 15800
L6859 15406
L7008 15406
L7046 15425
L7065 15443
L7083 15481
L7083 15537
L7065 15575
L7046 15593
L7008 15612
L6859 15612
" />
<path d="M7215 15406
L7458 15406
L7327 15556
L7383 15556
L7421 15575
L7440 15593
L7458 15631
L7458 15725
L7440 15762
L7421 15781
L7383 15800
L7271 15800
L7233 15781
L7215 15762
" />
<path d="M8383 13300
L8252 13112
" />
<path d="M8159 13300
L8159 12906
L8308 12906
L8346 12925
L8365 12943
L8383 12981
L8383 13037
L8365 13075
L8346 13093
L8308 13112
L8159 13112
" />
<path d="M8758 13300
L8533 13300
" />
<path d="M8646 13300
L8646 12906
L8608 12962
L8571 13000
L8533 13018
" />
<path d="M8783 10462
L8765 10481
L8708 10500
L8671 10500
L8615 10481
L8577 10443
L8559 10406
L8540 10331
L8540 10275
L8559 10200
L8577 10162
L8615 10125
L8671 10106
L8708 10106
L8765 10125
L8783 10143
" />
<path d="M8933 10143
L8952 10125
L8990 10106
L9083 10106
L9121 10125
L9140 10143
L9158 10181
L9158 10218
L9140 10275
L8915 10500
L9158 10500
" />
<path d="M6383 9408
L6252 9221
" />
<path d="M6159 9408
L6159 9015
L6308 9015
L6346 9033
L6365 9052
L6383 9090
L6383 9146
L6365 9183
L6346 9202
L6308 9221
L6159 9221
" />
<path d="M6533 9052
L6552 9033
L6590 9015
L6683 9015
L6721 9033
L6740 9052
L6758 9090
L6758 9127
L6740 9183
L6515 9408
L6758 9408
" />
<path d="M8227 11012
L7834 11012
L7834 10918
L7852 10862
L7890 10825
L7927 10806
L8002 10787
L8058 10787
L8133 10806
L8171 10825
L8208 10862
L8227 10918
L8227 11012
" />
<path d="M7965 10450
L8227 10450
" />
<path d="M7815 10543
L8096 10637
L8096 10393
" />
</g>
<g style="fill:#000000; fill-opacity:0.0; 
stroke:#000000; stroke-width:59.0551; stroke-opacity:1; 
stroke-linecap:round; stroke-linejoin:round;">
</g>
<g style="fill:#C2C2C2; fill-opacity:0.0; 
stroke:#C2C2C2; stroke-width:59.0551; stroke-opacity:1; 
stroke-linecap:round; stroke-linejoin:round;">
</g>
<g style="fill:#C2C2C2; fill-opacity:0.0; 
stroke:#C2C2C2; stroke-width:118.11; stroke-opacity:1; 
stroke-linecap:round; stroke-linejoin:round;">
<path d="M15957 5506
L15957 5618
L15985 5674
L16013 5703
L16098 5759
L16210 5787
L16435 5787
L16492 5759
L16520 5731
L16548 5674
L16548 5562
L16520 5506
L16492 5478
L16435 5449
L16295 5449
L16238 5478
L16210 5506
L16182 5562
L16182 5674
L16210 5731
L16238 5759
L16295 5787
" />
<path d="M16520 5168
L16548 5168
L16604 5196
L16632 5224
" />
<path d="M15957 4803
L15957 4746
L15985 4690
L16013 4662
L16070 4634
L16182 4606
L16323 4606
L16435 4634
L16492 4662
L16520 4690
L16548 4746
L16548 4803
L16520 4859
L16492 4887
L16435 4915
L16323 4943
L16182 4943
L16070 4915
L16013 4887
L15985 4859
L15957 4803
" />
<path d="M16548 4325
L16548 4212
L16520 4156
L16492 4128
L16407 4071
L16295 4043
L16070 4043
L16013 4071
L15985 4100
L15957 4156
L15957 4268
L15985 4325
L16013 4353
L16070 4381
L16210 4381
L16267 4353
L16295 4325
L16323 4268
L16323 4156
L16295 4100
L16267 4071
L16210 4043
" />
<path d="M15957 3537
L15957 3650
L15985 3706
L16013 3734
L16098 3790
L16210 3818
L16435 3818
L16492 3790
L16520 3762
L16548 3706
L16548 3593
L16520 3537
L16492 3509
L16435 3481
L16295 3481
L16238 3509
L16210 3537
L16182 3593
L16182 3706
L16210 3762
L16238 3790
L16295 3818
" />
<path d="M16548 2778
L16154 2778
" />
<path d="M16210 2778
L16182 2750
L16154 2694
L16154 2609
L16182 2553
L16238 2525
L16548 2525
" />
<path d="M16238 2525
L16182 2497
L16154 2440
L16154 2356
L16182 2300
L16238 2272
L16548 2272
" />
<path d="M16548 1991
L16154 1991
" />
<path d="M16210 1991
L16182 1962
L16154 1906
L16154 1822
L16182 1766
L16238 1737
L16548 1737
" />
<path d="M16238 1737
L16182 1709
L16154 1653
L16154 1569
L16182 1512
L16238 1484
L16548 1484
" />
<path d="M15749 4822
L15749 2422
" />
<path d="M14949 4822
L16812 4822
" />
<path d="M14949 2422
L16812 2422
" />
<path d="M15749 2422
L15980 2865
" />
<path d="M15749 2422
L15518 2865
" />
<path d="M15749 4822
L15980 4378
" />
<path d="M15749 4822
L15518 4378
" />
<path d="M15957 16715
L15957 16321
L16548 16574
" />
<path d="M16520 16068
L16548 16068
L16604 16096
L16632 16124
" />
<path d="M15957 15562
L15957 15675
L15985 15731
L16013 15759
L16098 15815
L16210 15843
L16435 15843
L16492 15815
L16520 15787
L16548 15731
L16548 15618
L16520 15562
L16492 15534
L16435 15506
L16295 15506
L16238 15534
L16210 15562
L16182 15618
L16182 15731
L16210 15787
L16238 15815
L16295 15843
" />
<path d="M16013 15281
L15985 15253
L15957 15196
L15957 15056
L15985 15000
L16013 14971
L16070 14943
L16126 14943
L16210 14971
L16548 15309
L16548 14943
" />
<path d="M15957 14578
L15957 14522
L15985 14465
L16013 14437
L16070 14409
L16182 14381
L16323 14381
L16435 14409
L16492 14437
L16520 14465
L16548 14522
L16548 14578
L16520 14634
L16492 14662
L16435 14690
L16323 14718
L16182 14718
L16070 14690
L16013 14662
L15985 14634
L15957 14578
" />
<path d="M16548 13678
L16154 13678
" />
<path d="M16210 13678
L16182 13650
L16154 13594
L16154 13509
L16182 13453
L16238 13425
L16548 13425
" />
<path d="M16238 13425
L16182 13397
L16154 13340
L16154 13256
L16182 13200
L16238 13172
L16548 13172
" />
<path d="M16548 12891
L16154 12891
" />
<path d="M16210 12891
L16182 12862
L16154 12806
L16154 12722
L16182 12666
L16238 12637
L16548 12637
" />
<path d="M16238 12637
L16182 12609
L16154 12553
L16154 12469
L16182 12412
L16238 12384
L16548 12384
" />
<path d="M15749 16022
L15749 13022
" />
<path d="M14749 16022
L16812 16022
" />
<path d="M14749 13022
L16812 13022
" />
<path d="M15749 13022
L15980 13465
" />
<path d="M15749 13022
L15518 13465
" />
<path d="M15749 16022
L15980 15578
" />
<path d="M15749 16022
L15518 15578
" />
<path d="M12571 19420
L12234 19420
" />
<path d="M12402 19420
L12402 18830
L12346 18914
L12290 18970
L12234 18998
" />
<path d="M12852 19392
L12852 19420
L12824 19476
L12796 19505
" />
<path d="M13049 18830
L13443 18830
L13190 19420
" />
<path d="M13612 18830
L14005 18830
L13752 19420
" />
<path d="M14315 19083
L14258 19055
L14230 19026
L14202 18970
L14202 18942
L14230 18886
L14258 18858
L14315 18830
L14427 18830
L14483 18858
L14512 18886
L14540 18942
L14540 18970
L14512 19026
L14483 19055
L14427 19083
L14315 19083
L14258 19111
L14230 19139
L14202 19195
L14202 19308
L14230 19364
L14258 19392
L14315 19420
L14427 19420
L14483 19392
L14512 19364
L14540 19308
L14540 19195
L14512 19139
L14483 19111
L14427 19083
" />
<path d="M15243 19420
L15243 19026
" />
<path d="M15243 19083
L15271 19055
L15327 19026
L15411 19026
L15468 19055
L15496 19111
L15496 19420
" />
<path d="M15496 19111
L15524 19055
L15580 19026
L15665 19026
L15721 19055
L15749 19111
L15749 19420
" />
<path d="M16030 19420
L16030 19026
" />
<path d="M16030 19083
L16058 19055
L16115 19026
L16199 19026
L16255 19055
L16283 19111
L16283 19420
" />
<path d="M16283 19111
L16311 19055
L16368 19026
L16452 19026
L16508 19055
L16536 19111
L16536 19420
" />
<path d="M14049 18622
L14749 18622
" />
<path d="M14049 16222
L14049 19685
" />
<path d="M14749 16222
L14749 19685
" />
<path d="M14749 18622
L14306 18852
" />
<path d="M14749 18622
L14306 18391
" />
<path d="M14049 18622
L14493 18852
" />
<path d="M14049 18622
L14493 18391
" />
<path d="M11043 16830
L10762 16830
L10734 17111
L10762 17083
L10818 17055
L10959 17055
L11015 17083
L11043 17111
L11071 17167
L11071 17308
L11043 17364
L11015 17392
L10959 17420
L10818 17420
L10762 17392
L10734 17364
" />
<path d="M11352 17392
L11352 17420
L11324 17476
L11296 17505
" />
<path d="M11690 17083
L11634 17055
L11606 17026
L11577 16970
L11577 16942
L11606 16886
L11634 16858
L11690 16830
L11802 16830
L11859 16858
L11887 16886
L11915 16942
L11915 16970
L11887 17026
L11859 17055
L11802 17083
L11690 17083
L11634 17111
L11606 17139
L11577 17195
L11577 17308
L11606 17364
L11634 17392
L11690 17420
L11802 17420
L11859 17392
L11887 17364
L11915 17308
L11915 17195
L11887 17139
L11859 17111
L11802 17083
" />
<path d="M12421 17026
L12421 17420
" />
<path d="M12280 16802
L12140 17223
L12505 17223
" />
<path d="M12702 16886
L12730 16858
L12787 16830
L12927 16830
L12983 16858
L13012 16886
L13040 16942
L13040 16998
L13012 17083
L12674 17420
L13040 17420
" />
<path d="M13743 17420
L13743 17026
" />
<path d="M13743 17083
L13771 17055
L13827 17026
L13911 17026
L13968 17055
L13996 17111
L13996 17420
" />
<path d="M13996 17111
L14024 17055
L14080 17026
L14165 17026
L14221 17055
L14249 17111
L14249 17420
" />
<path d="M14530 17420
L14530 17026
" />
<path d="M14530 17083
L14558 17055
L14615 17026
L14699 17026
L14755 17055
L14783 17111
L14783 17420
" />
<path d="M14783 17111
L14811 17055
L14868 17026
L14952 17026
L15008 17055
L15036 17111
L15036 17420
" />
<path d="M11749 16622
L14049 16622
" />
<path d="M11749 16222
L11749 17685
" />
<path d="M14049 16222
L14049 17685
" />
<path d="M14049 16622
L13606 16852
" />
<path d="M14049 16622
L13606 16391
" />
<path d="M11749 16622
L12193 16852
" />
<path d="M11749 16622
L12193 16391
" />
<path d="M7946 18183
L7890 18155
L7862 18126
L7834 18070
L7834 18042
L7862 17986
L7890 17958
L7946 17930
L8059 17930
L8115 17958
L8143 17986
L8171 18042
L8171 18070
L8143 18126
L8115 18155
L8059 18183
L7946 18183
L7890 18211
L7862 18239
L7834 18295
L7834 18408
L7862 18464
L7890 18492
L7946 18520
L8059 18520
L8115 18492
L8143 18464
L8171 18408
L8171 18295
L8143 18239
L8115 18211
L8059 18183
" />
<path d="M8452 18492
L8452 18520
L8424 18576
L8396 18605
" />
<path d="M8790 18183
L8734 18155
L8706 18126
L8677 18070
L8677 18042
L8706 17986
L8734 17958
L8790 17930
L8902 17930
L8959 17958
L8987 17986
L9015 18042
L9015 18070
L8987 18126
L8959 18155
L8902 18183
L8790 18183
L8734 18211
L8706 18239
L8677 18295
L8677 18408
L8706 18464
L8734 18492
L8790 18520
L8902 18520
L8959 18492
L8987 18464
L9015 18408
L9015 18295
L8987 18239
L8959 18211
L8902 18183
" />
<path d="M9296 18520
L9409 18520
L9465 18492
L9493 18464
L9549 18380
L9577 18267
L9577 18042
L9549 17986
L9521 17958
L9465 17930
L9352 17930
L9296 17958
L9268 17986
L9240 18042
L9240 18183
L9268 18239
L9296 18267
L9352 18295
L9465 18295
L9521 18267
L9549 18239
L9577 18183
" />
<path d="M9943 17930
L9999 17930
L10055 17958
L10083 17986
L10112 18042
L10140 18155
L10140 18295
L10112 18408
L10083 18464
L10055 18492
L9999 18520
L9943 18520
L9887 18492
L9858 18464
L9830 18408
L9802 18295
L9802 18155
L9830 18042
L9858 17986
L9887 17958
L9943 17930
" />
<path d="M10843 18520
L10843 18126
" />
<path d="M10843 18183
L10871 18155
L10927 18126
L11011 18126
L11068 18155
L11096 18211
L11096 18520
" />
<path d="M11096 18211
L11124 18155
L11180 18126
L11265 18126
L11321 18155
L11349 18211
L11349 18520
" />
<path d="M11630 18520
L11630 18126
" />
<path d="M11630 18183
L11658 18155
L11715 18126
L11799 18126
L11855 18155
L11883 18211
L11883 18520
" />
<path d="M11883 18211
L11911 18155
L11968 18126
L12052 18126
L12108 18155
L12136 18211
L12136 18520
" />
<path d="M8249 17722
L11749 17722
" />
<path d="M8249 16222
L8249 18785
" />
<path d="M11749 16222
L11749 18785
" />
<path d="M11749 17722
L11306 17952
" />
<path d="M11749 17722
L11306 17491
" />
<path d="M8249 17722
L8693 17952
" />
<path d="M8249 17722
L8693 17491
" />
<path d="M4340 17420
L4452 17420
L4509 17392
L4537 17364
L4593 17280
L4621 17167
L4621 16942
L4593 16886
L4565 16858
L4509 16830
L4396 16830
L4340 16858
L4312 16886
L4284 16942
L4284 17083
L4312 17139
L4340 17167
L4396 17195
L4509 17195
L4565 17167
L4593 17139
L4621 17083
" />
<path d="M4902 17392
L4902 17420
L4874 17476
L4846 17505
" />
<path d="M5465 17420
L5127 17420
" />
<path d="M5296 17420
L5296 16830
L5240 16914
L5184 16970
L5127 16998
" />
<path d="M5971 17026
L5971 17420
" />
<path d="M5830 16802
L5690 17223
L6055 17223
" />
<path d="M6533 17026
L6533 17420
" />
<path d="M6393 16802
L6252 17223
L6618 17223
" />
<path d="M7293 17420
L7293 17026
" />
<path d="M7293 17083
L7321 17055
L7377 17026
L7461 17026
L7518 17055
L7546 17111
L7546 17420
" />
<path d="M7546 17111
L7574 17055
L7630 17026
L7715 17026
L7771 17055
L7799 17111
L7799 17420
" />
<path d="M8080 17420
L8080 17026
" />
<path d="M8080 17083
L8108 17055
L8165 17026
L8249 17026
L8305 17055
L8333 17111
L8333 17420
" />
<path d="M8333 17111
L8361 17055
L8418 17026
L8502 17026
L8558 17055
L8586 17111
L8586 17420
" />
<path d="M4649 16622
L8249 16622
" />
<path d="M4649 16222
L4649 17685
" />
<path d="M8249 16222
L8249 17685
" />
<path d="M8249 16622
L7806 16852
" />
<path d="M8249 16622
L7806 16391
" />
<path d="M4649 16622
L5093 16852
" />
<path d="M4649 16622
L5093 16391
" />
<path d="M7253 323
L7281 295
L7337 267
L7478 267
L7534 295
L7562 323
L7590 379
L7590 435
L7562 520
L7224 857
L7590 857
" />
<path d="M8124 267
L7843 267
L7815 548
L7843 520
L7899 492
L8040 492
L8096 520
L8124 548
L8152 604
L8152 745
L8124 801
L8096 829
L8040 857
L7899 857
L7843 829
L7815 801
" />
<path d="M8434 829
L8434 857
L8406 913
L8377 942
" />
<path d="M8940 267
L8827 267
L8771 295
L8743 323
L8687 407
L8659 520
L8659 745
L8687 801
L8715 829
L8771 857
L8884 857
L8940 829
L8968 801
L8996 745
L8996 604
L8968 548
L8940 520
L8884 492
L8771 492
L8715 520
L8687 548
L8659 604
" />
<path d="M9530 267
L9249 267
L9221 548
L9249 520
L9305 492
L9446 492
L9502 520
L9530 548
L9558 604
L9558 745
L9530 801
L9502 829
L9446 857
L9305 857
L9249 829
L9221 801
" />
<path d="M10065 464
L10065 857
" />
<path d="M9924 239
L9783 660
L10149 660
" />
<path d="M10824 857
L10824 464
" />
<path d="M10824 520
L10852 492
L10908 464
L10993 464
L11049 492
L11077 548
L11077 857
" />
<path d="M11077 548
L11105 492
L11161 464
L11246 464
L11302 492
L11330 548
L11330 857
" />
<path d="M11611 857
L11611 464
" />
<path d="M11611 520
L11639 492
L11696 464
L11780 464
L11836 492
L11864 548
L11864 857
" />
<path d="M11864 548
L11893 492
L11949 464
L12033 464
L12089 492
L12118 548
L12118 857
" />
<path d="M4649 1122
L14749 1122
" />
<path d="M4649 2322
L4649 59
" />
<path d="M14749 2322
L14749 59
" />
<path d="M14749 1122
L14306 1352
" />
<path d="M14749 1122
L14306 891
" />
<path d="M4649 1122
L5093 1352
" />
<path d="M4649 1122
L5093 891
" />
<path d="M2294 11746
L2294 11381
L2519 11578
L2519 11493
L2547 11437
L2575 11409
L2632 11381
L2772 11381
L2829 11409
L2857 11437
L2885 11493
L2885 11662
L2857 11718
L2829 11746
" />
<path d="M2491 10874
L2885 10874
" />
<path d="M2266 11015
L2688 11156
L2688 10790
" />
<path d="M2857 10537
L2885 10537
L2941 10565
L2969 10593
" />
<path d="M2350 10312
L2322 10284
L2294 10228
L2294 10087
L2322 10031
L2350 10003
L2407 9975
L2463 9975
L2547 10003
L2885 10340
L2885 9975
" />
<path d="M2885 9693
L2885 9581
L2857 9525
L2829 9497
L2744 9440
L2632 9412
L2407 9412
L2350 9440
L2322 9468
L2294 9525
L2294 9637
L2322 9693
L2350 9721
L2407 9750
L2547 9750
L2604 9721
L2632 9693
L2660 9637
L2660 9525
L2632 9468
L2604 9440
L2547 9412
" />
<path d="M2294 9047
L2294 8990
L2322 8934
L2350 8906
L2407 8878
L2519 8850
L2660 8850
L2772 8878
L2829 8906
L2857 8934
L2885 8990
L2885 9047
L2857 9103
L2829 9131
L2772 9159
L2660 9187
L2519 9187
L2407 9159
L2350 9131
L2322 9103
L2294 9047
" />
<path d="M2885 8147
L2491 8147
" />
<path d="M2547 8147
L2519 8119
L2491 8062
L2491 7978
L2519 7922
L2575 7894
L2885 7894
" />
<path d="M2575 7894
L2519 7865
L2491 7809
L2491 7725
L2519 7669
L2575 7641
L2885 7641
" />
<path d="M2885 7359
L2491 7359
" />
<path d="M2547 7359
L2519 7331
L2491 7275
L2491 7191
L2519 7134
L2575 7106
L2885 7106
" />
<path d="M2575 7106
L2519 7078
L2491 7022
L2491 6937
L2519 6881
L2575 6853
L2885 6853
" />
<path d="M3149 16022
L3149 2522
" />
<path d="M5449 16022
L2086 16022
" />
<path d="M5449 2522
L2086 2522
" />
<path d="M3149 2522
L3380 2965
" />
<path d="M3149 2522
L2918 2965
" />
<path d="M3149 16022
L3380 15578
" />
<path d="M3149 16022
L2918 15578
" />
</g>
<g style="fill:#C2C2C2; fill-opacity:0.0; 
stroke:#C2C2C2; stroke-width:39.3701; stroke-opacity:1; 
stroke-linecap:round; stroke-linejoin:round;">
<path d="M14286 14994
L14043 14994
" />
<path d="M14286 14210
L14286 14994
" />
<path d="M14029 14210
L14286 14210
" />
<path d="M14036 15786
L14015 13390
" />
<path d="M13418 15786
L14036 15786
" />
<path d="M13210 15592
L13418 15786
" />
<path d="M12703 15592
L13210 15592
" />
<path d="M12703 13599
L12703 15592
" />
<path d="M13196 13599
L12703 13599
" />
<path d="M13404 13390
L13196 13599
" />
<path d="M14015 13390
L13404 13390
" />
<path d="M8533 15935
L8533 13646
" />
<path d="M11344 15935
L8533 15935
" />
<path d="M11344 13646
L11344 15935
" />
<path d="M8533 13646
L11344 13646
" />
</g>
<g style="fill:#C2C2C2; fill-opacity:0.0; 
stroke:#C2C2C2; stroke-width:50; stroke-opacity:1; 
stroke-linecap:round; stroke-linejoin:round;">
<path d="M9233 6837
L7265 6837
" />
<path d="M7265 6837
L7265 8806
" />
<path d="M7265 8806
L9233 8806
" />
<path d="M9233 8806
L9233 6837
" />
<path d="M12033 8137
L10065 8137
" />
<path d="M10065 8137
L10065 10106
" />
<path d="M10065 10106
L12033 10106
" />
<path d="M12033 10106
L12033 8137
" />
<path d="M12033 5537
L10065 5537
" />
<path d="M10065 5537
L10065 7506
" />
<path d="M10065 7506
L12033 7506
" />
<path d="M12033 7506
L12033 5537
" />
</g>
<g style="fill:#000000; fill-opacity:0.0; 
stroke:#000000; stroke-width:50; stroke-opacity:1; 
stroke-linecap:round; stroke-linejoin:round;">
</g>
<g style="fill:#C2C200; fill-opacity:0.0; 
stroke:#C2C200; stroke-width:50; stroke-opacity:1; 
stroke-linecap:round; stroke-linejoin:round;">
</g>
<g style="fill:#C2C200; fill-opacity:0.0; 
stroke:#C2C200; stroke-width:39.3701; stroke-opacity:1; 
stroke-linecap:round; stroke-linejoin:round;">
<path d="M14011 13359
L14025 16031
" />
<path d="M14776 12981
L14011 13359
" />
<path d="M14766 4101
L14776 12981
" />
<path d="M14721 3750
L14766 4101
" />
<path d="M14631 3452
L14721 3750
" />
<path d="M14502 3204
L14631 3452
" />
<path d="M14339 2998
L14502 3204
" />
<path d="M14148 2829
L14339 2998
" />
<path d="M13934 2691
L14148 2829
" />
<path d="M13703 2579
L13934 2691
" />
<path d="M13459 2487
L13703 2579
" />
<path d="M5963 2498
L13459 2487
" />
<path d="M5728 2571
L5963 2498
" />
<path d="M5514 2669
L5728 2571
" />
<path d="M5321 2790
L5514 2669
" />
<path d="M5148 2935
L5321 2790
" />
<path d="M4996 3103
L5148 2935
" />
<path d="M4864 3294
L4996 3103
" />
<path d="M4752 3509
L4864 3294
" />
<path d="M4661 3746
L4752 3509
" />
<path d="M4655 16018
L4661 3746
" />
<path d="M8230 16028
L4655 16018
" />
<path d="M8230 15555
L8230 16028
" />
<path d="M11707 15552
L8230 15555
" />
<path d="M11703 16031
L11707 15552
" />
<path d="M14025 16031
L11703 16031
" />
</g> 
</svg>
